<?xml version="1.0" encoding="UTF-8"?>
<svg preserveAspectRatio="xMinYMin meet"  width="506px" height="579px" viewBox="0 0 506 579" version="1.1" xmlns="http://www.w3.org/2000/svg" xmlns:xlink="http://www.w3.org/1999/xlink">
    <!-- Generator: sketchtool 51.1 (57501) - http://www.bohemiancoding.com/sketch -->
    <title>4C9771D5-EFD4-4521-BA12-D0FDB2C27009</title>
    <desc>Created with sketchtool.</desc>
    <defs>
        <filter x="-5.6%" y="-4.9%" width="122.4%" height="113.5%" filterUnits="objectBoundingBox" id="filter-1">
            <feOffset dx="39" dy="10" in="SourceAlpha" result="shadowOffsetOuter1"></feOffset>
            <feGaussianBlur stdDeviation="6" in="shadowOffsetOuter1" result="shadowBlurOuter1"></feGaussianBlur>
            <feColorMatrix values="0 0 0 0 0   0 0 0 0 0   0 0 0 0 0  0 0 0 0.5 0" type="matrix" in="shadowBlurOuter1" result="shadowMatrixOuter1"></feColorMatrix>
            <feMerge>
                <feMergeNode in="shadowMatrixOuter1"></feMergeNode>
                <feMergeNode in="SourceGraphic"></feMergeNode>
            </feMerge>
        </filter>
        <polygon id="path-2" points="0.00163800418 0.450763689 310.986928 0.450763689 310.986928 555.967741 0.00163800418 555.967741"></polygon>
        <polygon id="path-4" points="0.0409237273 0.134676855 244.955968 0.134676855 244.955968 243.90088 0.0409237273 243.90088"></polygon>
    </defs>
    <g id="Page-2" stroke="none" stroke-width="1" fill="none" fill-rule="evenodd">
        <g id="ABOUT" transform="translate(-389.000000, -1294.000000)">
            <g id="num01_enter_logo" filter="url(#filter-1)" transform="translate(389.000000, 1295.000000)">
                <g id="Group-14">
                    <mask id="mask-3" fill="white">
                        <use xlink:href="#path-2"></use>
                    </mask>
                    <g id="Clip-13"></g>
                    <path d="M302.85765,8.61051632 C291.784412,-2.50841037 274.017147,-2.14656996 262.937801,8.97848963 L35.7318072,237.121939 C34.638531,238.219726 33.4475319,239.231652 32.3420403,240.335572 C31.2365488,241.445625 30.234888,242.641538 29.1416118,243.739325 L27.8162435,245.076295 C27.3398438,245.548527 19.1982957,254.502544 12.9318078,267.33868 C9.52371792,274.32404 6.78747369,281.634443 4.6925367,289.122699 C-0.505105799,307.644022 -1.97095092,326.931957 3.3183069,345.238628 C8.42433407,362.913613 18.8440498,385.813818 31.9816867,399.011794 C33.8628546,400.894591 35.5302535,402.967507 37.3747753,404.819639 L170.455189,538.449145 C184.21581,550.0955 211.999683,566.280193 246.019505,547.096518 C247.906781,538.209962 245.482029,528.673321 238.537588,521.700227 L91.8431369,374.400513 C64.2730333,346.710522 60.1564515,303.160881 80.702714,271.404785 L302.497296,48.695075 C313.570535,37.5700154 313.936996,19.7355759 302.85765,8.61051632" id="Fill-12" fill="#FFFFFF" mask="url(#mask-3)"></path>
                </g>
                <path d="M340.756376,451.756142 C329.758812,462.747953 311.76721,462.747953 300.775712,451.756142 L197.248173,348.231726 C186.250609,337.233849 186.250609,319.241735 197.248173,308.243858 C208.245737,297.252047 226.23734,297.252047 237.228838,308.243858 L340.756376,411.77434 C351.747875,422.772217 351.747875,440.764331 340.756376,451.756142" id="Fill-1" fill="#FFFFFF"></path>
                <path d="M261.65161,537.051751 L318,480.68316 C307.641174,480.393099 297.37295,476.344326 289.484538,468.45224 L270.041353,449 L197.197364,521.877916 C189.556597,529.522242 187.267387,540.556659 190.287453,550.249543 C208.051481,558.413562 233.202589,560.885126 261.65161,537.051751" id="Fill-3" fill="#FFFFFF"></path>
                <path d="M184.285311,363.073684 C176.516721,355.300643 172.478263,345.210812 172.079253,335 L93.2204991,413.909979 C82.2598336,424.870874 82.2598336,442.812384 93.2204991,453.779328 C104.175119,464.740224 122.106357,464.740224 133.060977,453.779328 L204,382.799667 L184.285311,363.073684 Z" id="Fill-5" fill="#FFFFFF"></path>
                <g id="Group-9" transform="translate(210.000000, 218.000000)">
                    <mask id="mask-5" fill="white">
                        <use xlink:href="#path-4"></use>
                    </mask>
                    <g id="Clip-8"></g>
                    <path d="M170.639766,26.6321781 C143.963096,0.135429177 104.201834,-5.64612135 70.2002381,5.5343771 C56.7732457,9.05067727 41.6770508,18.4882083 29.8886896,30.1909897 C14.2360937,45.7380163 4.78950758,64.9045851 1.24933063,85.03677 C1.38384512,85.0064047 1.52447392,85.0003316 1.65898841,84.9699663 C-3.39753376,114.345344 3.0897335,146.769397 25.4741684,169.00286 C27.3267998,170.842996 28.9532024,172.919982 30.8364053,174.790484 C32.7624083,176.70957 34.9024116,178.367514 36.7917289,180.244089 L92.3951298,235.472472 C103.474233,246.476852 121.260718,246.823016 132.339821,235.818636 C142.10435,226.119964 142.984809,211.259193 135.482568,200.333762 C135.623197,200.291251 135.76994,200.254813 135.916683,200.206228 C135.146282,199.441023 134.363652,198.663672 133.587137,197.88632 C133.073536,197.291161 132.553821,196.702074 131.991306,196.13728 L75.7153324,140.240861 C62.3372544,121.335433 62.7163407,96.0958073 79.4939669,79.425265 C96.375536,62.6575539 121.884376,62.4875083 141.058806,75.9150379 L196.955693,131.428855 C197.255293,131.732507 200.929985,135.382415 200.887185,135.339903 C200.899413,135.35205 200.911642,135.358123 200.917756,135.370269 C200.954442,135.400634 200.997242,135.437072 201.052271,135.473511 C212.100802,142.68223 227.031911,141.613372 236.729183,131.981503 C247.814401,120.964977 247.6432,103.116262 236.551869,92.0997356 L179.921266,35.8510791 C206.249422,62.0016637 206.231079,61.9834445 179.921266,35.8510791 C178.398807,34.3388878 177.029205,32.6566509 175.488402,31.1201674 C173.910914,29.5533186 172.186683,28.1686616 170.639766,26.6321781" id="Fill-7" fill="#FFFFFF" mask="url(#mask-5)"></path>
                </g>
                <path d="M275.390398,212.872726 C299.298594,204.972301 323.907463,204.830893 346,211.667681 L253.182097,118 L213,158.553464 L268.93811,215 C271.113244,214.182291 273.270099,213.450656 275.390398,212.872726" id="Fill-10" fill="#FFFFFF"></path>
                <path d="M192,478 C192,478 216.085576,504.717526 242.505658,478 L258,496.023224 L225.743653,525 L196.035181,512.980286 L192,478 Z" id="Fill-15" fill="#FFFFFF"></path>
            </g>
        </g>
    </g>
</svg>
