<?xml version="1.0" encoding="UTF-8"?>
<svg preserveAspectRatio="xMinYMin meet"  width="540px" height="112px" viewBox="0 0 540 112" version="1.1" xmlns="http://www.w3.org/2000/svg" xmlns:xlink="http://www.w3.org/1999/xlink">
    <!-- Generator: sketchtool 51.3 (57544) - http://www.bohemiancoding.com/sketch -->
    <title>5705EB98-D54E-44EE-BE8F-6E3F31B78FEE</title>
    <desc>Created with sketchtool.</desc>
    <defs></defs>
    <g id="Page-2" stroke="none" stroke-width="1" fill="none" fill-rule="evenodd">
        <g id="ABOUT" transform="translate(-944.000000, -1334.000000)">
            <g id="ENTERTAINMENTDESIGN" transform="translate(944.000000, 1335.000000)">
                <path d="M29.892,8.188 L18.475,8.188 L18.475,14.362 L29.255,14.362 L29.255,22.496 L18.475,22.496 L18.475,28.866 L29.892,28.866 L29.892,37 L8.871,37 L8.871,0.054 L29.892,0.054 L29.892,8.188 Z M44.9410003,37 L44.9410003,0.054 L54.5450003,0.054 L72.2830003,22.643 L72.2830003,0.054 L81.8380003,0.054 L81.8380003,37 L72.2830003,37 L54.5450003,14.411 L54.5450003,37 L44.9410003,37 Z M111.734001,8.188 L111.734001,37 L102.130001,37 L102.130001,8.188 L94.2410007,8.188 L94.2410007,0.054 L119.623001,0.054 L119.623001,8.188 L111.734001,8.188 Z M153.047001,8.188 L141.630001,8.188 L141.630001,14.362 L152.410001,14.362 L152.410001,22.496 L141.630001,22.496 L141.630001,28.866 L153.047001,28.866 L153.047001,37 L132.026001,37 L132.026001,0.054 L153.047001,0.054 L153.047001,8.188 Z M177.700001,16.567 L179.513001,16.567 C181.407678,16.567 182.86133,16.1750039 183.874001,15.391 C184.886673,14.6069961 185.393001,13.4800073 185.393001,12.01 C185.393001,10.5399926 184.886673,9.41300392 183.874001,8.629 C182.86133,7.84499608 181.407678,7.453 179.513001,7.453 L177.700001,7.453 L177.700001,16.567 Z M198.819001,37 L186.863001,37 L177.700001,22.79 L177.700001,37 L168.096001,37 L168.096001,0.054 L183.041001,0.054 C185.099012,0.054 186.89566,0.356163645 188.431001,0.9605 C189.966342,1.56483635 191.232163,2.38966144 192.228501,3.435 C193.22484,4.48033856 193.976166,5.68899314 194.482501,7.061 C194.988837,8.43300686 195.242001,9.90299216 195.242001,11.471 C195.242001,14.2803474 194.564175,16.5588246 193.208501,18.3065 C191.852828,20.0541754 189.852015,21.2383302 187.206001,21.859 L198.819001,37 Z M225.040002,8.188 L225.040002,37 L215.436002,37 L215.436002,8.188 L207.547002,8.188 L207.547002,0.054 L232.929002,0.054 L232.929002,8.188 L225.040002,8.188 Z M263.707002,23.28 L259.395002,10.981 L255.083002,23.28 L263.707002,23.28 Z M266.255002,30.581 L252.535002,30.581 L250.330002,37 L240.089002,37 L254.152002,0.054 L264.638002,0.054 L278.701002,37 L268.460002,37 L266.255002,30.581 Z M300.659002,0.054 L300.659002,37 L291.055002,37 L291.055002,0.054 L300.659002,0.054 Z M316.541003,37 L316.541003,0.054 L326.145003,0.054 L343.883003,22.643 L343.883003,0.054 L353.438003,0.054 L353.438003,37 L343.883003,37 L326.145003,14.411 L326.145003,37 L316.541003,37 Z M367.654003,37 L373.926003,0.054 L383.432003,0.054 L390.831003,19.752 L398.181003,0.054 L407.687003,0.054 L413.959003,37 L404.404003,37 L401.219003,15.734 L392.497003,37 L388.675003,37 L380.394003,15.734 L377.209003,37 L367.654003,37 Z M449.196003,8.188 L437.779003,8.188 L437.779003,14.362 L448.559003,14.362 L448.559003,22.496 L437.779003,22.496 L437.779003,28.866 L449.196003,28.866 L449.196003,37 L428.175003,37 L428.175003,0.054 L449.196003,0.054 L449.196003,8.188 Z M464.245004,37 L464.245004,0.054 L473.849004,0.054 L491.587004,22.643 L491.587004,0.054 L501.142004,0.054 L501.142004,37 L491.587004,37 L473.849004,14.411 L473.849004,37 L464.245004,37 Z M531.038004,8.188 L531.038004,37 L521.434004,37 L521.434004,8.188 L513.545004,8.188 L513.545004,0.054 L538.927004,0.054 L538.927004,8.188 L531.038004,8.188 Z M18.475,100.866 L20.68,100.866 C22.3460083,100.866 23.8323268,100.604669 25.139,100.082 C26.4456732,99.5593307 27.5481622,98.8406712 28.4465,97.926 C29.3448378,97.0113288 30.030831,95.925173 30.5045,94.6675 C30.978169,93.409827 31.215,92.0296742 31.215,90.527 C31.215,89.0569926 30.9700025,87.6850064 30.48,86.411 C29.9899976,85.1369936 29.2958378,84.0426712 28.3975,83.128 C27.4991622,82.2133288 26.3966732,81.4946693 25.09,80.972 C23.7833268,80.4493307 22.3133415,80.188 20.68,80.188 L18.475,80.188 L18.475,100.866 Z M8.871,72.054 L23.081,72.054 C25.5963459,72.054 27.956489,72.5603283 30.1615,73.573 C32.366511,74.5856717 34.2938251,75.9331583 35.9435,77.6155 C37.5931749,79.2978417 38.8916619,81.2578221 39.839,83.4955 C40.7863381,85.7331779 41.26,88.0769877 41.26,90.527 C41.26,92.9443454 40.7945047,95.2718221 39.8635,97.5095 C38.9324953,99.7471779 37.6421749,101.715325 35.9925,103.414 C34.3428251,105.112675 32.415511,106.468328 30.2105,107.481 C28.005489,108.493672 25.6290127,109 23.081,109 L8.871,109 L8.871,72.054 Z M76.5460003,80.188 L65.1290003,80.188 L65.1290003,86.362 L75.9090003,86.362 L75.9090003,94.496 L65.1290003,94.496 L65.1290003,100.866 L76.5460003,100.866 L76.5460003,109 L55.5250003,109 L55.5250003,72.054 L76.5460003,72.054 L76.5460003,80.188 Z M111.881001,81.511 C110.835662,80.6616624 109.790339,80.0328354 108.745001,79.6245 C107.699662,79.2161646 106.687006,79.012 105.707001,79.012 C104.465661,79.012 103.453005,79.3059971 102.669001,79.894 C101.884997,80.4820029 101.493001,81.2496619 101.493001,82.197 C101.493001,82.8503366 101.688999,83.3893312 102.081001,83.814 C102.473003,84.2386688 102.987498,84.6061651 103.624501,84.9165 C104.261504,85.2268349 104.980163,85.4963322 105.780501,85.725 C106.580838,85.9536678 107.372997,86.1986654 108.157001,86.46 C111.293016,87.5053386 113.587827,88.9018246 115.041501,90.6495 C116.495175,92.3971754 117.222001,94.6756526 117.222001,97.485 C117.222001,99.3796761 116.903504,101.094659 116.266501,102.63 C115.629498,104.165341 114.698507,105.480161 113.473501,106.5745 C112.248495,107.668839 110.745843,108.518164 108.965501,109.1225 C107.185158,109.726836 105.168012,110.029 102.914001,110.029 C98.242644,110.029 93.9143539,108.640681 89.9290007,105.864 L94.0450007,98.122 C95.4823412,99.3960064 96.903327,100.34333 98.3080007,100.964 C99.7126744,101.58467 101.100994,101.895 102.473001,101.895 C104.041009,101.895 105.20883,101.53567 105.976501,100.817 C106.744171,100.09833 107.128001,99.2816712 107.128001,98.367 C107.128001,97.8116639 107.030002,97.3298354 106.834001,96.9215 C106.638,96.5131646 106.311336,96.1375017 105.854001,95.7945 C105.396665,95.4514983 104.800504,95.1330015 104.065501,94.839 C103.330497,94.5449985 102.440339,94.2183351 101.395001,93.859 C100.153661,93.466998 98.93684,93.034169 97.7445007,92.5605 C96.5521614,92.086831 95.4905053,91.4580039 94.5595007,90.674 C93.628496,89.8899961 92.8771702,88.9018393 92.3055007,87.7095 C91.7338312,86.5171607 91.4480007,85.0063425 91.4480007,83.177 C91.4480007,81.3476575 91.7501643,79.6898408 92.3545007,78.2035 C92.958837,76.7171592 93.8081619,75.443172 94.9025007,74.3815 C95.9968395,73.319828 97.3361594,72.4950029 98.9205007,71.907 C100.504842,71.3189971 102.276991,71.025 104.237001,71.025 C106.066343,71.025 107.977324,71.2781641 109.970001,71.7845 C111.962677,72.2908359 113.873658,73.0339951 115.703001,74.014 L111.881001,81.511 Z M140.993001,72.054 L140.993001,109 L131.389001,109 L131.389001,72.054 L140.993001,72.054 Z M174.858001,88.322 L193.919001,88.322 C193.919001,90.2820098 193.837336,92.0623253 193.674001,93.663 C193.510667,95.2636747 193.184004,96.7499931 192.694001,98.122 C192.007998,100.049343 191.077007,101.756159 189.901001,103.2425 C188.724995,104.728841 187.344843,105.970162 185.760501,106.9665 C184.17616,107.962838 182.436678,108.722331 180.542001,109.245 C178.647325,109.767669 176.654678,110.029 174.564001,110.029 C171.68932,110.029 169.067847,109.555338 166.699501,108.608 C164.331156,107.660662 162.297677,106.329509 160.599001,104.6145 C158.900326,102.899491 157.577339,100.841512 156.630001,98.4405 C155.682663,96.039488 155.209001,93.3853479 155.209001,90.478 C155.209001,87.603319 155.674497,84.965512 156.605501,82.5645 C157.536506,80.163488 158.859493,78.1136752 160.574501,76.415 C162.28951,74.7163248 164.355656,73.3933381 166.773001,72.446 C169.190347,71.4986619 171.88532,71.025 174.858001,71.025 C178.712687,71.025 182.093654,71.8579917 185.001001,73.524 C187.908349,75.1900083 190.211326,77.7706492 191.910001,81.266 L182.796001,85.039 C181.946664,83.0136565 180.844175,81.5600044 179.488501,80.678 C178.132828,79.7959956 176.589343,79.355 174.858001,79.355 C173.420661,79.355 172.114007,79.6244973 170.938001,80.1635 C169.761995,80.7025027 168.757506,81.4701617 167.924501,82.4665 C167.091497,83.4628383 166.43817,84.6633263 165.964501,86.068 C165.490832,87.4726737 165.254001,89.040658 165.254001,90.772 C165.254001,92.3400078 165.458166,93.79366 165.866501,95.133 C166.274837,96.47234 166.887331,97.6319951 167.704001,98.612 C168.520672,99.5920049 169.533329,100.351497 170.742001,100.8905 C171.950674,101.429503 173.355327,101.699 174.956001,101.699 C175.903339,101.699 176.817997,101.592834 177.700001,101.3805 C178.582006,101.168166 179.374165,100.825169 180.076501,100.3515 C180.778838,99.877831 181.358666,99.2653371 181.816001,98.514 C182.273337,97.7626629 182.583667,96.8480054 182.747001,95.77 L174.858001,95.77 L174.858001,88.322 Z M208.135002,109 L208.135002,72.054 L217.739002,72.054 L235.477002,94.643 L235.477002,72.054 L245.032002,72.054 L245.032002,109 L235.477002,109 L217.739002,86.411 L217.739002,109 L208.135002,109 Z" id="01_ENTERTAINMENTDESIGN" stroke="#000000" fill="#6C35B7"></path>
                <path d="M21.892,8.188 L10.475,8.188 L10.475,14.362 L21.255,14.362 L21.255,22.496 L10.475,22.496 L10.475,28.866 L21.892,28.866 L21.892,37 L0.871,37 L0.871,0.054 L21.892,0.054 L21.892,8.188 Z M36.9410003,37 L36.9410003,0.054 L46.5450003,0.054 L64.2830003,22.643 L64.2830003,0.054 L73.8380003,0.054 L73.8380003,37 L64.2830003,37 L46.5450003,14.411 L46.5450003,37 L36.9410003,37 Z M103.734001,8.188 L103.734001,37 L94.1300007,37 L94.1300007,8.188 L86.2410007,8.188 L86.2410007,0.054 L111.623001,0.054 L111.623001,8.188 L103.734001,8.188 Z M145.047001,8.188 L133.630001,8.188 L133.630001,14.362 L144.410001,14.362 L144.410001,22.496 L133.630001,22.496 L133.630001,28.866 L145.047001,28.866 L145.047001,37 L124.026001,37 L124.026001,0.054 L145.047001,0.054 L145.047001,8.188 Z M169.700001,16.567 L171.513001,16.567 C173.407678,16.567 174.86133,16.1750039 175.874001,15.391 C176.886673,14.6069961 177.393001,13.4800073 177.393001,12.01 C177.393001,10.5399926 176.886673,9.41300392 175.874001,8.629 C174.86133,7.84499608 173.407678,7.453 171.513001,7.453 L169.700001,7.453 L169.700001,16.567 Z M190.819001,37 L178.863001,37 L169.700001,22.79 L169.700001,37 L160.096001,37 L160.096001,0.054 L175.041001,0.054 C177.099012,0.054 178.89566,0.356163645 180.431001,0.9605 C181.966342,1.56483635 183.232163,2.38966144 184.228501,3.435 C185.22484,4.48033856 185.976166,5.68899314 186.482501,7.061 C186.988837,8.43300686 187.242001,9.90299216 187.242001,11.471 C187.242001,14.2803474 186.564175,16.5588246 185.208501,18.3065 C183.852828,20.0541754 181.852015,21.2383302 179.206001,21.859 L190.819001,37 Z M217.040002,8.188 L217.040002,37 L207.436002,37 L207.436002,8.188 L199.547002,8.188 L199.547002,0.054 L224.929002,0.054 L224.929002,8.188 L217.040002,8.188 Z M255.707002,23.28 L251.395002,10.981 L247.083002,23.28 L255.707002,23.28 Z M258.255002,30.581 L244.535002,30.581 L242.330002,37 L232.089002,37 L246.152002,0.054 L256.638002,0.054 L270.701002,37 L260.460002,37 L258.255002,30.581 Z M292.659002,0.054 L292.659002,37 L283.055002,37 L283.055002,0.054 L292.659002,0.054 Z M308.541003,37 L308.541003,0.054 L318.145003,0.054 L335.883003,22.643 L335.883003,0.054 L345.438003,0.054 L345.438003,37 L335.883003,37 L318.145003,14.411 L318.145003,37 L308.541003,37 Z M359.654003,37 L365.926003,0.054 L375.432003,0.054 L382.831003,19.752 L390.181003,0.054 L399.687003,0.054 L405.959003,37 L396.404003,37 L393.219003,15.734 L384.497003,37 L380.675003,37 L372.394003,15.734 L369.209003,37 L359.654003,37 Z M441.196003,8.188 L429.779003,8.188 L429.779003,14.362 L440.559003,14.362 L440.559003,22.496 L429.779003,22.496 L429.779003,28.866 L441.196003,28.866 L441.196003,37 L420.175003,37 L420.175003,0.054 L441.196003,0.054 L441.196003,8.188 Z M456.245004,37 L456.245004,0.054 L465.849004,0.054 L483.587004,22.643 L483.587004,0.054 L493.142004,0.054 L493.142004,37 L483.587004,37 L465.849004,14.411 L465.849004,37 L456.245004,37 Z M523.038004,8.188 L523.038004,37 L513.434004,37 L513.434004,8.188 L505.545004,8.188 L505.545004,0.054 L530.927004,0.054 L530.927004,8.188 L523.038004,8.188 Z M10.475,100.866 L12.68,100.866 C14.3460083,100.866 15.8323268,100.604669 17.139,100.082 C18.4456732,99.5593307 19.5481622,98.8406712 20.4465,97.926 C21.3448378,97.0113288 22.030831,95.925173 22.5045,94.6675 C22.978169,93.409827 23.215,92.0296742 23.215,90.527 C23.215,89.0569926 22.9700025,87.6850064 22.48,86.411 C21.9899976,85.1369936 21.2958378,84.0426712 20.3975,83.128 C19.4991622,82.2133288 18.3966732,81.4946693 17.09,80.972 C15.7833268,80.4493307 14.3133415,80.188 12.68,80.188 L10.475,80.188 L10.475,100.866 Z M0.871,72.054 L15.081,72.054 C17.5963459,72.054 19.956489,72.5603283 22.1615,73.573 C24.366511,74.5856717 26.2938251,75.9331583 27.9435,77.6155 C29.5931749,79.2978417 30.8916619,81.2578221 31.839,83.4955 C32.7863381,85.7331779 33.26,88.0769877 33.26,90.527 C33.26,92.9443454 32.7945047,95.2718221 31.8635,97.5095 C30.9324953,99.7471779 29.6421749,101.715325 27.9925,103.414 C26.3428251,105.112675 24.415511,106.468328 22.2105,107.481 C20.005489,108.493672 17.6290127,109 15.081,109 L0.871,109 L0.871,72.054 Z M68.5460003,80.188 L57.1290003,80.188 L57.1290003,86.362 L67.9090003,86.362 L67.9090003,94.496 L57.1290003,94.496 L57.1290003,100.866 L68.5460003,100.866 L68.5460003,109 L47.5250003,109 L47.5250003,72.054 L68.5460003,72.054 L68.5460003,80.188 Z M103.881001,81.511 C102.835662,80.6616624 101.790339,80.0328354 100.745001,79.6245 C99.6996621,79.2161646 98.6870056,79.012 97.7070007,79.012 C96.4656611,79.012 95.4530046,79.3059971 94.6690007,79.894 C93.8849968,80.4820029 93.4930007,81.2496619 93.4930007,82.197 C93.4930007,82.8503366 93.6889987,83.3893312 94.0810007,83.814 C94.4730026,84.2386688 94.9874975,84.6061651 95.6245007,84.9165 C96.2615039,85.2268349 96.9801634,85.4963322 97.7805007,85.725 C98.580838,85.9536678 99.3729968,86.1986654 100.157001,86.46 C103.293016,87.5053386 105.587827,88.9018246 107.041501,90.6495 C108.495175,92.3971754 109.222001,94.6756526 109.222001,97.485 C109.222001,99.3796761 108.903504,101.094659 108.266501,102.63 C107.629498,104.165341 106.698507,105.480161 105.473501,106.5745 C104.248495,107.668839 102.745843,108.518164 100.965501,109.1225 C99.1851585,109.726836 97.168012,110.029 94.9140007,110.029 C90.242644,110.029 85.9143539,108.640681 81.9290007,105.864 L86.0450007,98.122 C87.4823412,99.3960064 88.903327,100.34333 90.3080007,100.964 C91.7126744,101.58467 93.1009938,101.895 94.4730007,101.895 C96.0410085,101.895 97.2088302,101.53567 97.9765007,100.817 C98.7441712,100.09833 99.1280007,99.2816712 99.1280007,98.367 C99.1280007,97.8116639 99.0300017,97.3298354 98.8340007,96.9215 C98.6379997,96.5131646 98.3113363,96.1375017 97.8540007,95.7945 C97.3966651,95.4514983 96.8005044,95.1330015 96.0655007,94.839 C95.330497,94.5449985 94.4403392,94.2183351 93.3950007,93.859 C92.1536611,93.466998 90.93684,93.034169 89.7445007,92.5605 C88.5521614,92.086831 87.4905053,91.4580039 86.5595007,90.674 C85.628496,89.8899961 84.8771702,88.9018393 84.3055007,87.7095 C83.7338312,86.5171607 83.4480007,85.0063425 83.4480007,83.177 C83.4480007,81.3476575 83.7501643,79.6898408 84.3545007,78.2035 C84.958837,76.7171592 85.8081619,75.443172 86.9025007,74.3815 C87.9968395,73.319828 89.3361594,72.4950029 90.9205007,71.907 C92.5048419,71.3189971 94.2769909,71.025 96.2370007,71.025 C98.0663432,71.025 99.9773241,71.2781641 101.970001,71.7845 C103.962677,72.2908359 105.873658,73.0339951 107.703001,74.014 L103.881001,81.511 Z M132.993001,72.054 L132.993001,109 L123.389001,109 L123.389001,72.054 L132.993001,72.054 Z M166.858001,88.322 L185.919001,88.322 C185.919001,90.2820098 185.837336,92.0623253 185.674001,93.663 C185.510667,95.2636747 185.184004,96.7499931 184.694001,98.122 C184.007998,100.049343 183.077007,101.756159 181.901001,103.2425 C180.724995,104.728841 179.344843,105.970162 177.760501,106.9665 C176.17616,107.962838 174.436678,108.722331 172.542001,109.245 C170.647325,109.767669 168.654678,110.029 166.564001,110.029 C163.68932,110.029 161.067847,109.555338 158.699501,108.608 C156.331156,107.660662 154.297677,106.329509 152.599001,104.6145 C150.900326,102.899491 149.577339,100.841512 148.630001,98.4405 C147.682663,96.039488 147.209001,93.3853479 147.209001,90.478 C147.209001,87.603319 147.674497,84.965512 148.605501,82.5645 C149.536506,80.163488 150.859493,78.1136752 152.574501,76.415 C154.28951,74.7163248 156.355656,73.3933381 158.773001,72.446 C161.190347,71.4986619 163.88532,71.025 166.858001,71.025 C170.712687,71.025 174.093654,71.8579917 177.001001,73.524 C179.908349,75.1900083 182.211326,77.7706492 183.910001,81.266 L174.796001,85.039 C173.946664,83.0136565 172.844175,81.5600044 171.488501,80.678 C170.132828,79.7959956 168.589343,79.355 166.858001,79.355 C165.420661,79.355 164.114007,79.6244973 162.938001,80.1635 C161.761995,80.7025027 160.757506,81.4701617 159.924501,82.4665 C159.091497,83.4628383 158.43817,84.6633263 157.964501,86.068 C157.490832,87.4726737 157.254001,89.040658 157.254001,90.772 C157.254001,92.3400078 157.458166,93.79366 157.866501,95.133 C158.274837,96.47234 158.887331,97.6319951 159.704001,98.612 C160.520672,99.5920049 161.533329,100.351497 162.742001,100.8905 C163.950674,101.429503 165.355327,101.699 166.956001,101.699 C167.903339,101.699 168.817997,101.592834 169.700001,101.3805 C170.582006,101.168166 171.374165,100.825169 172.076501,100.3515 C172.778838,99.877831 173.358666,99.2653371 173.816001,98.514 C174.273337,97.7626629 174.583667,96.8480054 174.747001,95.77 L166.858001,95.77 L166.858001,88.322 Z M200.135002,109 L200.135002,72.054 L209.739002,72.054 L227.477002,94.643 L227.477002,72.054 L237.032002,72.054 L237.032002,109 L227.477002,109 L209.739002,86.411 L209.739002,109 L200.135002,109 Z" id="01_ENTERTAINMENTDESIGN2" stroke="#4A4A4A" fill="#FFFFFF"></path>
            </g>
        </g>
    </g>
</svg>
