<?xml version="1.0" encoding="UTF-8"?>
<svg preserveAspectRatio="xMinYMin meet"  width="43px" height="43px" viewBox="0 0 43 43" version="1.1" xmlns="http://www.w3.org/2000/svg" xmlns:xlink="http://www.w3.org/1999/xlink">
    <!-- Generator: sketchtool 51.1 (57501) - http://www.bohemiancoding.com/sketch -->
    <title>0FF58148-F6E9-4989-8A08-18948A0932E7</title>
    <desc>Created with sketchtool.</desc>
    <defs></defs>
    <g id="Page-2" stroke="none" stroke-width="1" fill="none" fill-rule="evenodd">
        <g id="ABOUT" transform="translate(-1512.000000, -5226.000000)">
            <g id="로고" transform="translate(1513.000000, 5227.000000)">
                <g id="lgo">
                    <g id="Group">
                        <path d="M28.6152592,31.787612 L28.6152592,41.2517043 L6.73752554,41.2517043 C4.12405896,41.2517043 2.00536793,39.1331655 2.00536793,36.5197696 L2.00536793,14.6420359 L11.4696832,14.6420359 L11.4696832,23.2148239 L20.0424712,23.2148239 L20.0424712,31.787612 L28.6152592,31.787612 Z M2.89667228,15.5333402 L2.89667228,36.5197696 C2.89667228,38.6408973 4.61629843,40.3604 6.73752554,40.3604 L27.7239549,40.3604 L27.7239549,32.6789163 L19.1511668,32.6789163 L19.1511668,24.1061283 L10.5783788,24.1061283 L10.5783788,15.5333402 L2.89667228,15.5333402 Z" id="Stroke-1" fill="#000000" fill-rule="nonzero"></path>
                        <path d="M23.2146679,11.2469685 L14.6418799,11.2469685 L14.6418799,1.78265326 L36.5196136,1.78265326 C39.1330095,1.78265326 41.2515484,3.90134428 41.2515484,6.51481087 L41.2515484,28.3923217 L31.7876788,28.3923217 L31.7876788,19.8197565 L23.2146679,19.8197565 L23.2146679,11.2469685 Z M40.360244,6.51481087 C40.360244,4.39358375 38.6407414,2.67395761 36.5196136,2.67395761 L15.5331842,2.67395761 L15.5331842,10.3556641 L24.1059723,10.3556641 L24.1059723,18.9284522 L32.6789832,18.9284522 L32.6789832,27.5010174 L40.360244,27.5010174 L40.360244,6.51481087 Z" id="Stroke-3" fill="#000000" fill-rule="nonzero"></path>
                        <path d="M4.28643859,38.5777913 L8.57294402,38.5777913 L17.1457321,38.5777913 L25.7185201,38.5777913 L25.7185201,30.0050033 L17.1457321,30.0050033 L17.1457321,21.4322152 L8.57294402,21.4322152 L8.57294402,12.8594272 L-6.6847826e-05,12.8594272 L-6.6847826e-05,21.4322152 L-6.6847826e-05,30.0050033 L-6.6847826e-05,34.2915087 C-6.6847826e-05,36.658813 1.91913424,38.5777913 4.28643859,38.5777913" id="Fill-5" fill="#8FD85D"></path>
                        <path d="M26.1641723,29.5593511 L26.1641723,39.0234435 L4.28643859,39.0234435 C1.672972,39.0234435 -0.445719022,36.9049046 -0.445719022,34.2915087 L-0.445719022,12.413775 L9.0185962,12.413775 L9.0185962,20.986563 L17.5913842,20.986563 L17.5913842,29.5593511 L26.1641723,29.5593511 Z M0.445585326,13.3050793 L0.445585326,34.2915087 C0.445585326,36.4126365 2.16521147,38.1321391 4.28643859,38.1321391 L25.2728679,38.1321391 L25.2728679,30.4506554 L16.7000799,30.4506554 L16.7000799,21.8778674 L8.12729185,21.8778674 L8.12729185,13.3050793 L0.445585326,13.3050793 Z" id="Stroke-7" fill="#000000" fill-rule="nonzero"></path>
                        <path d="M34.2913527,4.45652174e-05 L30.0050701,4.45652174e-05 L21.4320592,4.45652174e-05 L12.8592712,4.45652174e-05 L12.8592712,8.57305543 L21.4320592,8.57305543 L21.4320592,17.1458435 L30.0050701,17.1458435 L30.0050701,25.7184087 L38.5776353,25.7184087 L38.5776353,17.1458435 L38.5776353,8.57305543 L38.5776353,4.28655 C38.5776353,1.91924565 36.6586571,4.45652174e-05 34.2913527,4.45652174e-05" id="Fill-9" fill="#80C9F6"></path>
                        <path d="M20.9864071,9.01870761 L12.413619,9.01870761 L12.413619,-0.445607609 L34.2913527,-0.445607609 C36.9047486,-0.445607609 39.0232875,1.67308341 39.0232875,4.28655 L39.0232875,26.1640609 L29.5594179,26.1640609 L29.5594179,17.5914957 L20.9864071,17.5914957 L20.9864071,9.01870761 Z M38.1319832,4.28655 C38.1319832,2.16532288 36.4124805,0.445696739 34.2913527,0.445696739 L13.3049234,0.445696739 L13.3049234,8.12740326 L21.8777114,8.12740326 L21.8777114,16.7001913 L30.4507223,16.7001913 L30.4507223,25.2727565 L38.1319832,25.2727565 L38.1319832,4.28655 Z" id="Stroke-11" fill="#000000" fill-rule="nonzero"></path>
                    </g>
                </g>
            </g>
        </g>
    </g>
</svg>
