<?xml version="1.0" encoding="UTF-8"?>
<svg preserveAspectRatio="xMinYMin meet"  width="214px" height="30px" viewBox="0 0 214 30" version="1.1" xmlns="http://www.w3.org/2000/svg" xmlns:xlink="http://www.w3.org/1999/xlink">
    <!-- Generator: sketchtool 51.1 (57501) - http://www.bohemiancoding.com/sketch -->
    <title>DA6B2A07-4F8E-4CCE-A1C4-CBAC7649E3DC</title>
    <desc>Created with sketchtool.</desc>
    <defs>
        <linearGradient x1="100%" y1="0%" x2="-28.9637855%" y2="128.649196%" id="linearGradient-1">
            <stop stop-color="#97E055" offset="0%"></stop>
            <stop stop-color="#80C9F6" offset="50.6773844%"></stop>
            <stop stop-color="#A37CD8" offset="100%"></stop>
        </linearGradient>
    </defs>
    <g id="Page-2" stroke="none" stroke-width="1" fill="none" fill-rule="evenodd">
        <g id="메뉴바" transform="translate(-565.000000, -688.000000)" stroke="#4A4A4A">
            <g id="btn_mn_tumblbug_s" transform="translate(566.000000, 688.000000)">
                <path d="M15.8494104,7.42 L15.8494104,28 L8.95705189,28 L8.95705189,7.42 L3.2954717,7.42 L3.2954717,1.61 L21.5109906,1.61 L21.5109906,7.42 L15.8494104,7.42 Z M31.4627123,1.61 L31.4627123,15.96 C31.4627123,16.7300039 31.4920162,17.517496 31.550625,18.3225 C31.6092338,19.127504 31.7850575,19.8566634 32.0781014,20.51 C32.3711453,21.1633366 32.8341478,21.6941646 33.4671226,22.1025 C34.1000975,22.5108354 34.9909377,22.715 36.1396698,22.715 C37.288402,22.715 38.1733813,22.5108354 38.7946344,22.1025 C39.4158875,21.6941646 39.87889,21.1633366 40.1836557,20.51 C40.4884213,19.8566634 40.6701058,19.127504 40.7287146,18.3225 C40.7873234,17.517496 40.8166274,16.7300039 40.8166274,15.96 L40.8166274,1.61 L47.6738208,1.61 L47.6738208,16.905 C47.6738208,21.0116872 46.7302335,24.0099905 44.8430307,25.9 C42.9558278,27.7900094 40.0547366,28.735 36.1396698,28.735 C32.2246031,28.735 29.317651,27.7900094 27.4187264,25.9 C25.5198018,24.0099905 24.5703538,21.0116872 24.5703538,16.905 L24.5703538,1.61 L31.4627123,1.61 Z M52.0342925,28 L56.5354245,1.61 L63.3574528,1.61 L68.6673821,15.68 L73.9421462,1.61 L80.7641745,1.61 L85.2653066,28 L78.4081132,28 L76.1223821,12.81 L69.8629953,28 L67.1201179,28 L61.177217,12.81 L58.8914858,28 L52.0342925,28 Z M96.5181368,22.68 L98.0302358,22.68 C99.7650558,22.68 101.007543,22.4583356 101.757736,22.015 C102.507928,21.5716644 102.883019,20.8600049 102.883019,19.88 C102.883019,18.8999951 102.507928,18.1883356 101.757736,17.745 C101.007543,17.3016644 99.7650558,17.08 98.0302358,17.08 L96.5181368,17.08 L96.5181368,22.68 Z M96.5181368,11.97 L97.7840802,11.97 C99.9408834,11.97 101.019269,11.1183418 101.019269,9.415 C101.019269,7.71165815 99.9408834,6.86 97.7840802,6.86 L96.5181368,6.86 L96.5181368,11.97 Z M89.6257783,1.61 L99.8939858,1.61 C102.332111,1.61 104.184121,2.1933275 105.450071,3.36 C106.71602,4.5266725 107.348986,6.2066557 107.348986,8.4 C107.348986,9.73000665 107.108693,10.8324956 106.628101,11.7075 C106.147509,12.5825044 105.414911,13.3233303 104.430283,13.93 C105.414911,14.1166676 106.253004,14.4024981 106.944587,14.7875 C107.636171,15.1725019 108.198807,15.6449972 108.632512,16.205 C109.066217,16.7650028 109.376839,17.3949965 109.564387,18.095 C109.751935,18.7950035 109.845708,19.5416627 109.845708,20.335 C109.845708,21.5716729 109.628858,22.6683285 109.195153,23.625 C108.761448,24.5816715 108.151926,25.3866634 107.366568,26.04 C106.581211,26.6933366 105.625902,27.1833317 104.500613,27.51 C103.375325,27.8366683 102.109394,28 100.702783,28 L89.6257783,28 L89.6257783,1.61 Z M120.852382,1.61 L120.852382,22.19 L129.116179,22.19 L129.116179,28 L113.960024,28 L113.960024,1.61 L120.852382,1.61 Z M139.560212,22.68 L141.072311,22.68 C142.807131,22.68 144.049619,22.4583356 144.799811,22.015 C145.550004,21.5716644 145.925094,20.8600049 145.925094,19.88 C145.925094,18.8999951 145.550004,18.1883356 144.799811,17.745 C144.049619,17.3016644 142.807131,17.08 141.072311,17.08 L139.560212,17.08 L139.560212,22.68 Z M139.560212,11.97 L140.826156,11.97 C142.982959,11.97 144.061344,11.1183418 144.061344,9.415 C144.061344,7.71165815 142.982959,6.86 140.826156,6.86 L139.560212,6.86 L139.560212,11.97 Z M132.667854,1.61 L142.936061,1.61 C145.374187,1.61 147.226197,2.1933275 148.492146,3.36 C149.758096,4.5266725 150.391061,6.2066557 150.391061,8.4 C150.391061,9.73000665 150.150769,10.8324956 149.670177,11.7075 C149.189585,12.5825044 148.456986,13.3233303 147.472358,13.93 C148.456986,14.1166676 149.295079,14.4024981 149.986663,14.7875 C150.678246,15.1725019 151.240882,15.6449972 151.674587,16.205 C152.108292,16.7650028 152.418914,17.3949965 152.606462,18.095 C152.79401,18.7950035 152.887783,19.5416627 152.887783,20.335 C152.887783,21.5716729 152.670934,22.6683285 152.237229,23.625 C151.803524,24.5816715 151.194002,25.3866634 150.408644,26.04 C149.623286,26.6933366 148.667977,27.1833317 147.542689,27.51 C146.4174,27.8366683 145.151469,28 143.744858,28 L132.667854,28 L132.667854,1.61 Z M163.894458,1.61 L163.894458,15.96 C163.894458,16.7300039 163.923761,17.517496 163.98237,18.3225 C164.040979,19.127504 164.216803,19.8566634 164.509847,20.51 C164.802891,21.1633366 165.265893,21.6941646 165.898868,22.1025 C166.531843,22.5108354 167.422683,22.715 168.571415,22.715 C169.720147,22.715 170.605127,22.5108354 171.22638,22.1025 C171.847633,21.6941646 172.310635,21.1633366 172.615401,20.51 C172.920167,19.8566634 173.101851,19.127504 173.16046,18.3225 C173.219069,17.517496 173.248373,16.7300039 173.248373,15.96 L173.248373,1.61 L180.105566,1.61 L180.105566,16.905 C180.105566,21.0116872 179.161979,24.0099905 177.274776,25.9 C175.387573,27.7900094 172.486482,28.735 168.571415,28.735 C164.656348,28.735 161.749396,27.7900094 159.850472,25.9 C157.951547,24.0099905 157.002099,21.0116872 157.002099,16.905 L157.002099,1.61 L163.894458,1.61 Z M198.567241,13.23 L212.246462,13.23 C212.246462,14.630007 212.187854,15.9016609 212.070637,17.045 C211.953419,18.188339 211.718988,19.2499951 211.367335,20.23 C210.875021,21.6066735 210.206891,22.825828 209.362925,23.8875 C208.518958,24.949172 207.528484,25.8358298 206.391474,26.5475 C205.254464,27.2591702 204.006115,27.8016648 202.646392,28.175 C201.286668,28.5483352 199.856635,28.735 198.35625,28.735 C196.293221,28.735 194.411907,28.3966701 192.712252,27.72 C191.012598,27.04333 189.553261,26.0925061 188.334198,24.8675 C187.115135,23.6424939 186.165687,22.1725086 185.485825,20.4575 C184.805964,18.7424914 184.466038,16.8466771 184.466038,14.77 C184.466038,12.7166564 184.800103,10.8325086 185.468243,9.1175 C186.136383,7.40249142 187.085831,5.9383394 188.316616,4.725 C189.5474,3.5116606 191.03018,2.56667005 192.765,1.89 C194.49982,1.21332995 196.433881,0.875 198.567241,0.875 C201.333575,0.875 203.759942,1.46999405 205.846415,2.66 C207.932888,3.85000595 209.585631,5.69332085 210.804693,8.19 L204.263986,10.885 C203.654454,9.4383261 202.863248,8.40000315 201.890342,7.77 C200.917436,7.13999685 199.809747,6.825 198.567241,6.825 C197.535726,6.825 196.598,7.01749808 195.754033,7.4025 C194.910067,7.78750193 194.189189,8.33582977 193.59138,9.0475 C192.99357,9.75917023 192.524707,10.6166616 192.184776,11.62 C191.844845,12.6233384 191.674882,13.7433272 191.674882,14.98 C191.674882,16.1000056 191.821402,17.1383285 192.114446,18.095 C192.40749,19.0516714 192.847049,19.8799965 193.433137,20.58 C194.019225,21.2800035 194.745963,21.8224981 195.613373,22.2075 C196.480783,22.5925019 197.488839,22.785 198.637571,22.785 C199.317433,22.785 199.973841,22.7091674 200.606816,22.5575 C201.239791,22.4058326 201.808288,22.160835 202.312323,21.8225 C202.816359,21.484165 203.232475,21.0466693 203.560684,20.51 C203.888893,19.9733306 204.111603,19.3200039 204.228821,18.55 L198.567241,18.55 L198.567241,13.23 Z" id="TUMBLBUG-Copy-6" fill="url(#linearGradient-1)"></path>
                <path d="M12.5539387,7.545 L12.5539387,28.125 L5.66158019,28.125 L5.66158019,7.545 L0,7.545 L0,1.735 L18.2155189,1.735 L18.2155189,7.545 L12.5539387,7.545 Z M28.1672406,1.735 L28.1672406,16.085 C28.1672406,16.8550039 28.1965445,17.642496 28.2551533,18.4475 C28.3137621,19.252504 28.4895858,19.9816634 28.7826297,20.635 C29.0756736,21.2883366 29.5386761,21.8191646 30.1716509,22.2275 C30.8046258,22.6358354 31.695466,22.84 32.8441981,22.84 C33.9929303,22.84 34.8779096,22.6358354 35.4991627,22.2275 C36.1204158,21.8191646 36.5834183,21.2883366 36.888184,20.635 C37.1929496,19.9816634 37.3746341,19.252504 37.4332429,18.4475 C37.4918517,17.642496 37.5211557,16.8550039 37.5211557,16.085 L37.5211557,1.735 L44.3783491,1.735 L44.3783491,17.03 C44.3783491,21.1366872 43.4347618,24.1349905 41.547559,26.025 C39.6603561,27.9150094 36.7592649,28.86 32.8441981,28.86 C28.9291314,28.86 26.0221793,27.9150094 24.1232547,26.025 C22.2243301,24.1349905 21.2748821,21.1366872 21.2748821,17.03 L21.2748821,1.735 L28.1672406,1.735 Z M48.7388208,28.125 L53.2399528,1.735 L60.0619811,1.735 L65.3719104,15.805 L70.6466745,1.735 L77.4687028,1.735 L81.9698349,28.125 L75.1126415,28.125 L72.8269104,12.935 L66.5675236,28.125 L63.8246462,28.125 L57.8817453,12.935 L55.5960142,28.125 L48.7388208,28.125 Z M93.2226651,22.805 L94.7347642,22.805 C96.4695841,22.805 97.7120717,22.5833356 98.4622642,22.14 C99.2124566,21.6966644 99.5875472,20.9850049 99.5875472,20.005 C99.5875472,19.0249951 99.2124566,18.3133356 98.4622642,17.87 C97.7120717,17.4266644 96.4695841,17.205 94.7347642,17.205 L93.2226651,17.205 L93.2226651,22.805 Z M93.2226651,12.095 L94.4886085,12.095 C96.6454117,12.095 97.7237972,11.2433418 97.7237972,9.54 C97.7237972,7.83665815 96.6454117,6.985 94.4886085,6.985 L93.2226651,6.985 L93.2226651,12.095 Z M86.3303066,1.735 L96.5985142,1.735 C99.0366395,1.735 100.888649,2.3183275 102.154599,3.485 C103.420549,4.6516725 104.053514,6.3316557 104.053514,8.525 C104.053514,9.85500665 103.813222,10.9574956 103.33263,11.8325 C102.852038,12.7075044 102.119439,13.4483303 101.134811,14.055 C102.119439,14.2416676 102.957532,14.5274981 103.649116,14.9125 C104.340699,15.2975019 104.903335,15.7699972 105.33704,16.33 C105.770745,16.8900028 106.081367,17.5199965 106.268915,18.22 C106.456463,18.9200035 106.550236,19.6666627 106.550236,20.46 C106.550236,21.6966729 106.333387,22.7933285 105.899682,23.75 C105.465977,24.7066715 104.856454,25.5116634 104.071097,26.165 C103.285739,26.8183366 102.33043,27.3083317 101.205142,27.635 C100.079853,27.9616683 98.8139221,28.125 97.4073113,28.125 L86.3303066,28.125 L86.3303066,1.735 Z M117.55691,1.735 L117.55691,22.315 L125.820708,22.315 L125.820708,28.125 L110.664552,28.125 L110.664552,1.735 L117.55691,1.735 Z M136.264741,22.805 L137.77684,22.805 C139.51166,22.805 140.754147,22.5833356 141.50434,22.14 C142.254532,21.6966644 142.629623,20.9850049 142.629623,20.005 C142.629623,19.0249951 142.254532,18.3133356 141.50434,17.87 C140.754147,17.4266644 139.51166,17.205 137.77684,17.205 L136.264741,17.205 L136.264741,22.805 Z M136.264741,12.095 L137.530684,12.095 C139.687487,12.095 140.765873,11.2433418 140.765873,9.54 C140.765873,7.83665815 139.687487,6.985 137.530684,6.985 L136.264741,6.985 L136.264741,12.095 Z M129.372382,1.735 L139.64059,1.735 C142.078715,1.735 143.930725,2.3183275 145.196675,3.485 C146.462624,4.6516725 147.09559,6.3316557 147.09559,8.525 C147.09559,9.85500665 146.855297,10.9574956 146.374705,11.8325 C145.894113,12.7075044 145.161514,13.4483303 144.176887,14.055 C145.161514,14.2416676 145.999607,14.5274981 146.691191,14.9125 C147.382775,15.2975019 147.945411,15.7699972 148.379116,16.33 C148.812821,16.8900028 149.123442,17.5199965 149.310991,18.22 C149.498539,18.9200035 149.592311,19.6666627 149.592311,20.46 C149.592311,21.6966729 149.375462,22.7933285 148.941757,23.75 C148.508052,24.7066715 147.89853,25.5116634 147.113172,26.165 C146.327814,26.8183366 145.372506,27.3083317 144.247217,27.635 C143.121928,27.9616683 141.855998,28.125 140.449387,28.125 L129.372382,28.125 L129.372382,1.735 Z M160.598986,1.735 L160.598986,16.085 C160.598986,16.8550039 160.62829,17.642496 160.686899,18.4475 C160.745507,19.252504 160.921331,19.9816634 161.214375,20.635 C161.507419,21.2883366 161.970421,21.8191646 162.603396,22.2275 C163.236371,22.6358354 164.127211,22.84 165.275943,22.84 C166.424676,22.84 167.309655,22.6358354 167.930908,22.2275 C168.552161,21.8191646 169.015164,21.2883366 169.319929,20.635 C169.624695,19.9816634 169.806379,19.252504 169.864988,18.4475 C169.923597,17.642496 169.952901,16.8550039 169.952901,16.085 L169.952901,1.735 L176.810094,1.735 L176.810094,17.03 C176.810094,21.1366872 175.866507,24.1349905 173.979304,26.025 C172.092101,27.9150094 169.19101,28.86 165.275943,28.86 C161.360877,28.86 158.453925,27.9150094 156.555,26.025 C154.656075,24.1349905 153.706627,21.1366872 153.706627,17.03 L153.706627,1.735 L160.598986,1.735 Z M195.271769,13.355 L208.950991,13.355 C208.950991,14.755007 208.892383,16.0266609 208.775165,17.17 C208.657948,18.313339 208.423516,19.3749951 208.071863,20.355 C207.579549,21.7316735 206.911419,22.950828 206.067453,24.0125 C205.223486,25.074172 204.233013,25.9608298 203.096002,26.6725 C201.958992,27.3841702 200.710644,27.9266648 199.35092,28.3 C197.991196,28.6733352 196.561163,28.86 195.060778,28.86 C192.997749,28.86 191.116435,28.5216701 189.416781,27.845 C187.717126,27.16833 186.257789,26.2175061 185.038726,24.9925 C183.819664,23.7674939 182.870216,22.2975086 182.190354,20.5825 C181.510492,18.8674914 181.170566,16.9716771 181.170566,14.895 C181.170566,12.8416564 181.504631,10.9575086 182.172771,9.2425 C182.840911,7.52749142 183.790359,6.0633394 185.021144,4.85 C186.251928,3.6366606 187.734708,2.69167005 189.469528,2.015 C191.204348,1.33832995 193.138409,1 195.271769,1 C198.038103,1 200.464471,1.59499405 202.550943,2.785 C204.637416,3.97500595 206.290159,5.81832085 207.509222,8.315 L200.968514,11.01 C200.358983,9.5633261 199.567776,8.52500315 198.59487,7.895 C197.621964,7.26499685 196.514275,6.95 195.271769,6.95 C194.240254,6.95 193.302528,7.14249808 192.458561,7.5275 C191.614595,7.91250193 190.893718,8.46082977 190.295908,9.1725 C189.698098,9.88417023 189.229235,10.7416616 188.889304,11.745 C188.549373,12.7483384 188.37941,13.8683272 188.37941,15.105 C188.37941,16.2250056 188.52593,17.2633285 188.818974,18.22 C189.112018,19.1766714 189.551577,20.0049965 190.137665,20.705 C190.723753,21.4050035 191.450491,21.9474981 192.317901,22.3325 C193.185311,22.7175019 194.193367,22.91 195.342099,22.91 C196.021961,22.91 196.678369,22.8341674 197.311344,22.6825 C197.944319,22.5308326 198.512816,22.285835 199.016851,21.9475 C199.520887,21.609165 199.937003,21.1716693 200.265212,20.635 C200.593421,20.0983306 200.816131,19.4450039 200.933349,18.675 L195.271769,18.675 L195.271769,13.355 Z" id="TUMBLBUG-Copy-5" fill="#FFFFFF"></path>
            </g>
        </g>
    </g>
</svg>
