<?xml version="1.0" encoding="UTF-8"?>
<svg width="214px" height="30px" viewBox="0 0 214 30" version="1.1" xmlns="http://www.w3.org/2000/svg" xmlns:xlink="http://www.w3.org/1999/xlink">
    <!-- Generator: sketchtool 51.1 (57501) - http://www.bohemiancoding.com/sketch -->
    <title>183E1814-F9E6-4F4B-9510-A6D22E892605</title>
    <desc>Created with sketchtool.</desc>
    <defs></defs>
    <g id="Page-2" stroke="none" stroke-width="1" fill="none" fill-rule="evenodd">
        <g id="메뉴바" transform="translate(-96.000000, -688.000000)" stroke="#9B9B9B">
            <g id="btn_mn_tumblbug_n" transform="translate(97.000000, 688.000000)">
                <path d="M16.775,7.42 L16.775,28 L9.915,28 L9.915,7.42 L4.28,7.42 L4.28,1.61 L22.41,1.61 L22.41,7.42 L16.775,7.42 Z M32.315,1.61 L32.315,15.96 C32.315,16.7300038 32.3441664,17.517496 32.4025,18.3225 C32.4608336,19.127504 32.6358319,19.8566634 32.9275,20.51 C33.2191681,21.1633366 33.6799969,21.6941646 34.31,22.1025 C34.9400032,22.5108354 35.826661,22.715 36.97,22.715 C38.1133391,22.715 38.9941636,22.5108354 39.6125,22.1025 C40.2308364,21.6941646 40.6916652,21.1633366 40.995,20.51 C41.2983349,19.8566634 41.4791664,19.127504 41.5375,18.3225 C41.5958336,17.517496 41.625,16.7300038 41.625,15.96 L41.625,1.61 L48.45,1.61 L48.45,16.905 C48.45,21.0116872 47.5108427,24.0099905 45.6325,25.9 C43.7541573,27.7900094 40.8666862,28.735 36.97,28.735 C33.0733139,28.735 30.1800095,27.7900094 28.29,25.9 C26.3999906,24.0099905 25.455,21.0116872 25.455,16.905 L25.455,1.61 L32.315,1.61 Z M52.79,28 L57.27,1.61 L64.06,1.61 L69.345,15.68 L74.595,1.61 L81.385,1.61 L85.865,28 L79.04,28 L76.765,12.81 L70.535,28 L67.805,28 L61.89,12.81 L59.615,28 L52.79,28 Z M97.065,22.68 L98.57,22.68 C100.296675,22.68 101.53333,22.4583356 102.28,22.015 C103.02667,21.5716645 103.4,20.8600049 103.4,19.88 C103.4,18.8999951 103.02667,18.1883355 102.28,17.745 C101.53333,17.3016644 100.296675,17.08 98.57,17.08 L97.065,17.08 L97.065,22.68 Z M97.065,11.97 L98.325,11.97 C100.471677,11.97 101.545,11.1183419 101.545,9.415 C101.545,7.71165815 100.471677,6.86 98.325,6.86 L97.065,6.86 L97.065,11.97 Z M90.205,1.61 L100.425,1.61 C102.851679,1.61 104.694994,2.1933275 105.955,3.36 C107.215006,4.5266725 107.845,6.2066557 107.845,8.4 C107.845,9.73000665 107.605836,10.8324956 107.1275,11.7075 C106.649164,12.5825044 105.920005,13.3233303 104.94,13.93 C105.920005,14.1166676 106.754163,14.4024981 107.4425,14.7875 C108.130837,15.1725019 108.690831,15.6449972 109.1225,16.205 C109.554169,16.7650028 109.863332,17.3949965 110.05,18.095 C110.236668,18.7950035 110.33,19.5416627 110.33,20.335 C110.33,21.5716728 110.114169,22.6683285 109.6825,23.625 C109.250831,24.5816715 108.644171,25.3866634 107.8625,26.04 C107.080829,26.6933366 106.130006,27.1833317 105.01,27.51 C103.889994,27.8366683 102.630007,28 101.23,28 L90.205,28 L90.205,1.61 Z M121.285,1.61 L121.285,22.19 L129.51,22.19 L129.51,28 L114.425,28 L114.425,1.61 L121.285,1.61 Z M139.905,22.68 L141.41,22.68 C143.136675,22.68 144.37333,22.4583356 145.12,22.015 C145.86667,21.5716645 146.24,20.8600049 146.24,19.88 C146.24,18.8999951 145.86667,18.1883355 145.12,17.745 C144.37333,17.3016644 143.136675,17.08 141.41,17.08 L139.905,17.08 L139.905,22.68 Z M139.905,11.97 L141.165,11.97 C143.311677,11.97 144.385,11.1183419 144.385,9.415 C144.385,7.71165815 143.311677,6.86 141.165,6.86 L139.905,6.86 L139.905,11.97 Z M133.045,1.61 L143.265,1.61 C145.691679,1.61 147.534994,2.1933275 148.795,3.36 C150.055006,4.5266725 150.685,6.2066557 150.685,8.4 C150.685,9.73000665 150.445836,10.8324956 149.9675,11.7075 C149.489164,12.5825044 148.760005,13.3233303 147.78,13.93 C148.760005,14.1166676 149.594163,14.4024981 150.2825,14.7875 C150.970837,15.1725019 151.530831,15.6449972 151.9625,16.205 C152.394169,16.7650028 152.703332,17.3949965 152.89,18.095 C153.076668,18.7950035 153.17,19.5416627 153.17,20.335 C153.17,21.5716728 152.954169,22.6683285 152.5225,23.625 C152.090831,24.5816715 151.484171,25.3866634 150.7025,26.04 C149.920829,26.6933366 148.970006,27.1833317 147.85,27.51 C146.729994,27.8366683 145.470007,28 144.07,28 L133.045,28 L133.045,1.61 Z M164.125,1.61 L164.125,15.96 C164.125,16.7300038 164.154166,17.517496 164.2125,18.3225 C164.270834,19.127504 164.445832,19.8566634 164.7375,20.51 C165.029168,21.1633366 165.489997,21.6941646 166.12,22.1025 C166.750003,22.5108354 167.636661,22.715 168.78,22.715 C169.923339,22.715 170.804164,22.5108354 171.4225,22.1025 C172.040836,21.6941646 172.501665,21.1633366 172.805,20.51 C173.108335,19.8566634 173.289166,19.127504 173.3475,18.3225 C173.405834,17.517496 173.435,16.7300038 173.435,15.96 L173.435,1.61 L180.26,1.61 L180.26,16.905 C180.26,21.0116872 179.320843,24.0099905 177.4425,25.9 C175.564157,27.7900094 172.676686,28.735 168.78,28.735 C164.883314,28.735 161.990009,27.7900094 160.1,25.9 C158.209991,24.0099905 157.265,21.0116872 157.265,16.905 L157.265,1.61 L164.125,1.61 Z M198.635,13.23 L212.25,13.23 C212.25,14.630007 212.191667,15.9016609 212.075,17.045 C211.958333,18.188339 211.725002,19.2499951 211.375,20.23 C210.884998,21.6066735 210.220004,22.825828 209.38,23.8875 C208.539996,24.949172 207.554172,25.8358298 206.4225,26.5475 C205.290828,27.2591702 204.04834,27.8016648 202.695,28.175 C201.34166,28.5483352 199.918341,28.735 198.425,28.735 C196.371656,28.735 194.499175,28.39667 192.8075,27.72 C191.115825,27.04333 189.663339,26.0925061 188.45,24.8675 C187.236661,23.6424939 186.29167,22.1725086 185.615,20.4575 C184.93833,18.7424914 184.6,16.846677 184.6,14.77 C184.6,12.7166564 184.932497,10.8325086 185.5975,9.1175 C186.262503,7.40249142 187.207494,5.9383394 188.4325,4.725 C189.657506,3.5116606 191.133325,2.56667005 192.86,1.89 C194.586675,1.21332995 196.511656,0.875 198.635,0.875 C201.388347,0.875 203.803323,1.46999405 205.88,2.66 C207.956677,3.85000595 209.601661,5.69332085 210.815,8.19 L204.305,10.885 C203.69833,9.4383261 202.910838,8.40000315 201.9425,7.77 C200.974162,7.13999685 199.871673,6.825 198.635,6.825 C197.608328,6.825 196.675004,7.01749807 195.835,7.4025 C194.994996,7.78750192 194.277503,8.33582978 193.6825,9.0475 C193.087497,9.75917022 192.620835,10.6166616 192.2825,11.62 C191.944165,12.6233383 191.775,13.7433271 191.775,14.98 C191.775,16.1000056 191.920832,17.1383285 192.2125,18.095 C192.504168,19.0516715 192.941664,19.8799965 193.525,20.58 C194.108336,21.2800035 194.831662,21.8224981 195.695,22.2075 C196.558338,22.5925019 197.561661,22.785 198.705,22.785 C199.38167,22.785 200.034997,22.7091674 200.665,22.5575 C201.295003,22.4058326 201.860831,22.160835 202.3625,21.8225 C202.864169,21.484165 203.278332,21.0466693 203.605,20.51 C203.931668,19.9733306 204.153333,19.3200038 204.27,18.55 L198.635,18.55 L198.635,13.23 Z" id="TUMBLBUG-Copy-4" fill="#CCCCCC"></path>
                <path d="M12.775,7.42 L12.775,28 L5.915,28 L5.915,7.42 L0.28,7.42 L0.28,1.61 L18.41,1.61 L18.41,7.42 L12.775,7.42 Z M28.315,1.61 L28.315,15.96 C28.315,16.7300039 28.3441664,17.517496 28.4025,18.3225 C28.4608336,19.127504 28.6358319,19.8566634 28.9275,20.51 C29.2191681,21.1633366 29.6799969,21.6941646 30.31,22.1025 C30.9400032,22.5108354 31.826661,22.715 32.97,22.715 C34.1133391,22.715 34.9941636,22.5108354 35.6125,22.1025 C36.2308364,21.6941646 36.6916652,21.1633366 36.995,20.51 C37.2983349,19.8566634 37.4791664,19.127504 37.5375,18.3225 C37.5958336,17.517496 37.625,16.7300039 37.625,15.96 L37.625,1.61 L44.45,1.61 L44.45,16.905 C44.45,21.0116872 43.5108427,24.0099905 41.6325,25.9 C39.7541573,27.7900094 36.8666862,28.735 32.97,28.735 C29.0733139,28.735 26.1800095,27.7900094 24.29,25.9 C22.3999906,24.0099905 21.455,21.0116872 21.455,16.905 L21.455,1.61 L28.315,1.61 Z M48.79,28 L53.27,1.61 L60.06,1.61 L65.345,15.68 L70.595,1.61 L77.385,1.61 L81.865,28 L75.04,28 L72.765,12.81 L66.535,28 L63.805,28 L57.89,12.81 L55.615,28 L48.79,28 Z M93.065,22.68 L94.57,22.68 C96.2966753,22.68 97.5333296,22.4583356 98.28,22.015 C99.0266704,21.5716644 99.4,20.8600049 99.4,19.88 C99.4,18.8999951 99.0266704,18.1883356 98.28,17.745 C97.5333296,17.3016644 96.2966753,17.08 94.57,17.08 L93.065,17.08 L93.065,22.68 Z M93.065,11.97 L94.325,11.97 C96.4716774,11.97 97.545,11.1183418 97.545,9.415 C97.545,7.71165815 96.4716774,6.86 94.325,6.86 L93.065,6.86 L93.065,11.97 Z M86.205,1.61 L96.425,1.61 C98.8516788,1.61 100.694994,2.1933275 101.955,3.36 C103.215006,4.5266725 103.845,6.2066557 103.845,8.4 C103.845,9.73000665 103.605836,10.8324956 103.1275,11.7075 C102.649164,12.5825044 101.920005,13.3233303 100.94,13.93 C101.920005,14.1166676 102.754163,14.4024981 103.4425,14.7875 C104.130837,15.1725019 104.690831,15.6449972 105.1225,16.205 C105.554169,16.7650028 105.863332,17.3949965 106.05,18.095 C106.236668,18.7950035 106.33,19.5416627 106.33,20.335 C106.33,21.5716729 106.114169,22.6683285 105.6825,23.625 C105.250831,24.5816715 104.644171,25.3866634 103.8625,26.04 C103.080829,26.6933366 102.130006,27.1833317 101.01,27.51 C99.8899944,27.8366683 98.630007,28 97.23,28 L86.205,28 L86.205,1.61 Z M117.285,1.61 L117.285,22.19 L125.51,22.19 L125.51,28 L110.425,28 L110.425,1.61 L117.285,1.61 Z M135.905,22.68 L137.41,22.68 C139.136675,22.68 140.37333,22.4583356 141.12,22.015 C141.86667,21.5716644 142.24,20.8600049 142.24,19.88 C142.24,18.8999951 141.86667,18.1883356 141.12,17.745 C140.37333,17.3016644 139.136675,17.08 137.41,17.08 L135.905,17.08 L135.905,22.68 Z M135.905,11.97 L137.165,11.97 C139.311677,11.97 140.385,11.1183418 140.385,9.415 C140.385,7.71165815 139.311677,6.86 137.165,6.86 L135.905,6.86 L135.905,11.97 Z M129.045,1.61 L139.265,1.61 C141.691679,1.61 143.534994,2.1933275 144.795,3.36 C146.055006,4.5266725 146.685,6.2066557 146.685,8.4 C146.685,9.73000665 146.445836,10.8324956 145.9675,11.7075 C145.489164,12.5825044 144.760005,13.3233303 143.78,13.93 C144.760005,14.1166676 145.594163,14.4024981 146.2825,14.7875 C146.970837,15.1725019 147.530831,15.6449972 147.9625,16.205 C148.394169,16.7650028 148.703332,17.3949965 148.89,18.095 C149.076668,18.7950035 149.17,19.5416627 149.17,20.335 C149.17,21.5716729 148.954169,22.6683285 148.5225,23.625 C148.090831,24.5816715 147.484171,25.3866634 146.7025,26.04 C145.920829,26.6933366 144.970006,27.1833317 143.85,27.51 C142.729994,27.8366683 141.470007,28 140.07,28 L129.045,28 L129.045,1.61 Z M160.125,1.61 L160.125,15.96 C160.125,16.7300039 160.154166,17.517496 160.2125,18.3225 C160.270834,19.127504 160.445832,19.8566634 160.7375,20.51 C161.029168,21.1633366 161.489997,21.6941646 162.12,22.1025 C162.750003,22.5108354 163.636661,22.715 164.78,22.715 C165.923339,22.715 166.804164,22.5108354 167.4225,22.1025 C168.040836,21.6941646 168.501665,21.1633366 168.805,20.51 C169.108335,19.8566634 169.289166,19.127504 169.3475,18.3225 C169.405834,17.517496 169.435,16.7300039 169.435,15.96 L169.435,1.61 L176.26,1.61 L176.26,16.905 C176.26,21.0116872 175.320843,24.0099905 173.4425,25.9 C171.564157,27.7900094 168.676686,28.735 164.78,28.735 C160.883314,28.735 157.990009,27.7900094 156.1,25.9 C154.209991,24.0099905 153.265,21.0116872 153.265,16.905 L153.265,1.61 L160.125,1.61 Z M194.635,13.23 L208.25,13.23 C208.25,14.630007 208.191667,15.9016609 208.075,17.045 C207.958333,18.188339 207.725002,19.2499951 207.375,20.23 C206.884998,21.6066735 206.220004,22.825828 205.38,23.8875 C204.539996,24.949172 203.554172,25.8358298 202.4225,26.5475 C201.290828,27.2591702 200.04834,27.8016648 198.695,28.175 C197.34166,28.5483352 195.918341,28.735 194.425,28.735 C192.371656,28.735 190.499175,28.3966701 188.8075,27.72 C187.115825,27.04333 185.663339,26.0925061 184.45,24.8675 C183.236661,23.6424939 182.29167,22.1725086 181.615,20.4575 C180.93833,18.7424914 180.6,16.8466771 180.6,14.77 C180.6,12.7166564 180.932497,10.8325086 181.5975,9.1175 C182.262503,7.40249142 183.207494,5.9383394 184.4325,4.725 C185.657506,3.5116606 187.133325,2.56667005 188.86,1.89 C190.586675,1.21332995 192.511656,0.875 194.635,0.875 C197.388347,0.875 199.803323,1.46999405 201.88,2.66 C203.956677,3.85000595 205.601661,5.69332085 206.815,8.19 L200.305,10.885 C199.69833,9.4383261 198.910838,8.40000315 197.9425,7.77 C196.974162,7.13999685 195.871673,6.825 194.635,6.825 C193.608328,6.825 192.675004,7.01749808 191.835,7.4025 C190.994996,7.78750193 190.277503,8.33582977 189.6825,9.0475 C189.087497,9.75917023 188.620835,10.6166616 188.2825,11.62 C187.944165,12.6233384 187.775,13.7433272 187.775,14.98 C187.775,16.1000056 187.920832,17.1383285 188.2125,18.095 C188.504168,19.0516714 188.941664,19.8799965 189.525,20.58 C190.108336,21.2800035 190.831662,21.8224981 191.695,22.2075 C192.558338,22.5925019 193.561661,22.785 194.705,22.785 C195.38167,22.785 196.034997,22.7091674 196.665,22.5575 C197.295003,22.4058326 197.860831,22.160835 198.3625,21.8225 C198.864169,21.484165 199.278332,21.0466693 199.605,20.51 C199.931668,19.9733306 200.153333,19.3200039 200.27,18.55 L194.635,18.55 L194.635,13.23 Z" id="TUMBLBUG-Copy-3" fill="#FFFFFF"></path>
            </g>
        </g>
    </g>
</svg>