<?xml version="1.0" encoding="UTF-8"?>
<svg preserveAspectRatio="xMinYMin meet"  width="138px" height="30px" viewBox="0 0 138 30" version="1.1" xmlns="http://www.w3.org/2000/svg" xmlns:xlink="http://www.w3.org/1999/xlink">
    <!-- Generator: sketchtool 51.1 (57501) - http://www.bohemiancoding.com/sketch -->
    <title>FD23319A-87A2-4473-8602-71EE8E69458B</title>
    <desc>Created with sketchtool.</desc>
    <defs></defs>
    <g id="Page-2" stroke="none" stroke-width="1" fill="none" fill-rule="evenodd">
        <g id="메뉴바" transform="translate(-96.000000, -308.000000)" stroke="#9B9B9B">
            <g id="btn_mn_about_n" transform="translate(97.000000, 308.000000)">
                <path d="M21.115,18.2 L18.035,9.415 L14.955,18.2 L21.115,18.2 Z M22.935,23.415 L13.135,23.415 L11.56,28 L4.245,28 L14.29,1.61 L21.78,1.61 L31.825,28 L24.51,28 L22.935,23.415 Z M41.695,22.68 L43.2,22.68 C44.9266753,22.68 46.1633296,22.4583356 46.91,22.015 C47.6566704,21.5716645 48.03,20.8600049 48.03,19.88 C48.03,18.8999951 47.6566704,18.1883355 46.91,17.745 C46.1633296,17.3016644 44.9266753,17.08 43.2,17.08 L41.695,17.08 L41.695,22.68 Z M41.695,11.97 L42.955,11.97 C45.1016774,11.97 46.175,11.1183419 46.175,9.415 C46.175,7.71165815 45.1016774,6.86 42.955,6.86 L41.695,6.86 L41.695,11.97 Z M34.835,1.61 L45.055,1.61 C47.4816788,1.61 49.3249937,2.1933275 50.585,3.36 C51.8450063,4.5266725 52.475,6.2066557 52.475,8.4 C52.475,9.73000665 52.2358357,10.8324956 51.7575,11.7075 C51.2791643,12.5825044 50.5500049,13.3233303 49.57,13.93 C50.5500049,14.1166676 51.3841632,14.4024981 52.0725,14.7875 C52.7608368,15.1725019 53.3208312,15.6449972 53.7525,16.205 C54.1841688,16.7650028 54.4933324,17.3949965 54.68,18.095 C54.8666676,18.7950035 54.96,19.5416627 54.96,20.335 C54.96,21.5716728 54.7441688,22.6683285 54.3125,23.625 C53.8808312,24.5816715 53.2741706,25.3866634 52.4925,26.04 C51.7108294,26.6933366 50.7600056,27.1833317 49.64,27.51 C48.5199944,27.8366683 47.260007,28 45.86,28 L34.835,28 L34.835,1.61 Z M65.04,14.805 C65.04,15.8550052 65.2383313,16.8233289 65.635,17.71 C66.0316686,18.5966711 66.5683299,19.3666634 67.245,20.02 C67.92167,20.6733366 68.7091622,21.1808315 69.6075,21.5425 C70.5058378,21.9041685 71.4566616,22.085 72.46,22.085 C73.4633383,22.085 74.4141622,21.9041685 75.3125,21.5425 C76.2108378,21.1808315 77.0041632,20.6733366 77.6925,20.02 C78.3808368,19.3666634 78.9233313,18.5966711 79.32,17.71 C79.7166686,16.8233289 79.915,15.8550052 79.915,14.805 C79.915,13.7549947 79.7166686,12.7866711 79.32,11.9 C78.9233313,11.0133289 78.3808368,10.2433366 77.6925,9.59 C77.0041632,8.9366634 76.2108378,8.42916848 75.3125,8.0675 C74.4141622,7.70583153 73.4633383,7.525 72.46,7.525 C71.4566616,7.525 70.5058378,7.70583153 69.6075,8.0675 C68.7091622,8.42916848 67.92167,8.9366634 67.245,9.59 C66.5683299,10.2433366 66.0316686,11.0133289 65.635,11.9 C65.2383313,12.7866711 65.04,13.7549947 65.04,14.805 Z M57.865,14.805 C57.865,12.8449902 58.226663,11.0191751 58.95,9.3275 C59.6733369,7.63582487 60.6766602,6.1600063 61.96,4.9 C63.2433397,3.6399937 64.7774911,2.65417022 66.5625,1.9425 C68.3475089,1.23082977 70.3133226,0.875 72.46,0.875 C74.5833439,0.875 76.5433243,1.23082977 78.34,1.9425 C80.1366756,2.65417022 81.6824935,3.6399937 82.9775,4.9 C84.2725065,6.1600063 85.281663,7.63582487 86.005,9.3275 C86.7283369,11.0191751 87.09,12.8449902 87.09,14.805 C87.09,16.7650098 86.7283369,18.5908249 86.005,20.2825 C85.281663,21.9741751 84.2725065,23.4499937 82.9775,24.71 C81.6824935,25.9700063 80.1366756,26.9558298 78.34,27.6675 C76.5433243,28.3791702 74.5833439,28.735 72.46,28.735 C70.3133226,28.735 68.3475089,28.3791702 66.5625,27.6675 C64.7774911,26.9558298 63.2433397,25.9700063 61.96,24.71 C60.6766602,23.4499937 59.6733369,21.9741751 58.95,20.2825 C58.226663,18.5908249 57.865,16.7650098 57.865,14.805 Z M98.29,1.61 L98.29,15.96 C98.29,16.7300038 98.3191664,17.517496 98.3775,18.3225 C98.4358336,19.127504 98.6108319,19.8566634 98.9025,20.51 C99.1941681,21.1633366 99.6549968,21.6941646 100.285,22.1025 C100.915003,22.5108354 101.801661,22.715 102.945,22.715 C104.088339,22.715 104.969164,22.5108354 105.5875,22.1025 C106.205836,21.6941646 106.666665,21.1633366 106.97,20.51 C107.273335,19.8566634 107.454166,19.127504 107.5125,18.3225 C107.570834,17.517496 107.6,16.7300038 107.6,15.96 L107.6,1.61 L114.425,1.61 L114.425,16.905 C114.425,21.0116872 113.485843,24.0099905 111.6075,25.9 C109.729157,27.7900094 106.841686,28.735 102.945,28.735 C99.0483138,28.735 96.1550094,27.7900094 94.265,25.9 C92.3749905,24.0099905 91.43,21.0116872 91.43,16.905 L91.43,1.61 L98.29,1.61 Z M129.965,7.42 L129.965,28 L123.105,28 L123.105,7.42 L117.47,7.42 L117.47,1.61 L135.6,1.61 L135.6,7.42 L129.965,7.42 Z" id="ABOUT-Copy-4" fill="#CCCCCC"></path>
                <path d="M17.115,18.2 L14.035,9.415 L10.955,18.2 L17.115,18.2 Z M18.935,23.415 L9.135,23.415 L7.56,28 L0.245,28 L10.29,1.61 L17.78,1.61 L27.825,28 L20.51,28 L18.935,23.415 Z M37.695,22.68 L39.2,22.68 C40.9266753,22.68 42.1633296,22.4583356 42.91,22.015 C43.6566704,21.5716645 44.03,20.8600049 44.03,19.88 C44.03,18.8999951 43.6566704,18.1883355 42.91,17.745 C42.1633296,17.3016644 40.9266753,17.08 39.2,17.08 L37.695,17.08 L37.695,22.68 Z M37.695,11.97 L38.955,11.97 C41.1016774,11.97 42.175,11.1183418 42.175,9.415 C42.175,7.71165815 41.1016774,6.86 38.955,6.86 L37.695,6.86 L37.695,11.97 Z M30.835,1.61 L41.055,1.61 C43.4816788,1.61 45.3249937,2.1933275 46.585,3.36 C47.8450063,4.5266725 48.475,6.2066557 48.475,8.4 C48.475,9.73000665 48.2358357,10.8324956 47.7575,11.7075 C47.2791643,12.5825044 46.5500049,13.3233303 45.57,13.93 C46.5500049,14.1166676 47.3841632,14.4024981 48.0725,14.7875 C48.7608368,15.1725019 49.3208312,15.6449972 49.7525,16.205 C50.1841688,16.7650028 50.4933324,17.3949965 50.68,18.095 C50.8666676,18.7950035 50.96,19.5416627 50.96,20.335 C50.96,21.5716729 50.7441688,22.6683286 50.3125,23.625 C49.8808312,24.5816714 49.2741706,25.3866634 48.4925,26.04 C47.7108294,26.6933366 46.7600056,27.1833317 45.64,27.51 C44.5199944,27.8366683 43.260007,28 41.86,28 L30.835,28 L30.835,1.61 Z M61.04,14.805 C61.04,15.8550052 61.2383313,16.8233289 61.635,17.71 C62.0316686,18.5966711 62.5683299,19.3666634 63.245,20.02 C63.92167,20.6733366 64.7091622,21.1808315 65.6075,21.5425 C66.5058378,21.9041685 67.4566616,22.085 68.46,22.085 C69.4633383,22.085 70.4141622,21.9041685 71.3125,21.5425 C72.2108378,21.1808315 73.0041632,20.6733366 73.6925,20.02 C74.3808368,19.3666634 74.9233313,18.5966711 75.32,17.71 C75.7166686,16.8233289 75.915,15.8550052 75.915,14.805 C75.915,13.7549947 75.7166686,12.7866711 75.32,11.9 C74.9233313,11.0133289 74.3808368,10.2433366 73.6925,9.59 C73.0041632,8.9366634 72.2108378,8.42916847 71.3125,8.0675 C70.4141622,7.70583153 69.4633383,7.525 68.46,7.525 C67.4566616,7.525 66.5058378,7.70583153 65.6075,8.0675 C64.7091622,8.42916847 63.92167,8.9366634 63.245,9.59 C62.5683299,10.2433366 62.0316686,11.0133289 61.635,11.9 C61.2383313,12.7866711 61.04,13.7549947 61.04,14.805 Z M53.865,14.805 C53.865,12.8449902 54.226663,11.0191751 54.95,9.3275 C55.6733369,7.63582488 56.6766602,6.1600063 57.96,4.9 C59.2433397,3.6399937 60.7774911,2.65417022 62.5625,1.9425 C64.3475089,1.23082978 66.3133226,0.875 68.46,0.875 C70.5833439,0.875 72.5433243,1.23082978 74.34,1.9425 C76.1366756,2.65417022 77.6824935,3.6399937 78.9775,4.9 C80.2725065,6.1600063 81.281663,7.63582488 82.005,9.3275 C82.7283369,11.0191751 83.09,12.8449902 83.09,14.805 C83.09,16.7650098 82.7283369,18.5908249 82.005,20.2825 C81.281663,21.9741751 80.2725065,23.4499937 78.9775,24.71 C77.6824935,25.9700063 76.1366756,26.9558298 74.34,27.6675 C72.5433243,28.3791702 70.5833439,28.735 68.46,28.735 C66.3133226,28.735 64.3475089,28.3791702 62.5625,27.6675 C60.7774911,26.9558298 59.2433397,25.9700063 57.96,24.71 C56.6766602,23.4499937 55.6733369,21.9741751 54.95,20.2825 C54.226663,18.5908249 53.865,16.7650098 53.865,14.805 Z M94.29,1.61 L94.29,15.96 C94.29,16.7300039 94.3191664,17.517496 94.3775,18.3225 C94.4358336,19.127504 94.6108319,19.8566634 94.9025,20.51 C95.1941681,21.1633366 95.6549968,21.6941646 96.285,22.1025 C96.9150031,22.5108354 97.8016609,22.715 98.945,22.715 C100.088339,22.715 100.969164,22.5108354 101.5875,22.1025 C102.205836,21.6941646 102.666665,21.1633366 102.97,20.51 C103.273335,19.8566634 103.454166,19.127504 103.5125,18.3225 C103.570834,17.517496 103.6,16.7300039 103.6,15.96 L103.6,1.61 L110.425,1.61 L110.425,16.905 C110.425,21.0116872 109.485843,24.0099905 107.6075,25.9 C105.729157,27.7900095 102.841686,28.735 98.945,28.735 C95.0483138,28.735 92.1550094,27.7900095 90.265,25.9 C88.3749905,24.0099905 87.43,21.0116872 87.43,16.905 L87.43,1.61 L94.29,1.61 Z M125.965,7.42 L125.965,28 L119.105,28 L119.105,7.42 L113.47,7.42 L113.47,1.61 L131.6,1.61 L131.6,7.42 L125.965,7.42 Z" id="ABOUT-Copy-3" fill="#FFFFFF"></path>
            </g>
        </g>
    </g>
</svg>
