<?xml version="1.0" encoding="UTF-8"?>
<svg preserveAspectRatio="xMinYMin meet"  width="152px" height="30px" viewBox="0 0 152 30" version="1.1" xmlns="http://www.w3.org/2000/svg" xmlns:xlink="http://www.w3.org/1999/xlink">
    <!-- Generator: sketchtool 51.1 (57501) - http://www.bohemiancoding.com/sketch -->
    <title>B3396EA6-D44E-4260-BDEB-2C8123DC0707</title>
    <desc>Created with sketchtool.</desc>
    <defs>
        <linearGradient x1="100%" y1="0%" x2="-28.9637855%" y2="128.649196%" id="linearGradient-1">
            <stop stop-color="#97E055" offset="0%"></stop>
            <stop stop-color="#80C9F6" offset="50.6773844%"></stop>
            <stop stop-color="#A37CD8" offset="100%"></stop>
        </linearGradient>
    </defs>
    <g id="Page-2" stroke="none" stroke-width="1" fill="none" fill-rule="evenodd">
        <g id="메뉴바" transform="translate(-565.000000, -435.000000)" stroke="#4A4A4A">
            <g id="btn_mn_works_s" transform="translate(566.000000, 435.000000)">
                <path d="M11.175,1.61 L15.725,18.655 L21.325,1.61 L26.785,1.61 L32.385,18.655 L36.935,1.61 L44.11,1.61 L36.235,28 L29.235,28 L24.055,12.705 L18.875,28 L11.875,28 L4,1.61 L11.175,1.61 Z M52.86,14.805 C52.86,15.8550052 53.0583313,16.8233289 53.455,17.71 C53.8516686,18.5966711 54.38833,19.3666634 55.065,20.02 C55.7416701,20.6733366 56.5291622,21.1808315 57.4275,21.5425 C58.3258378,21.9041685 59.2766617,22.085 60.28,22.085 C61.2833384,22.085 62.2341622,21.9041685 63.1325,21.5425 C64.0308378,21.1808315 64.8241632,20.6733366 65.5125,20.02 C66.2008368,19.3666634 66.7433314,18.5966711 67.14,17.71 C67.5366687,16.8233289 67.735,15.8550052 67.735,14.805 C67.735,13.7549947 67.5366687,12.7866711 67.14,11.9 C66.7433314,11.0133289 66.2008368,10.2433366 65.5125,9.59 C64.8241632,8.9366634 64.0308378,8.42916847 63.1325,8.0675 C62.2341622,7.70583153 61.2833384,7.525 60.28,7.525 C59.2766617,7.525 58.3258378,7.70583153 57.4275,8.0675 C56.5291622,8.42916847 55.7416701,8.9366634 55.065,9.59 C54.38833,10.2433366 53.8516686,11.0133289 53.455,11.9 C53.0583313,12.7866711 52.86,13.7549947 52.86,14.805 Z M45.685,14.805 C45.685,12.8449902 46.0466631,11.0191751 46.77,9.3275 C47.4933369,7.63582488 48.4966602,6.1600063 49.78,4.9 C51.0633397,3.6399937 52.5974911,2.65417022 54.3825,1.9425 C56.1675089,1.23082978 58.1333226,0.875 60.28,0.875 C62.403344,0.875 64.3633243,1.23082978 66.16,1.9425 C67.9566756,2.65417022 69.5024935,3.6399937 70.7975,4.9 C72.0925065,6.1600063 73.1016631,7.63582488 73.825,9.3275 C74.548337,11.0191751 74.91,12.8449902 74.91,14.805 C74.91,16.7650098 74.548337,18.5908249 73.825,20.2825 C73.1016631,21.9741751 72.0925065,23.4499937 70.7975,24.71 C69.5024935,25.9700063 67.9566756,26.9558298 66.16,27.6675 C64.3633243,28.3791702 62.403344,28.735 60.28,28.735 C58.1333226,28.735 56.1675089,28.3791702 54.3825,27.6675 C52.5974911,26.9558298 51.0633397,25.9700063 49.78,24.71 C48.4966602,23.4499937 47.4933369,21.9741751 46.77,20.2825 C46.0466631,18.5908249 45.685,16.7650098 45.685,14.805 Z M86.11,13.405 L87.405,13.405 C88.7583401,13.405 89.7966631,13.1250028 90.52,12.565 C91.2433369,12.0049972 91.605,11.2000053 91.605,10.15 C91.605,9.09999475 91.2433369,8.2950028 90.52,7.735 C89.7966631,7.1749972 88.7583401,6.895 87.405,6.895 L86.11,6.895 L86.11,13.405 Z M101.195,28 L92.655,28 L86.11,17.85 L86.11,28 L79.25,28 L79.25,1.61 L89.925,1.61 C91.3950074,1.61 92.6783278,1.82583118 93.775,2.2575 C94.8716721,2.68916883 95.7758298,3.2783296 96.4875,4.025 C97.1991702,4.7716704 97.7358315,5.6349951 98.0975,6.615 C98.4591685,7.5950049 98.64,8.6449944 98.64,9.765 C98.64,11.7716767 98.1558382,13.3991604 97.1875,14.6475 C96.2191618,15.8958396 94.7900095,16.7416644 92.9,17.185 L101.195,28 Z M110.925,12.495 L119.29,1.61 L127.76,1.61 L117.295,14.105 L128.74,28 L119.85,28 L110.925,16.555 L110.925,28 L104.065,28 L104.065,1.61 L110.925,1.61 L110.925,12.495 Z M146.275,8.365 C145.52833,7.7583303 144.78167,7.30916812 144.035,7.0175 C143.28833,6.72583187 142.565003,6.58 141.865,6.58 C140.978329,6.58 140.255003,6.7899979 139.695,7.21 C139.134997,7.6300021 138.855,8.17832995 138.855,8.855 C138.855,9.321669 138.994999,9.70666515 139.275,10.01 C139.555001,10.3133348 139.922498,10.5758322 140.3775,10.7975 C140.832502,11.0191678 141.34583,11.2116658 141.9175,11.375 C142.48917,11.5383341 143.054997,11.7133324 143.615,11.9 C145.855011,12.6466704 147.494161,13.6441604 148.5325,14.8925 C149.570839,16.1408396 150.09,17.7683233 150.09,19.775 C150.09,21.1283401 149.862502,22.3533279 149.4075,23.45 C148.952498,24.5466722 148.287504,25.4858294 147.4125,26.2675 C146.537496,27.0491706 145.464173,27.6558312 144.1925,28.0875 C142.920827,28.5191688 141.480008,28.735 139.87,28.735 C136.533317,28.735 133.441681,27.7433433 130.595,25.76 L133.535,20.23 C134.561672,21.1400046 135.576662,21.8166645 136.58,22.26 C137.583338,22.7033356 138.574995,22.925 139.555,22.925 C140.675006,22.925 141.509164,22.6683359 142.0575,22.155 C142.605836,21.6416641 142.88,21.0583366 142.88,20.405 C142.88,20.0083313 142.810001,19.6641681 142.67,19.3725 C142.529999,19.0808319 142.296668,18.8125012 141.97,18.5675 C141.643332,18.3224988 141.217503,18.0950011 140.6925,17.885 C140.167497,17.6749989 139.53167,17.441668 138.785,17.185 C137.898329,16.9049986 137.029171,16.595835 136.1775,16.2575 C135.325829,15.919165 134.567503,15.4700028 133.9025,14.91 C133.237497,14.3499972 132.700835,13.6441709 132.2925,12.7925 C131.884165,11.9408291 131.68,10.8616732 131.68,9.555 C131.68,8.2483268 131.895831,7.06417198 132.3275,6.0025 C132.759169,4.94082802 133.365829,4.03083713 134.1475,3.2725 C134.929171,2.51416288 135.885828,1.9250021 137.0175,1.505 C138.149172,1.0849979 139.414993,0.875 140.815,0.875 C142.121673,0.875 143.48666,1.05583153 144.91,1.4175 C146.33334,1.77916848 147.698327,2.3099965 149.005,3.01 L146.275,8.365 Z" id="WORKS-Copy-6" fill="url(#linearGradient-1)"></path>
                <path d="M7.175,1.735 L11.725,18.78 L17.325,1.735 L22.785,1.735 L28.385,18.78 L32.935,1.735 L40.11,1.735 L32.235,28.125 L25.235,28.125 L20.055,12.83 L14.875,28.125 L7.875,28.125 L0,1.735 L7.175,1.735 Z M48.86,14.93 C48.86,15.9800052 49.0583313,16.9483289 49.455,17.835 C49.8516687,18.7216711 50.38833,19.4916634 51.065,20.145 C51.7416701,20.7983366 52.5291622,21.3058315 53.4275,21.6675 C54.3258378,22.0291685 55.2766616,22.21 56.28,22.21 C57.2833384,22.21 58.2341622,22.0291685 59.1325,21.6675 C60.0308378,21.3058315 60.8241632,20.7983366 61.5125,20.145 C62.2008368,19.4916634 62.7433313,18.7216711 63.14,17.835 C63.5366687,16.9483289 63.735,15.9800052 63.735,14.93 C63.735,13.8799947 63.5366687,12.9116711 63.14,12.025 C62.7433313,11.1383289 62.2008368,10.3683366 61.5125,9.715 C60.8241632,9.0616634 60.0308378,8.55416847 59.1325,8.1925 C58.2341622,7.83083153 57.2833384,7.65 56.28,7.65 C55.2766616,7.65 54.3258378,7.83083153 53.4275,8.1925 C52.5291622,8.55416847 51.7416701,9.0616634 51.065,9.715 C50.38833,10.3683366 49.8516687,11.1383289 49.455,12.025 C49.0583313,12.9116711 48.86,13.8799947 48.86,14.93 Z M41.685,14.93 C41.685,12.9699902 42.0466631,11.1441751 42.77,9.4525 C43.493337,7.76082488 44.4966602,6.2850063 45.78,5.025 C47.0633398,3.7649937 48.5974911,2.77917022 50.3825,2.0675 C52.1675089,1.35582978 54.1333226,1 56.28,1 C58.403344,1 60.3633243,1.35582978 62.16,2.0675 C63.9566757,2.77917022 65.5024935,3.7649937 66.7975,5.025 C68.0925065,6.2850063 69.1016631,7.76082488 69.825,9.4525 C70.548337,11.1441751 70.91,12.9699902 70.91,14.93 C70.91,16.8900098 70.548337,18.7158249 69.825,20.4075 C69.1016631,22.0991751 68.0925065,23.5749937 66.7975,24.835 C65.5024935,26.0950063 63.9566757,27.0808298 62.16,27.7925 C60.3633243,28.5041702 58.403344,28.86 56.28,28.86 C54.1333226,28.86 52.1675089,28.5041702 50.3825,27.7925 C48.5974911,27.0808298 47.0633398,26.0950063 45.78,24.835 C44.4966602,23.5749937 43.493337,22.0991751 42.77,20.4075 C42.0466631,18.7158249 41.685,16.8900098 41.685,14.93 Z M82.11,13.53 L83.405,13.53 C84.7583401,13.53 85.7966631,13.2500028 86.52,12.69 C87.243337,12.1299972 87.605,11.3250053 87.605,10.275 C87.605,9.22499475 87.243337,8.4200028 86.52,7.86 C85.7966631,7.2999972 84.7583401,7.02 83.405,7.02 L82.11,7.02 L82.11,13.53 Z M97.195,28.125 L88.655,28.125 L82.11,17.975 L82.11,28.125 L75.25,28.125 L75.25,1.735 L85.925,1.735 C87.3950074,1.735 88.6783279,1.95083118 89.775,2.3825 C90.8716722,2.81416883 91.7758298,3.4033296 92.4875,4.15 C93.1991702,4.8966704 93.7358315,5.7599951 94.0975,6.74 C94.4591685,7.7200049 94.64,8.7699944 94.64,9.89 C94.64,11.8966767 94.1558382,13.5241604 93.1875,14.7725 C92.2191618,16.0208396 90.7900095,16.8666644 88.9,17.31 L97.195,28.125 Z M106.925,12.62 L115.29,1.735 L123.76,1.735 L113.295,14.23 L124.74,28.125 L115.85,28.125 L106.925,16.68 L106.925,28.125 L100.065,28.125 L100.065,1.735 L106.925,1.735 L106.925,12.62 Z M142.275,8.49 C141.52833,7.8833303 140.78167,7.43416812 140.035,7.1425 C139.28833,6.85083187 138.565004,6.705 137.865,6.705 C136.978329,6.705 136.255003,6.9149979 135.695,7.335 C135.134997,7.7550021 134.855,8.30332995 134.855,8.98 C134.855,9.446669 134.994999,9.83166515 135.275,10.135 C135.555001,10.4383348 135.922498,10.7008322 136.3775,10.9225 C136.832502,11.1441678 137.34583,11.3366658 137.9175,11.5 C138.48917,11.6633341 139.054997,11.8383324 139.615,12.025 C141.855011,12.7716704 143.494161,13.7691604 144.5325,15.0175 C145.570839,16.2658396 146.09,17.8933233 146.09,19.9 C146.09,21.2533401 145.862502,22.4783279 145.4075,23.575 C144.952498,24.6716722 144.287504,25.6108294 143.4125,26.3925 C142.537496,27.1741706 141.464173,27.7808312 140.1925,28.2125 C138.920827,28.6441688 137.480008,28.86 135.87,28.86 C132.533317,28.86 129.441681,27.8683433 126.595,25.885 L129.535,20.355 C130.561672,21.2650046 131.576662,21.9416645 132.58,22.385 C133.583338,22.8283356 134.574995,23.05 135.555,23.05 C136.675006,23.05 137.509164,22.7933359 138.0575,22.28 C138.605836,21.7666641 138.88,21.1833366 138.88,20.53 C138.88,20.1333313 138.810001,19.7891681 138.67,19.4975 C138.529999,19.2058319 138.296668,18.9375012 137.97,18.6925 C137.643332,18.4474988 137.217503,18.2200011 136.6925,18.01 C136.167497,17.7999989 135.53167,17.566668 134.785,17.31 C133.898329,17.0299986 133.029171,16.720835 132.1775,16.3825 C131.325829,16.044165 130.567503,15.5950028 129.9025,15.035 C129.237497,14.4749972 128.700835,13.7691709 128.2925,12.9175 C127.884165,12.0658291 127.68,10.9866732 127.68,9.68 C127.68,8.3733268 127.895831,7.18917198 128.3275,6.1275 C128.759169,5.06582802 129.365829,4.15583713 130.1475,3.3975 C130.929171,2.63916288 131.885828,2.0500021 133.0175,1.63 C134.149172,1.2099979 135.414993,1 136.815,1 C138.121673,1 139.48666,1.18083153 140.91,1.5425 C142.33334,1.90416848 143.698327,2.4349965 145.005,3.135 L142.275,8.49 Z" id="WORKS-Copy-5" fill="#FFFFFF"></path>
            </g>
        </g>
    </g>
</svg>
