<?xml version="1.0" encoding="UTF-8"?>
<svg preserveAspectRatio="xMinYMin meet"  width="119px" height="30px" viewBox="0 0 119 30" version="1.1" xmlns="http://www.w3.org/2000/svg" xmlns:xlink="http://www.w3.org/1999/xlink">
    <!-- Generator: sketchtool 51.1 (57501) - http://www.bohemiancoding.com/sketch -->
    <title>E2896609-EEB3-487D-961C-0FD1473ADEB8</title>
    <desc>Created with sketchtool.</desc>
    <defs>
        <linearGradient x1="100%" y1="0%" x2="-28.9637855%" y2="128.649196%" id="linearGradient-1">
            <stop stop-color="#97E055" offset="0%"></stop>
            <stop stop-color="#80C9F6" offset="50.6773844%"></stop>
            <stop stop-color="#A37CD8" offset="100%"></stop>
        </linearGradient>
    </defs>
    <g id="Page-2" stroke="none" stroke-width="1" fill="none" fill-rule="evenodd">
        <g id="메뉴바" transform="translate(-565.000000, -182.000000)" stroke="#4A4A4A">
            <g id="btn_mn_home_s" transform="translate(566.000000, 183.000000)">
                <path d="M10.86,10.92 L20.765,10.92 L20.765,0.735 L27.625,0.735 L27.625,27.125 L20.765,27.125 L20.765,16.24 L10.86,16.24 L10.86,27.125 L4,27.125 L4,0.735 L10.86,0.735 L10.86,10.92 Z M39.14,13.93 C39.14,14.9800053 39.3383313,15.9483289 39.735,16.835 C40.1316687,17.7216711 40.66833,18.4916634 41.345,19.145 C42.0216701,19.7983366 42.8091622,20.3058315 43.7075,20.6675 C44.6058378,21.0291685 45.5566617,21.21 46.56,21.21 C47.5633383,21.21 48.5141622,21.0291685 49.4125,20.6675 C50.3108378,20.3058315 51.1041632,19.7983366 51.7925,19.145 C52.4808368,18.4916634 53.0233314,17.7216711 53.42,16.835 C53.8166687,15.9483289 54.015,14.9800053 54.015,13.93 C54.015,12.8799948 53.8166687,11.9116711 53.42,11.025 C53.0233314,10.1383289 52.4808368,9.3683366 51.7925,8.715 C51.1041632,8.0616634 50.3108378,7.55416848 49.4125,7.1925 C48.5141622,6.83083153 47.5633383,6.65 46.56,6.65 C45.5566617,6.65 44.6058378,6.83083153 43.7075,7.1925 C42.8091622,7.55416848 42.0216701,8.0616634 41.345,8.715 C40.66833,9.3683366 40.1316687,10.1383289 39.735,11.025 C39.3383313,11.9116711 39.14,12.8799948 39.14,13.93 Z M31.965,13.93 C31.965,11.9699902 32.326663,10.1441751 33.05,8.4525 C33.773337,6.76082487 34.7766602,5.2850063 36.06,4.025 C37.3433398,2.7649937 38.8774911,1.77917023 40.6625,1.0675 C42.4475089,0.355829775 44.4133226,0 46.56,0 C48.6833439,0 50.6433244,0.355829775 52.44,1.0675 C54.2366757,1.77917023 55.7824935,2.7649937 57.0775,4.025 C58.3725065,5.2850063 59.3816631,6.76082487 60.105,8.4525 C60.8283369,10.1441751 61.19,11.9699902 61.19,13.93 C61.19,15.8900098 60.8283369,17.7158249 60.105,19.4075 C59.3816631,21.0991751 58.3725065,22.5749937 57.0775,23.835 C55.7824935,25.0950063 54.2366757,26.0808298 52.44,26.7925 C50.6433244,27.5041702 48.6833439,27.86 46.56,27.86 C44.4133226,27.86 42.4475089,27.5041702 40.6625,26.7925 C38.8774911,26.0808298 37.3433398,25.0950063 36.06,23.835 C34.7766602,22.5749937 33.773337,21.0991751 33.05,19.4075 C32.326663,17.7158249 31.965,15.8900098 31.965,13.93 Z M64.34,27.125 L68.82,0.735 L75.61,0.735 L80.895,14.805 L86.145,0.735 L92.935,0.735 L97.415,27.125 L90.59,27.125 L88.315,11.935 L82.085,27.125 L79.355,27.125 L73.44,11.935 L71.165,27.125 L64.34,27.125 Z M116.77,6.545 L108.615,6.545 L108.615,10.955 L116.315,10.955 L116.315,16.765 L108.615,16.765 L108.615,21.315 L116.77,21.315 L116.77,27.125 L101.755,27.125 L101.755,0.735 L116.77,0.735 L116.77,6.545 Z" id="HOME-Copy-8" fill="url(#linearGradient-1)"></path>
                <path d="M6.86,10.92 L16.765,10.92 L16.765,0.735 L23.625,0.735 L23.625,27.125 L16.765,27.125 L16.765,16.24 L6.86,16.24 L6.86,27.125 L0,27.125 L0,0.735 L6.86,0.735 L6.86,10.92 Z M35.14,13.93 C35.14,14.9800053 35.3383313,15.9483289 35.735,16.835 C36.1316687,17.7216711 36.66833,18.4916634 37.345,19.145 C38.0216701,19.7983366 38.8091622,20.3058315 39.7075,20.6675 C40.6058378,21.0291685 41.5566617,21.21 42.56,21.21 C43.5633383,21.21 44.5141622,21.0291685 45.4125,20.6675 C46.3108378,20.3058315 47.1041632,19.7983366 47.7925,19.145 C48.4808368,18.4916634 49.0233314,17.7216711 49.42,16.835 C49.8166687,15.9483289 50.015,14.9800053 50.015,13.93 C50.015,12.8799948 49.8166687,11.9116711 49.42,11.025 C49.0233314,10.1383289 48.4808368,9.3683366 47.7925,8.715 C47.1041632,8.0616634 46.3108378,7.55416848 45.4125,7.1925 C44.5141622,6.83083153 43.5633383,6.65 42.56,6.65 C41.5566617,6.65 40.6058378,6.83083153 39.7075,7.1925 C38.8091622,7.55416848 38.0216701,8.0616634 37.345,8.715 C36.66833,9.3683366 36.1316687,10.1383289 35.735,11.025 C35.3383313,11.9116711 35.14,12.8799948 35.14,13.93 Z M27.965,13.93 C27.965,11.9699902 28.326663,10.1441751 29.05,8.4525 C29.773337,6.76082487 30.7766602,5.2850063 32.06,4.025 C33.3433398,2.7649937 34.8774911,1.77917023 36.6625,1.0675 C38.4475089,0.355829775 40.4133226,0 42.56,0 C44.6833439,0 46.6433244,0.355829775 48.44,1.0675 C50.2366757,1.77917023 51.7824935,2.7649937 53.0775,4.025 C54.3725065,5.2850063 55.3816631,6.76082487 56.105,8.4525 C56.8283369,10.1441751 57.19,11.9699902 57.19,13.93 C57.19,15.8900098 56.8283369,17.7158249 56.105,19.4075 C55.3816631,21.0991751 54.3725065,22.5749937 53.0775,23.835 C51.7824935,25.0950063 50.2366757,26.0808298 48.44,26.7925 C46.6433244,27.5041702 44.6833439,27.86 42.56,27.86 C40.4133226,27.86 38.4475089,27.5041702 36.6625,26.7925 C34.8774911,26.0808298 33.3433398,25.0950063 32.06,23.835 C30.7766602,22.5749937 29.773337,21.0991751 29.05,19.4075 C28.326663,17.7158249 27.965,15.8900098 27.965,13.93 Z M60.34,27.125 L64.82,0.735 L71.61,0.735 L76.895,14.805 L82.145,0.735 L88.935,0.735 L93.415,27.125 L86.59,27.125 L84.315,11.935 L78.085,27.125 L75.355,27.125 L69.44,11.935 L67.165,27.125 L60.34,27.125 Z M112.77,6.545 L104.615,6.545 L104.615,10.955 L112.315,10.955 L112.315,16.765 L104.615,16.765 L104.615,21.315 L112.77,21.315 L112.77,27.125 L97.755,27.125 L97.755,0.735 L112.77,0.735 L112.77,6.545 Z" id="HOME-Copy-7" fill="#FFFFFF"></path>
                <path d="M10.86,10.92 L20.765,10.92 L20.765,0.735 L27.625,0.735 L27.625,27.125 L20.765,27.125 L20.765,16.24 L10.86,16.24 L10.86,27.125 L4,27.125 L4,0.735 L10.86,0.735 L10.86,10.92 Z M39.14,13.93 C39.14,14.9800053 39.3383313,15.9483289 39.735,16.835 C40.1316687,17.7216711 40.66833,18.4916634 41.345,19.145 C42.0216701,19.7983366 42.8091622,20.3058315 43.7075,20.6675 C44.6058378,21.0291685 45.5566617,21.21 46.56,21.21 C47.5633383,21.21 48.5141622,21.0291685 49.4125,20.6675 C50.3108378,20.3058315 51.1041632,19.7983366 51.7925,19.145 C52.4808368,18.4916634 53.0233314,17.7216711 53.42,16.835 C53.8166687,15.9483289 54.015,14.9800053 54.015,13.93 C54.015,12.8799948 53.8166687,11.9116711 53.42,11.025 C53.0233314,10.1383289 52.4808368,9.3683366 51.7925,8.715 C51.1041632,8.0616634 50.3108378,7.55416848 49.4125,7.1925 C48.5141622,6.83083153 47.5633383,6.65 46.56,6.65 C45.5566617,6.65 44.6058378,6.83083153 43.7075,7.1925 C42.8091622,7.55416848 42.0216701,8.0616634 41.345,8.715 C40.66833,9.3683366 40.1316687,10.1383289 39.735,11.025 C39.3383313,11.9116711 39.14,12.8799948 39.14,13.93 Z M31.965,13.93 C31.965,11.9699902 32.326663,10.1441751 33.05,8.4525 C33.773337,6.76082487 34.7766602,5.2850063 36.06,4.025 C37.3433398,2.7649937 38.8774911,1.77917023 40.6625,1.0675 C42.4475089,0.355829775 44.4133226,0 46.56,0 C48.6833439,0 50.6433244,0.355829775 52.44,1.0675 C54.2366757,1.77917023 55.7824935,2.7649937 57.0775,4.025 C58.3725065,5.2850063 59.3816631,6.76082487 60.105,8.4525 C60.8283369,10.1441751 61.19,11.9699902 61.19,13.93 C61.19,15.8900098 60.8283369,17.7158249 60.105,19.4075 C59.3816631,21.0991751 58.3725065,22.5749937 57.0775,23.835 C55.7824935,25.0950063 54.2366757,26.0808298 52.44,26.7925 C50.6433244,27.5041702 48.6833439,27.86 46.56,27.86 C44.4133226,27.86 42.4475089,27.5041702 40.6625,26.7925 C38.8774911,26.0808298 37.3433398,25.0950063 36.06,23.835 C34.7766602,22.5749937 33.773337,21.0991751 33.05,19.4075 C32.326663,17.7158249 31.965,15.8900098 31.965,13.93 Z M64.34,27.125 L68.82,0.735 L75.61,0.735 L80.895,14.805 L86.145,0.735 L92.935,0.735 L97.415,27.125 L90.59,27.125 L88.315,11.935 L82.085,27.125 L79.355,27.125 L73.44,11.935 L71.165,27.125 L64.34,27.125 Z M116.77,6.545 L108.615,6.545 L108.615,10.955 L116.315,10.955 L116.315,16.765 L108.615,16.765 L108.615,21.315 L116.77,21.315 L116.77,27.125 L101.755,27.125 L101.755,0.735 L116.77,0.735 L116.77,6.545 Z" id="HOME-Copy-10" fill="url(#linearGradient-1)"></path>
                <path d="M6.86,10.92 L16.765,10.92 L16.765,0.735 L23.625,0.735 L23.625,27.125 L16.765,27.125 L16.765,16.24 L6.86,16.24 L6.86,27.125 L0,27.125 L0,0.735 L6.86,0.735 L6.86,10.92 Z M35.14,13.93 C35.14,14.9800053 35.3383313,15.9483289 35.735,16.835 C36.1316687,17.7216711 36.66833,18.4916634 37.345,19.145 C38.0216701,19.7983366 38.8091622,20.3058315 39.7075,20.6675 C40.6058378,21.0291685 41.5566617,21.21 42.56,21.21 C43.5633383,21.21 44.5141622,21.0291685 45.4125,20.6675 C46.3108378,20.3058315 47.1041632,19.7983366 47.7925,19.145 C48.4808368,18.4916634 49.0233314,17.7216711 49.42,16.835 C49.8166687,15.9483289 50.015,14.9800053 50.015,13.93 C50.015,12.8799948 49.8166687,11.9116711 49.42,11.025 C49.0233314,10.1383289 48.4808368,9.3683366 47.7925,8.715 C47.1041632,8.0616634 46.3108378,7.55416848 45.4125,7.1925 C44.5141622,6.83083153 43.5633383,6.65 42.56,6.65 C41.5566617,6.65 40.6058378,6.83083153 39.7075,7.1925 C38.8091622,7.55416848 38.0216701,8.0616634 37.345,8.715 C36.66833,9.3683366 36.1316687,10.1383289 35.735,11.025 C35.3383313,11.9116711 35.14,12.8799948 35.14,13.93 Z M27.965,13.93 C27.965,11.9699902 28.326663,10.1441751 29.05,8.4525 C29.773337,6.76082487 30.7766602,5.2850063 32.06,4.025 C33.3433398,2.7649937 34.8774911,1.77917023 36.6625,1.0675 C38.4475089,0.355829775 40.4133226,0 42.56,0 C44.6833439,0 46.6433244,0.355829775 48.44,1.0675 C50.2366757,1.77917023 51.7824935,2.7649937 53.0775,4.025 C54.3725065,5.2850063 55.3816631,6.76082487 56.105,8.4525 C56.8283369,10.1441751 57.19,11.9699902 57.19,13.93 C57.19,15.8900098 56.8283369,17.7158249 56.105,19.4075 C55.3816631,21.0991751 54.3725065,22.5749937 53.0775,23.835 C51.7824935,25.0950063 50.2366757,26.0808298 48.44,26.7925 C46.6433244,27.5041702 44.6833439,27.86 42.56,27.86 C40.4133226,27.86 38.4475089,27.5041702 36.6625,26.7925 C34.8774911,26.0808298 33.3433398,25.0950063 32.06,23.835 C30.7766602,22.5749937 29.773337,21.0991751 29.05,19.4075 C28.326663,17.7158249 27.965,15.8900098 27.965,13.93 Z M60.34,27.125 L64.82,0.735 L71.61,0.735 L76.895,14.805 L82.145,0.735 L88.935,0.735 L93.415,27.125 L86.59,27.125 L84.315,11.935 L78.085,27.125 L75.355,27.125 L69.44,11.935 L67.165,27.125 L60.34,27.125 Z M112.77,6.545 L104.615,6.545 L104.615,10.955 L112.315,10.955 L112.315,16.765 L104.615,16.765 L104.615,21.315 L112.77,21.315 L112.77,27.125 L97.755,27.125 L97.755,0.735 L112.77,0.735 L112.77,6.545 Z" id="HOME-Copy-9" fill="#FFFFFF"></path>
                <path d="M10.86,10.92 L20.765,10.92 L20.765,0.735 L27.625,0.735 L27.625,27.125 L20.765,27.125 L20.765,16.24 L10.86,16.24 L10.86,27.125 L4,27.125 L4,0.735 L10.86,0.735 L10.86,10.92 Z M39.14,13.93 C39.14,14.9800053 39.3383313,15.9483289 39.735,16.835 C40.1316687,17.7216711 40.66833,18.4916634 41.345,19.145 C42.0216701,19.7983366 42.8091622,20.3058315 43.7075,20.6675 C44.6058378,21.0291685 45.5566617,21.21 46.56,21.21 C47.5633383,21.21 48.5141622,21.0291685 49.4125,20.6675 C50.3108378,20.3058315 51.1041632,19.7983366 51.7925,19.145 C52.4808368,18.4916634 53.0233314,17.7216711 53.42,16.835 C53.8166687,15.9483289 54.015,14.9800053 54.015,13.93 C54.015,12.8799948 53.8166687,11.9116711 53.42,11.025 C53.0233314,10.1383289 52.4808368,9.3683366 51.7925,8.715 C51.1041632,8.0616634 50.3108378,7.55416848 49.4125,7.1925 C48.5141622,6.83083153 47.5633383,6.65 46.56,6.65 C45.5566617,6.65 44.6058378,6.83083153 43.7075,7.1925 C42.8091622,7.55416848 42.0216701,8.0616634 41.345,8.715 C40.66833,9.3683366 40.1316687,10.1383289 39.735,11.025 C39.3383313,11.9116711 39.14,12.8799948 39.14,13.93 Z M31.965,13.93 C31.965,11.9699902 32.326663,10.1441751 33.05,8.4525 C33.773337,6.76082487 34.7766602,5.2850063 36.06,4.025 C37.3433398,2.7649937 38.8774911,1.77917023 40.6625,1.0675 C42.4475089,0.355829775 44.4133226,0 46.56,0 C48.6833439,0 50.6433244,0.355829775 52.44,1.0675 C54.2366757,1.77917023 55.7824935,2.7649937 57.0775,4.025 C58.3725065,5.2850063 59.3816631,6.76082487 60.105,8.4525 C60.8283369,10.1441751 61.19,11.9699902 61.19,13.93 C61.19,15.8900098 60.8283369,17.7158249 60.105,19.4075 C59.3816631,21.0991751 58.3725065,22.5749937 57.0775,23.835 C55.7824935,25.0950063 54.2366757,26.0808298 52.44,26.7925 C50.6433244,27.5041702 48.6833439,27.86 46.56,27.86 C44.4133226,27.86 42.4475089,27.5041702 40.6625,26.7925 C38.8774911,26.0808298 37.3433398,25.0950063 36.06,23.835 C34.7766602,22.5749937 33.773337,21.0991751 33.05,19.4075 C32.326663,17.7158249 31.965,15.8900098 31.965,13.93 Z M64.34,27.125 L68.82,0.735 L75.61,0.735 L80.895,14.805 L86.145,0.735 L92.935,0.735 L97.415,27.125 L90.59,27.125 L88.315,11.935 L82.085,27.125 L79.355,27.125 L73.44,11.935 L71.165,27.125 L64.34,27.125 Z M116.77,6.545 L108.615,6.545 L108.615,10.955 L116.315,10.955 L116.315,16.765 L108.615,16.765 L108.615,21.315 L116.77,21.315 L116.77,27.125 L101.755,27.125 L101.755,0.735 L116.77,0.735 L116.77,6.545 Z" id="HOME-Copy-14" fill="url(#linearGradient-1)"></path>
                <path d="M6.86,10.92 L16.765,10.92 L16.765,0.735 L23.625,0.735 L23.625,27.125 L16.765,27.125 L16.765,16.24 L6.86,16.24 L6.86,27.125 L0,27.125 L0,0.735 L6.86,0.735 L6.86,10.92 Z M35.14,13.93 C35.14,14.9800053 35.3383313,15.9483289 35.735,16.835 C36.1316687,17.7216711 36.66833,18.4916634 37.345,19.145 C38.0216701,19.7983366 38.8091622,20.3058315 39.7075,20.6675 C40.6058378,21.0291685 41.5566617,21.21 42.56,21.21 C43.5633383,21.21 44.5141622,21.0291685 45.4125,20.6675 C46.3108378,20.3058315 47.1041632,19.7983366 47.7925,19.145 C48.4808368,18.4916634 49.0233314,17.7216711 49.42,16.835 C49.8166687,15.9483289 50.015,14.9800053 50.015,13.93 C50.015,12.8799948 49.8166687,11.9116711 49.42,11.025 C49.0233314,10.1383289 48.4808368,9.3683366 47.7925,8.715 C47.1041632,8.0616634 46.3108378,7.55416848 45.4125,7.1925 C44.5141622,6.83083153 43.5633383,6.65 42.56,6.65 C41.5566617,6.65 40.6058378,6.83083153 39.7075,7.1925 C38.8091622,7.55416848 38.0216701,8.0616634 37.345,8.715 C36.66833,9.3683366 36.1316687,10.1383289 35.735,11.025 C35.3383313,11.9116711 35.14,12.8799948 35.14,13.93 Z M27.965,13.93 C27.965,11.9699902 28.326663,10.1441751 29.05,8.4525 C29.773337,6.76082487 30.7766602,5.2850063 32.06,4.025 C33.3433398,2.7649937 34.8774911,1.77917023 36.6625,1.0675 C38.4475089,0.355829775 40.4133226,0 42.56,0 C44.6833439,0 46.6433244,0.355829775 48.44,1.0675 C50.2366757,1.77917023 51.7824935,2.7649937 53.0775,4.025 C54.3725065,5.2850063 55.3816631,6.76082487 56.105,8.4525 C56.8283369,10.1441751 57.19,11.9699902 57.19,13.93 C57.19,15.8900098 56.8283369,17.7158249 56.105,19.4075 C55.3816631,21.0991751 54.3725065,22.5749937 53.0775,23.835 C51.7824935,25.0950063 50.2366757,26.0808298 48.44,26.7925 C46.6433244,27.5041702 44.6833439,27.86 42.56,27.86 C40.4133226,27.86 38.4475089,27.5041702 36.6625,26.7925 C34.8774911,26.0808298 33.3433398,25.0950063 32.06,23.835 C30.7766602,22.5749937 29.773337,21.0991751 29.05,19.4075 C28.326663,17.7158249 27.965,15.8900098 27.965,13.93 Z M60.34,27.125 L64.82,0.735 L71.61,0.735 L76.895,14.805 L82.145,0.735 L88.935,0.735 L93.415,27.125 L86.59,27.125 L84.315,11.935 L78.085,27.125 L75.355,27.125 L69.44,11.935 L67.165,27.125 L60.34,27.125 Z M112.77,6.545 L104.615,6.545 L104.615,10.955 L112.315,10.955 L112.315,16.765 L104.615,16.765 L104.615,21.315 L112.77,21.315 L112.77,27.125 L97.755,27.125 L97.755,0.735 L112.77,0.735 L112.77,6.545 Z" id="HOME-Copy-13" fill="#FFFFFF"></path>
                <path d="M10.86,10.92 L20.765,10.92 L20.765,0.735 L27.625,0.735 L27.625,27.125 L20.765,27.125 L20.765,16.24 L10.86,16.24 L10.86,27.125 L4,27.125 L4,0.735 L10.86,0.735 L10.86,10.92 Z M39.14,13.93 C39.14,14.9800053 39.3383313,15.9483289 39.735,16.835 C40.1316687,17.7216711 40.66833,18.4916634 41.345,19.145 C42.0216701,19.7983366 42.8091622,20.3058315 43.7075,20.6675 C44.6058378,21.0291685 45.5566617,21.21 46.56,21.21 C47.5633383,21.21 48.5141622,21.0291685 49.4125,20.6675 C50.3108378,20.3058315 51.1041632,19.7983366 51.7925,19.145 C52.4808368,18.4916634 53.0233314,17.7216711 53.42,16.835 C53.8166687,15.9483289 54.015,14.9800053 54.015,13.93 C54.015,12.8799948 53.8166687,11.9116711 53.42,11.025 C53.0233314,10.1383289 52.4808368,9.3683366 51.7925,8.715 C51.1041632,8.0616634 50.3108378,7.55416848 49.4125,7.1925 C48.5141622,6.83083153 47.5633383,6.65 46.56,6.65 C45.5566617,6.65 44.6058378,6.83083153 43.7075,7.1925 C42.8091622,7.55416848 42.0216701,8.0616634 41.345,8.715 C40.66833,9.3683366 40.1316687,10.1383289 39.735,11.025 C39.3383313,11.9116711 39.14,12.8799948 39.14,13.93 Z M31.965,13.93 C31.965,11.9699902 32.326663,10.1441751 33.05,8.4525 C33.773337,6.76082487 34.7766602,5.2850063 36.06,4.025 C37.3433398,2.7649937 38.8774911,1.77917023 40.6625,1.0675 C42.4475089,0.355829775 44.4133226,0 46.56,0 C48.6833439,0 50.6433244,0.355829775 52.44,1.0675 C54.2366757,1.77917023 55.7824935,2.7649937 57.0775,4.025 C58.3725065,5.2850063 59.3816631,6.76082487 60.105,8.4525 C60.8283369,10.1441751 61.19,11.9699902 61.19,13.93 C61.19,15.8900098 60.8283369,17.7158249 60.105,19.4075 C59.3816631,21.0991751 58.3725065,22.5749937 57.0775,23.835 C55.7824935,25.0950063 54.2366757,26.0808298 52.44,26.7925 C50.6433244,27.5041702 48.6833439,27.86 46.56,27.86 C44.4133226,27.86 42.4475089,27.5041702 40.6625,26.7925 C38.8774911,26.0808298 37.3433398,25.0950063 36.06,23.835 C34.7766602,22.5749937 33.773337,21.0991751 33.05,19.4075 C32.326663,17.7158249 31.965,15.8900098 31.965,13.93 Z M64.34,27.125 L68.82,0.735 L75.61,0.735 L80.895,14.805 L86.145,0.735 L92.935,0.735 L97.415,27.125 L90.59,27.125 L88.315,11.935 L82.085,27.125 L79.355,27.125 L73.44,11.935 L71.165,27.125 L64.34,27.125 Z M116.77,6.545 L108.615,6.545 L108.615,10.955 L116.315,10.955 L116.315,16.765 L108.615,16.765 L108.615,21.315 L116.77,21.315 L116.77,27.125 L101.755,27.125 L101.755,0.735 L116.77,0.735 L116.77,6.545 Z" id="HOME-Copy-12" fill="url(#linearGradient-1)"></path>
                <path d="M6.86,10.92 L16.765,10.92 L16.765,0.735 L23.625,0.735 L23.625,27.125 L16.765,27.125 L16.765,16.24 L6.86,16.24 L6.86,27.125 L0,27.125 L0,0.735 L6.86,0.735 L6.86,10.92 Z M35.14,13.93 C35.14,14.9800053 35.3383313,15.9483289 35.735,16.835 C36.1316687,17.7216711 36.66833,18.4916634 37.345,19.145 C38.0216701,19.7983366 38.8091622,20.3058315 39.7075,20.6675 C40.6058378,21.0291685 41.5566617,21.21 42.56,21.21 C43.5633383,21.21 44.5141622,21.0291685 45.4125,20.6675 C46.3108378,20.3058315 47.1041632,19.7983366 47.7925,19.145 C48.4808368,18.4916634 49.0233314,17.7216711 49.42,16.835 C49.8166687,15.9483289 50.015,14.9800053 50.015,13.93 C50.015,12.8799948 49.8166687,11.9116711 49.42,11.025 C49.0233314,10.1383289 48.4808368,9.3683366 47.7925,8.715 C47.1041632,8.0616634 46.3108378,7.55416848 45.4125,7.1925 C44.5141622,6.83083153 43.5633383,6.65 42.56,6.65 C41.5566617,6.65 40.6058378,6.83083153 39.7075,7.1925 C38.8091622,7.55416848 38.0216701,8.0616634 37.345,8.715 C36.66833,9.3683366 36.1316687,10.1383289 35.735,11.025 C35.3383313,11.9116711 35.14,12.8799948 35.14,13.93 Z M27.965,13.93 C27.965,11.9699902 28.326663,10.1441751 29.05,8.4525 C29.773337,6.76082487 30.7766602,5.2850063 32.06,4.025 C33.3433398,2.7649937 34.8774911,1.77917023 36.6625,1.0675 C38.4475089,0.355829775 40.4133226,0 42.56,0 C44.6833439,0 46.6433244,0.355829775 48.44,1.0675 C50.2366757,1.77917023 51.7824935,2.7649937 53.0775,4.025 C54.3725065,5.2850063 55.3816631,6.76082487 56.105,8.4525 C56.8283369,10.1441751 57.19,11.9699902 57.19,13.93 C57.19,15.8900098 56.8283369,17.7158249 56.105,19.4075 C55.3816631,21.0991751 54.3725065,22.5749937 53.0775,23.835 C51.7824935,25.0950063 50.2366757,26.0808298 48.44,26.7925 C46.6433244,27.5041702 44.6833439,27.86 42.56,27.86 C40.4133226,27.86 38.4475089,27.5041702 36.6625,26.7925 C34.8774911,26.0808298 33.3433398,25.0950063 32.06,23.835 C30.7766602,22.5749937 29.773337,21.0991751 29.05,19.4075 C28.326663,17.7158249 27.965,15.8900098 27.965,13.93 Z M60.34,27.125 L64.82,0.735 L71.61,0.735 L76.895,14.805 L82.145,0.735 L88.935,0.735 L93.415,27.125 L86.59,27.125 L84.315,11.935 L78.085,27.125 L75.355,27.125 L69.44,11.935 L67.165,27.125 L60.34,27.125 Z M112.77,6.545 L104.615,6.545 L104.615,10.955 L112.315,10.955 L112.315,16.765 L104.615,16.765 L104.615,21.315 L112.77,21.315 L112.77,27.125 L97.755,27.125 L97.755,0.735 L112.77,0.735 L112.77,6.545 Z" id="HOME-Copy-11" fill="#FFFFFF"></path>
            </g>
        </g>
    </g>
</svg>
