<?xml version="1.0" encoding="UTF-8"?>
<svg width="226px" height="32px" viewBox="0 0 226 32" version="1.1" xmlns="http://www.w3.org/2000/svg" xmlns:xlink="http://www.w3.org/1999/xlink">
    <!-- Generator: sketchtool 51.1 (57501) - http://www.bohemiancoding.com/sketch -->
    <title>944E9BB9-61B4-458E-B5BE-324C46E73637</title>
    <desc>Created with sketchtool.</desc>
    <defs>
        <linearGradient x1="100%" y1="0%" x2="-28.9637855%" y2="128.649196%" id="linearGradient-1">
            <stop stop-color="#97E055" offset="0%"></stop>
            <stop stop-color="#80C9F6" offset="50.6773844%"></stop>
            <stop stop-color="#A37CD8" offset="100%"></stop>
        </linearGradient>
    </defs>
    <g id="Page-2" stroke="none" stroke-width="1" fill="none" fill-rule="evenodd">
        <g id="메뉴바" transform="translate(-566.000000, -560.000000)" stroke="#4A4A4A">
            <g id="btn_mn_designers_s" transform="translate(566.000000, 561.000000)">
                <path d="M12.175,22.858 L13.84,22.858 C15.0980063,22.858 16.2203284,22.6606686 17.207,22.266 C18.1936716,21.8713314 19.0261633,21.3286701 19.7045,20.638 C20.3828367,19.9473299 20.9008315,19.1271714 21.2585,18.1775 C21.6161685,17.2278286 21.795,16.1856723 21.795,15.051 C21.795,13.9409944 21.6100019,12.9050048 21.24,11.943 C20.8699982,10.9809952 20.3458367,10.1546701 19.6675,9.464 C18.9891633,8.77332988 18.1566716,8.23066864 17.17,7.836 C16.1833284,7.44133136 15.0733395,7.244 13.84,7.244 L12.175,7.244 L12.175,22.858 Z M4.923,1.102 L15.653,1.102 C17.5523428,1.102 19.3344917,1.48432951 20.9995,2.249 C22.6645083,3.01367049 24.1198271,4.03116031 25.3655,5.3015 C26.6111729,6.57183968 27.5916631,8.05182488 28.307,9.7415 C29.0223369,11.4311751 29.38,13.2009907 29.38,15.051 C29.38,16.8763425 29.0285035,18.6338249 28.3255,20.3235 C27.6224965,22.0131751 26.6481729,23.4993269 25.4025,24.782 C24.1568271,26.0646731 22.7015083,27.0883295 21.0365,27.853 C19.3714917,28.6176705 17.5770096,29 15.653,29 L4.923,29 L4.923,1.102 Z M49.878,7.244 L41.257,7.244 L41.257,11.906 L49.397,11.906 L49.397,18.048 L41.257,18.048 L41.257,22.858 L49.878,22.858 L49.878,29 L34.005,29 L34.005,1.102 L49.878,1.102 L49.878,7.244 Z M70.413,8.243 C69.6236627,7.60166346 68.8343373,7.12683487 68.045,6.8185 C67.2556627,6.51016512 66.4910037,6.356 65.751,6.356 C64.813662,6.356 64.049003,6.57799778 63.457,7.022 C62.864997,7.46600222 62.569,8.04566309 62.569,8.761 C62.569,9.2543358 62.7169985,9.66133173 63.013,9.982 C63.3090015,10.3026683 63.6974976,10.5801655 64.1785,10.8145 C64.6595024,11.0488345 65.2021636,11.2523325 65.8065,11.425 C66.4108364,11.5976675 67.008997,11.7826657 67.601,11.98 C69.9690118,12.7693373 71.7018278,13.8238267 72.7995,15.1435 C73.8971722,16.4631733 74.446,18.1836561 74.446,20.305 C74.446,21.7356738 74.2055024,23.0306609 73.7245,24.19 C73.2434976,25.3493391 72.5405046,26.3421625 71.6155,27.1685 C70.6904954,27.9948375 69.5558401,28.6361644 68.2115,29.0925 C66.8671599,29.5488356 65.3440085,29.777 63.642,29.777 C60.114649,29.777 56.8463484,28.7286771 53.837,26.632 L56.945,20.786 C58.0303388,21.7480048 59.103328,22.463331 60.164,22.932 C61.224672,23.400669 62.2729948,23.635 63.309,23.635 C64.4930059,23.635 65.3748304,23.3636694 65.9545,22.821 C66.5341696,22.2783306 66.824,21.6616701 66.824,20.971 C66.824,20.5516646 66.7500007,20.1878349 66.602,19.8795 C66.4539993,19.5711651 66.2073351,19.2875013 65.862,19.0285 C65.5166649,18.7694987 65.0665028,18.5290011 64.5115,18.307 C63.9564972,18.0849989 63.2843373,17.8383347 62.495,17.567 C61.557662,17.2709985 60.6388378,16.9441685 59.7385,16.5865 C58.8381622,16.2288315 58.0365035,15.754003 57.3335,15.162 C56.6304965,14.569997 56.0631688,13.8238378 55.6315,12.9235 C55.1998312,12.0231622 54.984,10.8823402 54.984,9.501 C54.984,8.11965976 55.2121644,6.86783895 55.6685,5.7455 C56.1248356,4.62316105 56.7661625,3.66117067 57.5925,2.8595 C58.4188375,2.05782932 59.4301607,1.43500222 60.6265,0.991 C61.8228393,0.54699778 63.1609926,0.325 64.641,0.325 C66.0223402,0.325 67.4653258,0.516164755 68.97,0.8985 C70.4746742,1.28083525 71.9176598,1.8419963 73.299,2.582 L70.413,8.243 Z M86.249,1.102 L86.249,29 L78.997,29 L78.997,1.102 L86.249,1.102 Z M105.674,13.386 L120.067,13.386 C120.067,14.8660074 120.005334,16.2103273 119.882,17.419 C119.758666,18.6276727 119.512002,19.7499948 119.142,20.786 C118.623997,22.2413406 117.921004,23.5301611 117.033,24.6525 C116.144996,25.7748389 115.102839,26.7121629 113.9065,27.4645 C112.710161,28.2168371 111.396674,28.7903314 109.966,29.185 C108.535326,29.5796686 107.030675,29.777 105.452,29.777 C103.281322,29.777 101.301842,29.4193369 99.5135,28.704 C97.7251577,27.9886631 96.1896731,26.9835065 94.907,25.6885 C93.6243269,24.3934935 92.6253369,22.8395091 91.91,21.0265 C91.1946631,19.2134909 90.837,17.2093443 90.837,15.014 C90.837,12.8433225 91.1884965,10.8515091 91.8915,9.0385 C92.5945035,7.22549094 93.5934935,5.67767308 94.8885,4.395 C96.1835065,3.11232692 97.7436575,2.11333691 99.569,1.398 C101.394342,0.68266309 103.429322,0.325 105.674,0.325 C108.584681,0.325 111.137656,0.95399371 113.333,2.212 C115.528344,3.47000629 117.267327,5.41865347 118.55,8.058 L111.668,10.907 C111.026663,9.37765902 110.194172,8.28000333 109.1705,7.614 C108.146828,6.94799667 106.98134,6.615 105.674,6.615 C104.588661,6.615 103.602004,6.81849797 102.714,7.2255 C101.825996,7.63250204 101.067503,8.21216291 100.4385,8.9645 C99.8094969,9.71683709 99.3161685,10.623328 98.9585,11.684 C98.6008315,12.744672 98.422,13.9286601 98.422,15.236 C98.422,16.4200059 98.5761651,17.5176616 98.8845,18.529 C99.1928349,19.5403384 99.6553303,20.4159963 100.272,21.156 C100.88867,21.8960037 101.653329,22.469498 102.566,22.8765 C103.478671,23.283502 104.539327,23.487 105.748,23.487 C106.463337,23.487 107.153997,23.4068341 107.82,23.2465 C108.486003,23.0861659 109.084164,22.8271685 109.6145,22.4695 C110.144836,22.1118315 110.582665,21.6493362 110.928,21.082 C111.273335,20.5146638 111.507666,19.8240041 111.631,19.01 L105.674,19.01 L105.674,13.386 Z M124.655,29 L124.655,1.102 L131.907,1.102 L145.301,18.159 L145.301,1.102 L152.516,1.102 L152.516,29 L145.301,29 L131.907,11.943 L131.907,29 L124.655,29 Z M174.235,7.244 L165.614,7.244 L165.614,11.906 L173.754,11.906 L173.754,18.048 L165.614,18.048 L165.614,22.858 L174.235,22.858 L174.235,29 L158.362,29 L158.362,1.102 L174.235,1.102 L174.235,7.244 Z M186.704,13.571 L188.073,13.571 C189.503674,13.571 190.60133,13.275003 191.366,12.683 C192.13067,12.090997 192.513,11.2400055 192.513,10.13 C192.513,9.01999445 192.13067,8.16900296 191.366,7.577 C190.60133,6.98499704 189.503674,6.689 188.073,6.689 L186.704,6.689 L186.704,13.571 Z M202.651,29 L193.623,29 L186.704,18.27 L186.704,29 L179.452,29 L179.452,1.102 L190.737,1.102 C192.291008,1.102 193.647661,1.33016438 194.807,1.7865 C195.966339,2.24283561 196.922163,2.86566272 197.6745,3.655 C198.426837,4.44433728 198.994165,5.35699482 199.3765,6.393 C199.758835,7.42900518 199.95,8.53899408 199.95,9.723 C199.95,11.8443439 199.438172,13.5648267 198.4145,14.8845 C197.390828,16.2041733 195.88001,17.098331 193.882,17.567 L202.651,29 Z M221.003,8.243 C220.213663,7.60166346 219.424337,7.12683487 218.635,6.8185 C217.845663,6.51016512 217.081004,6.356 216.341,6.356 C215.403662,6.356 214.639003,6.57799778 214.047,7.022 C213.454997,7.46600222 213.159,8.04566309 213.159,8.761 C213.159,9.2543358 213.306999,9.66133173 213.603,9.982 C213.899001,10.3026683 214.287498,10.5801655 214.7685,10.8145 C215.249502,11.0488345 215.792164,11.2523325 216.3965,11.425 C217.000836,11.5976675 217.598997,11.7826657 218.191,11.98 C220.559012,12.7693373 222.291828,13.8238267 223.3895,15.1435 C224.487172,16.4631733 225.036,18.1836561 225.036,20.305 C225.036,21.7356738 224.795502,23.0306609 224.3145,24.19 C223.833498,25.3493391 223.130505,26.3421625 222.2055,27.1685 C221.280495,27.9948375 220.14584,28.6361644 218.8015,29.0925 C217.45716,29.5488356 215.934009,29.777 214.232,29.777 C210.704649,29.777 207.436348,28.7286771 204.427,26.632 L207.535,20.786 C208.620339,21.7480048 209.693328,22.463331 210.754,22.932 C211.814672,23.400669 212.862995,23.635 213.899,23.635 C215.083006,23.635 215.96483,23.3636694 216.5445,22.821 C217.12417,22.2783306 217.414,21.6616701 217.414,20.971 C217.414,20.5516646 217.340001,20.1878349 217.192,19.8795 C217.043999,19.5711651 216.797335,19.2875013 216.452,19.0285 C216.106665,18.7694987 215.656503,18.5290011 215.1015,18.307 C214.546497,18.0849989 213.874337,17.8383347 213.085,17.567 C212.147662,17.2709985 211.228838,16.9441685 210.3285,16.5865 C209.428162,16.2288315 208.626504,15.754003 207.9235,15.162 C207.220496,14.569997 206.653169,13.8238378 206.2215,12.9235 C205.789831,12.0231622 205.574,10.8823402 205.574,9.501 C205.574,8.11965976 205.802164,6.86783895 206.2585,5.7455 C206.714836,4.62316105 207.356163,3.66117067 208.1825,2.8595 C209.008837,2.05782932 210.020161,1.43500222 211.2165,0.991 C212.412839,0.54699778 213.750993,0.325 215.231,0.325 C216.61234,0.325 218.055326,0.516164755 219.56,0.8985 C221.064674,1.28083525 222.50766,1.8419963 223.889,2.582 L221.003,8.243 Z" id="DESIGNERS-Copy" fill="url(#linearGradient-1)"></path>
                <path d="M8.175,22.858 L9.84,22.858 C11.0980063,22.858 12.2203284,22.6606686 13.207,22.266 C14.1936716,21.8713314 15.0261633,21.3286701 15.7045,20.638 C16.3828367,19.9473299 16.9008315,19.1271714 17.2585,18.1775 C17.6161685,17.2278286 17.795,16.1856723 17.795,15.051 C17.795,13.9409944 17.6100019,12.9050048 17.24,11.943 C16.8699982,10.9809952 16.3458367,10.1546701 15.6675,9.464 C14.9891633,8.77332988 14.1566716,8.23066864 13.17,7.836 C12.1833284,7.44133136 11.0733395,7.244 9.84,7.244 L8.175,7.244 L8.175,22.858 Z M0.923,1.102 L11.653,1.102 C13.5523428,1.102 15.3344917,1.48432951 16.9995,2.249 C18.6645083,3.01367049 20.1198271,4.03116031 21.3655,5.3015 C22.6111729,6.57183968 23.5916631,8.05182488 24.307,9.7415 C25.0223369,11.4311751 25.38,13.2009907 25.38,15.051 C25.38,16.8763425 25.0285035,18.6338249 24.3255,20.3235 C23.6224965,22.0131751 22.6481729,23.4993269 21.4025,24.782 C20.1568271,26.0646731 18.7015083,27.0883295 17.0365,27.853 C15.3714917,28.6176705 13.5770096,29 11.653,29 L0.923,29 L0.923,1.102 Z M45.878,7.244 L37.257,7.244 L37.257,11.906 L45.397,11.906 L45.397,18.048 L37.257,18.048 L37.257,22.858 L45.878,22.858 L45.878,29 L30.005,29 L30.005,1.102 L45.878,1.102 L45.878,7.244 Z M66.413,8.243 C65.6236627,7.60166346 64.8343373,7.12683487 64.045,6.8185 C63.2556627,6.51016512 62.4910037,6.356 61.751,6.356 C60.813662,6.356 60.049003,6.57799778 59.457,7.022 C58.864997,7.46600222 58.569,8.04566309 58.569,8.761 C58.569,9.2543358 58.7169985,9.66133173 59.013,9.982 C59.3090015,10.3026683 59.6974976,10.5801655 60.1785,10.8145 C60.6595024,11.0488345 61.2021636,11.2523325 61.8065,11.425 C62.4108364,11.5976675 63.008997,11.7826657 63.601,11.98 C65.9690118,12.7693373 67.7018278,13.8238267 68.7995,15.1435 C69.8971722,16.4631733 70.446,18.1836561 70.446,20.305 C70.446,21.7356738 70.2055024,23.0306609 69.7245,24.19 C69.2434976,25.3493391 68.5405046,26.3421625 67.6155,27.1685 C66.6904954,27.9948375 65.5558401,28.6361644 64.2115,29.0925 C62.8671599,29.5488356 61.3440085,29.777 59.642,29.777 C56.114649,29.777 52.8463484,28.7286771 49.837,26.632 L52.945,20.786 C54.0303388,21.7480048 55.103328,22.463331 56.164,22.932 C57.224672,23.400669 58.2729948,23.635 59.309,23.635 C60.4930059,23.635 61.3748304,23.3636694 61.9545,22.821 C62.5341696,22.2783306 62.824,21.6616701 62.824,20.971 C62.824,20.5516646 62.7500007,20.1878349 62.602,19.8795 C62.4539993,19.5711651 62.2073351,19.2875013 61.862,19.0285 C61.5166649,18.7694987 61.0665028,18.5290011 60.5115,18.307 C59.9564972,18.0849989 59.2843373,17.8383347 58.495,17.567 C57.557662,17.2709985 56.6388378,16.9441685 55.7385,16.5865 C54.8381622,16.2288315 54.0365035,15.754003 53.3335,15.162 C52.6304965,14.569997 52.0631688,13.8238378 51.6315,12.9235 C51.1998312,12.0231622 50.984,10.8823402 50.984,9.501 C50.984,8.11965976 51.2121644,6.86783895 51.6685,5.7455 C52.1248356,4.62316105 52.7661625,3.66117067 53.5925,2.8595 C54.4188375,2.05782932 55.4301607,1.43500222 56.6265,0.991 C57.8228393,0.54699778 59.1609926,0.325 60.641,0.325 C62.0223402,0.325 63.4653258,0.516164755 64.97,0.8985 C66.4746742,1.28083525 67.9176598,1.8419963 69.299,2.582 L66.413,8.243 Z M82.249,1.102 L82.249,29 L74.997,29 L74.997,1.102 L82.249,1.102 Z M101.674,13.386 L116.067,13.386 C116.067,14.8660074 116.005334,16.2103273 115.882,17.419 C115.758666,18.6276727 115.512002,19.7499948 115.142,20.786 C114.623997,22.2413406 113.921004,23.5301611 113.033,24.6525 C112.144996,25.7748389 111.102839,26.7121629 109.9065,27.4645 C108.710161,28.2168371 107.396674,28.7903314 105.966,29.185 C104.535326,29.5796686 103.030675,29.777 101.452,29.777 C99.2813225,29.777 97.3018423,29.4193369 95.5135,28.704 C93.7251577,27.9886631 92.1896731,26.9835065 90.907,25.6885 C89.6243269,24.3934935 88.6253369,22.8395091 87.91,21.0265 C87.1946631,19.2134909 86.837,17.2093443 86.837,15.014 C86.837,12.8433225 87.1884965,10.8515091 87.8915,9.0385 C88.5945035,7.22549094 89.5934935,5.67767308 90.8885,4.395 C92.1835065,3.11232692 93.7436575,2.11333691 95.569,1.398 C97.3943425,0.68266309 99.4293221,0.325 101.674,0.325 C104.584681,0.325 107.137656,0.95399371 109.333,2.212 C111.528344,3.47000629 113.267327,5.41865347 114.55,8.058 L107.668,10.907 C107.026663,9.37765902 106.194172,8.28000333 105.1705,7.614 C104.146828,6.94799667 102.98134,6.615 101.674,6.615 C100.588661,6.615 99.6020044,6.81849797 98.714,7.2255 C97.8259956,7.63250204 97.0675031,8.21216291 96.4385,8.9645 C95.8094969,9.71683709 95.3161685,10.623328 94.9585,11.684 C94.6008315,12.744672 94.422,13.9286601 94.422,15.236 C94.422,16.4200059 94.5761651,17.5176616 94.8845,18.529 C95.1928349,19.5403384 95.6553303,20.4159963 96.272,21.156 C96.8886698,21.8960037 97.6533288,22.469498 98.566,22.8765 C99.4786712,23.283502 100.539327,23.487 101.748,23.487 C102.463337,23.487 103.153997,23.4068341 103.82,23.2465 C104.486003,23.0861659 105.084164,22.8271685 105.6145,22.4695 C106.144836,22.1118315 106.582665,21.6493362 106.928,21.082 C107.273335,20.5146638 107.507666,19.8240041 107.631,19.01 L101.674,19.01 L101.674,13.386 Z M120.655,29 L120.655,1.102 L127.907,1.102 L141.301,18.159 L141.301,1.102 L148.516,1.102 L148.516,29 L141.301,29 L127.907,11.943 L127.907,29 L120.655,29 Z M170.235,7.244 L161.614,7.244 L161.614,11.906 L169.754,11.906 L169.754,18.048 L161.614,18.048 L161.614,22.858 L170.235,22.858 L170.235,29 L154.362,29 L154.362,1.102 L170.235,1.102 L170.235,7.244 Z M182.704,13.571 L184.073,13.571 C185.503674,13.571 186.60133,13.275003 187.366,12.683 C188.13067,12.090997 188.513,11.2400055 188.513,10.13 C188.513,9.01999445 188.13067,8.16900296 187.366,7.577 C186.60133,6.98499704 185.503674,6.689 184.073,6.689 L182.704,6.689 L182.704,13.571 Z M198.651,29 L189.623,29 L182.704,18.27 L182.704,29 L175.452,29 L175.452,1.102 L186.737,1.102 C188.291008,1.102 189.647661,1.33016438 190.807,1.7865 C191.966339,2.24283561 192.922163,2.86566272 193.6745,3.655 C194.426837,4.44433728 194.994165,5.35699482 195.3765,6.393 C195.758835,7.42900518 195.95,8.53899408 195.95,9.723 C195.95,11.8443439 195.438172,13.5648267 194.4145,14.8845 C193.390828,16.2041733 191.88001,17.098331 189.882,17.567 L198.651,29 Z M217.003,8.243 C216.213663,7.60166346 215.424337,7.12683487 214.635,6.8185 C213.845663,6.51016512 213.081004,6.356 212.341,6.356 C211.403662,6.356 210.639003,6.57799778 210.047,7.022 C209.454997,7.46600222 209.159,8.04566309 209.159,8.761 C209.159,9.2543358 209.306999,9.66133173 209.603,9.982 C209.899001,10.3026683 210.287498,10.5801655 210.7685,10.8145 C211.249502,11.0488345 211.792164,11.2523325 212.3965,11.425 C213.000836,11.5976675 213.598997,11.7826657 214.191,11.98 C216.559012,12.7693373 218.291828,13.8238267 219.3895,15.1435 C220.487172,16.4631733 221.036,18.1836561 221.036,20.305 C221.036,21.7356738 220.795502,23.0306609 220.3145,24.19 C219.833498,25.3493391 219.130505,26.3421625 218.2055,27.1685 C217.280495,27.9948375 216.14584,28.6361644 214.8015,29.0925 C213.45716,29.5488356 211.934009,29.777 210.232,29.777 C206.704649,29.777 203.436348,28.7286771 200.427,26.632 L203.535,20.786 C204.620339,21.7480048 205.693328,22.463331 206.754,22.932 C207.814672,23.400669 208.862995,23.635 209.899,23.635 C211.083006,23.635 211.96483,23.3636694 212.5445,22.821 C213.12417,22.2783306 213.414,21.6616701 213.414,20.971 C213.414,20.5516646 213.340001,20.1878349 213.192,19.8795 C213.043999,19.5711651 212.797335,19.2875013 212.452,19.0285 C212.106665,18.7694987 211.656503,18.5290011 211.1015,18.307 C210.546497,18.0849989 209.874337,17.8383347 209.085,17.567 C208.147662,17.2709985 207.228838,16.9441685 206.3285,16.5865 C205.428162,16.2288315 204.626504,15.754003 203.9235,15.162 C203.220496,14.569997 202.653169,13.8238378 202.2215,12.9235 C201.789831,12.0231622 201.574,10.8823402 201.574,9.501 C201.574,8.11965976 201.802164,6.86783895 202.2585,5.7455 C202.714836,4.62316105 203.356163,3.66117067 204.1825,2.8595 C205.008837,2.05782932 206.020161,1.43500222 207.2165,0.991 C208.412839,0.54699778 209.750993,0.325 211.231,0.325 C212.61234,0.325 214.055326,0.516164755 215.56,0.8985 C217.064674,1.28083525 218.50766,1.8419963 219.889,2.582 L217.003,8.243 Z" id="DESIGNERS" fill="#FFFFFF"></path>
            </g>
        </g>
    </g>
</svg>