<?xml version="1.0" encoding="UTF-8"?>
<svg preserveAspectRatio="xMinYMin meet"  width="138px" height="30px" viewBox="0 0 138 30" version="1.1" xmlns="http://www.w3.org/2000/svg" xmlns:xlink="http://www.w3.org/1999/xlink">
    <!-- Generator: sketchtool 51.1 (57501) - http://www.bohemiancoding.com/sketch -->
    <title>3522B90E-7570-45D6-98EA-4C43CD9661B9</title>
    <desc>Created with sketchtool.</desc>
    <defs>
        <linearGradient x1="100%" y1="0%" x2="-28.9637855%" y2="128.649196%" id="linearGradient-1">
            <stop stop-color="#97E055" offset="0%"></stop>
            <stop stop-color="#80C9F6" offset="50.6773844%"></stop>
            <stop stop-color="#A37CD8" offset="100%"></stop>
        </linearGradient>
    </defs>
    <g id="Page-2" stroke="none" stroke-width="1" fill="none" fill-rule="evenodd">
        <g id="메뉴바" transform="translate(-565.000000, -308.000000)" stroke="#4A4A4A">
            <g id="btn_mn_about_s" transform="translate(566.000000, 308.000000)">
                <path d="M20.264,18.2 L17.1611852,9.415 L14.0583704,18.2 L20.264,18.2 Z M22.0974815,23.415 L12.2248889,23.415 L10.6382222,28 L3.26903704,28 L13.3884444,1.61 L20.9339259,1.61 L31.0533333,28 L23.6841481,28 L22.0974815,23.415 Z M40.9964444,22.68 L42.5125926,22.68 C44.2520581,22.68 45.4978728,22.4583356 46.2500741,22.015 C47.0022754,21.5716645 47.3783704,20.8600049 47.3783704,19.88 C47.3783704,18.8999951 47.0022754,18.1883355 46.2500741,17.745 C45.4978728,17.3016644 44.2520581,17.08 42.5125926,17.08 L40.9964444,17.08 L40.9964444,22.68 Z M40.9964444,11.97 L42.2657778,11.97 C44.4283565,11.97 45.5096296,11.1183418 45.5096296,9.415 C45.5096296,7.71165815 44.4283565,6.86 42.2657778,6.86 L40.9964444,6.86 L40.9964444,11.97 Z M34.0856296,1.61 L44.3813333,1.61 C46.8259875,1.61 48.6829566,2.1933275 49.9522963,3.36 C51.221636,4.5266725 51.8562963,6.2066557 51.8562963,8.4 C51.8562963,9.73000665 51.6153604,10.8324956 51.1334815,11.7075 C50.6516025,12.5825044 49.917042,13.3233303 48.9297778,13.93 C49.917042,14.1166676 50.7573792,14.4024981 51.4508148,14.7875 C52.1442504,15.1725019 52.7083929,15.6449972 53.1432593,16.205 C53.5781256,16.7650028 53.8895793,17.3949965 54.0776296,18.095 C54.26568,18.7950035 54.3597037,19.5416627 54.3597037,20.335 C54.3597037,21.5716729 54.1422738,22.6683286 53.7074074,23.625 C53.272541,24.5816714 52.6613867,25.3866634 51.8739259,26.04 C51.0864652,26.6933366 50.1285982,27.1833317 49.0002963,27.51 C47.8719944,27.8366683 46.6026737,28 45.1922963,28 L34.0856296,28 L34.0856296,1.61 Z M64.5143704,14.805 C64.5143704,15.8550052 64.7141708,16.8233289 65.1137778,17.71 C65.5133847,18.5966711 66.0540213,19.3666634 66.7357037,20.02 C67.4173861,20.6733366 68.2107115,21.1808315 69.1157037,21.5425 C70.0206959,21.9041685 70.9785628,22.085 71.9893333,22.085 C73.0001038,22.085 73.9579708,21.9041685 74.862963,21.5425 C75.7679551,21.1808315 76.567157,20.6733366 77.2605926,20.02 C77.9540282,19.3666634 78.5005412,18.5966711 78.9001481,17.71 C79.2997551,16.8233289 79.4995556,15.8550052 79.4995556,14.805 C79.4995556,13.7549947 79.2997551,12.7866711 78.9001481,11.9 C78.5005412,11.0133289 77.9540282,10.2433366 77.2605926,9.59 C76.567157,8.9366634 75.7679551,8.42916847 74.862963,8.0675 C73.9579708,7.70583153 73.0001038,7.525 71.9893333,7.525 C70.9785628,7.525 70.0206959,7.70583153 69.1157037,8.0675 C68.2107115,8.42916847 67.4173861,8.9366634 66.7357037,9.59 C66.0540213,10.2433366 65.5133847,11.0133289 65.1137778,11.9 C64.7141708,12.7866711 64.5143704,13.7549947 64.5143704,14.805 Z M57.2862222,14.805 C57.2862222,12.8449902 57.6505643,11.0191751 58.3792593,9.3275 C59.1079543,7.63582488 60.1187096,6.1600063 61.4115556,4.9 C62.7044015,3.6399937 64.2499169,2.65417022 66.0481481,1.9425 C67.8463794,1.23082978 69.8267546,0.875 71.9893333,0.875 C74.1284058,0.875 76.1029045,1.23082978 77.9128889,1.9425 C79.7228732,2.65417022 81.2801416,3.6399937 82.5847407,4.9 C83.8893399,6.1600063 84.9059717,7.63582488 85.6346667,9.3275 C86.3633617,11.0191751 86.7277037,12.8449902 86.7277037,14.805 C86.7277037,16.7650098 86.3633617,18.5908249 85.6346667,20.2825 C84.9059717,21.9741751 83.8893399,23.4499937 82.5847407,24.71 C81.2801416,25.9700063 79.7228732,26.9558298 77.9128889,27.6675 C76.1029045,28.3791702 74.1284058,28.735 71.9893333,28.735 C69.8267546,28.735 67.8463794,28.3791702 66.0481481,27.6675 C64.2499169,26.9558298 62.7044015,25.9700063 61.4115556,24.71 C60.1187096,23.4499937 59.1079543,21.9741751 58.3792593,20.2825 C57.6505643,18.5908249 57.2862222,16.7650098 57.2862222,14.805 Z M98.0106667,1.61 L98.0106667,15.96 C98.0106667,16.7300039 98.0400491,17.517496 98.0988148,18.3225 C98.1575805,19.127504 98.3338751,19.8566634 98.6277037,20.51 C98.9215323,21.1633366 99.3857746,21.6941646 100.020444,22.1025 C100.655114,22.5108354 101.54834,22.715 102.700148,22.715 C103.851956,22.715 104.739306,22.5108354 105.362222,22.1025 C105.985139,21.6941646 106.449381,21.1633366 106.754963,20.51 C107.060545,19.8566634 107.242716,19.127504 107.301481,18.3225 C107.360247,17.517496 107.38963,16.7300039 107.38963,15.96 L107.38963,1.61 L114.265185,1.61 L114.265185,16.905 C114.265185,21.0116872 113.319071,24.0099905 111.426815,25.9 C109.534558,27.7900095 106.625699,28.735 102.700148,28.735 C98.7745977,28.735 95.8598614,27.7900095 93.9558519,25.9 C92.0518423,24.0099905 91.0998519,21.0116872 91.0998519,16.905 L91.0998519,1.61 L98.0106667,1.61 Z M129.920296,7.42 L129.920296,28 L123.009481,28 L123.009481,7.42 L117.332741,7.42 L117.332741,1.61 L135.597037,1.61 L135.597037,7.42 L129.920296,7.42 Z" id="ABOUT-Copy-6" fill="url(#linearGradient-1)"></path>
                <path d="M16.994963,18.325 L13.8921481,9.54 L10.7893333,18.325 L16.994963,18.325 Z M18.8284444,23.54 L8.95585185,23.54 L7.36918519,28.125 L0,28.125 L10.1194074,1.735 L17.6648889,1.735 L27.7842963,28.125 L20.4151111,28.125 L18.8284444,23.54 Z M37.7274074,22.805 L39.2435556,22.805 C40.983021,22.805 42.2288357,22.5833356 42.981037,22.14 C43.7332383,21.6966645 44.1093333,20.9850049 44.1093333,20.005 C44.1093333,19.0249951 43.7332383,18.3133355 42.981037,17.87 C42.2288357,17.4266644 40.983021,17.205 39.2435556,17.205 L37.7274074,17.205 L37.7274074,22.805 Z M37.7274074,12.095 L38.9967407,12.095 C41.1593195,12.095 42.2405926,11.2433418 42.2405926,9.54 C42.2405926,7.83665815 41.1593195,6.985 38.9967407,6.985 L37.7274074,6.985 L37.7274074,12.095 Z M30.8165926,1.735 L41.1122963,1.735 C43.5569505,1.735 45.4139196,2.3183275 46.6832593,3.485 C47.9525989,4.6516725 48.5872593,6.3316557 48.5872593,8.525 C48.5872593,9.85500665 48.3463234,10.9574956 47.8644444,11.8325 C47.3825655,12.7075044 46.6480049,13.4483303 45.6607407,14.055 C46.6480049,14.2416676 47.4883422,14.5274981 48.1817778,14.9125 C48.8752133,15.2975019 49.4393559,15.7699972 49.8742222,16.33 C50.3090886,16.8900028 50.6205423,17.5199965 50.8085926,18.22 C50.9966429,18.9200035 51.0906667,19.6666627 51.0906667,20.46 C51.0906667,21.6966729 50.8732367,22.7933286 50.4383704,23.75 C50.003504,24.7066714 49.3923496,25.5116634 48.6048889,26.165 C47.8174282,26.8183366 46.8595612,27.3083317 45.7312593,27.635 C44.6029573,27.9616683 43.3336367,28.125 41.9232593,28.125 L30.8165926,28.125 L30.8165926,1.735 Z M61.2453333,14.93 C61.2453333,15.9800052 61.4451338,16.9483289 61.8447407,17.835 C62.2443477,18.7216711 62.7849842,19.4916634 63.4666667,20.145 C64.1483491,20.7983366 64.9416745,21.3058315 65.8466667,21.6675 C66.7516588,22.0291685 67.7095258,22.21 68.7202963,22.21 C69.7310668,22.21 70.6889337,22.0291685 71.5939259,21.6675 C72.4989181,21.3058315 73.29812,20.7983366 73.9915556,20.145 C74.6849911,19.4916634 75.2315042,18.7216711 75.6311111,17.835 C76.030718,16.9483289 76.2305185,15.9800052 76.2305185,14.93 C76.2305185,13.8799947 76.030718,12.9116711 75.6311111,12.025 C75.2315042,11.1383289 74.6849911,10.3683366 73.9915556,9.715 C73.29812,9.0616634 72.4989181,8.55416847 71.5939259,8.1925 C70.6889337,7.83083153 69.7310668,7.65 68.7202963,7.65 C67.7095258,7.65 66.7516588,7.83083153 65.8466667,8.1925 C64.9416745,8.55416847 64.1483491,9.0616634 63.4666667,9.715 C62.7849842,10.3683366 62.2443477,11.1383289 61.8447407,12.025 C61.4451338,12.9116711 61.2453333,13.8799947 61.2453333,14.93 Z M54.0171852,14.93 C54.0171852,12.9699902 54.3815272,11.1441751 55.1102222,9.4525 C55.8389172,7.76082488 56.8496725,6.2850063 58.1425185,5.025 C59.4353645,3.7649937 60.9808799,2.77917022 62.7791111,2.0675 C64.5773423,1.35582978 66.5577176,1 68.7202963,1 C70.8593687,1 72.8338675,1.35582978 74.6438519,2.0675 C76.4538362,2.77917022 78.0111046,3.7649937 79.3157037,5.025 C80.6203028,6.2850063 81.6369346,7.76082488 82.3656296,9.4525 C83.0943246,11.1441751 83.4586667,12.9699902 83.4586667,14.93 C83.4586667,16.8900098 83.0943246,18.7158249 82.3656296,20.4075 C81.6369346,22.0991751 80.6203028,23.5749937 79.3157037,24.835 C78.0111046,26.0950063 76.4538362,27.0808298 74.6438519,27.7925 C72.8338675,28.5041702 70.8593687,28.86 68.7202963,28.86 C66.5577176,28.86 64.5773423,28.5041702 62.7791111,27.7925 C60.9808799,27.0808298 59.4353645,26.0950063 58.1425185,24.835 C56.8496725,23.5749937 55.8389172,22.0991751 55.1102222,20.4075 C54.3815272,18.7158249 54.0171852,16.8900098 54.0171852,14.93 Z M94.7416296,1.735 L94.7416296,16.085 C94.7416296,16.8550039 94.7710121,17.642496 94.8297778,18.4475 C94.8885435,19.252504 95.064838,19.9816634 95.3586667,20.635 C95.6524953,21.2883366 96.1167376,21.8191646 96.7514074,22.2275 C97.3860772,22.6358354 98.2793029,22.84 99.4311111,22.84 C100.582919,22.84 101.470268,22.6358354 102.093185,22.2275 C102.716102,21.8191646 103.180344,21.2883366 103.485926,20.635 C103.791508,19.9816634 103.973679,19.252504 104.032444,18.4475 C104.09121,17.642496 104.120593,16.8550039 104.120593,16.085 L104.120593,1.735 L110.996148,1.735 L110.996148,17.03 C110.996148,21.1366872 110.050034,24.1349905 108.157778,26.025 C106.265521,27.9150095 103.356662,28.86 99.4311111,28.86 C95.5055606,28.86 92.5908243,27.9150095 90.6868148,26.025 C88.7828053,24.1349905 87.8308148,21.1366872 87.8308148,17.03 L87.8308148,1.735 L94.7416296,1.735 Z M126.651259,7.545 L126.651259,28.125 L119.740444,28.125 L119.740444,7.545 L114.063704,7.545 L114.063704,1.735 L132.328,1.735 L132.328,7.545 L126.651259,7.545 Z" id="ABOUT-Copy-5" fill="#FFFFFF"></path>
            </g>
        </g>
    </g>
</svg>
