<?xml version="1.0" encoding="UTF-8"?>
<svg preserveAspectRatio="xMinYMin meet"  width="709px" height="41px" viewBox="0 0 709 41" version="1.1" xmlns="http://www.w3.org/2000/svg" xmlns:xlink="http://www.w3.org/1999/xlink">
    <!-- Generator: sketchtool 51.3 (57544) - http://www.bohemiancoding.com/sketch -->
    <title>10C95DBE-3BC7-4AB0-A581-3F0EE11719D9</title>
    <desc>Created with sketchtool.</desc>
    <defs>
        <linearGradient x1="100%" y1="0%" x2="-28.9637855%" y2="128.649196%" id="linearGradient-1">
            <stop stop-color="#97E055" offset="0%"></stop>
            <stop stop-color="#80C9F6" offset="50.6773844%"></stop>
            <stop stop-color="#A37CD8" offset="100%"></stop>
        </linearGradient>
    </defs>
    <g id="Page-2" stroke="none" stroke-width="1" fill="none" fill-rule="evenodd">
        <g id="TUMBLBUG" transform="translate(-606.000000, -164.000000)" stroke="#4A4A4A">
            <g id="tumblbug_title2" transform="translate(607.000000, 165.000000)">
                <path d="M21.425,11.54 L21.425,38 L12.605,38 L12.605,11.54 L5.36,11.54 L5.36,4.07 L28.67,4.07 L28.67,11.54 L21.425,11.54 Z M41.405,4.07 L41.405,22.52 C41.405,23.5100049 41.4424996,24.5224948 41.5175,25.5575 C41.5925004,26.5925052 41.8174981,27.5299958 42.1925,28.37 C42.5675019,29.2100042 43.159996,29.8924974 43.97,30.4175 C44.7800041,30.9425026 45.9199927,31.205 47.39,31.205 C48.8600074,31.205 49.992496,30.9425026 50.7875,30.4175 C51.582504,29.8924974 52.1749981,29.2100042 52.565,28.37 C52.955002,27.5299958 53.1874996,26.5925052 53.2625,25.5575 C53.3375004,24.5224948 53.375,23.5100049 53.375,22.52 L53.375,4.07 L62.15,4.07 L62.15,23.735 C62.15,29.0150264 60.9425121,32.8699878 58.5275,35.3 C56.1124879,37.7300121 52.4000251,38.945 47.39,38.945 C42.379975,38.945 38.6600122,37.7300121 36.23,35.3 C33.7999879,32.8699878 32.585,29.0150264 32.585,23.735 L32.585,4.07 L41.405,4.07 Z M67.73,38 L73.49,4.07 L82.22,4.07 L89.015,22.16 L95.765,4.07 L104.495,4.07 L110.255,38 L101.48,38 L98.555,18.47 L90.545,38 L87.035,38 L79.43,18.47 L76.505,38 L67.73,38 Z M124.655,31.16 L126.59,31.16 C128.810011,31.16 130.399995,30.8750028 131.36,30.305 C132.320005,29.7349971 132.8,28.8200063 132.8,27.56 C132.8,26.2999937 132.320005,25.3850028 131.36,24.815 C130.399995,24.2449971 128.810011,23.96 126.59,23.96 L124.655,23.96 L124.655,31.16 Z M124.655,17.39 L126.275,17.39 C129.035014,17.39 130.415,16.2950109 130.415,14.105 C130.415,11.914989 129.035014,10.82 126.275,10.82 L124.655,10.82 L124.655,17.39 Z M115.835,4.07 L128.975,4.07 C132.095016,4.07 134.464992,4.8199925 136.085,6.32 C137.705008,7.8200075 138.515,9.9799859 138.515,12.8 C138.515,14.5100085 138.207503,15.9274944 137.5925,17.0525 C136.977497,18.1775056 136.040006,19.1299961 134.78,19.91 C136.040006,20.1500012 137.112496,20.5174975 137.9975,21.0125 C138.882504,21.5075025 139.602497,22.1149964 140.1575,22.835 C140.712503,23.5550036 141.109999,24.3649955 141.35,25.265 C141.590001,26.1650045 141.71,27.1249949 141.71,28.145 C141.71,29.7350079 141.432503,31.1449938 140.8775,32.375 C140.322497,33.6050061 139.542505,34.6399958 138.5375,35.48 C137.532495,36.3200042 136.310007,36.9499979 134.87,37.37 C133.429993,37.7900021 131.810009,38 130.01,38 L115.835,38 L115.835,4.07 Z M155.795,4.07 L155.795,30.53 L166.37,30.53 L166.37,38 L146.975,38 L146.975,4.07 L155.795,4.07 Z M179.735,31.16 L181.67,31.16 C183.890011,31.16 185.479995,30.8750028 186.44,30.305 C187.400005,29.7349971 187.88,28.8200063 187.88,27.56 C187.88,26.2999937 187.400005,25.3850028 186.44,24.815 C185.479995,24.2449971 183.890011,23.96 181.67,23.96 L179.735,23.96 L179.735,31.16 Z M179.735,17.39 L181.355,17.39 C184.115014,17.39 185.495,16.2950109 185.495,14.105 C185.495,11.914989 184.115014,10.82 181.355,10.82 L179.735,10.82 L179.735,17.39 Z M170.915,4.07 L184.055,4.07 C187.175016,4.07 189.544992,4.8199925 191.165,6.32 C192.785008,7.8200075 193.595,9.9799859 193.595,12.8 C193.595,14.5100085 193.287503,15.9274944 192.6725,17.0525 C192.057497,18.1775056 191.120006,19.1299961 189.86,19.91 C191.120006,20.1500012 192.192496,20.5174975 193.0775,21.0125 C193.962504,21.5075025 194.682497,22.1149964 195.2375,22.835 C195.792503,23.5550036 196.189999,24.3649955 196.43,25.265 C196.670001,26.1650045 196.79,27.1249949 196.79,28.145 C196.79,29.7350079 196.512503,31.1449938 195.9575,32.375 C195.402497,33.6050061 194.622505,34.6399958 193.6175,35.48 C192.612495,36.3200042 191.390007,36.9499979 189.95,37.37 C188.509993,37.7900021 186.890009,38 185.09,38 L170.915,38 L170.915,4.07 Z M210.875,4.07 L210.875,22.52 C210.875,23.5100049 210.9125,24.5224948 210.9875,25.5575 C211.0625,26.5925052 211.287498,27.5299958 211.6625,28.37 C212.037502,29.2100042 212.629996,29.8924974 213.44,30.4175 C214.250004,30.9425026 215.389993,31.205 216.86,31.205 C218.330007,31.205 219.462496,30.9425026 220.2575,30.4175 C221.052504,29.8924974 221.644998,29.2100042 222.035,28.37 C222.425002,27.5299958 222.6575,26.5925052 222.7325,25.5575 C222.8075,24.5224948 222.845,23.5100049 222.845,22.52 L222.845,4.07 L231.62,4.07 L231.62,23.735 C231.62,29.0150264 230.412512,32.8699878 227.9975,35.3 C225.582488,37.7300121 221.870025,38.945 216.86,38.945 C211.849975,38.945 208.130012,37.7300121 205.7,35.3 C203.269988,32.8699878 202.055,29.0150264 202.055,23.735 L202.055,4.07 L210.875,4.07 Z M255.245,19.01 L272.75,19.01 C272.75,20.810009 272.675001,22.4449926 272.525,23.915 C272.374999,25.3850073 272.075002,26.7499937 271.625,28.01 C270.994997,29.7800088 270.140005,31.3474932 269.06,32.7125 C267.979995,34.0775068 266.712507,35.2174954 265.2575,36.1325 C263.802493,37.0475046 262.205009,37.7449976 260.465,38.225 C258.724991,38.7050024 256.89501,38.945 254.975,38.945 C252.334987,38.945 249.927511,38.5100043 247.7525,37.64 C245.577489,36.7699956 243.710008,35.5475079 242.15,33.9725 C240.589992,32.3974921 239.375004,30.507511 238.505,28.3025 C237.634996,26.097489 237.2,23.6600133 237.2,20.99 C237.2,18.3499868 237.627496,15.927511 238.4825,13.7225 C239.337504,11.517489 240.552492,9.6350078 242.1275,8.075 C243.702508,6.5149922 245.599989,5.30000435 247.82,4.43 C250.040011,3.55999565 252.514986,3.125 255.245,3.125 C258.785018,3.125 261.889987,3.88999235 264.56,5.42 C267.230013,6.95000765 269.344992,9.31998395 270.905,12.53 L262.535,15.995 C261.754996,14.1349907 260.742506,12.800004 259.4975,11.99 C258.252494,11.1799959 256.835008,10.775 255.245,10.775 C253.924993,10.775 252.725005,11.0224975 251.645,11.5175 C250.564995,12.0125025 249.642504,12.7174954 248.8775,13.6325 C248.112496,14.5475046 247.512502,15.6499935 247.0775,16.94 C246.642498,18.2300064 246.425,19.669992 246.425,21.26 C246.425,22.7000072 246.612498,24.0349938 246.9875,25.265 C247.362502,26.4950061 247.924996,27.5599955 248.675,28.46 C249.425004,29.3600045 250.354994,30.0574975 251.465,30.5525 C252.575006,31.0475025 253.864993,31.295 255.335,31.295 C256.205004,31.295 257.044996,31.197501 257.855,31.0025 C258.665004,30.807499 259.392497,30.4925022 260.0375,30.0575 C260.682503,29.6224978 261.214998,29.0600034 261.635,28.37 C262.055002,27.6799965 262.339999,26.8400049 262.49,25.85 L255.245,25.85 L255.245,19.01 Z M301.685,21.71 L301.685,38 L293.54,38 L293.54,21.71 L290.615,21.71 L290.615,14.915 L293.54,14.915 L293.54,11.45 C293.54,9.5299904 293.719998,8.0000057 294.08,6.86 C294.380002,5.8999952 294.859997,5.00750412 295.52,4.1825 C296.180003,3.35749587 296.952496,2.645003 297.8375,2.045 C298.722504,1.444997 299.674995,0.98000165 300.695,0.65 C301.715005,0.31999835 302.719995,0.155 303.71,0.155 C304.400003,0.155 305.037497,0.22999925 305.6225,0.38 C306.207503,0.53000075 306.799997,0.73999865 307.4,1.01 L307.4,8.12 C306.859997,7.84999865 306.357502,7.64750067 305.8925,7.5125 C305.427498,7.37749932 304.940003,7.31 304.43,7.31 C304.099998,7.31 303.762502,7.36249947 303.4175,7.4675 C303.072498,7.57250052 302.750002,7.78999835 302.45,8.12 C302.149999,8.45000165 301.947501,8.92249692 301.8425,9.5375 C301.737499,10.1525031 301.685,10.9849947 301.685,12.035 L301.685,14.915 L307.4,14.915 L307.4,21.71 L301.685,21.71 Z M318.155,26.345 C318.155,27.1250039 318.297499,27.8374968 318.5825,28.4825 C318.867501,29.1275032 319.242498,29.6899976 319.7075,30.17 C320.172502,30.6500024 320.727497,31.0249986 321.3725,31.295 C322.017503,31.5650013 322.699996,31.7 323.42,31.7 C324.140004,31.7 324.822497,31.5650013 325.4675,31.295 C326.112503,31.0249986 326.667498,30.6500024 327.1325,30.17 C327.597502,29.6899976 327.972499,29.1275032 328.2575,28.4825 C328.542501,27.8374968 328.685,27.1400037 328.685,26.39 C328.685,25.6699964 328.542501,24.9875032 328.2575,24.3425 C327.972499,23.6974968 327.597502,23.1350024 327.1325,22.655 C326.667498,22.1749976 326.112503,21.8000013 325.4675,21.53 C324.822497,21.2599986 324.140004,21.125 323.42,21.125 C322.699996,21.125 322.017503,21.2599986 321.3725,21.53 C320.727497,21.8000013 320.172502,22.1749976 319.7075,22.655 C319.242498,23.1350024 318.867501,23.6899968 318.5825,24.32 C318.297499,24.9500031 318.155,25.6249964 318.155,26.345 Z M309.56,26.255 C309.56,24.5449914 309.904997,22.9475074 310.595,21.4625 C311.285003,19.9774926 312.244994,18.6875055 313.475,17.5925 C314.705006,16.4974945 316.167492,15.6350031 317.8625,15.005 C319.557508,14.3749968 321.40999,14.06 323.42,14.06 C325.40001,14.06 327.237492,14.3674969 328.9325,14.9825 C330.627508,15.5975031 332.097494,16.4524945 333.3425,17.5475 C334.587506,18.6425055 335.554997,19.9474924 336.245,21.4625 C336.935003,22.9775076 337.28,24.6499908 337.28,26.48 C337.28,28.3100091 336.927504,29.9824924 336.2225,31.4975 C335.517496,33.0125076 334.550006,34.3174945 333.32,35.4125 C332.089994,36.5075055 330.612509,37.354997 328.8875,37.955 C327.162491,38.555003 325.29501,38.855 323.285,38.855 C321.30499,38.855 319.475008,38.555003 317.795,37.955 C316.114992,37.354997 314.667506,36.5000055 313.4525,35.39 C312.237494,34.2799944 311.285003,32.9525077 310.595,31.4075 C309.904997,29.8624923 309.56,28.1450094 309.56,26.255 Z M341.96,14.915 L350.105,14.915 L350.105,18.695 C350.975004,17.3149931 352.039994,16.2575037 353.3,15.5225 C354.560006,14.7874963 356.029992,14.42 357.71,14.42 L358.4075,14.42 C358.662501,14.42 358.954998,14.4499997 359.285,14.51 L359.285,22.295 C358.204995,21.7549973 357.035006,21.485 355.775,21.485 C353.884991,21.485 352.467505,22.0474944 351.5225,23.1725 C350.577495,24.2975056 350.105,25.9399892 350.105,28.1 L350.105,38 L341.96,38 L341.96,14.915 Z M387.275,21.71 L387.275,38 L379.13,38 L379.13,21.71 L376.43,21.71 L376.43,14.915 L379.13,14.915 L379.13,7.985 L387.275,7.985 L387.275,14.915 L391.91,14.915 L391.91,21.71 L387.275,21.71 Z M394.97,0.65 L403.115,0.65 L403.115,17.84 C404.225006,16.4899932 405.349994,15.5825023 406.49,15.1175 C407.630006,14.6524977 408.964992,14.42 410.495,14.42 C413.405015,14.42 415.602493,15.222492 417.0875,16.8275 C418.572507,18.432508 419.315,20.5999863 419.315,23.33 L419.315,38 L411.17,38 L411.17,26.345 C411.17,25.1749941 411.080001,24.2300036 410.9,23.51 C410.719999,22.7899964 410.420002,22.2350019 410,21.845 C409.279996,21.2149968 408.410005,20.9 407.39,20.9 C406.009993,20.9 404.952504,21.3124959 404.2175,22.1375 C403.482496,22.9625041 403.115,24.1399923 403.115,25.67 L403.115,38 L394.97,38 L394.97,0.65 Z M441.725,23.105 C441.454999,21.9649943 440.900004,21.0500034 440.06,20.36 C439.219996,19.6699965 438.200006,19.325 437,19.325 C435.739994,19.325 434.712504,19.6549967 433.9175,20.315 C433.122496,20.9750033 432.620001,21.904994 432.41,23.105 L441.725,23.105 Z M432.185,27.83 C432.185,31.3400175 433.834984,33.095 437.135,33.095 C438.905009,33.095 440.239996,32.3750072 441.14,30.935 L449.015,30.935 C447.424992,36.2150264 443.450032,38.855 437.09,38.855 C435.13999,38.855 433.355008,38.5625029 431.735,37.9775 C430.114992,37.3924971 428.727506,36.5600054 427.5725,35.48 C426.417494,34.3999946 425.525003,33.1100075 424.895,31.61 C424.264997,30.1099925 423.95,28.4300093 423.95,26.57 C423.95,24.6499904 424.249997,22.9175077 424.85,21.3725 C425.450003,19.8274923 426.304994,18.5150054 427.415,17.435 C428.525006,16.3549946 429.867492,15.5225029 431.4425,14.9375 C433.017508,14.3524971 434.79499,14.06 436.775,14.06 C438.72501,14.06 440.479992,14.3524971 442.04,14.9375 C443.600008,15.5225029 444.919995,16.3699944 446,17.48 C447.080005,18.5900055 447.904997,19.947492 448.475,21.5525 C449.045003,23.157508 449.33,24.9649899 449.33,26.975 L449.33,27.83 L432.185,27.83 Z M486.14,23.105 C485.869999,21.9649943 485.315004,21.0500034 484.475,20.36 C483.634996,19.6699965 482.615006,19.325 481.415,19.325 C480.154994,19.325 479.127504,19.6549967 478.3325,20.315 C477.537496,20.9750033 477.035001,21.904994 476.825,23.105 L486.14,23.105 Z M476.6,27.83 C476.6,31.3400175 478.249984,33.095 481.55,33.095 C483.320009,33.095 484.654996,32.3750072 485.555,30.935 L493.43,30.935 C491.839992,36.2150264 487.865032,38.855 481.505,38.855 C479.55499,38.855 477.770008,38.5625029 476.15,37.9775 C474.529992,37.3924971 473.142506,36.5600054 471.9875,35.48 C470.832494,34.3999946 469.940003,33.1100075 469.31,31.61 C468.679997,30.1099925 468.365,28.4300093 468.365,26.57 C468.365,24.6499904 468.664997,22.9175077 469.265,21.3725 C469.865003,19.8274923 470.719994,18.5150054 471.83,17.435 C472.940006,16.3549946 474.282492,15.5225029 475.8575,14.9375 C477.432508,14.3524971 479.20999,14.06 481.19,14.06 C483.14001,14.06 484.894992,14.3524971 486.455,14.9375 C488.015008,15.5225029 489.334995,16.3699944 490.415,17.48 C491.495005,18.5900055 492.319997,19.947492 492.89,21.5525 C493.460003,23.157508 493.745,24.9649899 493.745,26.975 L493.745,27.83 L476.6,27.83 Z M507.11,25.49 L497.75,14.915 L508.37,14.915 L512.33,19.685 L516.38,14.915 L527,14.915 L517.415,25.49 L528.98,38 L518.18,38 L512.285,31.16 L506.345,38 L495.59,38 L507.11,25.49 Z M531.77,0.65 L539.915,0.65 L539.915,17.84 C541.025006,16.4899932 542.149994,15.5825023 543.29,15.1175 C544.430006,14.6524977 545.764992,14.42 547.295,14.42 C550.205015,14.42 552.402493,15.222492 553.8875,16.8275 C555.372507,18.432508 556.115,20.5999863 556.115,23.33 L556.115,38 L547.97,38 L547.97,26.345 C547.97,25.1749941 547.880001,24.2300036 547.7,23.51 C547.519999,22.7899964 547.220002,22.2350019 546.8,21.845 C546.079996,21.2149968 545.210005,20.9 544.19,20.9 C542.809993,20.9 541.752504,21.3124959 541.0175,22.1375 C540.282496,22.9625041 539.915,24.1399923 539.915,25.67 L539.915,38 L531.77,38 L531.77,0.65 Z M569.795,14.915 L569.795,38 L561.65,38 L561.65,14.915 L569.795,14.915 Z M561.11,6.05 C561.11,5.41999685 561.229999,4.82750277 561.47,4.2725 C561.710001,3.71749722 562.039998,3.2300021 562.46,2.81 C562.880002,2.3899979 563.367497,2.0600012 563.9225,1.82 C564.477503,1.5799988 565.069997,1.46 565.7,1.46 C566.330003,1.46 566.922497,1.5799988 567.4775,1.82 C568.032503,2.0600012 568.519998,2.3899979 568.94,2.81 C569.360002,3.2300021 569.689999,3.71749722 569.93,4.2725 C570.170001,4.82750277 570.29,5.41999685 570.29,6.05 C570.29,6.68000315 570.170001,7.27249722 569.93,7.8275 C569.689999,8.38250277 569.360002,8.8699979 568.94,9.29 C568.519998,9.7100021 568.032503,10.0399988 567.4775,10.28 C566.922497,10.5200012 566.330003,10.64 565.7,10.64 C565.069997,10.64 564.477503,10.5200012 563.9225,10.28 C563.367497,10.0399988 562.880002,9.7100021 562.46,9.29 C562.039998,8.8699979 561.710001,8.38250277 561.47,7.8275 C561.229999,7.27249722 561.11,6.68000315 561.11,6.05 Z M593.78,26.525 C593.78,25.8049964 593.645001,25.1225032 593.375,24.4775 C593.104999,23.8324968 592.730002,23.2700024 592.25,22.79 C591.769998,22.3099976 591.215003,21.9275014 590.585,21.6425 C589.954997,21.3574986 589.265004,21.215 588.515,21.215 C587.794996,21.215 587.120003,21.3499986 586.49,21.62 C585.859997,21.8900013 585.312502,22.2649976 584.8475,22.745 C584.382498,23.2250024 584.007501,23.7874968 583.7225,24.4325 C583.437499,25.0775032 583.295,25.7599964 583.295,26.48 C583.295,27.2000036 583.429999,27.8749968 583.7,28.505 C583.970001,29.1350031 584.344998,29.6824977 584.825,30.1475 C585.305002,30.6125023 585.867497,30.9874986 586.5125,31.2725 C587.157503,31.5575014 587.839996,31.7 588.56,31.7 C589.280004,31.7 589.954997,31.5650013 590.585,31.295 C591.215003,31.0249986 591.762498,30.6500024 592.2275,30.17 C592.692502,29.6899976 593.067499,29.1350031 593.3525,28.505 C593.637501,27.8749968 593.78,27.2150034 593.78,26.525 Z M583.52,0.65 L583.52,17.21 C585.44001,15.1999899 587.839986,14.195 590.72,14.195 C592.430009,14.195 593.997493,14.5174968 595.4225,15.1625 C596.847507,15.8075032 598.062495,16.6774945 599.0675,17.7725 C600.072505,18.8675055 600.859997,20.1574926 601.43,21.6425 C602.000003,23.1275074 602.285,24.7099916 602.285,26.39 C602.285,28.1000085 601.992503,29.7049925 601.4075,31.205 C600.822497,32.7050075 600.005005,34.0099944 598.955,35.12 C597.904995,36.2300055 596.667507,37.1074968 595.2425,37.7525 C593.817493,38.3975032 592.280008,38.72 590.63,38.72 C587.629985,38.72 585.260009,37.6250109 583.52,35.435 L583.52,38 L575.375,38 L575.375,0.65 L583.52,0.65 Z M615.065,14.915 L615.065,38 L606.92,38 L606.92,14.915 L615.065,14.915 Z M606.38,6.05 C606.38,5.41999685 606.499999,4.82750277 606.74,4.2725 C606.980001,3.71749722 607.309998,3.2300021 607.73,2.81 C608.150002,2.3899979 608.637497,2.0600012 609.1925,1.82 C609.747503,1.5799988 610.339997,1.46 610.97,1.46 C611.600003,1.46 612.192497,1.5799988 612.7475,1.82 C613.302503,2.0600012 613.789998,2.3899979 614.21,2.81 C614.630002,3.2300021 614.959999,3.71749722 615.2,4.2725 C615.440001,4.82750277 615.56,5.41999685 615.56,6.05 C615.56,6.68000315 615.440001,7.27249722 615.2,7.8275 C614.959999,8.38250277 614.630002,8.8699979 614.21,9.29 C613.789998,9.7100021 613.302503,10.0399988 612.7475,10.28 C612.192497,10.5200012 611.600003,10.64 610.97,10.64 C610.339997,10.64 609.747503,10.5200012 609.1925,10.28 C608.637497,10.0399988 608.150002,9.7100021 607.73,9.29 C607.309998,8.8699979 606.980001,8.38250277 606.74,7.8275 C606.499999,7.27249722 606.38,6.68000315 606.38,6.05 Z M629.735,21.71 L629.735,38 L621.59,38 L621.59,21.71 L618.89,21.71 L618.89,14.915 L621.59,14.915 L621.59,7.985 L629.735,7.985 L629.735,14.915 L634.37,14.915 L634.37,21.71 L629.735,21.71 Z M645.575,14.915 L645.575,38 L637.43,38 L637.43,14.915 L645.575,14.915 Z M636.89,6.05 C636.89,5.41999685 637.009999,4.82750277 637.25,4.2725 C637.490001,3.71749722 637.819998,3.2300021 638.24,2.81 C638.660002,2.3899979 639.147497,2.0600012 639.7025,1.82 C640.257503,1.5799988 640.849997,1.46 641.48,1.46 C642.110003,1.46 642.702497,1.5799988 643.2575,1.82 C643.812503,2.0600012 644.299998,2.3899979 644.72,2.81 C645.140002,3.2300021 645.469999,3.71749722 645.71,4.2725 C645.950001,4.82750277 646.07,5.41999685 646.07,6.05 C646.07,6.68000315 645.950001,7.27249722 645.71,7.8275 C645.469999,8.38250277 645.140002,8.8699979 644.72,9.29 C644.299998,9.7100021 643.812503,10.0399988 643.2575,10.28 C642.702497,10.5200012 642.110003,10.64 641.48,10.64 C640.849997,10.64 640.257503,10.5200012 639.7025,10.28 C639.147497,10.0399988 638.660002,9.7100021 638.24,9.29 C637.819998,8.8699979 637.490001,8.38250277 637.25,7.8275 C637.009999,7.27249722 636.89,6.68000315 636.89,6.05 Z M658.85,26.345 C658.85,27.1250039 658.992499,27.8374968 659.2775,28.4825 C659.562501,29.1275032 659.937498,29.6899976 660.4025,30.17 C660.867502,30.6500024 661.422497,31.0249986 662.0675,31.295 C662.712503,31.5650013 663.394996,31.7 664.115,31.7 C664.835004,31.7 665.517497,31.5650013 666.1625,31.295 C666.807503,31.0249986 667.362498,30.6500024 667.8275,30.17 C668.292502,29.6899976 668.667499,29.1275032 668.9525,28.4825 C669.237501,27.8374968 669.38,27.1400037 669.38,26.39 C669.38,25.6699964 669.237501,24.9875032 668.9525,24.3425 C668.667499,23.6974968 668.292502,23.1350024 667.8275,22.655 C667.362498,22.1749976 666.807503,21.8000013 666.1625,21.53 C665.517497,21.2599986 664.835004,21.125 664.115,21.125 C663.394996,21.125 662.712503,21.2599986 662.0675,21.53 C661.422497,21.8000013 660.867502,22.1749976 660.4025,22.655 C659.937498,23.1350024 659.562501,23.6899968 659.2775,24.32 C658.992499,24.9500031 658.85,25.6249964 658.85,26.345 Z M650.255,26.255 C650.255,24.5449914 650.599997,22.9475074 651.29,21.4625 C651.980003,19.9774926 652.939994,18.6875055 654.17,17.5925 C655.400006,16.4974945 656.862492,15.6350031 658.5575,15.005 C660.252508,14.3749968 662.10499,14.06 664.115,14.06 C666.09501,14.06 667.932492,14.3674969 669.6275,14.9825 C671.322508,15.5975031 672.792494,16.4524945 674.0375,17.5475 C675.282506,18.6425055 676.249997,19.9474924 676.94,21.4625 C677.630003,22.9775076 677.975,24.6499908 677.975,26.48 C677.975,28.3100091 677.622504,29.9824924 676.9175,31.4975 C676.212496,33.0125076 675.245006,34.3174945 674.015,35.4125 C672.784994,36.5075055 671.307509,37.354997 669.5825,37.955 C667.857491,38.555003 665.99001,38.855 663.98,38.855 C661.99999,38.855 660.170008,38.555003 658.49,37.955 C656.809992,37.354997 655.362506,36.5000055 654.1475,35.39 C652.932494,34.2799944 651.980003,32.9525077 651.29,31.4075 C650.599997,29.8624923 650.255,28.1450094 650.255,26.255 Z M682.655,14.915 L690.8,14.915 L690.8,17.84 C691.910006,16.4899932 693.034994,15.5825023 694.175,15.1175 C695.315006,14.6524977 696.649992,14.42 698.18,14.42 C699.800008,14.42 701.187494,14.6824974 702.3425,15.2075 C703.497506,15.7325026 704.479996,16.4749952 705.29,17.435 C705.950003,18.2150039 706.399999,19.0849952 706.64,20.045 C706.880001,21.0050048 707,22.0999938 707,23.33 L707,38 L698.855,38 L698.855,26.345 C698.855,25.2049943 698.772501,24.2825035 698.6075,23.5775 C698.442499,22.8724965 698.150002,22.3100021 697.73,21.89 C697.369998,21.5299982 696.965002,21.2750007 696.515,21.125 C696.064998,20.9749992 695.585003,20.9 695.075,20.9 C693.694993,20.9 692.637504,21.3124959 691.9025,22.1375 C691.167496,22.9625041 690.8,24.1399923 690.8,25.67 L690.8,38 L682.655,38 L682.655,14.915 Z" id="TUMBLBUG-for-the-exh-Copy" fill="url(#linearGradient-1)"></path>
                <path d="M16.425,11.54 L16.425,38 L7.605,38 L7.605,11.54 L0.36,11.54 L0.36,4.07 L23.67,4.07 L23.67,11.54 L16.425,11.54 Z M36.405,4.07 L36.405,22.52 C36.405,23.5100049 36.4424996,24.5224948 36.5175,25.5575 C36.5925004,26.5925052 36.8174981,27.5299958 37.1925,28.37 C37.5675019,29.2100042 38.159996,29.8924974 38.97,30.4175 C39.7800041,30.9425026 40.9199927,31.205 42.39,31.205 C43.8600074,31.205 44.992496,30.9425026 45.7875,30.4175 C46.582504,29.8924974 47.1749981,29.2100042 47.565,28.37 C47.955002,27.5299958 48.1874996,26.5925052 48.2625,25.5575 C48.3375004,24.5224948 48.375,23.5100049 48.375,22.52 L48.375,4.07 L57.15,4.07 L57.15,23.735 C57.15,29.0150264 55.9425121,32.8699878 53.5275,35.3 C51.1124879,37.7300121 47.4000251,38.945 42.39,38.945 C37.379975,38.945 33.6600122,37.7300121 31.23,35.3 C28.7999879,32.8699878 27.585,29.0150264 27.585,23.735 L27.585,4.07 L36.405,4.07 Z M62.73,38 L68.49,4.07 L77.22,4.07 L84.015,22.16 L90.765,4.07 L99.495,4.07 L105.255,38 L96.48,38 L93.555,18.47 L85.545,38 L82.035,38 L74.43,18.47 L71.505,38 L62.73,38 Z M119.655,31.16 L121.59,31.16 C123.810011,31.16 125.399995,30.8750028 126.36,30.305 C127.320005,29.7349971 127.8,28.8200063 127.8,27.56 C127.8,26.2999937 127.320005,25.3850028 126.36,24.815 C125.399995,24.2449971 123.810011,23.96 121.59,23.96 L119.655,23.96 L119.655,31.16 Z M119.655,17.39 L121.275,17.39 C124.035014,17.39 125.415,16.2950109 125.415,14.105 C125.415,11.914989 124.035014,10.82 121.275,10.82 L119.655,10.82 L119.655,17.39 Z M110.835,4.07 L123.975,4.07 C127.095016,4.07 129.464992,4.8199925 131.085,6.32 C132.705008,7.8200075 133.515,9.9799859 133.515,12.8 C133.515,14.5100085 133.207503,15.9274944 132.5925,17.0525 C131.977497,18.1775056 131.040006,19.1299961 129.78,19.91 C131.040006,20.1500012 132.112496,20.5174975 132.9975,21.0125 C133.882504,21.5075025 134.602497,22.1149964 135.1575,22.835 C135.712503,23.5550036 136.109999,24.3649955 136.35,25.265 C136.590001,26.1650045 136.71,27.1249949 136.71,28.145 C136.71,29.7350079 136.432503,31.1449938 135.8775,32.375 C135.322497,33.6050061 134.542505,34.6399958 133.5375,35.48 C132.532495,36.3200042 131.310007,36.9499979 129.87,37.37 C128.429993,37.7900021 126.810009,38 125.01,38 L110.835,38 L110.835,4.07 Z M150.795,4.07 L150.795,30.53 L161.37,30.53 L161.37,38 L141.975,38 L141.975,4.07 L150.795,4.07 Z M174.735,31.16 L176.67,31.16 C178.890011,31.16 180.479995,30.8750028 181.44,30.305 C182.400005,29.7349971 182.88,28.8200063 182.88,27.56 C182.88,26.2999937 182.400005,25.3850028 181.44,24.815 C180.479995,24.2449971 178.890011,23.96 176.67,23.96 L174.735,23.96 L174.735,31.16 Z M174.735,17.39 L176.355,17.39 C179.115014,17.39 180.495,16.2950109 180.495,14.105 C180.495,11.914989 179.115014,10.82 176.355,10.82 L174.735,10.82 L174.735,17.39 Z M165.915,4.07 L179.055,4.07 C182.175016,4.07 184.544992,4.8199925 186.165,6.32 C187.785008,7.8200075 188.595,9.9799859 188.595,12.8 C188.595,14.5100085 188.287503,15.9274944 187.6725,17.0525 C187.057497,18.1775056 186.120006,19.1299961 184.86,19.91 C186.120006,20.1500012 187.192496,20.5174975 188.0775,21.0125 C188.962504,21.5075025 189.682497,22.1149964 190.2375,22.835 C190.792503,23.5550036 191.189999,24.3649955 191.43,25.265 C191.670001,26.1650045 191.79,27.1249949 191.79,28.145 C191.79,29.7350079 191.512503,31.1449938 190.9575,32.375 C190.402497,33.6050061 189.622505,34.6399958 188.6175,35.48 C187.612495,36.3200042 186.390007,36.9499979 184.95,37.37 C183.509993,37.7900021 181.890009,38 180.09,38 L165.915,38 L165.915,4.07 Z M205.875,4.07 L205.875,22.52 C205.875,23.5100049 205.9125,24.5224948 205.9875,25.5575 C206.0625,26.5925052 206.287498,27.5299958 206.6625,28.37 C207.037502,29.2100042 207.629996,29.8924974 208.44,30.4175 C209.250004,30.9425026 210.389993,31.205 211.86,31.205 C213.330007,31.205 214.462496,30.9425026 215.2575,30.4175 C216.052504,29.8924974 216.644998,29.2100042 217.035,28.37 C217.425002,27.5299958 217.6575,26.5925052 217.7325,25.5575 C217.8075,24.5224948 217.845,23.5100049 217.845,22.52 L217.845,4.07 L226.62,4.07 L226.62,23.735 C226.62,29.0150264 225.412512,32.8699878 222.9975,35.3 C220.582488,37.7300121 216.870025,38.945 211.86,38.945 C206.849975,38.945 203.130012,37.7300121 200.7,35.3 C198.269988,32.8699878 197.055,29.0150264 197.055,23.735 L197.055,4.07 L205.875,4.07 Z M250.245,19.01 L267.75,19.01 C267.75,20.810009 267.675001,22.4449926 267.525,23.915 C267.374999,25.3850073 267.075002,26.7499937 266.625,28.01 C265.994997,29.7800088 265.140005,31.3474932 264.06,32.7125 C262.979995,34.0775068 261.712507,35.2174954 260.2575,36.1325 C258.802493,37.0475046 257.205009,37.7449976 255.465,38.225 C253.724991,38.7050024 251.89501,38.945 249.975,38.945 C247.334987,38.945 244.927511,38.5100043 242.7525,37.64 C240.577489,36.7699956 238.710008,35.5475079 237.15,33.9725 C235.589992,32.3974921 234.375004,30.507511 233.505,28.3025 C232.634996,26.097489 232.2,23.6600133 232.2,20.99 C232.2,18.3499868 232.627496,15.927511 233.4825,13.7225 C234.337504,11.517489 235.552492,9.6350078 237.1275,8.075 C238.702508,6.5149922 240.599989,5.30000435 242.82,4.43 C245.040011,3.55999565 247.514986,3.125 250.245,3.125 C253.785018,3.125 256.889987,3.88999235 259.56,5.42 C262.230013,6.95000765 264.344992,9.31998395 265.905,12.53 L257.535,15.995 C256.754996,14.1349907 255.742506,12.800004 254.4975,11.99 C253.252494,11.1799959 251.835008,10.775 250.245,10.775 C248.924993,10.775 247.725005,11.0224975 246.645,11.5175 C245.564995,12.0125025 244.642504,12.7174954 243.8775,13.6325 C243.112496,14.5475046 242.512502,15.6499935 242.0775,16.94 C241.642498,18.2300064 241.425,19.669992 241.425,21.26 C241.425,22.7000072 241.612498,24.0349938 241.9875,25.265 C242.362502,26.4950061 242.924996,27.5599955 243.675,28.46 C244.425004,29.3600045 245.354994,30.0574975 246.465,30.5525 C247.575006,31.0475025 248.864993,31.295 250.335,31.295 C251.205004,31.295 252.044996,31.197501 252.855,31.0025 C253.665004,30.807499 254.392497,30.4925022 255.0375,30.0575 C255.682503,29.6224978 256.214998,29.0600034 256.635,28.37 C257.055002,27.6799965 257.339999,26.8400049 257.49,25.85 L250.245,25.85 L250.245,19.01 Z M296.685,21.71 L296.685,38 L288.54,38 L288.54,21.71 L285.615,21.71 L285.615,14.915 L288.54,14.915 L288.54,11.45 C288.54,9.5299904 288.719998,8.0000057 289.08,6.86 C289.380002,5.8999952 289.859997,5.00750412 290.52,4.1825 C291.180003,3.35749587 291.952496,2.645003 292.8375,2.045 C293.722504,1.444997 294.674995,0.98000165 295.695,0.65 C296.715005,0.31999835 297.719995,0.155 298.71,0.155 C299.400003,0.155 300.037497,0.22999925 300.6225,0.38 C301.207503,0.53000075 301.799997,0.73999865 302.4,1.01 L302.4,8.12 C301.859997,7.84999865 301.357502,7.64750067 300.8925,7.5125 C300.427498,7.37749932 299.940003,7.31 299.43,7.31 C299.099998,7.31 298.762502,7.36249947 298.4175,7.4675 C298.072498,7.57250052 297.750002,7.78999835 297.45,8.12 C297.149999,8.45000165 296.947501,8.92249692 296.8425,9.5375 C296.737499,10.1525031 296.685,10.9849947 296.685,12.035 L296.685,14.915 L302.4,14.915 L302.4,21.71 L296.685,21.71 Z M313.155,26.345 C313.155,27.1250039 313.297499,27.8374968 313.5825,28.4825 C313.867501,29.1275032 314.242498,29.6899976 314.7075,30.17 C315.172502,30.6500024 315.727497,31.0249986 316.3725,31.295 C317.017503,31.5650013 317.699996,31.7 318.42,31.7 C319.140004,31.7 319.822497,31.5650013 320.4675,31.295 C321.112503,31.0249986 321.667498,30.6500024 322.1325,30.17 C322.597502,29.6899976 322.972499,29.1275032 323.2575,28.4825 C323.542501,27.8374968 323.685,27.1400037 323.685,26.39 C323.685,25.6699964 323.542501,24.9875032 323.2575,24.3425 C322.972499,23.6974968 322.597502,23.1350024 322.1325,22.655 C321.667498,22.1749976 321.112503,21.8000013 320.4675,21.53 C319.822497,21.2599986 319.140004,21.125 318.42,21.125 C317.699996,21.125 317.017503,21.2599986 316.3725,21.53 C315.727497,21.8000013 315.172502,22.1749976 314.7075,22.655 C314.242498,23.1350024 313.867501,23.6899968 313.5825,24.32 C313.297499,24.9500031 313.155,25.6249964 313.155,26.345 Z M304.56,26.255 C304.56,24.5449914 304.904997,22.9475074 305.595,21.4625 C306.285003,19.9774926 307.244994,18.6875055 308.475,17.5925 C309.705006,16.4974945 311.167492,15.6350031 312.8625,15.005 C314.557508,14.3749968 316.40999,14.06 318.42,14.06 C320.40001,14.06 322.237492,14.3674969 323.9325,14.9825 C325.627508,15.5975031 327.097494,16.4524945 328.3425,17.5475 C329.587506,18.6425055 330.554997,19.9474924 331.245,21.4625 C331.935003,22.9775076 332.28,24.6499908 332.28,26.48 C332.28,28.3100091 331.927504,29.9824924 331.2225,31.4975 C330.517496,33.0125076 329.550006,34.3174945 328.32,35.4125 C327.089994,36.5075055 325.612509,37.354997 323.8875,37.955 C322.162491,38.555003 320.29501,38.855 318.285,38.855 C316.30499,38.855 314.475008,38.555003 312.795,37.955 C311.114992,37.354997 309.667506,36.5000055 308.4525,35.39 C307.237494,34.2799944 306.285003,32.9525077 305.595,31.4075 C304.904997,29.8624923 304.56,28.1450094 304.56,26.255 Z M336.96,14.915 L345.105,14.915 L345.105,18.695 C345.975004,17.3149931 347.039994,16.2575037 348.3,15.5225 C349.560006,14.7874963 351.029992,14.42 352.71,14.42 L353.4075,14.42 C353.662501,14.42 353.954998,14.4499997 354.285,14.51 L354.285,22.295 C353.204995,21.7549973 352.035006,21.485 350.775,21.485 C348.884991,21.485 347.467505,22.0474944 346.5225,23.1725 C345.577495,24.2975056 345.105,25.9399892 345.105,28.1 L345.105,38 L336.96,38 L336.96,14.915 Z M382.275,21.71 L382.275,38 L374.13,38 L374.13,21.71 L371.43,21.71 L371.43,14.915 L374.13,14.915 L374.13,7.985 L382.275,7.985 L382.275,14.915 L386.91,14.915 L386.91,21.71 L382.275,21.71 Z M389.97,0.65 L398.115,0.65 L398.115,17.84 C399.225006,16.4899932 400.349994,15.5825023 401.49,15.1175 C402.630006,14.6524977 403.964992,14.42 405.495,14.42 C408.405015,14.42 410.602493,15.222492 412.0875,16.8275 C413.572507,18.432508 414.315,20.5999863 414.315,23.33 L414.315,38 L406.17,38 L406.17,26.345 C406.17,25.1749941 406.080001,24.2300036 405.9,23.51 C405.719999,22.7899964 405.420002,22.2350019 405,21.845 C404.279996,21.2149968 403.410005,20.9 402.39,20.9 C401.009993,20.9 399.952504,21.3124959 399.2175,22.1375 C398.482496,22.9625041 398.115,24.1399923 398.115,25.67 L398.115,38 L389.97,38 L389.97,0.65 Z M436.725,23.105 C436.454999,21.9649943 435.900004,21.0500034 435.06,20.36 C434.219996,19.6699965 433.200006,19.325 432,19.325 C430.739994,19.325 429.712504,19.6549967 428.9175,20.315 C428.122496,20.9750033 427.620001,21.904994 427.41,23.105 L436.725,23.105 Z M427.185,27.83 C427.185,31.3400175 428.834984,33.095 432.135,33.095 C433.905009,33.095 435.239996,32.3750072 436.14,30.935 L444.015,30.935 C442.424992,36.2150264 438.450032,38.855 432.09,38.855 C430.13999,38.855 428.355008,38.5625029 426.735,37.9775 C425.114992,37.3924971 423.727506,36.5600054 422.5725,35.48 C421.417494,34.3999946 420.525003,33.1100075 419.895,31.61 C419.264997,30.1099925 418.95,28.4300093 418.95,26.57 C418.95,24.6499904 419.249997,22.9175077 419.85,21.3725 C420.450003,19.8274923 421.304994,18.5150054 422.415,17.435 C423.525006,16.3549946 424.867492,15.5225029 426.4425,14.9375 C428.017508,14.3524971 429.79499,14.06 431.775,14.06 C433.72501,14.06 435.479992,14.3524971 437.04,14.9375 C438.600008,15.5225029 439.919995,16.3699944 441,17.48 C442.080005,18.5900055 442.904997,19.947492 443.475,21.5525 C444.045003,23.157508 444.33,24.9649899 444.33,26.975 L444.33,27.83 L427.185,27.83 Z M481.14,23.105 C480.869999,21.9649943 480.315004,21.0500034 479.475,20.36 C478.634996,19.6699965 477.615006,19.325 476.415,19.325 C475.154994,19.325 474.127504,19.6549967 473.3325,20.315 C472.537496,20.9750033 472.035001,21.904994 471.825,23.105 L481.14,23.105 Z M471.6,27.83 C471.6,31.3400175 473.249984,33.095 476.55,33.095 C478.320009,33.095 479.654996,32.3750072 480.555,30.935 L488.43,30.935 C486.839992,36.2150264 482.865032,38.855 476.505,38.855 C474.55499,38.855 472.770008,38.5625029 471.15,37.9775 C469.529992,37.3924971 468.142506,36.5600054 466.9875,35.48 C465.832494,34.3999946 464.940003,33.1100075 464.31,31.61 C463.679997,30.1099925 463.365,28.4300093 463.365,26.57 C463.365,24.6499904 463.664997,22.9175077 464.265,21.3725 C464.865003,19.8274923 465.719994,18.5150054 466.83,17.435 C467.940006,16.3549946 469.282492,15.5225029 470.8575,14.9375 C472.432508,14.3524971 474.20999,14.06 476.19,14.06 C478.14001,14.06 479.894992,14.3524971 481.455,14.9375 C483.015008,15.5225029 484.334995,16.3699944 485.415,17.48 C486.495005,18.5900055 487.319997,19.947492 487.89,21.5525 C488.460003,23.157508 488.745,24.9649899 488.745,26.975 L488.745,27.83 L471.6,27.83 Z M502.11,25.49 L492.75,14.915 L503.37,14.915 L507.33,19.685 L511.38,14.915 L522,14.915 L512.415,25.49 L523.98,38 L513.18,38 L507.285,31.16 L501.345,38 L490.59,38 L502.11,25.49 Z M526.77,0.65 L534.915,0.65 L534.915,17.84 C536.025006,16.4899932 537.149994,15.5825023 538.29,15.1175 C539.430006,14.6524977 540.764992,14.42 542.295,14.42 C545.205015,14.42 547.402493,15.222492 548.8875,16.8275 C550.372507,18.432508 551.115,20.5999863 551.115,23.33 L551.115,38 L542.97,38 L542.97,26.345 C542.97,25.1749941 542.880001,24.2300036 542.7,23.51 C542.519999,22.7899964 542.220002,22.2350019 541.8,21.845 C541.079996,21.2149968 540.210005,20.9 539.19,20.9 C537.809993,20.9 536.752504,21.3124959 536.0175,22.1375 C535.282496,22.9625041 534.915,24.1399923 534.915,25.67 L534.915,38 L526.77,38 L526.77,0.65 Z M564.795,14.915 L564.795,38 L556.65,38 L556.65,14.915 L564.795,14.915 Z M556.11,6.05 C556.11,5.41999685 556.229999,4.82750277 556.47,4.2725 C556.710001,3.71749722 557.039998,3.2300021 557.46,2.81 C557.880002,2.3899979 558.367497,2.0600012 558.9225,1.82 C559.477503,1.5799988 560.069997,1.46 560.7,1.46 C561.330003,1.46 561.922497,1.5799988 562.4775,1.82 C563.032503,2.0600012 563.519998,2.3899979 563.94,2.81 C564.360002,3.2300021 564.689999,3.71749722 564.93,4.2725 C565.170001,4.82750277 565.29,5.41999685 565.29,6.05 C565.29,6.68000315 565.170001,7.27249722 564.93,7.8275 C564.689999,8.38250277 564.360002,8.8699979 563.94,9.29 C563.519998,9.7100021 563.032503,10.0399988 562.4775,10.28 C561.922497,10.5200012 561.330003,10.64 560.7,10.64 C560.069997,10.64 559.477503,10.5200012 558.9225,10.28 C558.367497,10.0399988 557.880002,9.7100021 557.46,9.29 C557.039998,8.8699979 556.710001,8.38250277 556.47,7.8275 C556.229999,7.27249722 556.11,6.68000315 556.11,6.05 Z M588.78,26.525 C588.78,25.8049964 588.645001,25.1225032 588.375,24.4775 C588.104999,23.8324968 587.730002,23.2700024 587.25,22.79 C586.769998,22.3099976 586.215003,21.9275014 585.585,21.6425 C584.954997,21.3574986 584.265004,21.215 583.515,21.215 C582.794996,21.215 582.120003,21.3499986 581.49,21.62 C580.859997,21.8900013 580.312502,22.2649976 579.8475,22.745 C579.382498,23.2250024 579.007501,23.7874968 578.7225,24.4325 C578.437499,25.0775032 578.295,25.7599964 578.295,26.48 C578.295,27.2000036 578.429999,27.8749968 578.7,28.505 C578.970001,29.1350031 579.344998,29.6824977 579.825,30.1475 C580.305002,30.6125023 580.867497,30.9874986 581.5125,31.2725 C582.157503,31.5575014 582.839996,31.7 583.56,31.7 C584.280004,31.7 584.954997,31.5650013 585.585,31.295 C586.215003,31.0249986 586.762498,30.6500024 587.2275,30.17 C587.692502,29.6899976 588.067499,29.1350031 588.3525,28.505 C588.637501,27.8749968 588.78,27.2150034 588.78,26.525 Z M578.52,0.65 L578.52,17.21 C580.44001,15.1999899 582.839986,14.195 585.72,14.195 C587.430009,14.195 588.997493,14.5174968 590.4225,15.1625 C591.847507,15.8075032 593.062495,16.6774945 594.0675,17.7725 C595.072505,18.8675055 595.859997,20.1574926 596.43,21.6425 C597.000003,23.1275074 597.285,24.7099916 597.285,26.39 C597.285,28.1000085 596.992503,29.7049925 596.4075,31.205 C595.822497,32.7050075 595.005005,34.0099944 593.955,35.12 C592.904995,36.2300055 591.667507,37.1074968 590.2425,37.7525 C588.817493,38.3975032 587.280008,38.72 585.63,38.72 C582.629985,38.72 580.260009,37.6250109 578.52,35.435 L578.52,38 L570.375,38 L570.375,0.65 L578.52,0.65 Z M610.065,14.915 L610.065,38 L601.92,38 L601.92,14.915 L610.065,14.915 Z M601.38,6.05 C601.38,5.41999685 601.499999,4.82750277 601.74,4.2725 C601.980001,3.71749722 602.309998,3.2300021 602.73,2.81 C603.150002,2.3899979 603.637497,2.0600012 604.1925,1.82 C604.747503,1.5799988 605.339997,1.46 605.97,1.46 C606.600003,1.46 607.192497,1.5799988 607.7475,1.82 C608.302503,2.0600012 608.789998,2.3899979 609.21,2.81 C609.630002,3.2300021 609.959999,3.71749722 610.2,4.2725 C610.440001,4.82750277 610.56,5.41999685 610.56,6.05 C610.56,6.68000315 610.440001,7.27249722 610.2,7.8275 C609.959999,8.38250277 609.630002,8.8699979 609.21,9.29 C608.789998,9.7100021 608.302503,10.0399988 607.7475,10.28 C607.192497,10.5200012 606.600003,10.64 605.97,10.64 C605.339997,10.64 604.747503,10.5200012 604.1925,10.28 C603.637497,10.0399988 603.150002,9.7100021 602.73,9.29 C602.309998,8.8699979 601.980001,8.38250277 601.74,7.8275 C601.499999,7.27249722 601.38,6.68000315 601.38,6.05 Z M624.735,21.71 L624.735,38 L616.59,38 L616.59,21.71 L613.89,21.71 L613.89,14.915 L616.59,14.915 L616.59,7.985 L624.735,7.985 L624.735,14.915 L629.37,14.915 L629.37,21.71 L624.735,21.71 Z M640.575,14.915 L640.575,38 L632.43,38 L632.43,14.915 L640.575,14.915 Z M631.89,6.05 C631.89,5.41999685 632.009999,4.82750277 632.25,4.2725 C632.490001,3.71749722 632.819998,3.2300021 633.24,2.81 C633.660002,2.3899979 634.147497,2.0600012 634.7025,1.82 C635.257503,1.5799988 635.849997,1.46 636.48,1.46 C637.110003,1.46 637.702497,1.5799988 638.2575,1.82 C638.812503,2.0600012 639.299998,2.3899979 639.72,2.81 C640.140002,3.2300021 640.469999,3.71749722 640.71,4.2725 C640.950001,4.82750277 641.07,5.41999685 641.07,6.05 C641.07,6.68000315 640.950001,7.27249722 640.71,7.8275 C640.469999,8.38250277 640.140002,8.8699979 639.72,9.29 C639.299998,9.7100021 638.812503,10.0399988 638.2575,10.28 C637.702497,10.5200012 637.110003,10.64 636.48,10.64 C635.849997,10.64 635.257503,10.5200012 634.7025,10.28 C634.147497,10.0399988 633.660002,9.7100021 633.24,9.29 C632.819998,8.8699979 632.490001,8.38250277 632.25,7.8275 C632.009999,7.27249722 631.89,6.68000315 631.89,6.05 Z M653.85,26.345 C653.85,27.1250039 653.992499,27.8374968 654.2775,28.4825 C654.562501,29.1275032 654.937498,29.6899976 655.4025,30.17 C655.867502,30.6500024 656.422497,31.0249986 657.0675,31.295 C657.712503,31.5650013 658.394996,31.7 659.115,31.7 C659.835004,31.7 660.517497,31.5650013 661.1625,31.295 C661.807503,31.0249986 662.362498,30.6500024 662.8275,30.17 C663.292502,29.6899976 663.667499,29.1275032 663.9525,28.4825 C664.237501,27.8374968 664.38,27.1400037 664.38,26.39 C664.38,25.6699964 664.237501,24.9875032 663.9525,24.3425 C663.667499,23.6974968 663.292502,23.1350024 662.8275,22.655 C662.362498,22.1749976 661.807503,21.8000013 661.1625,21.53 C660.517497,21.2599986 659.835004,21.125 659.115,21.125 C658.394996,21.125 657.712503,21.2599986 657.0675,21.53 C656.422497,21.8000013 655.867502,22.1749976 655.4025,22.655 C654.937498,23.1350024 654.562501,23.6899968 654.2775,24.32 C653.992499,24.9500031 653.85,25.6249964 653.85,26.345 Z M645.255,26.255 C645.255,24.5449914 645.599997,22.9475074 646.29,21.4625 C646.980003,19.9774926 647.939994,18.6875055 649.17,17.5925 C650.400006,16.4974945 651.862492,15.6350031 653.5575,15.005 C655.252508,14.3749968 657.10499,14.06 659.115,14.06 C661.09501,14.06 662.932492,14.3674969 664.6275,14.9825 C666.322508,15.5975031 667.792494,16.4524945 669.0375,17.5475 C670.282506,18.6425055 671.249997,19.9474924 671.94,21.4625 C672.630003,22.9775076 672.975,24.6499908 672.975,26.48 C672.975,28.3100091 672.622504,29.9824924 671.9175,31.4975 C671.212496,33.0125076 670.245006,34.3174945 669.015,35.4125 C667.784994,36.5075055 666.307509,37.354997 664.5825,37.955 C662.857491,38.555003 660.99001,38.855 658.98,38.855 C656.99999,38.855 655.170008,38.555003 653.49,37.955 C651.809992,37.354997 650.362506,36.5000055 649.1475,35.39 C647.932494,34.2799944 646.980003,32.9525077 646.29,31.4075 C645.599997,29.8624923 645.255,28.1450094 645.255,26.255 Z M677.655,14.915 L685.8,14.915 L685.8,17.84 C686.910006,16.4899932 688.034994,15.5825023 689.175,15.1175 C690.315006,14.6524977 691.649992,14.42 693.18,14.42 C694.800008,14.42 696.187494,14.6824974 697.3425,15.2075 C698.497506,15.7325026 699.479996,16.4749952 700.29,17.435 C700.950003,18.2150039 701.399999,19.0849952 701.64,20.045 C701.880001,21.0050048 702,22.0999938 702,23.33 L702,38 L693.855,38 L693.855,26.345 C693.855,25.2049943 693.772501,24.2825035 693.6075,23.5775 C693.442499,22.8724965 693.150002,22.3100021 692.73,21.89 C692.369998,21.5299982 691.965002,21.2750007 691.515,21.125 C691.064998,20.9749992 690.585003,20.9 690.075,20.9 C688.694993,20.9 687.637504,21.3124959 686.9025,22.1375 C686.167496,22.9625041 685.8,24.1399923 685.8,25.67 L685.8,38 L677.655,38 L677.655,14.915 Z" id="TUMBLBUG-for-the-exh" fill="#FFFFFF"></path>
            </g>
        </g>
    </g>
</svg>
