<?xml version="1.0" encoding="UTF-8"?>
<svg width="482px" height="43px" viewBox="0 0 482 43" version="1.1" xmlns="http://www.w3.org/2000/svg" xmlns:xlink="http://www.w3.org/1999/xlink">
    <!-- Generator: sketchtool 51.1 (57501) - http://www.bohemiancoding.com/sketch -->
    <title>BDB0B202-8803-4302-9AB8-CE8802A021FE</title>
    <desc>Created with sketchtool.</desc>
    <defs></defs>
    <g id="Page-2" stroke="none" stroke-width="1" fill="none" fill-rule="evenodd">
        <g id="ABOUT" transform="translate(-1052.000000, -703.000000)" stroke="#4A4A4A" stroke-width="1.5">
            <g id="main_title_02" transform="translate(1052.000000, 703.000000)">
                <path d="M18.7156554,42 C11.978716,42 6.23984174,39.7385087 6.23984174,35.0898876 L6.23984174,33.8335036 C6.23984174,29.1848825 11.978716,26.9233912 18.7156554,26.9233912 C25.4525948,26.9233912 31.1914691,29.1848825 31.1914691,33.8335036 L31.1914691,35.0898876 C31.1914691,39.7385087 25.4525948,42 18.7156554,42 Z M5.44970688,9.29213483 L5.44970688,5.02042901 L16.0957345,5.02042901 L16.0957345,1 L21.3355763,1 L21.3355763,5.02042901 L31.981604,5.02042901 L31.981604,9.29213483 L21.3355763,9.29213483 L21.3355763,9.75280899 C21.3355763,11.0091931 22.2088832,12.0980592 23.9139111,12.6843718 C27.1992087,13.773238 30.3597482,14.6527068 33.4371155,15.4484168 L32.1063621,19.4688458 C29.2369249,18.7150153 25.7436971,17.7099081 22.915846,16.8304392 C20.4206833,16.0766088 19.0899298,15.2390194 18.7988275,14.6527068 L18.7572415,14.6527068 C18.4661391,15.2390194 17.0522136,16.0766088 14.5570509,16.8723187 C11.6460277,17.793667 8.27755797,18.7568948 5.32494874,19.5107252 L3.99419528,15.4484168 C6.86363243,14.6945863 10.14893,13.8569969 13.4342276,12.6843718 C15.1808415,12.0561798 16.0957345,11.0091931 16.0957345,9.75280899 L16.0957345,9.29213483 L5.44970688,9.29213483 Z M1,20.8089888 L36.4313108,20.8089888 L36.4313108,25.0806946 L1,25.0806946 L1,20.8089888 Z M18.7156554,31.1532176 C15.0144974,31.1532176 11.4380974,32.3677222 11.4380974,34.1685393 L11.4380974,34.7548519 C11.4380974,36.5556691 15.0144974,37.7701736 18.7156554,37.7701736 C22.4168135,37.7701736 25.9932134,36.5556691 25.9932134,34.7548519 L25.9932134,34.1685393 C25.9932134,32.3677222 22.4168135,31.1532176 18.7156554,31.1532176 Z M58.8692927,42 C52.1323534,42 46.3934791,39.7385087 46.3934791,35.0898876 L46.3934791,33.8335036 C46.3934791,29.1848825 52.1323534,26.9233912 58.8692927,26.9233912 C65.6062321,26.9233912 71.3451064,29.1848825 71.3451064,33.8335036 L71.3451064,35.0898876 C71.3451064,39.7385087 65.6062321,42 58.8692927,42 Z M45.6033442,9.29213483 L45.6033442,5.02042901 L56.2493719,5.02042901 L56.2493719,1 L61.4892136,1 L61.4892136,5.02042901 L72.1352413,5.02042901 L72.1352413,9.29213483 L61.4892136,9.29213483 L61.4892136,9.75280899 C61.4892136,11.0091931 62.3625206,12.0980592 64.0675484,12.6843718 C67.352846,13.773238 70.5133855,14.6527068 73.5907529,15.4484168 L72.2599994,19.4688458 C69.3905623,18.7150153 65.8973344,17.7099081 63.0694834,16.8304392 C60.5743206,16.0766088 59.2435672,15.2390194 58.9524648,14.6527068 L58.9108788,14.6527068 C58.6197765,15.2390194 57.2058509,16.0766088 54.7106882,16.8723187 C51.799665,17.793667 48.4311953,18.7568948 45.4785861,19.5107252 L44.1478326,15.4484168 C47.0172698,14.6945863 50.3025674,13.8569969 53.587865,12.6843718 C55.3344789,12.0561798 56.2493719,11.0091931 56.2493719,9.75280899 L56.2493719,9.29213483 L45.6033442,9.29213483 Z M41.1536373,20.8089888 L76.5849482,20.8089888 L76.5849482,25.0806946 L41.1536373,25.0806946 L41.1536373,20.8089888 Z M58.8692927,31.1532176 C55.1681347,31.1532176 51.5917348,32.3677222 51.5917348,34.1685393 L51.5917348,34.7548519 C51.5917348,36.5556691 55.1681347,37.7701736 58.8692927,37.7701736 C62.5704508,37.7701736 66.1468507,36.5556691 66.1468507,34.7548519 L66.1468507,34.1685393 C66.1468507,32.3677222 62.5704508,31.1532176 58.8692927,31.1532176 Z M111.997776,1.83758938 L111.997776,15.4902962 L117.32079,15.4902962 L117.32079,20.0970378 L111.997776,20.0970378 L111.997776,40.7854954 L106.716349,40.7854954 L106.716349,1.83758938 L111.997776,1.83758938 Z M83.2618188,30.6925434 L83.2618188,5.18794688 L101.143818,5.18794688 L101.143818,9.75280899 L88.5432466,9.75280899 L88.5432466,26.1276813 L91.1631675,26.1276813 C95.1138418,26.1276813 100.020995,25.834525 103.930083,25.2900919 L104.512288,29.8130746 C100.6032,30.4412666 94.9890837,30.6925434 89.9155861,30.6925434 L83.2618188,30.6925434 Z M154.022786,1.83758938 L154.022786,40.7854954 L148.741358,40.7854954 L148.741358,1.83758938 L154.022786,1.83758938 Z M129.362261,20.0132789 L129.362261,27.0490296 L133.396107,27.0490296 C137.180437,27.0490296 141.4638,26.7977528 145.331302,26.2951992 L145.913507,30.7344229 C142.004419,31.3207354 137.222023,31.5301328 132.148526,31.5301328 L124.164005,31.5301328 L124.164005,15.6996936 L136.639819,15.6996936 L136.639819,9.3340143 L124.164005,9.3340143 L124.164005,4.85291113 L141.838074,4.85291113 L141.838074,20.0132789 L129.362261,20.0132789 Z M178.854276,15.8672114 L178.854276,10.4228805 L184.135703,10.4228805 L184.135703,15.8672114 L178.854276,15.8672114 Z M177.23242,38.7334014 L178.979034,29.0592441 L184.884252,29.0592441 L181.474196,38.7334014 L177.23242,38.7334014 Z M236.788258,1.83758938 L236.788258,13.1031665 L241.861755,13.1031665 L241.861755,17.7099081 L236.788258,17.7099081 L236.788258,30.0643514 L231.548416,30.0643514 L231.548416,1.83758938 L236.788258,1.83758938 Z M217.991365,29.5617978 L217.991365,35.8855975 L237.703151,35.8855975 L237.703151,40.4085802 L212.709937,40.4085802 L212.709937,29.5617978 L217.991365,29.5617978 Z M220.278598,1.50255363 L220.278598,5.73237998 L228.637393,5.73237998 L228.637393,10.2134831 L206.513617,10.2134831 L206.513617,5.73237998 L215.038756,5.73237998 L215.038756,1.50255363 L220.278598,1.50255363 Z M217.658677,27.258427 C211.83663,27.258427 208.426575,24.0337079 208.426575,20.2645557 L208.426575,18.6731359 C208.426575,14.9039837 211.83663,11.6792646 217.658677,11.6792646 C223.480723,11.6792646 226.890779,14.9039837 226.890779,18.6731359 L226.890779,20.2645557 C226.890779,24.0337079 223.480723,27.258427 217.658677,27.258427 Z M217.658677,15.825332 C214.872412,15.825332 213.375314,17.5423902 213.375314,18.9662921 L213.375314,19.9713994 C213.375314,21.3953013 214.872412,23.1123596 217.658677,23.1123596 C220.444942,23.1123596 221.942039,21.3953013 221.942039,19.9713994 L221.942039,18.9662921 C221.942039,17.5423902 220.444942,15.825332 217.658677,15.825332 Z M276.673896,42 C269.936957,42 264.198082,39.7385087 264.198082,35.0898876 L264.198082,33.8335036 C264.198082,29.1848825 269.936957,26.9233912 276.673896,26.9233912 C283.410835,26.9233912 289.14971,29.1848825 289.14971,33.8335036 L289.14971,35.0898876 C289.14971,39.7385087 283.410835,42 276.673896,42 Z M263.407948,9.29213483 L263.407948,5.02042901 L274.053975,5.02042901 L274.053975,1 L279.293817,1 L279.293817,5.02042901 L289.939845,5.02042901 L289.939845,9.29213483 L279.293817,9.29213483 L279.293817,9.75280899 C279.293817,11.0091931 280.167124,12.0980592 281.872152,12.6843718 C285.157449,13.773238 288.317989,14.6527068 291.395356,15.4484168 L290.064603,19.4688458 C287.195166,18.7150153 283.701938,17.7099081 280.874087,16.8304392 C278.378924,16.0766088 277.048171,15.2390194 276.757068,14.6527068 L276.715482,14.6527068 C276.42438,15.2390194 275.010454,16.0766088 272.515292,16.8723187 C269.604268,17.793667 266.235799,18.7568948 263.283189,19.5107252 L261.952436,15.4484168 C264.821873,14.6945863 268.107171,13.8569969 271.392468,12.6843718 C273.139082,12.0561798 274.053975,11.0091931 274.053975,9.75280899 L274.053975,9.29213483 L263.407948,9.29213483 Z M258.958241,20.8089888 L294.389552,20.8089888 L294.389552,25.0806946 L258.958241,25.0806946 L258.958241,20.8089888 Z M276.673896,31.1532176 C272.972738,31.1532176 269.396338,32.3677222 269.396338,34.1685393 L269.396338,34.7548519 C269.396338,36.5556691 272.972738,37.7701736 276.673896,37.7701736 C280.375054,37.7701736 283.951454,36.5556691 283.951454,34.7548519 L283.951454,34.1685393 C283.951454,32.3677222 280.375054,31.1532176 276.673896,31.1532176 Z M313.939614,30.6925434 L313.939614,5.18794688 L331.821613,5.18794688 L331.821613,9.75280899 L319.221041,9.75280899 L319.221041,26.1276813 L322.464753,26.1276813 C326.415427,26.1276813 331.322581,25.834525 335.231669,25.2900919 L335.813874,29.8130746 C331.904785,30.4412666 326.290669,30.6925434 321.217172,30.6925434 L313.939614,30.6925434 Z M329.659139,19.4688458 L329.659139,14.9039837 L339.182343,14.9039837 L339.182343,1.83758938 L344.463771,1.83758938 L344.463771,40.7854954 L339.182343,40.7854954 L339.182343,19.4688458 L329.659139,19.4688458 Z M364.67921,31.4044944 L379.774944,31.4044944 L379.774944,25.206333 C373.537038,24.4106231 369.128917,20.6833504 369.128917,15.4902962 L369.128917,13.5638407 C369.128917,7.65883555 374.826205,3.68028601 382.394865,3.68028601 C389.963526,3.68028601 395.660814,7.65883555 395.660814,13.5638407 L395.660814,15.4902962 C395.660814,20.6833504 391.211107,24.4106231 385.014786,25.206333 L385.014786,31.4044944 L400.110521,31.4044944 L400.110521,35.8855975 L364.67921,35.8855975 L364.67921,31.4044944 Z M382.394865,8.24514811 C377.986744,8.24514811 374.285586,10.46476 374.285586,13.8569969 L374.285586,15.1971399 C374.285586,18.5893769 377.986744,20.8089888 382.394865,20.8089888 C386.802986,20.8089888 390.504144,18.5893769 390.504144,15.1971399 L390.504144,13.8569969 C390.504144,10.46476 386.802986,8.24514811 382.394865,8.24514811 Z M436.188726,26.4627171 L409.573656,26.4627171 L409.573656,13.3963228 L430.075577,13.3963228 L430.075577,9.16649642 L409.448898,9.16649642 L409.448898,4.72727273 L435.315419,4.72727273 L435.315419,17.793667 L414.813498,17.793667 L414.813498,22.0234934 L436.188726,22.0234934 L436.188726,26.4627171 Z M404.832847,31.4044944 L440.264158,31.4044944 L440.264158,35.8855975 L404.832847,35.8855975 L404.832847,31.4044944 Z M475.676986,1.83758938 L475.676986,15.4902962 L481,15.4902962 L481,20.0970378 L475.676986,20.0970378 L475.676986,40.7854954 L470.395558,40.7854954 L470.395558,1.83758938 L475.676986,1.83758938 Z M446.941029,30.6925434 L446.941029,5.18794688 L464.823028,5.18794688 L464.823028,9.75280899 L452.222456,9.75280899 L452.222456,26.1276813 L454.842377,26.1276813 C458.793052,26.1276813 463.700205,25.834525 467.609293,25.2900919 L468.191498,29.8130746 C464.28241,30.4412666 458.668294,30.6925434 453.594796,30.6925434 L446.941029,30.6925434 Z"></path>
            </g>
        </g>
    </g>
</svg>