<?xml version="1.0" encoding="UTF-8"?>
<svg width="415px" height="151px" viewBox="0 0 415 151" version="1.1" xmlns="http://www.w3.org/2000/svg" xmlns:xlink="http://www.w3.org/1999/xlink">
    <!-- Generator: sketchtool 51.1 (57501) - http://www.bohemiancoding.com/sketch -->
    <title>4F53A34E-AE69-436E-A873-8D0D10CDC9BD</title>
    <desc>Created with sketchtool.</desc>
    <defs>
        <linearGradient x1="100%" y1="0%" x2="-28.9637855%" y2="128.649196%" id="linearGradient-1">
            <stop stop-color="#97E055" offset="0%"></stop>
            <stop stop-color="#80C9F6" offset="50.6773844%"></stop>
            <stop stop-color="#A37CD8" offset="100%"></stop>
        </linearGradient>
    </defs>
    <g id="Page-2" stroke="none" stroke-width="1" fill="none" fill-rule="evenodd">
        <g id="ABOUT" transform="translate(-1052.000000, -428.000000)" stroke="#4A4A4A">
            <g id="main_title" transform="translate(1053.000000, 429.000000)">
                <path d="M22.5867064,22.4869461 L5,22.4869461 L10.4179804,16.8652096 C11.84733,15.3776636 12.9676142,14.1171322 13.7788666,13.0835776 C14.5901191,12.0500229 15.1937205,11.1758613 15.589689,10.4610664 C15.9856574,9.74627162 16.2319268,9.16671695 16.3285045,8.72238504 C16.4250821,8.27805312 16.4733703,7.90134259 16.4733703,7.59224213 C16.4733703,7.26382288 16.4202533,6.94506782 16.3140179,6.63596735 C16.2077825,6.32686689 16.0484317,6.05157842 15.8359608,5.81009369 C15.6234899,5.56860895 15.3675629,5.37542406 15.0681721,5.23053322 C14.7687813,5.08564238 14.4162781,5.01319804 14.0106519,5.01319804 C13.2380305,5.01319804 12.6344291,5.2643384 12.1998296,5.76662665 C11.76523,6.2689149 11.5479335,6.8967658 11.5479335,7.65019817 C11.5479335,7.86270474 11.5769064,8.17180056 11.634853,8.57749492 L5.43459736,8.57749492 C5.43459736,7.30245552 5.64223624,6.14334617 6.05752024,5.10013211 C6.47280424,4.05691806 7.0570904,3.15860832 7.81039625,2.40517594 C8.5637021,1.65174357 9.45703219,1.07218889 10.4904133,0.666494538 C11.5237944,0.260800182 12.658565,0.0579560468 13.8947593,0.0579560468 C15.111638,0.0579560468 16.236751,0.251140937 17.2701321,0.637516514 C18.3035132,1.02389209 19.1968433,1.56480979 19.9501491,2.26028582 C20.703455,2.95576186 21.29257,3.78162727 21.7175117,4.73790682 C22.1424535,5.69418638 22.3549212,6.73255516 22.3549212,7.85304434 C22.3549212,9.05080862 22.0989942,10.1567921 21.5871325,11.171028 C21.0752708,12.1852639 20.2592017,13.2236327 19.1389007,14.2861655 L15.5172561,17.6765943 L22.5867064,17.6765943 L22.5867064,22.4869461 Z M30.0907542,11.5332533 C30.0907542,12.4991922 30.1776728,13.3781835 30.3515126,14.1702534 C30.5253524,14.9623234 30.7716218,15.6481297 31.0903281,16.2276931 C31.4090344,16.8072565 31.7905105,17.2564113 32.2347678,17.5751712 C32.6790251,17.893931 33.1812215,18.0533086 33.741372,18.0533086 C34.2822069,18.0533086 34.7795745,17.893931 35.2334896,17.5751712 C35.6874046,17.2564113 36.0688807,16.8072565 36.3779293,16.2276931 C36.6869778,15.6481297 36.9284184,14.9623234 37.1022582,14.1702534 C37.276098,13.3781835 37.3630166,12.4991922 37.3630166,11.5332533 C37.3630166,10.5866331 37.276098,9.71247151 37.1022582,8.91074219 C36.9284184,8.10901287 36.6869778,7.4232065 36.3779293,6.85330253 C36.0688807,6.28339855 35.6874046,5.8390733 35.2334896,5.52031345 C34.7795745,5.2015536 34.2822069,5.04217607 33.741372,5.04217607 C33.1812215,5.04217607 32.6790251,5.2015536 32.2347678,5.52031345 C31.7905105,5.8390733 31.4090344,6.28339855 31.0903281,6.85330253 C30.7716218,7.4232065 30.5253524,8.10901287 30.3515126,8.91074219 C30.1776728,9.71247151 30.0907542,10.5866331 30.0907542,11.5332533 Z M24.4699617,11.5332533 C24.4699617,9.79456321 24.6969158,8.21527673 25.1508308,6.79534648 C25.6047459,5.37541624 26.242149,4.16318105 27.0630592,3.15860455 C27.8839695,2.15402805 28.8593893,1.37645886 29.9893481,0.825873666 C31.1193069,0.275288469 32.369969,0 33.741372,0 C35.0934594,0 36.3392927,0.275288469 37.4789092,0.825873666 C38.6185258,1.37645886 39.5939457,2.15402805 40.4051981,3.15860455 C41.2164506,4.16318105 41.8490249,5.37541624 42.3029399,6.79534648 C42.756855,8.21527673 42.9838091,9.79456321 42.9838091,11.5332533 C42.9838091,13.2719434 42.756855,14.8512299 42.3029399,16.2711601 C41.8490249,17.6910904 41.2164506,18.9081552 40.4051981,19.9223911 C39.5939457,20.936627 38.6185258,21.7190258 37.4789092,22.269611 C36.3392927,22.8201962 35.0934594,23.0954846 33.741372,23.0954846 C32.369969,23.0954846 31.1193069,22.8201962 29.9893481,22.269611 C28.8593893,21.7190258 27.8839695,20.936627 27.0630592,19.9223911 C26.242149,18.9081552 25.6047459,17.6910904 25.1508308,16.2711601 C24.6969158,14.8512299 24.4699617,13.2719434 24.4699617,11.5332533 Z M51.2701321,5.4478684 L48.0830848,5.4478684 L48.0830848,0.637516514 L56.9488709,0.637516514 L56.9488709,22.4869461 L51.2701321,22.4869461 L51.2701321,5.4478684 Z M70.5372816,15.8799568 C70.5372816,16.2470136 70.604885,16.5947464 70.7400937,16.9231657 C70.8753025,17.2515849 71.0587973,17.5365326 71.2905837,17.7780173 C71.5223701,18.0195021 71.7976124,18.212687 72.1163187,18.3575778 C72.435025,18.5024687 72.7778706,18.574913 73.1448658,18.574913 C73.4925454,18.574913 73.8257334,18.5024687 74.1444397,18.3575778 C74.463146,18.212687 74.7432171,18.0195021 74.9846613,17.7780173 C75.2261055,17.5365326 75.4144291,17.2564145 75.5496378,16.9376547 C75.6848466,16.6188948 75.7524499,16.2759916 75.7524499,15.9089348 C75.7524499,15.1748212 75.4965229,14.5518 74.9846613,14.0398523 C74.4727996,13.5279047 73.8595406,13.2719347 73.1448658,13.2719347 C72.4108755,13.2719347 71.7927876,13.5279047 71.2905837,14.0398523 C70.7883798,14.5518 70.5372816,15.165162 70.5372816,15.8799568 Z M70.7400937,6.201297 C70.7400937,6.87745426 70.9718767,7.45217931 71.4354495,7.92548939 C71.8990223,8.39879948 72.4688221,8.63545097 73.1448658,8.63545097 C73.4925454,8.63545097 73.811247,8.56783625 74.10098,8.4326048 C74.390713,8.29737335 74.6418112,8.11867733 74.8542821,7.89651137 C75.0667529,7.67434541 75.2357613,7.41837543 75.3613123,7.12859375 C75.4868633,6.83881207 75.5496378,6.53937549 75.5496378,6.23027503 C75.5496378,5.57343655 75.3178549,5.00837074 74.8542821,4.53506066 C74.3907092,4.06175058 73.8209095,3.82509909 73.1448658,3.82509909 C72.4688221,3.82509909 71.8990223,4.05692095 71.4354495,4.52057165 C70.9718767,4.98422234 70.7400937,5.54445852 70.7400937,6.201297 Z M69.1175969,10.9536928 C66.8383638,10.0070727 65.6987644,8.40363808 65.6987644,6.14334096 C65.6987644,5.21603957 65.8822592,4.38051492 66.2492544,3.63674193 C66.6162495,2.89296895 67.1232747,2.25062919 67.7703451,1.70970338 C68.4174155,1.16877757 69.199683,0.753430057 70.1171709,0.463648374 C71.0346588,0.173866691 72.0438803,0.0289780234 73.1448658,0.0289780234 C74.2458513,0.0289780234 75.2550728,0.173866691 76.1725607,0.463648374 C77.0900486,0.753430057 77.872316,1.16877757 78.5193865,1.70970338 C79.1664569,2.25062919 79.673482,2.89296895 80.0404772,3.63674193 C80.4074724,4.38051492 80.5909672,5.21603957 80.5909672,6.14334096 C80.5909672,6.72290432 80.5330215,7.2396739 80.4171282,7.69366521 C80.301235,8.14765651 80.1032538,8.56300402 79.8231785,8.93972021 C79.5431033,9.3164364 79.1761136,9.66899883 78.7221986,9.99741807 C78.2682835,10.3258373 77.7033126,10.6445924 77.0272689,10.9536928 C80.0018612,12.1128196 81.4891351,13.986713 81.4891351,16.5754294 C81.4891351,17.5027308 81.2814962,18.3624035 80.8662122,19.1544735 C80.4509282,19.9465434 79.8714708,20.6323497 79.1278228,21.2119131 C78.3841747,21.7914765 77.505331,22.245461 76.4912654,22.5738802 C75.4771999,22.9022995 74.3617445,23.0665066 73.1448658,23.0665066 C71.9666182,23.0665066 70.870478,22.9071291 69.8564124,22.5883692 C68.8423469,22.2696094 67.9586744,21.8204545 67.2053686,21.2408911 C66.4520627,20.6613278 65.8629477,19.9755214 65.438006,19.1834515 C65.0130642,18.3913815 64.8005965,17.5220495 64.8005965,16.5754294 C64.8005965,13.9287567 66.2395823,12.0548632 69.1175969,10.9536928 Z M12.1563698,51.0382931 L20.3557733,51.0382931 L20.3557733,42.6056883 L26.0345121,42.6056883 L26.0345121,64.4551179 L20.3557733,64.4551179 L20.3557733,55.4429527 L12.1563698,55.4429527 L12.1563698,64.4551179 L6.47763102,64.4551179 L6.47763102,42.6056883 L12.1563698,42.6056883 L12.1563698,51.0382931 Z M42.4912654,56.3412714 L39.9416276,49.0677875 L37.3919898,56.3412714 L42.4912654,56.3412714 Z M43.9978696,60.6589969 L35.8853856,60.6589969 L34.5815935,64.4551179 L28.5262037,64.4551179 L36.8414998,42.6056883 L43.0417554,42.6056883 L51.3570516,64.4551179 L45.3016617,64.4551179 L43.9978696,60.6589969 Z M53.8487431,64.4551179 L53.8487431,42.6056883 L59.5274819,42.6056883 L70.0157648,55.9645571 L70.0157648,42.6056883 L75.6655305,42.6056883 L75.6655305,64.4551179 L70.0157648,64.4551179 L59.5274819,51.0962492 L59.5274819,64.4551179 L53.8487431,64.4551179 Z M85.5164039,53.9650735 L77.5487857,42.6056883 L84.3285045,42.6056883 L88.3847465,48.5751611 L92.4120153,42.6056883 L99.1917341,42.6056883 L91.1951427,53.9650735 L91.1951427,64.4551179 L85.5164039,64.4551179 L85.5164039,53.9650735 Z M113.069876,56.3412714 L110.520239,49.0677875 L107.970601,56.3412714 L113.069876,56.3412714 Z M114.576481,60.6589969 L106.463997,60.6589969 L105.160205,64.4551179 L99.1048147,64.4551179 L107.420111,42.6056883 L113.620366,42.6056883 L121.935663,64.4551179 L115.880273,64.4551179 L114.576481,60.6589969 Z M124.427354,64.4551179 L124.427354,42.6056883 L130.106093,42.6056883 L140.594376,55.9645571 L140.594376,42.6056883 L146.244141,42.6056883 L146.244141,64.4551179 L140.594376,64.4551179 L130.106093,51.0962492 L130.106093,64.4551179 L124.427354,64.4551179 Z M161.455049,52.2263921 L172.725607,52.2263921 C172.725607,53.3855188 172.677319,54.4383764 172.580741,55.3849966 C172.484164,56.3316168 172.291011,57.210608 172.001278,58.0219967 C171.595652,59.1618047 171.045168,60.1711957 170.349808,61.0502002 C169.654449,61.9292046 168.83838,62.6633072 167.901576,63.25253 C166.964773,63.8417527 165.936236,64.2909076 164.815935,64.600008 C163.695634,64.9091085 162.517404,65.0636564 161.28121,65.0636564 C159.581443,65.0636564 158.031395,64.7835383 156.631018,64.2232937 C155.230642,63.6630492 154.028268,62.8758207 153.02386,61.8615848 C152.019452,60.8473489 151.237185,59.6302841 150.677035,58.2103539 C150.116884,56.7904236 149.836813,55.2207964 149.836813,53.5014251 C149.836813,51.8013726 150.112055,50.2414046 150.662548,48.8214743 C151.213041,47.4015441 151.995308,46.1893089 153.009374,45.1847324 C154.023439,44.1801559 155.245128,43.3977571 156.674478,42.8375125 C158.103828,42.2772679 159.697335,41.9971498 161.455049,41.9971498 C163.734282,41.9971498 165.73341,42.4897713 167.452493,43.475029 C169.171575,44.4602867 170.5333,45.9864474 171.537708,48.0535567 L166.1487,50.2848645 C165.646497,49.0871002 164.994607,48.2274274 164.193012,47.7058204 C163.391418,47.1842134 162.478772,46.9234138 161.455049,46.9234138 C160.605165,46.9234138 159.832556,47.0827913 159.137196,47.4015512 C158.441837,47.720311 157.847893,48.1742955 157.355347,48.7635183 C156.862801,49.352741 156.476496,50.0626955 156.196421,50.893403 C155.916346,51.7241105 155.77631,52.651398 155.77631,53.6752932 C155.77631,54.6025946 155.89703,55.4622674 156.138475,56.2543373 C156.379919,57.0464072 156.74208,57.7322136 157.224968,58.311777 C157.707856,58.8913403 158.306629,59.3404952 159.021304,59.6592551 C159.735979,59.9780149 160.566534,60.1373924 161.512995,60.1373924 C162.073146,60.1373924 162.613973,60.0746074 163.135492,59.9490353 C163.657012,59.8234632 164.125406,59.6206191 164.54069,59.3404968 C164.955974,59.0603745 165.29882,58.6981528 165.569237,58.2538209 C165.839655,57.809489 166.02315,57.2685713 166.119727,56.6310516 L161.455049,56.6310516 L161.455049,52.2263921 Z M191.847891,42.6056883 L191.847891,54.4866779 C191.847891,55.1241976 191.872035,55.7761966 191.920324,56.4426945 C191.968613,57.1091923 192.113477,57.7128951 192.354921,58.2538209 C192.596365,58.7947467 192.977841,59.2342424 193.499361,59.572321 C194.02088,59.9103996 194.75486,60.0794364 195.701321,60.0794364 C196.647782,60.0794364 197.376933,59.9103996 197.888794,59.572321 C198.400656,59.2342424 198.782132,58.7947467 199.033234,58.2538209 C199.284336,57.7128951 199.434029,57.1091923 199.482318,56.4426945 C199.530607,55.7761966 199.554751,55.1241976 199.554751,54.4866779 L199.554751,42.6056883 L205.204516,42.6056883 L205.204516,55.2690845 C205.204516,58.6691896 204.427078,61.1516154 202.872177,62.7164365 C201.317277,64.2812576 198.927015,65.0636564 195.701321,65.0636564 C192.475627,65.0636564 190.080536,64.2812576 188.515978,62.7164365 C186.95142,61.1516154 186.169152,58.6691896 186.169152,55.2690845 L186.169152,42.6056883 L191.847891,42.6056883 Z M209.782275,64.4551179 L209.782275,42.6056883 L215.461014,42.6056883 L225.949297,55.9645571 L225.949297,42.6056883 L231.599063,42.6056883 L231.599063,64.4551179 L225.949297,64.4551179 L215.461014,51.0962492 L215.461014,64.4551179 L209.782275,64.4551179 Z M241.85556,42.6056883 L241.85556,64.4551179 L236.176821,64.4551179 L236.176821,42.6056883 L241.85556,42.6056883 Z M250.315722,42.6056883 L255.588837,55.906601 L260.890925,42.6056883 L267.062207,42.6056883 L257.848743,64.4551179 L253.328931,64.4551179 L244.14444,42.6056883 L250.315722,42.6056883 Z M268.597784,61.6732277 C268.597784,61.209577 268.684703,60.7700814 268.858543,60.3547276 C269.032383,59.9393739 269.273823,59.5771522 269.582872,59.2680517 C269.89192,58.9589513 270.254081,58.7174702 270.669365,58.5436012 C271.084649,58.3697322 271.524071,58.282799 271.987644,58.282799 C272.451217,58.282799 272.890638,58.3697322 273.305922,58.5436012 C273.721206,58.7174702 274.083367,58.9589513 274.392416,59.2680517 C274.701464,59.5771522 274.942905,59.9393739 275.116745,60.3547276 C275.290585,60.7700814 275.377503,61.209577 275.377503,61.6732277 C275.377503,62.1368784 275.290585,62.576374 275.116745,62.9917278 C274.942905,63.4070815 274.701464,63.7693032 274.392416,64.0784036 C274.083367,64.3875041 273.721206,64.6289852 273.305922,64.8028542 C272.890638,64.9767232 272.451217,65.0636564 271.987644,65.0636564 C271.524071,65.0636564 271.084649,64.9767232 270.669365,64.8028542 C270.254081,64.6289852 269.89192,64.3875041 269.582872,64.0784036 C269.273823,63.7693032 269.032383,63.4070815 268.858543,62.9917278 C268.684703,62.576374 268.597784,62.1368784 268.597784,61.6732277 Z M18.9071155,89.384212 L12.1563698,89.384212 L12.1563698,93.0354429 L18.5304644,93.0354429 L18.5304644,97.8457948 L12.1563698,97.8457948 L12.1563698,101.612938 L18.9071155,101.612938 L18.9071155,106.42329 L6.47763102,106.42329 L6.47763102,84.5738601 L18.9071155,84.5738601 L18.9071155,89.384212 Z M22.9923306,106.42329 L22.9923306,84.5738601 L28.6710695,84.5738601 L39.1593524,97.9327289 L39.1593524,84.5738601 L44.809118,84.5738601 L44.809118,106.42329 L39.1593524,106.42329 L28.6710695,93.0644209 L28.6710695,106.42329 L22.9923306,106.42329 Z M57.6731998,89.384212 L57.6731998,106.42329 L51.994461,106.42329 L51.994461,89.384212 L47.3297827,89.384212 L47.3297827,84.5738601 L62.3378781,84.5738601 L62.3378781,89.384212 L57.6731998,89.384212 Z M77.2880273,89.384212 L70.5372816,89.384212 L70.5372816,93.0354429 L76.9113762,93.0354429 L76.9113762,97.8457948 L70.5372816,97.8457948 L70.5372816,101.612938 L77.2880273,101.612938 L77.2880273,106.42329 L64.8585428,106.42329 L64.8585428,84.5738601 L77.2880273,84.5738601 L77.2880273,89.384212 Z M87.0519813,94.339454 L88.1239881,94.339454 C89.2442891,94.339454 90.1038175,94.1076321 90.7025991,93.6439814 C91.3013806,93.1803307 91.6007669,92.5138428 91.6007669,91.6444978 C91.6007669,90.7751527 91.3013806,90.1086649 90.7025991,89.6450142 C90.1038175,89.1813635 89.2442891,88.9495416 88.1239881,88.9495416 L87.0519813,88.9495416 L87.0519813,94.339454 Z M99.539412,106.42329 L92.4699617,106.42329 L87.0519813,98.0196629 L87.0519813,106.42329 L81.3732424,106.42329 L81.3732424,84.5738601 L90.2100554,84.5738601 C91.4269341,84.5738601 92.4892726,84.7525561 93.3971027,85.1099535 C94.3049328,85.4673509 95.0533986,85.9551428 95.6425224,86.5733437 C96.2316462,87.1915446 96.6758968,87.9063287 96.9752876,88.7177174 C97.2746784,89.5291061 97.4243715,90.3984382 97.4243715,91.3257395 C97.4243715,92.9871545 97.0235802,94.3346191 96.2219855,95.3681738 C95.4203908,96.4017285 94.2373321,97.1020237 92.6727738,97.4690805 L99.539412,106.42329 Z M110.201534,89.384212 L110.201534,106.42329 L104.522795,106.42329 L104.522795,89.384212 L99.8581167,89.384212 L99.8581167,84.5738601 L114.866212,84.5738601 L114.866212,89.384212 L110.201534,89.384212 Z M129.265871,98.3094432 L126.716233,91.0359593 L124.166596,98.3094432 L129.265871,98.3094432 Z M130.772476,102.627169 L122.659991,102.627169 L121.356199,106.42329 L115.30081,106.42329 L123.616106,84.5738601 L129.816361,84.5738601 L138.131657,106.42329 L132.076268,106.42329 L130.772476,102.627169 Z M146.302088,84.5738601 L146.302088,106.42329 L140.623349,106.42329 L140.623349,84.5738601 L146.302088,84.5738601 Z M150.879847,106.42329 L150.879847,84.5738601 L156.558585,84.5738601 L167.046868,97.9327289 L167.046868,84.5738601 L172.696634,84.5738601 L172.696634,106.42329 L167.046868,106.42329 L156.558585,93.0644209 L156.558585,106.42329 L150.879847,106.42329 Z M176.289305,106.42329 L179.99787,84.5738601 L185.618662,84.5738601 L189.993609,96.2230255 L194.339582,84.5738601 L199.960375,84.5738601 L203.668939,106.42329 L198.019173,106.42329 L196.135918,93.8468276 L190.978696,106.42329 L188.71879,106.42329 L183.822326,93.8468276 L181.939071,106.42329 L176.289305,106.42329 Z M219.691095,89.384212 L212.940349,89.384212 L212.940349,93.0354429 L219.314444,93.0354429 L219.314444,97.8457948 L212.940349,97.8457948 L212.940349,101.612938 L219.691095,101.612938 L219.691095,106.42329 L207.261611,106.42329 L207.261611,84.5738601 L219.691095,84.5738601 L219.691095,89.384212 Z M223.77631,106.42329 L223.77631,84.5738601 L229.455049,84.5738601 L239.943332,97.9327289 L239.943332,84.5738601 L245.593098,84.5738601 L245.593098,106.42329 L239.943332,106.42329 L229.455049,93.0644209 L229.455049,106.42329 L223.77631,106.42329 Z M258.457179,89.384212 L258.457179,106.42329 L252.778441,106.42329 L252.778441,89.384212 L248.113762,89.384212 L248.113762,84.5738601 L263.121858,84.5738601 L263.121858,89.384212 L258.457179,89.384212 Z M281.172135,101.612938 L282.475927,101.612938 C283.461019,101.612938 284.339863,101.45839 285.112484,101.149289 C285.885105,100.840189 286.536995,100.415182 287.068172,99.8742564 C287.599349,99.3333306 288.004969,98.6909909 288.285045,97.9472179 C288.56512,97.2034449 288.705156,96.3872387 288.705156,95.4985749 C288.705156,94.6292299 288.560291,93.8178533 288.270558,93.0644209 C287.980825,92.3109886 287.570376,91.6638192 287.039199,91.1228934 C286.508022,90.5819676 285.856132,90.1569608 285.083511,89.8478603 C284.310889,89.5387599 283.441703,89.384212 282.475927,89.384212 L281.172135,89.384212 L281.172135,101.612938 Z M275.493396,84.5738601 L283.895611,84.5738601 C285.382908,84.5738601 286.778434,84.8732967 288.082233,85.4721788 C289.386031,86.071061 290.525631,86.8679486 291.501065,87.8628657 C292.4765,88.8577829 293.244281,90.0168922 293.804431,91.3402286 C294.364582,92.6635649 294.644653,94.0496665 294.644653,95.4985749 C294.644653,96.9281645 294.369411,98.3046069 293.818918,99.6279432 C293.268425,100.95128 292.505473,102.115219 291.530038,103.119795 C290.554604,104.124372 289.415004,104.926089 288.111206,105.524971 C286.807407,106.123853 285.402223,106.42329 283.895611,106.42329 L275.493396,106.42329 L275.493396,84.5738601 Z M310.695782,89.384212 L303.945036,89.384212 L303.945036,93.0354429 L310.319131,93.0354429 L310.319131,97.8457948 L303.945036,97.8457948 L303.945036,101.612938 L310.695782,101.612938 L310.695782,106.42329 L298.266297,106.42329 L298.266297,84.5738601 L310.695782,84.5738601 L310.695782,89.384212 Z M326.775884,90.1666186 C326.157787,89.6643304 325.539699,89.2924494 324.921602,89.0509647 C324.303505,88.80948 323.704732,88.6887394 323.125266,88.6887394 C322.391276,88.6887394 321.792503,88.8626058 321.328931,89.2103438 C320.865358,89.5580819 320.633575,90.0120663 320.633575,90.5723109 C320.633575,90.9586865 320.749466,91.2774416 320.981253,91.5285857 C321.213039,91.7797298 321.517254,91.9970628 321.893907,92.1805912 C322.27056,92.3641196 322.695495,92.5234972 323.168726,92.6587286 C323.641957,92.7939601 324.110351,92.9388487 324.573924,93.093399 C326.428215,93.7115999 327.785111,94.5374653 328.644653,95.57102 C329.504194,96.6045746 329.933958,97.9520392 329.933958,99.6134542 C329.933958,100.733943 329.745635,101.748164 329.368982,102.656147 C328.992329,103.564129 328.441844,104.341698 327.717512,104.988878 C326.993179,105.636057 326.104678,106.138337 325.051981,106.495735 C323.999285,106.853132 322.806568,107.031828 321.473796,107.031828 C318.711675,107.031828 316.152405,106.210792 313.79591,104.568696 L316.229655,99.9901685 C317.079538,100.743601 317.919752,101.303837 318.75032,101.670894 C319.580888,102.037951 320.401785,102.221476 321.213038,102.221476 C322.140184,102.221476 322.830704,102.008973 323.284619,101.58396 C323.738534,101.158947 323.965488,100.675984 323.965488,100.135059 C323.965488,99.8066394 323.907542,99.5216917 323.791649,99.280207 C323.675756,99.0387222 323.482603,98.8165596 323.212186,98.6137124 C322.941768,98.4108652 322.589265,98.22251 322.154666,98.048641 C321.720066,97.874772 321.193726,97.6815871 320.575628,97.4690805 C319.841638,97.2372551 319.122145,96.9812852 318.417128,96.7011629 C317.712111,96.4210406 317.084366,96.0491597 316.533873,95.585509 C315.98338,95.1218583 315.53913,94.537474 315.201108,93.8323386 C314.863086,93.1272031 314.694078,92.233723 314.694078,91.1518714 C314.694078,90.0700198 314.872744,89.0896065 315.230081,88.210602 C315.587418,87.3315976 316.089615,86.5781765 316.736685,85.9503162 C317.383756,85.3224559 318.175681,84.834664 319.112484,84.486926 C320.049287,84.139188 321.097139,83.9653216 322.256072,83.9653216 C323.337742,83.9653216 324.467683,84.1150399 325.645931,84.414481 C326.824179,84.713922 327.95412,85.1534177 329.03579,85.732981 L326.775884,90.1666186 Z M339.176395,84.5738601 L339.176395,106.42329 L333.497657,106.42329 L333.497657,84.5738601 L339.176395,84.5738601 Z M354.387303,94.1945639 L365.657861,94.1945639 C365.657861,95.3536906 365.609573,96.4065482 365.512995,97.3531684 C365.416418,98.2997886 365.223265,99.1787798 364.933532,99.9901685 C364.527906,101.129976 363.977421,102.139368 363.282062,103.018372 C362.586703,103.897376 361.770634,104.631479 360.83383,105.220702 C359.897027,105.809925 358.86849,106.259079 357.748189,106.56818 C356.627888,106.87728 355.449658,107.031828 354.213464,107.031828 C352.513697,107.031828 350.963649,106.75171 349.563272,106.191466 C348.162896,105.631221 346.960522,104.843993 345.956114,103.829757 C344.951706,102.815521 344.169439,101.598456 343.609288,100.178526 C343.049138,98.7585954 342.769067,97.1889682 342.769067,95.4695969 C342.769067,93.7695443 343.044309,92.2095764 343.594802,90.7896461 C344.145295,89.3697159 344.927562,88.1574807 345.941628,87.1529042 C346.955693,86.1483277 348.177382,85.3659289 349.606732,84.8056843 C351.036082,84.2454397 352.629589,83.9653216 354.387303,83.9653216 C356.666536,83.9653216 358.665664,84.4579431 360.384746,85.4432008 C362.103829,86.4284585 363.465554,87.9546192 364.469962,90.0217285 L359.080954,92.2530363 C358.578751,91.055272 357.926861,90.1955992 357.125266,89.6739922 C356.323672,89.1523852 355.411026,88.8915856 354.387303,88.8915856 C353.537419,88.8915856 352.76481,89.0509631 352.06945,89.369723 C351.374091,89.6884828 350.780147,90.1424673 350.287601,90.7316901 C349.795055,91.3209128 349.40875,92.0308673 349.128675,92.8615748 C348.8486,93.6922823 348.708564,94.6195697 348.708564,95.643465 C348.708564,96.5707664 348.829284,97.4304392 349.070729,98.2225091 C349.312173,99.014579 349.674334,99.7003854 350.157222,100.279949 C350.64011,100.859512 351.238883,101.308667 351.953558,101.627427 C352.668233,101.946187 353.498788,102.105564 354.445249,102.105564 C355.0054,102.105564 355.546227,102.042779 356.067746,101.917207 C356.589265,101.791635 357.05766,101.588791 357.472944,101.308669 C357.888228,101.028546 358.231074,100.666325 358.501491,100.221993 C358.771909,99.7776608 358.955404,99.2367431 359.051981,98.5992234 L354.387303,98.5992234 L354.387303,94.1945639 Z M369.250533,106.42329 L369.250533,84.5738601 L374.929271,84.5738601 L385.417554,97.9327289 L385.417554,84.5738601 L391.06732,84.5738601 L391.06732,106.42329 L385.417554,106.42329 L374.929271,93.0644209 L374.929271,106.42329 L369.250533,106.42329 Z M17.1107797,136.162736 L28.3813379,136.162736 C28.3813379,137.321862 28.3330498,138.37472 28.2364721,139.32134 C28.1398944,140.26796 27.946742,141.146952 27.6570089,141.95834 C27.2513827,143.098148 26.7008982,144.107539 26.005539,144.986544 C25.3101797,145.865548 24.4941106,146.599651 23.5573072,147.188874 C22.6205038,147.778096 21.591967,148.227251 20.471666,148.536352 C19.3513649,148.845452 18.173135,149 16.9369408,149 C15.2371737,149 13.6871253,148.719882 12.286749,148.159637 C10.8863728,147.599393 9.68399877,146.812164 8.67959097,145.797928 C7.67518316,144.783693 6.89291574,143.566628 6.33276523,142.146697 C5.77261473,140.726767 5.49254367,139.15714 5.49254367,137.437769 C5.49254367,135.737716 5.76778591,134.177748 6.31827865,132.757818 C6.86877139,131.337888 7.65103882,130.125652 8.66510439,129.121076 C9.67916996,128.116499 10.9008592,127.334101 12.3302088,126.773856 C13.7595583,126.213611 15.3530661,125.933493 17.1107797,125.933493 C19.3900128,125.933493 21.3891407,126.426115 23.1082233,127.411373 C24.8273059,128.39663 26.1890306,129.922791 27.1934384,131.9899 L21.8044312,134.221208 C21.3022273,133.023444 20.6503378,132.163771 19.8487431,131.642164 C19.0471484,131.120557 18.1345031,130.859757 17.1107797,130.859757 C16.2608962,130.859757 15.4882864,131.019135 14.7929271,131.337895 C14.0975679,131.656655 13.5036241,132.110639 13.011078,132.699862 C12.5185318,133.289085 12.1322269,133.999039 11.8521517,134.829747 C11.5720764,135.660454 11.4320409,136.587742 11.4320409,137.611637 C11.4320409,138.538938 11.5527612,139.398611 11.7942054,140.190681 C12.0356496,140.982751 12.3978104,141.668557 12.8806988,142.248121 C13.3635871,142.827684 13.9623597,143.276839 14.6770345,143.595599 C15.3917093,143.914358 16.2222648,144.073736 17.168726,144.073736 C17.7288765,144.073736 18.2697034,144.010951 18.7912228,143.885379 C19.3127423,143.759807 19.781137,143.556963 20.196421,143.27684 C20.611705,142.996718 20.9545506,142.634496 21.224968,142.190165 C21.4953855,141.745833 21.6788804,141.204915 21.775458,140.567395 L17.1107797,140.567395 L17.1107797,136.162736 Z M37.6527482,136.307626 L38.724755,136.307626 C39.845056,136.307626 40.7045844,136.075804 41.303366,135.612153 C41.9021476,135.148503 42.2015339,134.482015 42.2015339,133.61267 C42.2015339,132.743325 41.9021476,132.076837 41.303366,131.613186 C40.7045844,131.149535 39.845056,130.917713 38.724755,130.917713 L37.6527482,130.917713 L37.6527482,136.307626 Z M50.140179,148.391462 L43.0707286,148.391462 L37.6527482,139.987835 L37.6527482,148.391462 L31.9740094,148.391462 L31.9740094,126.542032 L40.8108223,126.542032 C42.027701,126.542032 43.0900395,126.720728 43.9978696,127.078125 C44.9056998,127.435523 45.6541655,127.923315 46.2432893,128.541515 C46.8324131,129.159716 47.2766637,129.874501 47.5760545,130.685889 C47.8754453,131.497278 48.0251385,132.36661 48.0251385,133.293911 C48.0251385,134.955326 47.6243471,136.302791 46.8227524,137.336346 C46.0211578,138.3699 44.838099,139.070195 43.2735407,139.437252 L50.140179,148.391462 Z M64.3949723,140.277615 L61.8453345,133.004131 L59.2956966,140.277615 L64.3949723,140.277615 Z M65.9015765,144.59534 L57.7890925,144.59534 L56.4853004,148.391462 L50.4299105,148.391462 L58.7452066,126.542032 L64.9454623,126.542032 L73.2607584,148.391462 L67.2053686,148.391462 L65.9015765,144.59534 Z M81.4311888,143.58111 L82.7349808,143.58111 C83.7200731,143.58111 84.5989167,143.426562 85.3715381,143.117461 C86.1441595,142.808361 86.796049,142.383354 87.3272262,141.842428 C87.8584035,141.301502 88.2640236,140.659163 88.5440988,139.91539 C88.8241741,139.171617 88.9642096,138.355411 88.9642096,137.466747 C88.9642096,136.597402 88.8193453,135.786025 88.5296123,135.032593 C88.2398793,134.27916 87.8294303,133.631991 87.2982531,133.091065 C86.7670759,132.550139 86.1151864,132.125133 85.342565,131.816032 C84.5699436,131.506932 83.7007576,131.352384 82.7349808,131.352384 L81.4311888,131.352384 L81.4311888,143.58111 Z M75.7524499,126.542032 L84.1546655,126.542032 C85.6419617,126.542032 87.0374882,126.841468 88.3412867,127.440351 C89.6450853,128.039233 90.7846848,128.83612 91.7601193,129.831038 C92.7355538,130.825955 93.5033348,131.985064 94.0634853,133.3084 C94.6236358,134.631737 94.9037069,136.017838 94.9037069,137.466747 C94.9037069,138.896336 94.6284646,140.272779 94.0779719,141.596115 C93.5274791,142.919451 92.764527,144.08339 91.7890925,145.087967 C90.813658,146.092543 89.6740585,146.894261 88.3702599,147.493143 C87.0664613,148.092025 85.6612772,148.391462 84.1546655,148.391462 L75.7524499,148.391462 L75.7524499,126.542032 Z M104.20409,126.542032 L104.20409,138.423021 C104.20409,139.060541 104.228234,139.71254 104.276523,140.379038 C104.324812,141.045536 104.469676,141.649239 104.711121,142.190165 C104.952565,142.73109 105.334041,143.170586 105.85556,143.508665 C106.37708,143.846743 107.111059,144.01578 108.05752,144.01578 C109.003981,144.01578 109.733132,143.846743 110.244994,143.508665 C110.756855,143.170586 111.138331,142.73109 111.389433,142.190165 C111.640535,141.649239 111.790228,141.045536 111.838517,140.379038 C111.886806,139.71254 111.91095,139.060541 111.91095,138.423021 L111.91095,126.542032 L117.560716,126.542032 L117.560716,139.205428 C117.560716,142.605533 116.783277,145.087959 115.228377,146.65278 C113.673476,148.217601 111.283215,149 108.05752,149 C104.831826,149 102.436736,148.217601 100.872177,146.65278 C99.3076189,145.087959 98.5253515,142.605533 98.5253515,139.205428 L98.5253515,126.542032 L104.20409,126.542032 Z M134.017469,140.277615 L131.467831,133.004131 L128.918193,140.277615 L134.017469,140.277615 Z M135.524073,144.59534 L127.411589,144.59534 L126.107797,148.391462 L120.052407,148.391462 L128.367703,126.542032 L134.567959,126.542032 L142.883255,148.391462 L136.827865,148.391462 L135.524073,144.59534 Z M153.66127,131.352384 L153.66127,148.391462 L147.982531,148.391462 L147.982531,131.352384 L143.317853,131.352384 L143.317853,126.542032 L158.325948,126.542032 L158.325948,131.352384 L153.66127,131.352384 Z M166.525352,126.542032 L166.525352,148.391462 L160.846613,148.391462 L160.846613,126.542032 L166.525352,126.542032 Z M176.05752,137.466747 C176.05752,138.336092 176.2217,139.137809 176.550064,139.871923 C176.878428,140.606036 177.322679,141.243546 177.882829,141.784472 C178.44298,142.325398 179.094869,142.745575 179.838517,143.045016 C180.582165,143.344457 181.369262,143.494176 182.19983,143.494176 C183.030398,143.494176 183.817494,143.344457 184.561142,143.045016 C185.30479,142.745575 185.961508,142.325398 186.531317,141.784472 C187.101125,141.243546 187.550204,140.606036 187.878568,139.871923 C188.206932,139.137809 188.371112,138.336092 188.371112,137.466747 C188.371112,136.597402 188.206932,135.795684 187.878568,135.061571 C187.550204,134.327457 187.101125,133.689947 186.531317,133.149021 C185.961508,132.608095 185.30479,132.187918 184.561142,131.888477 C183.817494,131.589036 183.030398,131.439318 182.19983,131.439318 C181.369262,131.439318 180.582165,131.589036 179.838517,131.888477 C179.094869,132.187918 178.44298,132.608095 177.882829,133.149021 C177.322679,133.689947 176.878428,134.327457 176.550064,135.061571 C176.2217,135.795684 176.05752,136.597402 176.05752,137.466747 Z M170.118023,137.466747 C170.118023,135.843969 170.417409,134.332298 171.016191,132.931686 C171.614972,131.531075 172.445528,130.30918 173.507882,129.265966 C174.570237,128.222752 175.840214,127.406546 177.317853,126.817323 C178.795491,126.2281 180.4228,125.933493 182.19983,125.933493 C183.957543,125.933493 185.580024,126.2281 187.06732,126.817323 C188.554616,127.406546 189.834251,128.222752 190.906263,129.265966 C191.978275,130.30918 192.81366,131.531075 193.412441,132.931686 C194.011223,134.332298 194.310609,135.843969 194.310609,137.466747 C194.310609,139.089524 194.011223,140.601196 193.412441,142.001807 C192.81366,143.402419 191.978275,144.624313 190.906263,145.667527 C189.834251,146.710741 188.554616,147.526948 187.06732,148.11617 C185.580024,148.705393 183.957543,149 182.19983,149 C180.4228,149 178.795491,148.705393 177.317853,148.11617 C175.840214,147.526948 174.570237,146.710741 173.507882,145.667527 C172.445528,144.624313 171.614972,143.402419 171.016191,142.001807 C170.417409,140.601196 170.118023,139.089524 170.118023,137.466747 Z M197.903281,148.391462 L197.903281,126.542032 L203.58202,126.542032 L214.070303,139.900901 L214.070303,126.542032 L219.720068,126.542032 L219.720068,148.391462 L214.070303,148.391462 L203.58202,135.032593 L203.58202,148.391462 L197.903281,148.391462 Z M246.578185,131.352384 L239.827439,131.352384 L239.827439,135.003615 L246.201534,135.003615 L246.201534,139.813967 L239.827439,139.813967 L239.827439,143.58111 L246.578185,143.58111 L246.578185,148.391462 L234.1487,148.391462 L234.1487,126.542032 L246.578185,126.542032 L246.578185,131.352384 Z M256.921602,136.742296 L250.11291,126.542032 L257.124414,126.542032 L260.079676,132.192746 L263.730294,126.542032 L270.741798,126.542032 L263.527482,136.742296 L271.668939,148.391462 L264.744354,148.391462 L260.369408,141.262868 L255.241159,148.391462 L248.374521,148.391462 L256.921602,136.742296 Z M279.636557,134.974637 L287.835961,134.974637 L287.835961,126.542032 L293.5147,126.542032 L293.5147,148.391462 L287.835961,148.391462 L287.835961,139.379296 L279.636557,139.379296 L279.636557,148.391462 L273.957818,148.391462 L273.957818,126.542032 L279.636557,126.542032 L279.636557,134.974637 Z M303.771197,126.542032 L303.771197,148.391462 L298.092458,148.391462 L298.092458,126.542032 L303.771197,126.542032 Z M314.027695,143.986802 L315.273541,143.986802 C316.70289,143.986802 317.726598,143.803276 318.344695,143.43622 C318.962792,143.069163 319.271836,142.479949 319.271836,141.66856 C319.271836,140.857171 318.962792,140.267957 318.344695,139.900901 C317.726598,139.533844 316.70289,139.350318 315.273541,139.350318 L314.027695,139.350318 L314.027695,143.986802 Z M314.027695,135.119527 L315.070729,135.119527 C316.847758,135.119527 317.736259,134.414402 317.736259,133.004131 C317.736259,131.59386 316.847758,130.888735 315.070729,130.888735 L314.027695,130.888735 L314.027695,135.119527 Z M308.348956,126.542032 L316.809118,126.542032 C318.817934,126.542032 320.343838,127.024994 321.386877,127.990933 C322.429916,128.956872 322.951427,130.347803 322.951427,132.163768 C322.951427,133.264939 322.753446,134.177737 322.357478,134.902192 C321.961509,135.626646 321.357908,136.240008 320.546655,136.742296 C321.357908,136.896846 322.048428,137.133498 322.618236,137.452258 C323.188044,137.771018 323.65161,138.162217 324.008948,138.625868 C324.366285,139.089518 324.622212,139.611118 324.776736,140.190681 C324.931261,140.770244 325.008522,141.388436 325.008522,142.045274 C325.008522,143.06917 324.829856,143.977139 324.472518,144.769209 C324.115181,145.561279 323.612984,146.227766 322.965914,146.768692 C322.318844,147.309618 321.531747,147.715306 320.604602,147.985769 C319.677456,148.256232 318.634433,148.391462 317.475501,148.391462 L308.348956,148.391462 L308.348956,126.542032 Z M334.07712,126.542032 L334.07712,148.391462 L328.398381,148.391462 L328.398381,126.542032 L334.07712,126.542032 Z M346.941202,131.352384 L346.941202,148.391462 L341.262463,148.391462 L341.262463,131.352384 L336.597784,131.352384 L336.597784,126.542032 L351.60588,126.542032 L351.60588,131.352384 L346.941202,131.352384 Z M359.805283,126.542032 L359.805283,148.391462 L354.126545,148.391462 L354.126545,126.542032 L359.805283,126.542032 Z M369.337452,137.466747 C369.337452,138.336092 369.501632,139.137809 369.829996,139.871923 C370.15836,140.606036 370.60261,141.243546 371.162761,141.784472 C371.722911,142.325398 372.374801,142.745575 373.118449,143.045016 C373.862097,143.344457 374.649193,143.494176 375.479761,143.494176 C376.310329,143.494176 377.097426,143.344457 377.841074,143.045016 C378.584722,142.745575 379.24144,142.325398 379.811248,141.784472 C380.381057,141.243546 380.830136,140.606036 381.1585,139.871923 C381.486864,139.137809 381.651044,138.336092 381.651044,137.466747 C381.651044,136.597402 381.486864,135.795684 381.1585,135.061571 C380.830136,134.327457 380.381057,133.689947 379.811248,133.149021 C379.24144,132.608095 378.584722,132.187918 377.841074,131.888477 C377.097426,131.589036 376.310329,131.439318 375.479761,131.439318 C374.649193,131.439318 373.862097,131.589036 373.118449,131.888477 C372.374801,132.187918 371.722911,132.608095 371.162761,133.149021 C370.60261,133.689947 370.15836,134.327457 369.829996,135.061571 C369.501632,135.795684 369.337452,136.597402 369.337452,137.466747 Z M363.397955,137.466747 C363.397955,135.843969 363.697341,134.332298 364.296123,132.931686 C364.894904,131.531075 365.72546,130.30918 366.787814,129.265966 C367.850169,128.222752 369.120146,127.406546 370.597784,126.817323 C372.075423,126.2281 373.702732,125.933493 375.479761,125.933493 C377.237475,125.933493 378.859956,126.2281 380.347252,126.817323 C381.834548,127.406546 383.114183,128.222752 384.186195,129.265966 C385.258207,130.30918 386.093592,131.531075 386.692373,132.931686 C387.291155,134.332298 387.590541,135.843969 387.590541,137.466747 C387.590541,139.089524 387.291155,140.601196 386.692373,142.001807 C386.093592,143.402419 385.258207,144.624313 384.186195,145.667527 C383.114183,146.710741 381.834548,147.526948 380.347252,148.11617 C378.859956,148.705393 377.237475,149 375.479761,149 C373.702732,149 372.075423,148.705393 370.597784,148.11617 C369.120146,147.526948 367.850169,146.710741 366.787814,145.667527 C365.72546,144.624313 364.894904,143.402419 364.296123,142.001807 C363.697341,140.601196 363.397955,139.089524 363.397955,137.466747 Z M391.183213,148.391462 L391.183213,126.542032 L396.861951,126.542032 L407.350234,139.900901 L407.350234,126.542032 L413,126.542032 L413,148.391462 L407.350234,148.391462 L396.861951,135.032593 L396.861951,148.391462 L391.183213,148.391462 Z" id="00_2018-HANYANG-UNIV." fill="url(#linearGradient-1)"></path>
                <path d="M17.5867064,22.4869461 L0,22.4869461 L5.4179804,16.8652096 C6.84732997,15.3776636 7.96761418,14.1171322 8.77886664,13.0835776 C9.5901191,12.0500229 10.1937205,11.1758613 10.589689,10.4610664 C10.9856574,9.74627162 11.2319268,9.16671695 11.3285045,8.72238504 C11.4250821,8.27805312 11.4733703,7.90134259 11.4733703,7.59224213 C11.4733703,7.26382288 11.4202533,6.94506782 11.3140179,6.63596735 C11.2077825,6.32686689 11.0484317,6.05157842 10.8359608,5.81009369 C10.6234899,5.56860895 10.3675629,5.37542406 10.0681721,5.23053322 C9.76878135,5.08564238 9.41627813,5.01319804 9.0106519,5.01319804 C8.23803051,5.01319804 7.6344291,5.2643384 7.19982957,5.76662665 C6.76523004,6.2689149 6.54793353,6.8967658 6.54793353,7.65019817 C6.54793353,7.86270474 6.5769064,8.17180056 6.634853,8.57749492 L0.434597358,8.57749492 C0.434597358,7.30245552 0.642236242,6.14334617 1.05752024,5.10013211 C1.47280424,4.05691806 2.0570904,3.15860832 2.81039625,2.40517594 C3.5637021,1.65174357 4.45703219,1.07218889 5.49041329,0.666494538 C6.5237944,0.260800182 7.65856504,0.0579560468 8.89475927,0.0579560468 C10.111638,0.0579560468 11.236751,0.251140937 12.2701321,0.637516514 C13.3035132,1.02389209 14.1968433,1.56480979 14.9501491,2.26028582 C15.703455,2.95576186 16.29257,3.78162727 16.7175117,4.73790682 C17.1424535,5.69418638 17.3549212,6.73255516 17.3549212,7.85304434 C17.3549212,9.05080862 17.0989942,10.1567921 16.5871325,11.171028 C16.0752708,12.1852639 15.2592017,13.2236327 14.1389007,14.2861655 L10.5172561,17.6765943 L17.5867064,17.6765943 L17.5867064,22.4869461 Z M25.0907542,11.5332533 C25.0907542,12.4991922 25.1776728,13.3781835 25.3515126,14.1702534 C25.5253524,14.9623234 25.7716218,15.6481297 26.0903281,16.2276931 C26.4090344,16.8072565 26.7905105,17.2564113 27.2347678,17.5751712 C27.6790251,17.893931 28.1812215,18.0533086 28.741372,18.0533086 C29.2822069,18.0533086 29.7795745,17.893931 30.2334896,17.5751712 C30.6874046,17.2564113 31.0688807,16.8072565 31.3779293,16.2276931 C31.6869778,15.6481297 31.9284184,14.9623234 32.1022582,14.1702534 C32.276098,13.3781835 32.3630166,12.4991922 32.3630166,11.5332533 C32.3630166,10.5866331 32.276098,9.71247151 32.1022582,8.91074219 C31.9284184,8.10901287 31.6869778,7.4232065 31.3779293,6.85330253 C31.0688807,6.28339855 30.6874046,5.8390733 30.2334896,5.52031345 C29.7795745,5.2015536 29.2822069,5.04217607 28.741372,5.04217607 C28.1812215,5.04217607 27.6790251,5.2015536 27.2347678,5.52031345 C26.7905105,5.8390733 26.4090344,6.28339855 26.0903281,6.85330253 C25.7716218,7.4232065 25.5253524,8.10901287 25.3515126,8.91074219 C25.1776728,9.71247151 25.0907542,10.5866331 25.0907542,11.5332533 Z M19.4699617,11.5332533 C19.4699617,9.79456321 19.6969158,8.21527673 20.1508308,6.79534648 C20.6047459,5.37541624 21.242149,4.16318105 22.0630592,3.15860455 C22.8839695,2.15402805 23.8593893,1.37645886 24.9893481,0.825873666 C26.1193069,0.275288469 27.369969,0 28.741372,0 C30.0934594,0 31.3392927,0.275288469 32.4789092,0.825873666 C33.6185258,1.37645886 34.5939457,2.15402805 35.4051981,3.15860455 C36.2164506,4.16318105 36.8490249,5.37541624 37.3029399,6.79534648 C37.756855,8.21527673 37.9838091,9.79456321 37.9838091,11.5332533 C37.9838091,13.2719434 37.756855,14.8512299 37.3029399,16.2711601 C36.8490249,17.6910904 36.2164506,18.9081552 35.4051981,19.9223911 C34.5939457,20.936627 33.6185258,21.7190258 32.4789092,22.269611 C31.3392927,22.8201962 30.0934594,23.0954846 28.741372,23.0954846 C27.369969,23.0954846 26.1193069,22.8201962 24.9893481,22.269611 C23.8593893,21.7190258 22.8839695,20.936627 22.0630592,19.9223911 C21.242149,18.9081552 20.6047459,17.6910904 20.1508308,16.2711601 C19.6969158,14.8512299 19.4699617,13.2719434 19.4699617,11.5332533 Z M46.2701321,5.4478684 L43.0830848,5.4478684 L43.0830848,0.637516514 L51.9488709,0.637516514 L51.9488709,22.4869461 L46.2701321,22.4869461 L46.2701321,5.4478684 Z M65.5372816,15.8799568 C65.5372816,16.2470136 65.604885,16.5947464 65.7400937,16.9231657 C65.8753025,17.2515849 66.0587973,17.5365326 66.2905837,17.7780173 C66.5223701,18.0195021 66.7976124,18.212687 67.1163187,18.3575778 C67.435025,18.5024687 67.7778706,18.574913 68.1448658,18.574913 C68.4925454,18.574913 68.8257334,18.5024687 69.1444397,18.3575778 C69.463146,18.212687 69.7432171,18.0195021 69.9846613,17.7780173 C70.2261055,17.5365326 70.4144291,17.2564145 70.5496378,16.9376547 C70.6848466,16.6188948 70.7524499,16.2759916 70.7524499,15.9089348 C70.7524499,15.1748212 70.4965229,14.5518 69.9846613,14.0398523 C69.4727996,13.5279047 68.8595406,13.2719347 68.1448658,13.2719347 C67.4108755,13.2719347 66.7927876,13.5279047 66.2905837,14.0398523 C65.7883798,14.5518 65.5372816,15.165162 65.5372816,15.8799568 Z M65.7400937,6.201297 C65.7400937,6.87745426 65.9718767,7.45217931 66.4354495,7.92548939 C66.8990223,8.39879948 67.4688221,8.63545097 68.1448658,8.63545097 C68.4925454,8.63545097 68.811247,8.56783625 69.10098,8.4326048 C69.390713,8.29737335 69.6418112,8.11867733 69.8542821,7.89651137 C70.0667529,7.67434541 70.2357613,7.41837543 70.3613123,7.12859375 C70.4868633,6.83881207 70.5496378,6.53937549 70.5496378,6.23027503 C70.5496378,5.57343655 70.3178549,5.00837074 69.8542821,4.53506066 C69.3907092,4.06175058 68.8209095,3.82509909 68.1448658,3.82509909 C67.4688221,3.82509909 66.8990223,4.05692095 66.4354495,4.52057165 C65.9718767,4.98422234 65.7400937,5.54445852 65.7400937,6.201297 Z M64.1175969,10.9536928 C61.8383638,10.0070727 60.6987644,8.40363808 60.6987644,6.14334096 C60.6987644,5.21603957 60.8822592,4.38051492 61.2492544,3.63674193 C61.6162495,2.89296895 62.1232747,2.25062919 62.7703451,1.70970338 C63.4174155,1.16877757 64.199683,0.753430057 65.1171709,0.463648374 C66.0346588,0.173866691 67.0438803,0.0289780234 68.1448658,0.0289780234 C69.2458513,0.0289780234 70.2550728,0.173866691 71.1725607,0.463648374 C72.0900486,0.753430057 72.872316,1.16877757 73.5193865,1.70970338 C74.1664569,2.25062919 74.673482,2.89296895 75.0404772,3.63674193 C75.4074724,4.38051492 75.5909672,5.21603957 75.5909672,6.14334096 C75.5909672,6.72290432 75.5330215,7.2396739 75.4171282,7.69366521 C75.301235,8.14765651 75.1032538,8.56300402 74.8231785,8.93972021 C74.5431033,9.3164364 74.1761136,9.66899883 73.7221986,9.99741807 C73.2682835,10.3258373 72.7033126,10.6445924 72.0272689,10.9536928 C75.0018612,12.1128196 76.4891351,13.986713 76.4891351,16.5754294 C76.4891351,17.5027308 76.2814962,18.3624035 75.8662122,19.1544735 C75.4509282,19.9465434 74.8714708,20.6323497 74.1278228,21.2119131 C73.3841747,21.7914765 72.505331,22.245461 71.4912654,22.5738802 C70.4771999,22.9022995 69.3617445,23.0665066 68.1448658,23.0665066 C66.9666182,23.0665066 65.870478,22.9071291 64.8564124,22.5883692 C63.8423469,22.2696094 62.9586744,21.8204545 62.2053686,21.2408911 C61.4520627,20.6613278 60.8629477,19.9755214 60.438006,19.1834515 C60.0130642,18.3913815 59.8005965,17.5220495 59.8005965,16.5754294 C59.8005965,13.9287567 61.2395823,12.0548632 64.1175969,10.9536928 Z M7.15636983,51.0382931 L15.3557733,51.0382931 L15.3557733,42.6056883 L21.0345121,42.6056883 L21.0345121,64.4551179 L15.3557733,64.4551179 L15.3557733,55.4429527 L7.15636983,55.4429527 L7.15636983,64.4551179 L1.47763102,64.4551179 L1.47763102,42.6056883 L7.15636983,42.6056883 L7.15636983,51.0382931 Z M37.4912654,56.3412714 L34.9416276,49.0677875 L32.3919898,56.3412714 L37.4912654,56.3412714 Z M38.9978696,60.6589969 L30.8853856,60.6589969 L29.5815935,64.4551179 L23.5262037,64.4551179 L31.8414998,42.6056883 L38.0417554,42.6056883 L46.3570516,64.4551179 L40.3016617,64.4551179 L38.9978696,60.6589969 Z M48.8487431,64.4551179 L48.8487431,42.6056883 L54.5274819,42.6056883 L65.0157648,55.9645571 L65.0157648,42.6056883 L70.6655305,42.6056883 L70.6655305,64.4551179 L65.0157648,64.4551179 L54.5274819,51.0962492 L54.5274819,64.4551179 L48.8487431,64.4551179 Z M80.5164039,53.9650735 L72.5487857,42.6056883 L79.3285045,42.6056883 L83.3847465,48.5751611 L87.4120153,42.6056883 L94.1917341,42.6056883 L86.1951427,53.9650735 L86.1951427,64.4551179 L80.5164039,64.4551179 L80.5164039,53.9650735 Z M108.069876,56.3412714 L105.520239,49.0677875 L102.970601,56.3412714 L108.069876,56.3412714 Z M109.576481,60.6589969 L101.463997,60.6589969 L100.160205,64.4551179 L94.1048147,64.4551179 L102.420111,42.6056883 L108.620366,42.6056883 L116.935663,64.4551179 L110.880273,64.4551179 L109.576481,60.6589969 Z M119.427354,64.4551179 L119.427354,42.6056883 L125.106093,42.6056883 L135.594376,55.9645571 L135.594376,42.6056883 L141.244141,42.6056883 L141.244141,64.4551179 L135.594376,64.4551179 L125.106093,51.0962492 L125.106093,64.4551179 L119.427354,64.4551179 Z M156.455049,52.2263921 L167.725607,52.2263921 C167.725607,53.3855188 167.677319,54.4383764 167.580741,55.3849966 C167.484164,56.3316168 167.291011,57.210608 167.001278,58.0219967 C166.595652,59.1618047 166.045168,60.1711957 165.349808,61.0502002 C164.654449,61.9292046 163.83838,62.6633072 162.901576,63.25253 C161.964773,63.8417527 160.936236,64.2909076 159.815935,64.600008 C158.695634,64.9091085 157.517404,65.0636564 156.28121,65.0636564 C154.581443,65.0636564 153.031395,64.7835383 151.631018,64.2232937 C150.230642,63.6630492 149.028268,62.8758207 148.02386,61.8615848 C147.019452,60.8473489 146.237185,59.6302841 145.677035,58.2103539 C145.116884,56.7904236 144.836813,55.2207964 144.836813,53.5014251 C144.836813,51.8013726 145.112055,50.2414046 145.662548,48.8214743 C146.213041,47.4015441 146.995308,46.1893089 148.009374,45.1847324 C149.023439,44.1801559 150.245128,43.3977571 151.674478,42.8375125 C153.103828,42.2772679 154.697335,41.9971498 156.455049,41.9971498 C158.734282,41.9971498 160.73341,42.4897713 162.452493,43.475029 C164.171575,44.4602867 165.5333,45.9864474 166.537708,48.0535567 L161.1487,50.2848645 C160.646497,49.0871002 159.994607,48.2274274 159.193012,47.7058204 C158.391418,47.1842134 157.478772,46.9234138 156.455049,46.9234138 C155.605165,46.9234138 154.832556,47.0827913 154.137196,47.4015512 C153.441837,47.720311 152.847893,48.1742955 152.355347,48.7635183 C151.862801,49.352741 151.476496,50.0626955 151.196421,50.893403 C150.916346,51.7241105 150.77631,52.651398 150.77631,53.6752932 C150.77631,54.6025946 150.89703,55.4622674 151.138475,56.2543373 C151.379919,57.0464072 151.74208,57.7322136 152.224968,58.311777 C152.707856,58.8913403 153.306629,59.3404952 154.021304,59.6592551 C154.735979,59.9780149 155.566534,60.1373924 156.512995,60.1373924 C157.073146,60.1373924 157.613973,60.0746074 158.135492,59.9490353 C158.657012,59.8234632 159.125406,59.6206191 159.54069,59.3404968 C159.955974,59.0603745 160.29882,58.6981528 160.569237,58.2538209 C160.839655,57.809489 161.02315,57.2685713 161.119727,56.6310516 L156.455049,56.6310516 L156.455049,52.2263921 Z M186.847891,42.6056883 L186.847891,54.4866779 C186.847891,55.1241976 186.872035,55.7761966 186.920324,56.4426945 C186.968613,57.1091923 187.113477,57.7128951 187.354921,58.2538209 C187.596365,58.7947467 187.977841,59.2342424 188.499361,59.572321 C189.02088,59.9103996 189.75486,60.0794364 190.701321,60.0794364 C191.647782,60.0794364 192.376933,59.9103996 192.888794,59.572321 C193.400656,59.2342424 193.782132,58.7947467 194.033234,58.2538209 C194.284336,57.7128951 194.434029,57.1091923 194.482318,56.4426945 C194.530607,55.7761966 194.554751,55.1241976 194.554751,54.4866779 L194.554751,42.6056883 L200.204516,42.6056883 L200.204516,55.2690845 C200.204516,58.6691896 199.427078,61.1516154 197.872177,62.7164365 C196.317277,64.2812576 193.927015,65.0636564 190.701321,65.0636564 C187.475627,65.0636564 185.080536,64.2812576 183.515978,62.7164365 C181.95142,61.1516154 181.169152,58.6691896 181.169152,55.2690845 L181.169152,42.6056883 L186.847891,42.6056883 Z M204.782275,64.4551179 L204.782275,42.6056883 L210.461014,42.6056883 L220.949297,55.9645571 L220.949297,42.6056883 L226.599063,42.6056883 L226.599063,64.4551179 L220.949297,64.4551179 L210.461014,51.0962492 L210.461014,64.4551179 L204.782275,64.4551179 Z M236.85556,42.6056883 L236.85556,64.4551179 L231.176821,64.4551179 L231.176821,42.6056883 L236.85556,42.6056883 Z M245.315722,42.6056883 L250.588837,55.906601 L255.890925,42.6056883 L262.062207,42.6056883 L252.848743,64.4551179 L248.328931,64.4551179 L239.14444,42.6056883 L245.315722,42.6056883 Z M263.597784,61.6732277 C263.597784,61.209577 263.684703,60.7700814 263.858543,60.3547276 C264.032383,59.9393739 264.273823,59.5771522 264.582872,59.2680517 C264.89192,58.9589513 265.254081,58.7174702 265.669365,58.5436012 C266.084649,58.3697322 266.524071,58.282799 266.987644,58.282799 C267.451217,58.282799 267.890638,58.3697322 268.305922,58.5436012 C268.721206,58.7174702 269.083367,58.9589513 269.392416,59.2680517 C269.701464,59.5771522 269.942905,59.9393739 270.116745,60.3547276 C270.290585,60.7700814 270.377503,61.209577 270.377503,61.6732277 C270.377503,62.1368784 270.290585,62.576374 270.116745,62.9917278 C269.942905,63.4070815 269.701464,63.7693032 269.392416,64.0784036 C269.083367,64.3875041 268.721206,64.6289852 268.305922,64.8028542 C267.890638,64.9767232 267.451217,65.0636564 266.987644,65.0636564 C266.524071,65.0636564 266.084649,64.9767232 265.669365,64.8028542 C265.254081,64.6289852 264.89192,64.3875041 264.582872,64.0784036 C264.273823,63.7693032 264.032383,63.4070815 263.858543,62.9917278 C263.684703,62.576374 263.597784,62.1368784 263.597784,61.6732277 Z M13.9071155,89.384212 L7.15636983,89.384212 L7.15636983,93.0354429 L13.5304644,93.0354429 L13.5304644,97.8457948 L7.15636983,97.8457948 L7.15636983,101.612938 L13.9071155,101.612938 L13.9071155,106.42329 L1.47763102,106.42329 L1.47763102,84.5738601 L13.9071155,84.5738601 L13.9071155,89.384212 Z M17.9923306,106.42329 L17.9923306,84.5738601 L23.6710695,84.5738601 L34.1593524,97.9327289 L34.1593524,84.5738601 L39.809118,84.5738601 L39.809118,106.42329 L34.1593524,106.42329 L23.6710695,93.0644209 L23.6710695,106.42329 L17.9923306,106.42329 Z M52.6731998,89.384212 L52.6731998,106.42329 L46.994461,106.42329 L46.994461,89.384212 L42.3297827,89.384212 L42.3297827,84.5738601 L57.3378781,84.5738601 L57.3378781,89.384212 L52.6731998,89.384212 Z M72.2880273,89.384212 L65.5372816,89.384212 L65.5372816,93.0354429 L71.9113762,93.0354429 L71.9113762,97.8457948 L65.5372816,97.8457948 L65.5372816,101.612938 L72.2880273,101.612938 L72.2880273,106.42329 L59.8585428,106.42329 L59.8585428,84.5738601 L72.2880273,84.5738601 L72.2880273,89.384212 Z M82.0519813,94.339454 L83.1239881,94.339454 C84.2442891,94.339454 85.1038175,94.1076321 85.7025991,93.6439814 C86.3013806,93.1803307 86.6007669,92.5138428 86.6007669,91.6444978 C86.6007669,90.7751527 86.3013806,90.1086649 85.7025991,89.6450142 C85.1038175,89.1813635 84.2442891,88.9495416 83.1239881,88.9495416 L82.0519813,88.9495416 L82.0519813,94.339454 Z M94.539412,106.42329 L87.4699617,106.42329 L82.0519813,98.0196629 L82.0519813,106.42329 L76.3732424,106.42329 L76.3732424,84.5738601 L85.2100554,84.5738601 C86.4269341,84.5738601 87.4892726,84.7525561 88.3971027,85.1099535 C89.3049328,85.4673509 90.0533986,85.9551428 90.6425224,86.5733437 C91.2316462,87.1915446 91.6758968,87.9063287 91.9752876,88.7177174 C92.2746784,89.5291061 92.4243715,90.3984382 92.4243715,91.3257395 C92.4243715,92.9871545 92.0235802,94.3346191 91.2219855,95.3681738 C90.4203908,96.4017285 89.2373321,97.1020237 87.6727738,97.4690805 L94.539412,106.42329 Z M105.201534,89.384212 L105.201534,106.42329 L99.5227951,106.42329 L99.5227951,89.384212 L94.8581167,89.384212 L94.8581167,84.5738601 L109.866212,84.5738601 L109.866212,89.384212 L105.201534,89.384212 Z M124.265871,98.3094432 L121.716233,91.0359593 L119.166596,98.3094432 L124.265871,98.3094432 Z M125.772476,102.627169 L117.659991,102.627169 L116.356199,106.42329 L110.30081,106.42329 L118.616106,84.5738601 L124.816361,84.5738601 L133.131657,106.42329 L127.076268,106.42329 L125.772476,102.627169 Z M141.302088,84.5738601 L141.302088,106.42329 L135.623349,106.42329 L135.623349,84.5738601 L141.302088,84.5738601 Z M145.879847,106.42329 L145.879847,84.5738601 L151.558585,84.5738601 L162.046868,97.9327289 L162.046868,84.5738601 L167.696634,84.5738601 L167.696634,106.42329 L162.046868,106.42329 L151.558585,93.0644209 L151.558585,106.42329 L145.879847,106.42329 Z M171.289305,106.42329 L174.99787,84.5738601 L180.618662,84.5738601 L184.993609,96.2230255 L189.339582,84.5738601 L194.960375,84.5738601 L198.668939,106.42329 L193.019173,106.42329 L191.135918,93.8468276 L185.978696,106.42329 L183.71879,106.42329 L178.822326,93.8468276 L176.939071,106.42329 L171.289305,106.42329 Z M214.691095,89.384212 L207.940349,89.384212 L207.940349,93.0354429 L214.314444,93.0354429 L214.314444,97.8457948 L207.940349,97.8457948 L207.940349,101.612938 L214.691095,101.612938 L214.691095,106.42329 L202.261611,106.42329 L202.261611,84.5738601 L214.691095,84.5738601 L214.691095,89.384212 Z M218.77631,106.42329 L218.77631,84.5738601 L224.455049,84.5738601 L234.943332,97.9327289 L234.943332,84.5738601 L240.593098,84.5738601 L240.593098,106.42329 L234.943332,106.42329 L224.455049,93.0644209 L224.455049,106.42329 L218.77631,106.42329 Z M253.457179,89.384212 L253.457179,106.42329 L247.778441,106.42329 L247.778441,89.384212 L243.113762,89.384212 L243.113762,84.5738601 L258.121858,84.5738601 L258.121858,89.384212 L253.457179,89.384212 Z M276.172135,101.612938 L277.475927,101.612938 C278.461019,101.612938 279.339863,101.45839 280.112484,101.149289 C280.885105,100.840189 281.536995,100.415182 282.068172,99.8742564 C282.599349,99.3333306 283.004969,98.6909909 283.285045,97.9472179 C283.56512,97.2034449 283.705156,96.3872387 283.705156,95.4985749 C283.705156,94.6292299 283.560291,93.8178533 283.270558,93.0644209 C282.980825,92.3109886 282.570376,91.6638192 282.039199,91.1228934 C281.508022,90.5819676 280.856132,90.1569608 280.083511,89.8478603 C279.310889,89.5387599 278.441703,89.384212 277.475927,89.384212 L276.172135,89.384212 L276.172135,101.612938 Z M270.493396,84.5738601 L278.895611,84.5738601 C280.382908,84.5738601 281.778434,84.8732967 283.082233,85.4721788 C284.386031,86.071061 285.525631,86.8679486 286.501065,87.8628657 C287.4765,88.8577829 288.244281,90.0168922 288.804431,91.3402286 C289.364582,92.6635649 289.644653,94.0496665 289.644653,95.4985749 C289.644653,96.9281645 289.369411,98.3046069 288.818918,99.6279432 C288.268425,100.95128 287.505473,102.115219 286.530038,103.119795 C285.554604,104.124372 284.415004,104.926089 283.111206,105.524971 C281.807407,106.123853 280.402223,106.42329 278.895611,106.42329 L270.493396,106.42329 L270.493396,84.5738601 Z M305.695782,89.384212 L298.945036,89.384212 L298.945036,93.0354429 L305.319131,93.0354429 L305.319131,97.8457948 L298.945036,97.8457948 L298.945036,101.612938 L305.695782,101.612938 L305.695782,106.42329 L293.266297,106.42329 L293.266297,84.5738601 L305.695782,84.5738601 L305.695782,89.384212 Z M321.775884,90.1666186 C321.157787,89.6643304 320.539699,89.2924494 319.921602,89.0509647 C319.303505,88.80948 318.704732,88.6887394 318.125266,88.6887394 C317.391276,88.6887394 316.792503,88.8626058 316.328931,89.2103438 C315.865358,89.5580819 315.633575,90.0120663 315.633575,90.5723109 C315.633575,90.9586865 315.749466,91.2774416 315.981253,91.5285857 C316.213039,91.7797298 316.517254,91.9970628 316.893907,92.1805912 C317.27056,92.3641196 317.695495,92.5234972 318.168726,92.6587286 C318.641957,92.7939601 319.110351,92.9388487 319.573924,93.093399 C321.428215,93.7115999 322.785111,94.5374653 323.644653,95.57102 C324.504194,96.6045746 324.933958,97.9520392 324.933958,99.6134542 C324.933958,100.733943 324.745635,101.748164 324.368982,102.656147 C323.992329,103.564129 323.441844,104.341698 322.717512,104.988878 C321.993179,105.636057 321.104678,106.138337 320.051981,106.495735 C318.999285,106.853132 317.806568,107.031828 316.473796,107.031828 C313.711675,107.031828 311.152405,106.210792 308.79591,104.568696 L311.229655,99.9901685 C312.079538,100.743601 312.919752,101.303837 313.75032,101.670894 C314.580888,102.037951 315.401785,102.221476 316.213038,102.221476 C317.140184,102.221476 317.830704,102.008973 318.284619,101.58396 C318.738534,101.158947 318.965488,100.675984 318.965488,100.135059 C318.965488,99.8066394 318.907542,99.5216917 318.791649,99.280207 C318.675756,99.0387222 318.482603,98.8165596 318.212186,98.6137124 C317.941768,98.4108652 317.589265,98.22251 317.154666,98.048641 C316.720066,97.874772 316.193726,97.6815871 315.575628,97.4690805 C314.841638,97.2372551 314.122145,96.9812852 313.417128,96.7011629 C312.712111,96.4210406 312.084366,96.0491597 311.533873,95.585509 C310.98338,95.1218583 310.53913,94.537474 310.201108,93.8323386 C309.863086,93.1272031 309.694078,92.233723 309.694078,91.1518714 C309.694078,90.0700198 309.872744,89.0896065 310.230081,88.210602 C310.587418,87.3315976 311.089615,86.5781765 311.736685,85.9503162 C312.383756,85.3224559 313.175681,84.834664 314.112484,84.486926 C315.049287,84.139188 316.097139,83.9653216 317.256072,83.9653216 C318.337742,83.9653216 319.467683,84.1150399 320.645931,84.414481 C321.824179,84.713922 322.95412,85.1534177 324.03579,85.732981 L321.775884,90.1666186 Z M334.176395,84.5738601 L334.176395,106.42329 L328.497657,106.42329 L328.497657,84.5738601 L334.176395,84.5738601 Z M349.387303,94.1945639 L360.657861,94.1945639 C360.657861,95.3536906 360.609573,96.4065482 360.512995,97.3531684 C360.416418,98.2997886 360.223265,99.1787798 359.933532,99.9901685 C359.527906,101.129976 358.977421,102.139368 358.282062,103.018372 C357.586703,103.897376 356.770634,104.631479 355.83383,105.220702 C354.897027,105.809925 353.86849,106.259079 352.748189,106.56818 C351.627888,106.87728 350.449658,107.031828 349.213464,107.031828 C347.513697,107.031828 345.963649,106.75171 344.563272,106.191466 C343.162896,105.631221 341.960522,104.843993 340.956114,103.829757 C339.951706,102.815521 339.169439,101.598456 338.609288,100.178526 C338.049138,98.7585954 337.769067,97.1889682 337.769067,95.4695969 C337.769067,93.7695443 338.044309,92.2095764 338.594802,90.7896461 C339.145295,89.3697159 339.927562,88.1574807 340.941628,87.1529042 C341.955693,86.1483277 343.177382,85.3659289 344.606732,84.8056843 C346.036082,84.2454397 347.629589,83.9653216 349.387303,83.9653216 C351.666536,83.9653216 353.665664,84.4579431 355.384746,85.4432008 C357.103829,86.4284585 358.465554,87.9546192 359.469962,90.0217285 L354.080954,92.2530363 C353.578751,91.055272 352.926861,90.1955992 352.125266,89.6739922 C351.323672,89.1523852 350.411026,88.8915856 349.387303,88.8915856 C348.537419,88.8915856 347.76481,89.0509631 347.06945,89.369723 C346.374091,89.6884828 345.780147,90.1424673 345.287601,90.7316901 C344.795055,91.3209128 344.40875,92.0308673 344.128675,92.8615748 C343.8486,93.6922823 343.708564,94.6195697 343.708564,95.643465 C343.708564,96.5707664 343.829284,97.4304392 344.070729,98.2225091 C344.312173,99.014579 344.674334,99.7003854 345.157222,100.279949 C345.64011,100.859512 346.238883,101.308667 346.953558,101.627427 C347.668233,101.946187 348.498788,102.105564 349.445249,102.105564 C350.0054,102.105564 350.546227,102.042779 351.067746,101.917207 C351.589265,101.791635 352.05766,101.588791 352.472944,101.308669 C352.888228,101.028546 353.231074,100.666325 353.501491,100.221993 C353.771909,99.7776608 353.955404,99.2367431 354.051981,98.5992234 L349.387303,98.5992234 L349.387303,94.1945639 Z M364.250533,106.42329 L364.250533,84.5738601 L369.929271,84.5738601 L380.417554,97.9327289 L380.417554,84.5738601 L386.06732,84.5738601 L386.06732,106.42329 L380.417554,106.42329 L369.929271,93.0644209 L369.929271,106.42329 L364.250533,106.42329 Z M12.1107797,136.162736 L23.3813379,136.162736 C23.3813379,137.321862 23.3330498,138.37472 23.2364721,139.32134 C23.1398944,140.26796 22.946742,141.146952 22.6570089,141.95834 C22.2513827,143.098148 21.7008982,144.107539 21.005539,144.986544 C20.3101797,145.865548 19.4941106,146.599651 18.5573072,147.188874 C17.6205038,147.778096 16.591967,148.227251 15.471666,148.536352 C14.3513649,148.845452 13.173135,149 11.9369408,149 C10.2371737,149 8.68712531,148.719882 7.28674904,148.159637 C5.88637277,147.599393 4.68399877,146.812164 3.67959097,145.797928 C2.67518316,144.783693 1.89291574,143.566628 1.33276523,142.146697 C0.772614725,140.726767 0.492543673,139.15714 0.492543673,137.437769 C0.492543673,135.737716 0.767785914,134.177748 1.31827865,132.757818 C1.86877139,131.337888 2.65103882,130.125652 3.66510439,129.121076 C4.67916996,128.116499 5.90085921,127.334101 7.33020878,126.773856 C8.75955835,126.213611 10.3530661,125.933493 12.1107797,125.933493 C14.3900128,125.933493 16.3891407,126.426115 18.1082233,127.411373 C19.8273059,128.39663 21.1890306,129.922791 22.1934384,131.9899 L16.8044312,134.221208 C16.3022273,133.023444 15.6503378,132.163771 14.8487431,131.642164 C14.0471484,131.120557 13.1345031,130.859757 12.1107797,130.859757 C11.2608962,130.859757 10.4882864,131.019135 9.79292714,131.337895 C9.09756789,131.656655 8.50362411,132.110639 8.01107797,132.699862 C7.51853184,133.289085 7.13222694,133.999039 6.85215168,134.829747 C6.57207643,135.660454 6.4320409,136.587742 6.4320409,137.611637 C6.4320409,138.538938 6.55276118,139.398611 6.79420537,140.190681 C7.03564955,140.982751 7.3978104,141.668557 7.88069876,142.248121 C8.36358713,142.827684 8.96235973,143.276839 9.67703451,143.595599 C10.3917093,143.914358 11.2222648,144.073736 12.168726,144.073736 C12.7288765,144.073736 13.2697034,144.010951 13.7912228,143.885379 C14.3127423,143.759807 14.781137,143.556963 15.196421,143.27684 C15.611705,142.996718 15.9545506,142.634496 16.224968,142.190165 C16.4953855,141.745833 16.6788804,141.204915 16.775458,140.567395 L12.1107797,140.567395 L12.1107797,136.162736 Z M32.6527482,136.307626 L33.724755,136.307626 C34.845056,136.307626 35.7045844,136.075804 36.303366,135.612153 C36.9021476,135.148503 37.2015339,134.482015 37.2015339,133.61267 C37.2015339,132.743325 36.9021476,132.076837 36.303366,131.613186 C35.7045844,131.149535 34.845056,130.917713 33.724755,130.917713 L32.6527482,130.917713 L32.6527482,136.307626 Z M45.140179,148.391462 L38.0707286,148.391462 L32.6527482,139.987835 L32.6527482,148.391462 L26.9740094,148.391462 L26.9740094,126.542032 L35.8108223,126.542032 C37.027701,126.542032 38.0900395,126.720728 38.9978696,127.078125 C39.9056998,127.435523 40.6541655,127.923315 41.2432893,128.541515 C41.8324131,129.159716 42.2766637,129.874501 42.5760545,130.685889 C42.8754453,131.497278 43.0251385,132.36661 43.0251385,133.293911 C43.0251385,134.955326 42.6243471,136.302791 41.8227524,137.336346 C41.0211578,138.3699 39.838099,139.070195 38.2735407,139.437252 L45.140179,148.391462 Z M59.3949723,140.277615 L56.8453345,133.004131 L54.2956966,140.277615 L59.3949723,140.277615 Z M60.9015765,144.59534 L52.7890925,144.59534 L51.4853004,148.391462 L45.4299105,148.391462 L53.7452066,126.542032 L59.9454623,126.542032 L68.2607584,148.391462 L62.2053686,148.391462 L60.9015765,144.59534 Z M76.4311888,143.58111 L77.7349808,143.58111 C78.7200731,143.58111 79.5989167,143.426562 80.3715381,143.117461 C81.1441595,142.808361 81.796049,142.383354 82.3272262,141.842428 C82.8584035,141.301502 83.2640236,140.659163 83.5440988,139.91539 C83.8241741,139.171617 83.9642096,138.355411 83.9642096,137.466747 C83.9642096,136.597402 83.8193453,135.786025 83.5296123,135.032593 C83.2398793,134.27916 82.8294303,133.631991 82.2982531,133.091065 C81.7670759,132.550139 81.1151864,132.125133 80.342565,131.816032 C79.5699436,131.506932 78.7007576,131.352384 77.7349808,131.352384 L76.4311888,131.352384 L76.4311888,143.58111 Z M70.7524499,126.542032 L79.1546655,126.542032 C80.6419617,126.542032 82.0374882,126.841468 83.3412867,127.440351 C84.6450853,128.039233 85.7846848,128.83612 86.7601193,129.831038 C87.7355538,130.825955 88.5033348,131.985064 89.0634853,133.3084 C89.6236358,134.631737 89.9037069,136.017838 89.9037069,137.466747 C89.9037069,138.896336 89.6284646,140.272779 89.0779719,141.596115 C88.5274791,142.919451 87.764527,144.08339 86.7890925,145.087967 C85.813658,146.092543 84.6740585,146.894261 83.3702599,147.493143 C82.0664613,148.092025 80.6612772,148.391462 79.1546655,148.391462 L70.7524499,148.391462 L70.7524499,126.542032 Z M99.2040903,126.542032 L99.2040903,138.423021 C99.2040903,139.060541 99.2282344,139.71254 99.2765232,140.379038 C99.3248121,141.045536 99.4696764,141.649239 99.7111206,142.190165 C99.9525648,142.73109 100.334041,143.170586 100.85556,143.508665 C101.37708,143.846743 102.111059,144.01578 103.05752,144.01578 C104.003981,144.01578 104.733132,143.846743 105.244994,143.508665 C105.756855,143.170586 106.138331,142.73109 106.389433,142.190165 C106.640535,141.649239 106.790228,141.045536 106.838517,140.379038 C106.886806,139.71254 106.91095,139.060541 106.91095,138.423021 L106.91095,126.542032 L112.560716,126.542032 L112.560716,139.205428 C112.560716,142.605533 111.783277,145.087959 110.228377,146.65278 C108.673476,148.217601 106.283215,149 103.05752,149 C99.8318259,149 97.4367356,148.217601 95.8721772,146.65278 C94.3076189,145.087959 93.5253515,142.605533 93.5253515,139.205428 L93.5253515,126.542032 L99.2040903,126.542032 Z M129.017469,140.277615 L126.467831,133.004131 L123.918193,140.277615 L129.017469,140.277615 Z M130.524073,144.59534 L122.411589,144.59534 L121.107797,148.391462 L115.052407,148.391462 L123.367703,126.542032 L129.567959,126.542032 L137.883255,148.391462 L131.827865,148.391462 L130.524073,144.59534 Z M148.66127,131.352384 L148.66127,148.391462 L142.982531,148.391462 L142.982531,131.352384 L138.317853,131.352384 L138.317853,126.542032 L153.325948,126.542032 L153.325948,131.352384 L148.66127,131.352384 Z M161.525352,126.542032 L161.525352,148.391462 L155.846613,148.391462 L155.846613,126.542032 L161.525352,126.542032 Z M171.05752,137.466747 C171.05752,138.336092 171.2217,139.137809 171.550064,139.871923 C171.878428,140.606036 172.322679,141.243546 172.882829,141.784472 C173.44298,142.325398 174.094869,142.745575 174.838517,143.045016 C175.582165,143.344457 176.369262,143.494176 177.19983,143.494176 C178.030398,143.494176 178.817494,143.344457 179.561142,143.045016 C180.30479,142.745575 180.961508,142.325398 181.531317,141.784472 C182.101125,141.243546 182.550204,140.606036 182.878568,139.871923 C183.206932,139.137809 183.371112,138.336092 183.371112,137.466747 C183.371112,136.597402 183.206932,135.795684 182.878568,135.061571 C182.550204,134.327457 182.101125,133.689947 181.531317,133.149021 C180.961508,132.608095 180.30479,132.187918 179.561142,131.888477 C178.817494,131.589036 178.030398,131.439318 177.19983,131.439318 C176.369262,131.439318 175.582165,131.589036 174.838517,131.888477 C174.094869,132.187918 173.44298,132.608095 172.882829,133.149021 C172.322679,133.689947 171.878428,134.327457 171.550064,135.061571 C171.2217,135.795684 171.05752,136.597402 171.05752,137.466747 Z M165.118023,137.466747 C165.118023,135.843969 165.417409,134.332298 166.016191,132.931686 C166.614972,131.531075 167.445528,130.30918 168.507882,129.265966 C169.570237,128.222752 170.840214,127.406546 172.317853,126.817323 C173.795491,126.2281 175.4228,125.933493 177.19983,125.933493 C178.957543,125.933493 180.580024,126.2281 182.06732,126.817323 C183.554616,127.406546 184.834251,128.222752 185.906263,129.265966 C186.978275,130.30918 187.81366,131.531075 188.412441,132.931686 C189.011223,134.332298 189.310609,135.843969 189.310609,137.466747 C189.310609,139.089524 189.011223,140.601196 188.412441,142.001807 C187.81366,143.402419 186.978275,144.624313 185.906263,145.667527 C184.834251,146.710741 183.554616,147.526948 182.06732,148.11617 C180.580024,148.705393 178.957543,149 177.19983,149 C175.4228,149 173.795491,148.705393 172.317853,148.11617 C170.840214,147.526948 169.570237,146.710741 168.507882,145.667527 C167.445528,144.624313 166.614972,143.402419 166.016191,142.001807 C165.417409,140.601196 165.118023,139.089524 165.118023,137.466747 Z M192.903281,148.391462 L192.903281,126.542032 L198.58202,126.542032 L209.070303,139.900901 L209.070303,126.542032 L214.720068,126.542032 L214.720068,148.391462 L209.070303,148.391462 L198.58202,135.032593 L198.58202,148.391462 L192.903281,148.391462 Z M241.578185,131.352384 L234.827439,131.352384 L234.827439,135.003615 L241.201534,135.003615 L241.201534,139.813967 L234.827439,139.813967 L234.827439,143.58111 L241.578185,143.58111 L241.578185,148.391462 L229.1487,148.391462 L229.1487,126.542032 L241.578185,126.542032 L241.578185,131.352384 Z M251.921602,136.742296 L245.11291,126.542032 L252.124414,126.542032 L255.079676,132.192746 L258.730294,126.542032 L265.741798,126.542032 L258.527482,136.742296 L266.668939,148.391462 L259.744354,148.391462 L255.369408,141.262868 L250.241159,148.391462 L243.374521,148.391462 L251.921602,136.742296 Z M274.636557,134.974637 L282.835961,134.974637 L282.835961,126.542032 L288.5147,126.542032 L288.5147,148.391462 L282.835961,148.391462 L282.835961,139.379296 L274.636557,139.379296 L274.636557,148.391462 L268.957818,148.391462 L268.957818,126.542032 L274.636557,126.542032 L274.636557,134.974637 Z M298.771197,126.542032 L298.771197,148.391462 L293.092458,148.391462 L293.092458,126.542032 L298.771197,126.542032 Z M309.027695,143.986802 L310.273541,143.986802 C311.70289,143.986802 312.726598,143.803276 313.344695,143.43622 C313.962792,143.069163 314.271836,142.479949 314.271836,141.66856 C314.271836,140.857171 313.962792,140.267957 313.344695,139.900901 C312.726598,139.533844 311.70289,139.350318 310.273541,139.350318 L309.027695,139.350318 L309.027695,143.986802 Z M309.027695,135.119527 L310.070729,135.119527 C311.847758,135.119527 312.736259,134.414402 312.736259,133.004131 C312.736259,131.59386 311.847758,130.888735 310.070729,130.888735 L309.027695,130.888735 L309.027695,135.119527 Z M303.348956,126.542032 L311.809118,126.542032 C313.817934,126.542032 315.343838,127.024994 316.386877,127.990933 C317.429916,128.956872 317.951427,130.347803 317.951427,132.163768 C317.951427,133.264939 317.753446,134.177737 317.357478,134.902192 C316.961509,135.626646 316.357908,136.240008 315.546655,136.742296 C316.357908,136.896846 317.048428,137.133498 317.618236,137.452258 C318.188044,137.771018 318.65161,138.162217 319.008948,138.625868 C319.366285,139.089518 319.622212,139.611118 319.776736,140.190681 C319.931261,140.770244 320.008522,141.388436 320.008522,142.045274 C320.008522,143.06917 319.829856,143.977139 319.472518,144.769209 C319.115181,145.561279 318.612984,146.227766 317.965914,146.768692 C317.318844,147.309618 316.531747,147.715306 315.604602,147.985769 C314.677456,148.256232 313.634433,148.391462 312.475501,148.391462 L303.348956,148.391462 L303.348956,126.542032 Z M329.07712,126.542032 L329.07712,148.391462 L323.398381,148.391462 L323.398381,126.542032 L329.07712,126.542032 Z M341.941202,131.352384 L341.941202,148.391462 L336.262463,148.391462 L336.262463,131.352384 L331.597784,131.352384 L331.597784,126.542032 L346.60588,126.542032 L346.60588,131.352384 L341.941202,131.352384 Z M354.805283,126.542032 L354.805283,148.391462 L349.126545,148.391462 L349.126545,126.542032 L354.805283,126.542032 Z M364.337452,137.466747 C364.337452,138.336092 364.501632,139.137809 364.829996,139.871923 C365.15836,140.606036 365.60261,141.243546 366.162761,141.784472 C366.722911,142.325398 367.374801,142.745575 368.118449,143.045016 C368.862097,143.344457 369.649193,143.494176 370.479761,143.494176 C371.310329,143.494176 372.097426,143.344457 372.841074,143.045016 C373.584722,142.745575 374.24144,142.325398 374.811248,141.784472 C375.381057,141.243546 375.830136,140.606036 376.1585,139.871923 C376.486864,139.137809 376.651044,138.336092 376.651044,137.466747 C376.651044,136.597402 376.486864,135.795684 376.1585,135.061571 C375.830136,134.327457 375.381057,133.689947 374.811248,133.149021 C374.24144,132.608095 373.584722,132.187918 372.841074,131.888477 C372.097426,131.589036 371.310329,131.439318 370.479761,131.439318 C369.649193,131.439318 368.862097,131.589036 368.118449,131.888477 C367.374801,132.187918 366.722911,132.608095 366.162761,133.149021 C365.60261,133.689947 365.15836,134.327457 364.829996,135.061571 C364.501632,135.795684 364.337452,136.597402 364.337452,137.466747 Z M358.397955,137.466747 C358.397955,135.843969 358.697341,134.332298 359.296123,132.931686 C359.894904,131.531075 360.72546,130.30918 361.787814,129.265966 C362.850169,128.222752 364.120146,127.406546 365.597784,126.817323 C367.075423,126.2281 368.702732,125.933493 370.479761,125.933493 C372.237475,125.933493 373.859956,126.2281 375.347252,126.817323 C376.834548,127.406546 378.114183,128.222752 379.186195,129.265966 C380.258207,130.30918 381.093592,131.531075 381.692373,132.931686 C382.291155,134.332298 382.590541,135.843969 382.590541,137.466747 C382.590541,139.089524 382.291155,140.601196 381.692373,142.001807 C381.093592,143.402419 380.258207,144.624313 379.186195,145.667527 C378.114183,146.710741 376.834548,147.526948 375.347252,148.11617 C373.859956,148.705393 372.237475,149 370.479761,149 C368.702732,149 367.075423,148.705393 365.597784,148.11617 C364.120146,147.526948 362.850169,146.710741 361.787814,145.667527 C360.72546,144.624313 359.894904,143.402419 359.296123,142.001807 C358.697341,140.601196 358.397955,139.089524 358.397955,137.466747 Z M386.183213,148.391462 L386.183213,126.542032 L391.861951,126.542032 L402.350234,139.900901 L402.350234,126.542032 L408,126.542032 L408,148.391462 L402.350234,148.391462 L391.861951,135.032593 L391.861951,148.391462 L386.183213,148.391462 Z" id="00_2018-HANYANG-UNIV.-Copy" fill="#FFFFFF"></path>
            </g>
        </g>
    </g>
</svg>