<?xml version="1.0" encoding="UTF-8"?>
<svg width="72px" height="21px" viewBox="0 0 72 21" version="1.1" xmlns="http://www.w3.org/2000/svg" xmlns:xlink="http://www.w3.org/1999/xlink">
    <!-- Generator: sketchtool 51.1 (57501) - http://www.bohemiancoding.com/sketch -->
    <title>A4343826-4FD6-4DE1-84AA-D739867327DA</title>
    <desc>Created with sketchtool.</desc>
    <defs></defs>
    <g id="Page-2" stroke="none" stroke-width="1" fill="none" fill-rule="evenodd">
        <g id="ICONS" transform="translate(-1437.000000, -556.000000)" stroke="#4A4A4A">
            <g id="btn_dsnr_jc_n" transform="translate(1438.000000, 557.000000)">
                <path d="M5.2489083,5.93155259 L5.2489083,2.41068447 L25.103348,2.41068447 L25.103348,5.93155259 L17.2256187,5.93155259 L17.2256187,6.37562604 C17.2256187,8.88146912 17.6739447,10.0868114 20.2678312,11.9265442 C22.2532752,13.3222037 24.110626,14.5275459 26.3522563,15.8597663 L24.334789,18.9048414 C22.0931587,17.5409015 19.8835517,16.1135225 18.0902475,14.8447412 C16.6491995,13.8614357 15.4323144,12.7512521 15.272198,12.4023372 L15.2401747,12.4023372 C15.1120815,12.7512521 14.0873363,13.7028381 12.3260553,14.9398998 C10.5327511,16.2086811 8.32314412,17.6360601 6.08151383,19 L4,15.8597663 C6.24163028,14.5275459 8.09898109,13.3222037 10.0844251,11.9265442 C12.6783115,10.0868114 13.1266376,8.88146912 13.1266376,6.37562604 L13.1266376,5.93155259 L5.2489083,5.93155259 Z M31.5560407,11.2604341 L31.5560407,7.96160267 L42.4439593,7.96160267 L42.4439593,11.2604341 L31.5560407,11.2604341 Z M48.4803493,3.45742905 L56.7743813,3.45742905 L56.7743813,0 L60.8733624,0 L60.8733624,3.45742905 L69.1673945,3.45742905 L69.1673945,6.94657763 L60.8733624,6.94657763 C60.8733624,9.42070117 61.4818049,10.5626043 63.7874818,12.0851419 C65.804949,13.4173623 67.7263464,14.5592654 70,15.7963272 L68.1106259,18.9048414 C65.804949,17.6043406 63.5633188,16.2721202 61.7379912,15.066778 C60.2328966,14.115192 59.0480349,13.1001669 58.9199417,12.7829716 L58.8879185,12.7829716 C58.7598253,13.1318865 57.4788937,14.2103506 55.9737991,15.1619366 C54.1484716,16.3672788 51.9068413,17.6994992 49.6011644,19 L47.6477437,15.7963272 C49.9213973,14.5592654 51.8107714,13.4490818 53.860262,12.0851419 C56.1659388,10.5308848 56.7743813,9.42070117 56.7743813,6.94657763 L48.4803493,6.94657763 L48.4803493,3.45742905 Z" id="ㅈ-ㅊ-copy" fill="#696969"></path>
                <path d="M1.2489083,5.93155259 L1.2489083,2.41068447 L21.103348,2.41068447 L21.103348,5.93155259 L13.2256187,5.93155259 L13.2256187,6.37562604 C13.2256187,8.88146912 13.6739447,10.0868114 16.2678312,11.9265442 C18.2532752,13.3222037 20.110626,14.5275459 22.3522563,15.8597663 L20.334789,18.9048414 C18.0931587,17.5409015 15.8835517,16.1135225 14.0902475,14.8447412 C12.6491995,13.8614357 11.4323144,12.7512521 11.272198,12.4023372 L11.2401747,12.4023372 C11.1120815,12.7512521 10.0873363,13.7028381 8.32605534,14.9398998 C6.53275111,16.2086811 4.32314412,17.6360601 2.08151383,19 L0,15.8597663 C2.24163028,14.5275459 4.09898109,13.3222037 6.08442505,11.9265442 C8.67831153,10.0868114 9.12663758,8.88146912 9.12663758,6.37562604 L9.12663758,5.93155259 L1.2489083,5.93155259 Z M27.5560407,11.2604341 L27.5560407,7.96160267 L38.4439593,7.96160267 L38.4439593,11.2604341 L27.5560407,11.2604341 Z M44.4803493,3.45742905 L52.7743813,3.45742905 L52.7743813,0 L56.8733624,0 L56.8733624,3.45742905 L65.1673945,3.45742905 L65.1673945,6.94657763 L56.8733624,6.94657763 C56.8733624,9.42070117 57.4818049,10.5626043 59.7874818,12.0851419 C61.804949,13.4173623 63.7263464,14.5592654 66,15.7963272 L64.1106259,18.9048414 C61.804949,17.6043406 59.5633188,16.2721202 57.7379912,15.066778 C56.2328966,14.115192 55.0480349,13.1001669 54.9199417,12.7829716 L54.8879185,12.7829716 C54.7598253,13.1318865 53.4788937,14.2103506 51.9737991,15.1619366 C50.1484716,16.3672788 47.9068413,17.6994992 45.6011644,19 L43.6477437,15.7963272 C45.9213973,14.5592654 47.8107714,13.4490818 49.860262,12.0851419 C52.1659388,10.5308848 52.7743813,9.42070117 52.7743813,6.94657763 L44.4803493,6.94657763 L44.4803493,3.45742905 Z" id="ㅈ-ㅊ" fill="#FFFFFF"></path>
            </g>
        </g>
    </g>
</svg>