<?xml version="1.0" encoding="UTF-8"?>
<svg preserveAspectRatio="xMinYMin meet"  width="25px" height="18px" viewBox="0 0 25 18" version="1.1" xmlns="http://www.w3.org/2000/svg" xmlns:xlink="http://www.w3.org/1999/xlink">
    <!-- Generator: sketchtool 51.1 (57501) - http://www.bohemiancoding.com/sketch -->
    <title>E903E478-D88D-46CE-9011-6CB94D87D94D</title>
    <desc>Created with sketchtool.</desc>
    <defs></defs>
    <g id="Page-2" stroke="none" stroke-width="1" fill="none" fill-rule="evenodd">
        <g id="ICONS" transform="translate(-1439.000000, -402.000000)" stroke="#4A4A4A">
            <g id="btn_dsnr_b_n" transform="translate(1440.000000, 403.000000)">
                <path d="M19.0364238,12.6232742 L19.0364238,8.55226824 L7.96357616,8.55226824 L7.96357616,12.6232742 L19.0364238,12.6232742 Z M23,16 L4,16 L4,0 L7.96357616,0 L7.96357616,5.17554241 L19.0364238,5.17554241 L19.0364238,0 L23,0 L23,16 Z" id="ㅂ-copy" fill="#696969"></path>
                <path d="M15.0364238,12.6232742 L15.0364238,8.55226824 L3.96357616,8.55226824 L3.96357616,12.6232742 L15.0364238,12.6232742 Z M19,16 L0,16 L0,0 L3.96357616,0 L3.96357616,5.17554241 L15.0364238,5.17554241 L15.0364238,0 L19,0 L19,16 Z" id="ㅂ" fill="#FFFFFF"></path>
            </g>
        </g>
    </g>
</svg>
