<?xml version="1.0" encoding="UTF-8"?>
<svg preserveAspectRatio="xMinYMin meet"  width="108px" height="22px" viewBox="0 0 108 22" version="1.1" xmlns="http://www.w3.org/2000/svg" xmlns:xlink="http://www.w3.org/1999/xlink">
    <!-- Generator: sketchtool 51.1 (57501) - http://www.bohemiancoding.com/sketch -->
    <title>50BFB6EA-C667-4130-A130-F17E327A2A03</title>
    <desc>Created with sketchtool.</desc>
    <defs>
        <linearGradient x1="100%" y1="0%" x2="-28.9637855%" y2="128.649196%" id="linearGradient-1">
            <stop stop-color="#97E055" offset="0%"></stop>
            <stop stop-color="#80C9F6" offset="50.6773844%"></stop>
            <stop stop-color="#A37CD8" offset="100%"></stop>
        </linearGradient>
        <linearGradient x1="100%" y1="64.6684075%" x2="0%" y2="64.6693898%" id="linearGradient-2">
            <stop stop-color="#97E055" offset="0%"></stop>
            <stop stop-color="#80C9F6" offset="50.6773844%"></stop>
            <stop stop-color="#A37CD8" offset="100%"></stop>
        </linearGradient>
    </defs>
    <g id="Page-2" stroke="none" stroke-width="1" fill="none" fill-rule="evenodd">
        <g id="ICONS" transform="translate(-1684.000000, -634.000000)" stroke="#4A4A4A">
            <g id="btn_dsnr_kh_s" transform="translate(1685.000000, 635.000000)">
                <g id="ACTIVEBUTTON-Copy-6" transform="translate(0.000000, 6.000000)" fill-rule="nonzero">
                    <circle id="ACTIVE" fill="#696969" cx="6" cy="5" r="4"></circle>
                    <circle id="ACTIVE2" fill="url(#linearGradient-1)" cx="4" cy="4" r="4"></circle>
                </g>
                <path d="M61.8686568,18.6984127 L57.8885573,18.6984127 L57.8885573,13.1111111 L42.1273632,13.3333333 L42,9.96825397 L57.8885573,9.74603175 L57.8885573,5.77777778 L42.6368159,5.77777778 L42.6368159,2.41269841 L61.8686568,2.41269841 L61.8686568,18.6984127 Z M68.6029851,11.2698413 L68.6029851,7.96825397 L79.4288557,7.96825397 L79.4288557,11.2698413 L68.6029851,11.2698413 Z M97.7532338,0 L97.7532338,3.3968254 L106,3.3968254 L106,6.76190476 L85.4308457,6.76190476 L85.4308457,3.3968254 L93.6776119,3.3968254 L93.6776119,0 L97.7532338,0 Z M95.7154229,20 C90.5572139,20 87.0865671,18.0634921 87.0865671,14.6031746 L87.0865671,13.3333333 C87.0865671,9.87301587 90.5572139,7.93650794 95.7154229,7.93650794 C100.873632,7.93650794 104.344279,9.87301587 104.344279,13.3333333 L104.344279,14.6031746 C104.344279,18.0634921 100.873632,20 95.7154229,20 Z M95.7154229,11.1746032 C92.5950248,11.1746032 90.9074626,12.1269841 90.9074626,13.6190476 L90.9074626,14.3174603 C90.9074626,15.8095238 92.5950248,16.7619048 95.7154229,16.7619048 C98.8358209,16.7619048 100.523383,15.8095238 100.523383,14.3174603 L100.523383,13.6190476 C100.523383,12.1269841 98.8358209,11.1746032 95.7154229,11.1746032 Z" id="ㅋ-ㅎ-copy-3" fill="url(#linearGradient-2)"></path>
                <path d="M57.8686568,18.6984127 L53.8885573,18.6984127 L53.8885573,13.1111111 L38.1273632,13.3333333 L38,9.96825397 L53.8885573,9.74603175 L53.8885573,5.77777778 L38.6368159,5.77777778 L38.6368159,2.41269841 L57.8686568,2.41269841 L57.8686568,18.6984127 Z M64.6029851,11.2698413 L64.6029851,7.96825397 L75.4288557,7.96825397 L75.4288557,11.2698413 L64.6029851,11.2698413 Z M93.7532338,0 L93.7532338,3.3968254 L102,3.3968254 L102,6.76190476 L81.4308457,6.76190476 L81.4308457,3.3968254 L89.6776119,3.3968254 L89.6776119,0 L93.7532338,0 Z M91.7154229,20 C86.5572139,20 83.0865671,18.0634921 83.0865671,14.6031746 L83.0865671,13.3333333 C83.0865671,9.87301587 86.5572139,7.93650794 91.7154229,7.93650794 C96.8736318,7.93650794 100.344279,9.87301587 100.344279,13.3333333 L100.344279,14.6031746 C100.344279,18.0634921 96.8736318,20 91.7154229,20 Z M91.7154229,11.1746032 C88.5950248,11.1746032 86.9074626,12.1269841 86.9074626,13.6190476 L86.9074626,14.3174603 C86.9074626,15.8095238 88.5950248,16.7619048 91.7154229,16.7619048 C94.8358209,16.7619048 96.5233831,15.8095238 96.5233831,14.3174603 L96.5233831,13.6190476 C96.5233831,12.1269841 94.8358209,11.1746032 91.7154229,11.1746032 Z" id="ㅋ-ㅎ-copy-2" fill="#FFFFFF"></path>
            </g>
        </g>
    </g>
</svg>
