<?xml version="1.0" encoding="UTF-8"?>
<svg width="50px" height="20px" viewBox="0 0 50 20" version="1.1" xmlns="http://www.w3.org/2000/svg" xmlns:xlink="http://www.w3.org/1999/xlink">
    <!-- Generator: sketchtool 51.1 (57501) - http://www.bohemiancoding.com/sketch -->
    <title>16A394F9-AE9D-4DE7-A33E-DE180B715783</title>
    <desc>Created with sketchtool.</desc>
    <defs></defs>
    <g id="Page-2" stroke="none" stroke-width="1" fill="none" fill-rule="evenodd">
        <g id="ICONS" transform="translate(-618.000000, -253.000000)" stroke="#4A4A4A">
            <g id="btn_works_all_n" transform="translate(619.000000, 254.000000)">
                <path d="M15.568,11.376 L13.456,5.352 L11.344,11.376 L15.568,11.376 Z M16.816,14.952 L10.096,14.952 L9.016,18.096 L4,18.096 L10.888,0 L16.024,0 L22.912,18.096 L17.896,18.096 L16.816,14.952 Z M29.68,0 L29.68,14.112 L35.32,14.112 L35.32,18.096 L24.976,18.096 L24.976,0 L29.68,0 Z M42.448,0 L42.448,14.112 L48.088,14.112 L48.088,18.096 L37.744,18.096 L37.744,0 L42.448,0 Z" id="ALL-Copy" fill="#696969"></path>
                <path d="M11.568,11.376 L9.456,5.352 L7.344,11.376 L11.568,11.376 Z M12.816,14.952 L6.096,14.952 L5.016,18.096 L0,18.096 L6.888,0 L12.024,0 L18.912,18.096 L13.896,18.096 L12.816,14.952 Z M25.68,0 L25.68,14.112 L31.32,14.112 L31.32,18.096 L20.976,18.096 L20.976,0 L25.68,0 Z M38.448,0 L38.448,14.112 L44.088,14.112 L44.088,18.096 L33.744,18.096 L33.744,0 L38.448,0 Z" id="ALL" fill="#FFFFFF"></path>
            </g>
        </g>
    </g>
</svg>