<?xml version="1.0" encoding="UTF-8"?>
<svg preserveAspectRatio="xMinYMin meet"  width="65px" height="19px" viewBox="0 0 65 19" version="1.1" xmlns="http://www.w3.org/2000/svg" xmlns:xlink="http://www.w3.org/1999/xlink">
    <!-- Generator: sketchtool 51.1 (57501) - http://www.bohemiancoding.com/sketch -->
    <title>20874C85-3F1A-4FFA-AF77-CF3DAA596392</title>
    <desc>Created with sketchtool.</desc>
    <defs>
        <linearGradient x1="100%" y1="0%" x2="-28.9637855%" y2="128.649196%" id="linearGradient-1">
            <stop stop-color="#97E055" offset="0%"></stop>
            <stop stop-color="#80C9F6" offset="50.6773844%"></stop>
            <stop stop-color="#A37CD8" offset="100%"></stop>
        </linearGradient>
        <linearGradient x1="67.1135829%" y1="0%" x2="0%" y2="100%" id="linearGradient-2">
            <stop stop-color="#97E055" offset="0%"></stop>
            <stop stop-color="#80C9F6" offset="50.6773844%"></stop>
            <stop stop-color="#A37CD8" offset="100%"></stop>
        </linearGradient>
    </defs>
    <g id="Page-2" stroke="none" stroke-width="1" fill="none" fill-rule="evenodd">
        <g id="ICONS" transform="translate(-1684.000000, -480.000000)" stroke="#4A4A4A">
            <g id="btn_dsnr_s_s" transform="translate(1685.000000, 481.000000)">
                <g id="ACTIVEBUTTON-Copy-4" transform="translate(0.000000, 4.000000)" fill-rule="nonzero">
                    <circle id="ACTIVE" fill="#696969" cx="6" cy="5" r="4"></circle>
                    <circle id="ACTIVE2" fill="url(#linearGradient-1)" cx="4" cy="4" r="4"></circle>
                </g>
                <path d="M54.017192,0 L54.017192,3.83870968 C54.017192,6.4516129 54.5530086,7.74193548 57.0744986,9.70967742 C58.9340974,11.1612903 60.8567335,12.483871 63,13.8709677 L60.9197708,16.9032258 C58.7449857,15.483871 56.5702006,13.9677419 54.8681948,12.6451613 C53.4813754,11.5806452 52.2836676,10.516129 52.0945559,10.0645161 L52.0630372,10.0645161 C51.9054441,10.5483871 50.5816619,11.6774194 49.1948424,12.7419355 C47.4928367,14.0645161 45.3180516,15.5806452 43.1432665,17 L41,13.8709677 C43.1432665,12.483871 45.0659026,11.1612903 46.9255014,9.70967742 C49.4469914,7.74193548 49.982808,6.4516129 49.982808,3.83870968 L49.982808,0 L54.017192,0 Z" id="ㅅ-copy-3" fill="url(#linearGradient-2)"></path>
                <path d="M50.017192,0 L50.017192,3.83870968 C50.017192,6.4516129 50.5530086,7.74193548 53.0744986,9.70967742 C54.9340974,11.1612903 56.8567335,12.483871 59,13.8709677 L56.9197708,16.9032258 C54.7449857,15.483871 52.5702006,13.9677419 50.8681948,12.6451613 C49.4813754,11.5806452 48.2836676,10.516129 48.0945559,10.0645161 L48.0630372,10.0645161 C47.9054441,10.5483871 46.5816619,11.6774194 45.1948424,12.7419355 C43.4928367,14.0645161 41.3180516,15.5806452 39.1432665,17 L37,13.8709677 C39.1432665,12.483871 41.0659026,11.1612903 42.9255014,9.70967742 C45.4469914,7.74193548 45.982808,6.4516129 45.982808,3.83870968 L45.982808,0 L50.017192,0 Z" id="ㅅ-copy-2" fill="#FFFFFF"></path>
            </g>
        </g>
    </g>
</svg>
