<?xml version="1.0" encoding="UTF-8"?>
<svg preserveAspectRatio="xMinYMin meet"  width="70px" height="22px" viewBox="0 0 70 22" version="1.1" xmlns="http://www.w3.org/2000/svg" xmlns:xlink="http://www.w3.org/1999/xlink">
    <!-- Generator: sketchtool 51.1 (57501) - http://www.bohemiancoding.com/sketch -->
    <title>018E28B0-A880-4915-B1B5-EB6C487F6C01</title>
    <desc>Created with sketchtool.</desc>
    <defs></defs>
    <g id="Page-2" stroke="none" stroke-width="1" fill="none" fill-rule="evenodd">
        <g id="ICONS" transform="translate(-1438.000000, -634.000000)" stroke="#4A4A4A">
            <g id="btn_dsnr_kh_n" transform="translate(1439.000000, 635.000000)">
                <path d="M23.8686568,18.6984127 L19.8885573,18.6984127 L19.8885573,13.1111111 L4.12736318,13.3333333 L4,9.96825397 L19.8885573,9.74603175 L19.8885573,5.77777778 L4.63681592,5.77777778 L4.63681592,2.41269841 L23.8686568,2.41269841 L23.8686568,18.6984127 Z M30.6029851,11.2698413 L30.6029851,7.96825397 L41.4288557,7.96825397 L41.4288557,11.2698413 L30.6029851,11.2698413 Z M59.7532338,0 L59.7532338,3.3968254 L68,3.3968254 L68,6.76190476 L47.4308457,6.76190476 L47.4308457,3.3968254 L55.6776119,3.3968254 L55.6776119,0 L59.7532338,0 Z M57.7154229,20 C52.5572139,20 49.0865671,18.0634921 49.0865671,14.6031746 L49.0865671,13.3333333 C49.0865671,9.87301587 52.5572139,7.93650794 57.7154229,7.93650794 C62.8736318,7.93650794 66.3442786,9.87301587 66.3442786,13.3333333 L66.3442786,14.6031746 C66.3442786,18.0634921 62.8736318,20 57.7154229,20 Z M57.7154229,11.1746032 C54.5950248,11.1746032 52.9074626,12.1269841 52.9074626,13.6190476 L52.9074626,14.3174603 C52.9074626,15.8095238 54.5950248,16.7619048 57.7154229,16.7619048 C60.8358209,16.7619048 62.5233831,15.8095238 62.5233831,14.3174603 L62.5233831,13.6190476 C62.5233831,12.1269841 60.8358209,11.1746032 57.7154229,11.1746032 Z" id="ㅋ-ㅎ-copy" fill="#696969"></path>
                <path d="M19.8686568,18.6984127 L15.8885573,18.6984127 L15.8885573,13.1111111 L0.127363184,13.3333333 L0,9.96825397 L15.8885573,9.74603175 L15.8885573,5.77777778 L0.636815922,5.77777778 L0.636815922,2.41269841 L19.8686568,2.41269841 L19.8686568,18.6984127 Z M26.6029851,11.2698413 L26.6029851,7.96825397 L37.4288557,7.96825397 L37.4288557,11.2698413 L26.6029851,11.2698413 Z M55.7532338,0 L55.7532338,3.3968254 L64,3.3968254 L64,6.76190476 L43.4308457,6.76190476 L43.4308457,3.3968254 L51.6776119,3.3968254 L51.6776119,0 L55.7532338,0 Z M53.7154229,20 C48.5572139,20 45.0865671,18.0634921 45.0865671,14.6031746 L45.0865671,13.3333333 C45.0865671,9.87301587 48.5572139,7.93650794 53.7154229,7.93650794 C58.8736318,7.93650794 62.3442786,9.87301587 62.3442786,13.3333333 L62.3442786,14.6031746 C62.3442786,18.0634921 58.8736318,20 53.7154229,20 Z M53.7154229,11.1746032 C50.5950248,11.1746032 48.9074626,12.1269841 48.9074626,13.6190476 L48.9074626,14.3174603 C48.9074626,15.8095238 50.5950248,16.7619048 53.7154229,16.7619048 C56.8358209,16.7619048 58.5233831,15.8095238 58.5233831,14.3174603 L58.5233831,13.6190476 C58.5233831,12.1269841 56.8358209,11.1746032 53.7154229,11.1746032 Z" id="ㅋ-ㅎ" fill="#FFFFFF"></path>
            </g>
        </g>
    </g>
</svg>
