<?xml version="1.0" encoding="UTF-8"?>
<svg preserveAspectRatio="xMinYMin meet"  width="63px" height="19px" viewBox="0 0 63 19" version="1.1" xmlns="http://www.w3.org/2000/svg" xmlns:xlink="http://www.w3.org/1999/xlink">
    <!-- Generator: sketchtool 51.3 (57544) - http://www.bohemiancoding.com/sketch -->
    <title>9019452F-FAA2-4A6C-9717-D0F4CC421C31</title>
    <desc>Created with sketchtool.</desc>
    <defs>
        <linearGradient x1="100%" y1="0%" x2="-28.9637855%" y2="128.649196%" id="linearGradient-1">
            <stop stop-color="#97E055" offset="0%"></stop>
            <stop stop-color="#80C9F6" offset="50.6773844%"></stop>
            <stop stop-color="#A37CD8" offset="100%"></stop>
        </linearGradient>
    </defs>
    <g id="Page-2" stroke="none" stroke-width="1" fill="none" fill-rule="evenodd">
        <g id="ICONS" transform="translate(-1684.000000, -557.000000)" stroke="#4A4A4A">
            <g id="btn_dsnr_o_s" transform="translate(1685.000000, 558.000000)">
                <g id="ACTIVEBUTTON-Copy-7" transform="translate(0.000000, 5.000000)" fill-rule="nonzero">
                    <circle id="ACTIVE" fill="#696969" cx="6" cy="5" r="4"></circle>
                    <circle id="ACTIVE2" fill="url(#linearGradient-1)" cx="4" cy="4" r="4"></circle>
                </g>
                <path d="M50.933,17.16 C45.125,17.16 41,13.827 41,9.306 L41,7.854 C41,3.333 45.125,0 50.933,0 C56.741,0 60.866,3.333 60.866,7.854 L60.866,9.306 C60.866,13.827 56.741,17.16 50.933,17.16 Z M50.933,3.63 C47.402,3.63 45.125,5.709 45.125,7.953 L45.125,9.207 C45.125,11.451 47.402,13.53 50.933,13.53 C54.464,13.53 56.741,11.451 56.741,9.207 L56.741,7.953 C56.741,5.709 54.464,3.63 50.933,3.63 Z" id="ㅇ-copy-2" fill="url(#linearGradient-1)"></path>
                <path d="M47.933,17.16 C42.125,17.16 38,13.827 38,9.306 L38,7.854 C38,3.333 42.125,0 47.933,0 C53.741,0 57.866,3.333 57.866,7.854 L57.866,9.306 C57.866,13.827 53.741,17.16 47.933,17.16 Z M47.933,3.63 C44.402,3.63 42.125,5.709 42.125,7.953 L42.125,9.207 C42.125,11.451 44.402,13.53 47.933,13.53 C51.464,13.53 53.741,11.451 53.741,9.207 L53.741,7.953 C53.741,5.709 51.464,3.63 47.933,3.63 Z" id="ㅇ-copy" fill="#FFFFFF"></path>
            </g>
        </g>
    </g>
</svg>
