<?xml version="1.0" encoding="UTF-8"?>
<svg width="64px" height="18px" viewBox="0 0 64 18" version="1.1" xmlns="http://www.w3.org/2000/svg" xmlns:xlink="http://www.w3.org/1999/xlink">
    <!-- Generator: sketchtool 51.1 (57501) - http://www.bohemiancoding.com/sketch -->
    <title>F5C6311F-0D29-4702-9729-40F9B1109DD6</title>
    <desc>Created with sketchtool.</desc>
    <defs>
        <linearGradient x1="100%" y1="0%" x2="-28.9637855%" y2="128.649196%" id="linearGradient-1">
            <stop stop-color="#97E055" offset="0%"></stop>
            <stop stop-color="#80C9F6" offset="50.6773844%"></stop>
            <stop stop-color="#A37CD8" offset="100%"></stop>
        </linearGradient>
        <linearGradient x1="100%" y1="0%" x2="-20.8775406%" y2="100%" id="linearGradient-2">
            <stop stop-color="#97E055" offset="0%"></stop>
            <stop stop-color="#80C9F6" offset="50.6773844%"></stop>
            <stop stop-color="#A37CD8" offset="100%"></stop>
        </linearGradient>
    </defs>
    <g id="Page-2" stroke="none" stroke-width="1" fill="none" fill-rule="evenodd">
        <g id="ICONS" transform="translate(-1684.000000, -402.000000)" stroke="#4A4A4A">
            <g id="btn_dsnr_b_s" transform="translate(1685.000000, 403.000000)">
                <g id="ACTIVEBUTTON-Copy-3" transform="translate(0.000000, 4.000000)" fill-rule="nonzero">
                    <circle id="ACTIVE" fill="#696969" cx="6" cy="5" r="4"></circle>
                    <circle id="ACTIVE2" fill="url(#linearGradient-1)" cx="4" cy="4" r="4"></circle>
                </g>
                <path d="M58.0364238,12.6232742 L58.0364238,8.55226824 L46.9635762,8.55226824 L46.9635762,12.6232742 L58.0364238,12.6232742 Z M62,16 L43,16 L43,0 L46.9635762,0 L46.9635762,5.17554241 L58.0364238,5.17554241 L58.0364238,0 L62,0 L62,16 Z" id="ㅂ-copy-3" fill="url(#linearGradient-2)"></path>
                <path d="M54.0364238,12.6232742 L54.0364238,8.55226824 L42.9635762,8.55226824 L42.9635762,12.6232742 L54.0364238,12.6232742 Z M58,16 L39,16 L39,0 L42.9635762,0 L42.9635762,5.17554241 L54.0364238,5.17554241 L54.0364238,0 L58,0 L58,16 Z" id="ㅂ-copy-2" fill="#FFFFFF"></path>
            </g>
        </g>
    </g>
</svg>