<?xml version="1.0" encoding="UTF-8"?>
<svg width="109px" height="21px" viewBox="0 0 109 21" version="1.1" xmlns="http://www.w3.org/2000/svg" xmlns:xlink="http://www.w3.org/1999/xlink">
    <!-- Generator: sketchtool 51.1 (57501) - http://www.bohemiancoding.com/sketch -->
    <title>BEC4DE1B-9DBD-4EE5-8F47-B32976BF9B69</title>
    <desc>Created with sketchtool.</desc>
    <defs>
        <linearGradient x1="100%" y1="0%" x2="-28.9637855%" y2="128.649196%" id="linearGradient-1">
            <stop stop-color="#97E055" offset="0%"></stop>
            <stop stop-color="#80C9F6" offset="50.6773844%"></stop>
            <stop stop-color="#A37CD8" offset="100%"></stop>
        </linearGradient>
        <linearGradient x1="100%" y1="49.975015%" x2="0%" y2="50%" id="linearGradient-2">
            <stop stop-color="#97E055" offset="0%"></stop>
            <stop stop-color="#80C9F6" offset="50.6773844%"></stop>
            <stop stop-color="#A37CD8" offset="100%"></stop>
        </linearGradient>
    </defs>
    <g id="Page-2" stroke="none" stroke-width="1" fill="none" fill-rule="evenodd">
        <g id="ICONS" transform="translate(-1684.000000, -556.000000)" stroke="#4A4A4A">
            <g id="btn_dsnr_jc_s" transform="translate(1685.000000, 557.000000)">
                <g id="ACTIVEBUTTON-Copy-5" transform="translate(0.000000, 5.000000)" fill-rule="nonzero">
                    <circle id="ACTIVE" fill="#696969" cx="6" cy="5" r="4"></circle>
                    <circle id="ACTIVE2" fill="url(#linearGradient-1)" cx="4" cy="4" r="4"></circle>
                </g>
                <path d="M42.2489083,5.93155259 L42.2489083,2.41068447 L62.103348,2.41068447 L62.103348,5.93155259 L54.2256187,5.93155259 L54.2256187,6.37562604 C54.2256187,8.88146912 54.6739447,10.0868114 57.2678312,11.9265442 C59.2532752,13.3222037 61.110626,14.5275459 63.3522563,15.8597663 L61.334789,18.9048414 C59.0931587,17.5409015 56.8835517,16.1135225 55.0902475,14.8447412 C53.6491995,13.8614357 52.4323144,12.7512521 52.272198,12.4023372 L52.2401747,12.4023372 C52.1120815,12.7512521 51.0873363,13.7028381 49.3260553,14.9398998 C47.5327511,16.2086811 45.3231441,17.6360601 43.0815138,19 L41,15.8597663 C43.2416303,14.5275459 45.0989811,13.3222037 47.0844251,11.9265442 C49.6783115,10.0868114 50.1266376,8.88146912 50.1266376,6.37562604 L50.1266376,5.93155259 L42.2489083,5.93155259 Z M68.5560407,11.2604341 L68.5560407,7.96160267 L79.4439593,7.96160267 L79.4439593,11.2604341 L68.5560407,11.2604341 Z M85.4803493,3.45742905 L93.7743813,3.45742905 L93.7743813,0 L97.8733624,0 L97.8733624,3.45742905 L106.167394,3.45742905 L106.167394,6.94657763 L97.8733624,6.94657763 C97.8733624,9.42070117 98.4818049,10.5626043 100.787482,12.0851419 C102.804949,13.4173623 104.726346,14.5592654 107,15.7963272 L105.110626,18.9048414 C102.804949,17.6043406 100.563319,16.2721202 98.7379912,15.066778 C97.2328966,14.115192 96.0480349,13.1001669 95.9199417,12.7829716 L95.8879185,12.7829716 C95.7598253,13.1318865 94.4788937,14.2103506 92.9737991,15.1619366 C91.1484716,16.3672788 88.9068413,17.6994992 86.6011644,19 L84.6477437,15.7963272 C86.9213973,14.5592654 88.8107714,13.4490818 90.860262,12.0851419 C93.1659388,10.5308848 93.7743813,9.42070117 93.7743813,6.94657763 L85.4803493,6.94657763 L85.4803493,3.45742905 Z" id="ㅈ-ㅊ-copy-3" fill="url(#linearGradient-2)"></path>
                <path d="M38.2489083,5.93155259 L38.2489083,2.41068447 L58.103348,2.41068447 L58.103348,5.93155259 L50.2256187,5.93155259 L50.2256187,6.37562604 C50.2256187,8.88146912 50.6739447,10.0868114 53.2678312,11.9265442 C55.2532752,13.3222037 57.110626,14.5275459 59.3522563,15.8597663 L57.334789,18.9048414 C55.0931587,17.5409015 52.8835517,16.1135225 51.0902475,14.8447412 C49.6491995,13.8614357 48.4323144,12.7512521 48.272198,12.4023372 L48.2401747,12.4023372 C48.1120815,12.7512521 47.0873363,13.7028381 45.3260553,14.9398998 C43.5327511,16.2086811 41.3231441,17.6360601 39.0815138,19 L37,15.8597663 C39.2416303,14.5275459 41.0989811,13.3222037 43.0844251,11.9265442 C45.6783115,10.0868114 46.1266376,8.88146912 46.1266376,6.37562604 L46.1266376,5.93155259 L38.2489083,5.93155259 Z M64.5560407,11.2604341 L64.5560407,7.96160267 L75.4439593,7.96160267 L75.4439593,11.2604341 L64.5560407,11.2604341 Z M81.4803493,3.45742905 L89.7743813,3.45742905 L89.7743813,0 L93.8733624,0 L93.8733624,3.45742905 L102.167394,3.45742905 L102.167394,6.94657763 L93.8733624,6.94657763 C93.8733624,9.42070117 94.4818049,10.5626043 96.7874818,12.0851419 C98.804949,13.4173623 100.726346,14.5592654 103,15.7963272 L101.110626,18.9048414 C98.804949,17.6043406 96.5633188,16.2721202 94.7379912,15.066778 C93.2328966,14.115192 92.0480349,13.1001669 91.9199417,12.7829716 L91.8879185,12.7829716 C91.7598253,13.1318865 90.4788937,14.2103506 88.9737991,15.1619366 C87.1484716,16.3672788 84.9068413,17.6994992 82.6011644,19 L80.6477437,15.7963272 C82.9213973,14.5592654 84.8107714,13.4490818 86.860262,12.0851419 C89.1659388,10.5308848 89.7743813,9.42070117 89.7743813,6.94657763 L81.4803493,6.94657763 L81.4803493,3.45742905 Z" id="ㅈ-ㅊ-copy-2" fill="#FFFFFF"></path>
            </g>
        </g>
    </g>
</svg>