<?xml version="1.0" encoding="UTF-8"?>
<svg width="28px" height="19px" viewBox="0 0 28 19" version="1.1" xmlns="http://www.w3.org/2000/svg" xmlns:xlink="http://www.w3.org/1999/xlink">
    <!-- Generator: sketchtool 51.1 (57501) - http://www.bohemiancoding.com/sketch -->
    <title>D88DE855-7CAE-410F-8F9F-1C6A15487AD2</title>
    <desc>Created with sketchtool.</desc>
    <defs></defs>
    <g id="Page-2" stroke="none" stroke-width="1" fill="none" fill-rule="evenodd">
        <g id="ICONS" transform="translate(-1437.000000, -480.000000)" stroke="#4A4A4A">
            <g id="btn_dsnr_s_n" transform="translate(1438.000000, 481.000000)">
                <path d="M17.017192,0 L17.017192,3.83870968 C17.017192,6.4516129 17.5530086,7.74193548 20.0744986,9.70967742 C21.9340974,11.1612903 23.8567335,12.483871 26,13.8709677 L23.9197708,16.9032258 C21.7449857,15.483871 19.5702006,13.9677419 17.8681948,12.6451613 C16.4813754,11.5806452 15.2836676,10.516129 15.0945559,10.0645161 L15.0630372,10.0645161 C14.9054441,10.5483871 13.5816619,11.6774194 12.1948424,12.7419355 C10.4928367,14.0645161 8.31805158,15.5806452 6.14326648,17 L4,13.8709677 C6.14326648,12.483871 8.06590258,11.1612903 9.92550143,9.70967742 C12.4469914,7.74193548 12.982808,6.4516129 12.982808,3.83870968 L12.982808,0 L17.017192,0 Z" id="ㅅ-copy" fill="#696969"></path>
                <path d="M13.017192,0 L13.017192,3.83870968 C13.017192,6.4516129 13.5530086,7.74193548 16.0744986,9.70967742 C17.9340974,11.1612903 19.8567335,12.483871 22,13.8709677 L19.9197708,16.9032258 C17.7449857,15.483871 15.5702006,13.9677419 13.8681948,12.6451613 C12.4813754,11.5806452 11.2836676,10.516129 11.0945559,10.0645161 L11.0630372,10.0645161 C10.9054441,10.5483871 9.58166189,11.6774194 8.19484241,12.7419355 C6.49283668,14.0645161 4.31805158,15.5806452 2.14326648,17 L0,13.8709677 C2.14326648,12.483871 4.06590258,11.1612903 5.92550143,9.70967742 C8.4469914,7.74193548 8.98280802,6.4516129 8.98280802,3.83870968 L8.98280802,0 L13.017192,0 Z" id="ㅅ" fill="#FFFFFF"></path>
            </g>
        </g>
    </g>
</svg>