<?xml version="1.0" encoding="UTF-8"?>
<svg width="68px" height="18px" viewBox="0 0 68 18" version="1.1" xmlns="http://www.w3.org/2000/svg" xmlns:xlink="http://www.w3.org/1999/xlink">
    <!-- Generator: sketchtool 51.1 (57501) - http://www.bohemiancoding.com/sketch -->
    <title>23ED293F-AAE5-41B8-AC4D-B5D241DB4BDF</title>
    <desc>Created with sketchtool.</desc>
    <defs></defs>
    <g id="Page-2" stroke="none" stroke-width="1" fill="none" fill-rule="evenodd">
        <g id="ICONS" transform="translate(-1439.000000, -324.000000)" stroke="#4A4A4A">
            <g id="btn_dsnr_nm_n" transform="translate(1440.000000, 325.000000)">
                <path d="M4,0 L8.00204919,0 L8.00204919,12.5328032 L22.8668033,12.5328032 L22.8668033,15.9363817 L4,15.9363817 L4,0 Z M29.3621926,8.74751491 L29.3621926,5.43936382 L40.161373,5.43936382 L40.161373,8.74751491 L29.3621926,8.74751491 Z M61.9979508,12.5964215 L61.9979508,3.49900596 L50.8176229,3.49900596 L50.8176229,12.5964215 L61.9979508,12.5964215 Z M66,16 L46.8155737,16 L46.8155737,0.0954274354 L66,0.0954274354 L66,16 Z" id="ㄴ-ㅁ-copy" fill="#696969"></path>
                <path d="M0,0 L4.00204919,0 L4.00204919,12.5328032 L18.8668033,12.5328032 L18.8668033,15.9363817 L0,15.9363817 L0,0 Z M25.3621926,8.74751491 L25.3621926,5.43936382 L36.161373,5.43936382 L36.161373,8.74751491 L25.3621926,8.74751491 Z M57.9979508,12.5964215 L57.9979508,3.49900596 L46.8176229,3.49900596 L46.8176229,12.5964215 L57.9979508,12.5964215 Z M62,16 L42.8155737,16 L42.8155737,0.0954274354 L62,0.0954274354 L62,16 Z" id="ㄴ-ㅁ" fill="#FFFFFF"></path>
            </g>
        </g>
    </g>
</svg>