<?xml version="1.0" encoding="UTF-8"?>
<svg width="25px" height="19px" viewBox="0 0 25 19" version="1.1" xmlns="http://www.w3.org/2000/svg" xmlns:xlink="http://www.w3.org/1999/xlink">
    <!-- Generator: sketchtool 51.3 (57544) - http://www.bohemiancoding.com/sketch -->
    <title>86472F69-965C-4998-BBA8-601A82F977E3</title>
    <desc>Created with sketchtool.</desc>
    <defs></defs>
    <g id="Page-2" stroke="none" stroke-width="1" fill="none" fill-rule="evenodd">
        <g id="ICONS" transform="translate(-1435.000000, -558.000000)" stroke="#4A4A4A">
            <g id="btn_dsnr_o_n" transform="translate(1436.000000, 559.000000)">
                <path d="M12.933,17.16 C7.125,17.16 3,13.827 3,9.306 L3,7.854 C3,3.333 7.125,0 12.933,0 C18.741,0 22.866,3.333 22.866,7.854 L22.866,9.306 C22.866,13.827 18.741,17.16 12.933,17.16 Z M12.933,3.63 C9.402,3.63 7.125,5.709 7.125,7.953 L7.125,9.207 C7.125,11.451 9.402,13.53 12.933,13.53 C16.464,13.53 18.741,11.451 18.741,9.207 L18.741,7.953 C18.741,5.709 16.464,3.63 12.933,3.63 Z" id="ㅇ" fill="#696969"></path>
                <path d="M9.933,17.16 C4.125,17.16 0,13.827 0,9.306 L0,7.854 C0,3.333 4.125,0 9.933,0 C15.741,0 19.866,3.333 19.866,7.854 L19.866,9.306 C19.866,13.827 15.741,17.16 9.933,17.16 Z M9.933,3.63 C6.402,3.63 4.125,5.709 4.125,7.953 L4.125,9.207 C4.125,11.451 6.402,13.53 9.933,13.53 C13.464,13.53 15.741,11.451 15.741,9.207 L15.741,7.953 C15.741,5.709 13.464,3.63 9.933,3.63 Z" id="ㅇ" fill="#FFFFFF"></path>
            </g>
        </g>
    </g>
</svg>