<?xml version="1.0" encoding="UTF-8"?>
<svg preserveAspectRatio="xMinYMin meet"  width="165px" height="52px" viewBox="0 0 165 52" version="1.1" xmlns="http://www.w3.org/2000/svg" xmlns:xlink="http://www.w3.org/1999/xlink">
    <!-- Generator: sketchtool 51.1 (57501) - http://www.bohemiancoding.com/sketch -->
    <title>9400FFE3-E1BD-463E-835F-E6A1059E29BC</title>
    <desc>Created with sketchtool.</desc>
    <defs></defs>
    <g id="Page-2" stroke="none" stroke-width="1" fill="none" fill-rule="evenodd">
        <g id="ICONS" transform="translate(-620.000000, -445.000000)">
            <g id="btn_works_interactive_n" transform="translate(621.000000, 446.000000)">
                <path d="M8.704,0.504 L8.704,18.6 L4,18.6 L4,0.504 L8.704,0.504 Z M12.496,18.6 L12.496,0.504 L17.2,0.504 L25.888,11.568 L25.888,0.504 L30.568,0.504 L30.568,18.6 L25.888,18.6 L17.2,7.536 L17.2,18.6 L12.496,18.6 Z M41.224,4.488 L41.224,18.6 L36.52,18.6 L36.52,4.488 L32.656,4.488 L32.656,0.504 L45.088,0.504 L45.088,4.488 L41.224,4.488 Z M57.472,4.488 L51.88,4.488 L51.88,7.512 L57.16,7.512 L57.16,11.496 L51.88,11.496 L51.88,14.616 L57.472,14.616 L57.472,18.6 L47.176,18.6 L47.176,0.504 L57.472,0.504 L57.472,4.488 Z M65.56,8.592 L66.448,8.592 C67.3760046,8.592 68.0879975,8.40000192 68.584,8.016 C69.0800025,7.63199808 69.328,7.0800036 69.328,6.36 C69.328,5.6399964 69.0800025,5.08800192 68.584,4.704 C68.0879975,4.31999808 67.3760046,4.128 66.448,4.128 L65.56,4.128 L65.56,8.592 Z M75.904,18.6 L70.048,18.6 L65.56,11.64 L65.56,18.6 L60.856,18.6 L60.856,0.504 L68.176,0.504 C69.184005,0.504 70.0639962,0.65199852 70.816,0.948 C71.5680038,1.24400148 72.1879976,1.64799744 72.676,2.16 C73.1640024,2.67200256 73.5319988,3.26399664 73.78,3.936 C74.0280012,4.60800336 74.152,5.32799616 74.152,6.096 C74.152,7.47200688 73.8200033,8.58799572 73.156,9.444 C72.4919967,10.3000043 71.5120065,10.8799985 70.216,11.184 L75.904,18.6 Z M87.712,11.88 L85.6,5.856 L83.488,11.88 L87.712,11.88 Z M88.96,15.456 L82.24,15.456 L81.16,18.6 L76.144,18.6 L83.032,0.504 L88.168,0.504 L95.056,18.6 L90.04,18.6 L88.96,15.456 Z M110.152,6.552 C109.063995,5.22399336 107.720008,4.56 106.12,4.56 C105.415996,4.56 104.764003,4.68799872 104.164,4.944 C103.563997,5.20000128 103.048002,5.5479978 102.616,5.988 C102.183998,6.4280022 101.844001,6.95199696 101.596,7.56 C101.347999,8.16800304 101.224,8.82399648 101.224,9.528 C101.224,10.2480036 101.347999,10.911997 101.596,11.52 C101.844001,12.128003 102.187998,12.6559978 102.628,13.104 C103.068002,13.5520022 103.583997,13.9039987 104.176,14.16 C104.768003,14.4160013 105.407997,14.544 106.096,14.544 C107.600008,14.544 108.951994,13.9040064 110.152,12.624 L110.152,18.192 L109.672,18.36 C108.951996,18.6160013 108.280003,18.8039994 107.656,18.924 C107.031997,19.0440006 106.416003,19.104 105.808,19.104 C104.559994,19.104 103.364006,18.8680024 102.22,18.396 C101.075994,17.9239976 100.068004,17.2600043 99.196,16.404 C98.3239956,15.5479957 97.6240026,14.5320059 97.096,13.356 C96.5679974,12.1799941 96.304,10.896007 96.304,9.504 C96.304,8.11199304 96.5639974,6.8360058 97.084,5.676 C97.6040026,4.5159942 98.2999956,3.5160042 99.172,2.676 C100.044004,1.8359958 101.055994,1.18000236 102.208,0.708 C103.360006,0.23599764 104.567994,0 105.832,0 C106.552004,0 107.259997,0.07599924 107.956,0.228 C108.652003,0.38000076 109.383996,0.6159984 110.152,0.936 L110.152,6.552 Z M119.992,4.488 L119.992,18.6 L115.288,18.6 L115.288,4.488 L111.424,4.488 L111.424,0.504 L123.856,0.504 L123.856,4.488 L119.992,4.488 Z M130.648,0.504 L130.648,18.6 L125.944,18.6 L125.944,0.504 L130.648,0.504 Z M137.656,0.504 L142.024,11.52 L146.416,0.504 L151.528,0.504 L143.896,18.6 L140.152,18.6 L132.544,0.504 L137.656,0.504 Z M163.72,4.488 L158.128,4.488 L158.128,7.512 L163.408,7.512 L163.408,11.496 L158.128,11.496 L158.128,14.616 L163.72,14.616 L163.72,18.6 L153.424,18.6 L153.424,0.504 L163.72,0.504 L163.72,4.488 Z M8.704,45.616 L9.784,45.616 C10.6000041,45.616 11.3279968,45.4880013 11.968,45.232 C12.6080032,44.9759987 13.1479978,44.6240022 13.588,44.176 C14.0280022,43.7279978 14.3639988,43.1960031 14.596,42.58 C14.8280012,41.9639969 14.944,41.2880037 14.944,40.552 C14.944,39.8319964 14.8240012,39.1600031 14.584,38.536 C14.3439988,37.9119969 14.0040022,37.3760022 13.564,36.928 C13.1239978,36.4799978 12.5840032,36.1280013 11.944,35.872 C11.3039968,35.6159987 10.584004,35.488 9.784,35.488 L8.704,35.488 L8.704,45.616 Z M4,31.504 L10.96,31.504 C12.1920062,31.504 13.3479946,31.7519975 14.428,32.248 C15.5080054,32.7440025 16.451996,33.4039959 17.26,34.228 C18.068004,35.0520041 18.7039977,36.0119945 19.168,37.108 C19.6320023,38.2040055 19.864,39.351994 19.864,40.552 C19.864,41.7360059 19.6360023,42.8759945 19.18,43.972 C18.7239977,45.0680055 18.092004,46.0319958 17.284,46.864 C16.475996,47.6960042 15.5320054,48.3599975 14.452,48.856 C13.3719946,49.3520025 12.2080062,49.6 10.96,49.6 L4,49.6 L4,31.504 Z M33.16,35.488 L27.568,35.488 L27.568,38.512 L32.848,38.512 L32.848,42.496 L27.568,42.496 L27.568,45.616 L33.16,45.616 L33.16,49.6 L22.864,49.6 L22.864,31.504 L33.16,31.504 L33.16,35.488 Z M46.48,36.136 C45.9679974,35.7199979 45.4560026,35.412001 44.944,35.212 C44.4319974,35.011999 43.9360024,34.912 43.456,34.912 C42.847997,34.912 42.3520019,35.0559986 41.968,35.344 C41.5839981,35.6320014 41.392,36.0079977 41.392,36.472 C41.392,36.7920016 41.487999,37.055999 41.68,37.264 C41.872001,37.472001 42.1239984,37.6519992 42.436,37.804 C42.7480016,37.9560008 43.099998,38.0879994 43.492,38.2 C43.884002,38.3120006 44.2719981,38.4319994 44.656,38.56 C46.1920077,39.0720026 47.3159964,39.7559957 48.028,40.612 C48.7400036,41.4680043 49.096,42.5839931 49.096,43.96 C49.096,44.8880046 48.9400016,45.7279962 48.628,46.48 C48.3159984,47.2320038 47.860003,47.8759973 47.26,48.412 C46.659997,48.9480027 45.9240044,49.3639985 45.052,49.66 C44.1799956,49.9560015 43.1920055,50.104 42.088,50.104 C39.7999886,50.104 37.6800098,49.4240068 35.728,48.064 L37.744,44.272 C38.4480035,44.8960031 39.1439966,45.3599985 39.832,45.664 C40.5200034,45.9680015 41.1999966,46.12 41.872,46.12 C42.6400038,46.12 43.2119981,45.9440018 43.588,45.592 C43.9640019,45.2399982 44.152,44.8400022 44.152,44.392 C44.152,44.1199986 44.1040005,43.884001 44.008,43.684 C43.9119995,43.483999 43.7520011,43.3000008 43.528,43.132 C43.3039989,42.9639992 43.0120018,42.8080007 42.652,42.664 C42.2919982,42.5199993 41.8560026,42.3600009 41.344,42.184 C40.735997,41.991999 40.1400029,41.7800012 39.556,41.548 C38.9719971,41.3159988 38.4520023,41.0080019 37.996,40.624 C37.5399977,40.2399981 37.1720014,39.7560029 36.892,39.172 C36.6119986,38.5879971 36.472,37.8480045 36.472,36.952 C36.472,36.0559955 36.6199985,35.2440036 36.916,34.516 C37.2120015,33.7879964 37.6279973,33.1640026 38.164,32.644 C38.7000027,32.1239974 39.3559961,31.7200014 40.132,31.432 C40.9080039,31.1439986 41.7759952,31 42.736,31 C43.6320045,31 44.5679951,31.1239988 45.544,31.372 C46.5200049,31.6200012 47.4559955,31.9839976 48.352,32.464 L46.48,36.136 Z M56.752,31.504 L56.752,49.6 L52.048,49.6 L52.048,31.504 L56.752,31.504 Z M69.352,39.472 L78.688,39.472 C78.688,40.4320048 78.6480004,41.3039961 78.568,42.088 C78.4879996,42.8720039 78.3280012,43.5999966 78.088,44.272 C77.7519983,45.2160047 77.2960029,46.0519964 76.72,46.78 C76.1439971,47.5080036 75.4680039,48.1159976 74.692,48.604 C73.9159961,49.0920024 73.0640046,49.4639987 72.136,49.72 C71.2079954,49.9760013 70.2320051,50.104 69.208,50.104 C67.799993,50.104 66.5160058,49.8720023 65.356,49.408 C64.1959942,48.9439977 63.2000042,48.2920042 62.368,47.452 C61.5359958,46.6119958 60.8880023,45.6040059 60.424,44.428 C59.9599977,43.2519941 59.728,41.9520071 59.728,40.528 C59.728,39.119993 59.9559977,37.8280059 60.412,36.652 C60.8680023,35.4759941 61.5159958,34.4720042 62.356,33.64 C63.1960042,32.8079958 64.2079941,32.1600023 65.392,31.696 C66.5760059,31.2319977 67.8959927,31 69.352,31 C71.2400094,31 72.8959929,31.4079959 74.32,32.224 C75.7440071,33.0400041 76.8719958,34.3039914 77.704,36.016 L73.24,37.864 C72.8239979,36.871995 72.2840033,36.1600022 71.62,35.728 C70.9559967,35.2959978 70.2000042,35.08 69.352,35.08 C68.6479965,35.08 68.0080029,35.2119987 67.432,35.476 C66.8559971,35.7400013 66.364002,36.1159976 65.956,36.604 C65.547998,37.0920024 65.2280012,37.6799966 64.996,38.368 C64.7639988,39.0560034 64.648,39.8239958 64.648,40.672 C64.648,41.4400038 64.747999,42.1519967 64.948,42.808 C65.148001,43.4640033 65.447998,44.0319976 65.848,44.512 C66.248002,44.9920024 66.743997,45.3639987 67.336,45.628 C67.928003,45.8920013 68.6159961,46.024 69.4,46.024 C69.8640023,46.024 70.3119978,45.9720005 70.744,45.868 C71.1760022,45.7639995 71.5639983,45.5960012 71.908,45.364 C72.2520017,45.1319988 72.5359989,44.8320018 72.76,44.464 C72.9840011,44.0959982 73.1359996,43.6480026 73.216,43.12 L69.352,43.12 L69.352,39.472 Z M81.664,49.6 L81.664,31.504 L86.368,31.504 L95.056,42.568 L95.056,31.504 L99.736,31.504 L99.736,49.6 L95.056,49.6 L86.368,38.536 L86.368,49.6 L81.664,49.6 Z" id="INTERACTIVE-DESIGN-Copy" fill="#696969"></path>
                <path d="M8.704,0.504 L8.704,18.6 L4,18.6 L4,0.504 L8.704,0.504 Z M12.496,18.6 L12.496,0.504 L17.2,0.504 L25.888,11.568 L25.888,0.504 L30.568,0.504 L30.568,18.6 L25.888,18.6 L17.2,7.536 L17.2,18.6 L12.496,18.6 Z M41.224,4.488 L41.224,18.6 L36.52,18.6 L36.52,4.488 L32.656,4.488 L32.656,0.504 L45.088,0.504 L45.088,4.488 L41.224,4.488 Z M57.472,4.488 L51.88,4.488 L51.88,7.512 L57.16,7.512 L57.16,11.496 L51.88,11.496 L51.88,14.616 L57.472,14.616 L57.472,18.6 L47.176,18.6 L47.176,0.504 L57.472,0.504 L57.472,4.488 Z M65.56,8.592 L66.448,8.592 C67.3760046,8.592 68.0879975,8.40000192 68.584,8.016 C69.0800025,7.63199808 69.328,7.0800036 69.328,6.36 C69.328,5.6399964 69.0800025,5.08800192 68.584,4.704 C68.0879975,4.31999808 67.3760046,4.128 66.448,4.128 L65.56,4.128 L65.56,8.592 Z M75.904,18.6 L70.048,18.6 L65.56,11.64 L65.56,18.6 L60.856,18.6 L60.856,0.504 L68.176,0.504 C69.184005,0.504 70.0639962,0.65199852 70.816,0.948 C71.5680038,1.24400148 72.1879976,1.64799744 72.676,2.16 C73.1640024,2.67200256 73.5319988,3.26399664 73.78,3.936 C74.0280012,4.60800336 74.152,5.32799616 74.152,6.096 C74.152,7.47200688 73.8200033,8.58799572 73.156,9.444 C72.4919967,10.3000043 71.5120065,10.8799985 70.216,11.184 L75.904,18.6 Z M87.712,11.88 L85.6,5.856 L83.488,11.88 L87.712,11.88 Z M88.96,15.456 L82.24,15.456 L81.16,18.6 L76.144,18.6 L83.032,0.504 L88.168,0.504 L95.056,18.6 L90.04,18.6 L88.96,15.456 Z M110.152,6.552 C109.063995,5.22399336 107.720008,4.56 106.12,4.56 C105.415996,4.56 104.764003,4.68799872 104.164,4.944 C103.563997,5.20000128 103.048002,5.5479978 102.616,5.988 C102.183998,6.4280022 101.844001,6.95199696 101.596,7.56 C101.347999,8.16800304 101.224,8.82399648 101.224,9.528 C101.224,10.2480036 101.347999,10.911997 101.596,11.52 C101.844001,12.128003 102.187998,12.6559978 102.628,13.104 C103.068002,13.5520022 103.583997,13.9039987 104.176,14.16 C104.768003,14.4160013 105.407997,14.544 106.096,14.544 C107.600008,14.544 108.951994,13.9040064 110.152,12.624 L110.152,18.192 L109.672,18.36 C108.951996,18.6160013 108.280003,18.8039994 107.656,18.924 C107.031997,19.0440006 106.416003,19.104 105.808,19.104 C104.559994,19.104 103.364006,18.8680024 102.22,18.396 C101.075994,17.9239976 100.068004,17.2600043 99.196,16.404 C98.3239956,15.5479957 97.6240026,14.5320059 97.096,13.356 C96.5679974,12.1799941 96.304,10.896007 96.304,9.504 C96.304,8.11199304 96.5639974,6.8360058 97.084,5.676 C97.6040026,4.5159942 98.2999956,3.5160042 99.172,2.676 C100.044004,1.8359958 101.055994,1.18000236 102.208,0.708 C103.360006,0.23599764 104.567994,0 105.832,0 C106.552004,0 107.259997,0.07599924 107.956,0.228 C108.652003,0.38000076 109.383996,0.6159984 110.152,0.936 L110.152,6.552 Z M119.992,4.488 L119.992,18.6 L115.288,18.6 L115.288,4.488 L111.424,4.488 L111.424,0.504 L123.856,0.504 L123.856,4.488 L119.992,4.488 Z M130.648,0.504 L130.648,18.6 L125.944,18.6 L125.944,0.504 L130.648,0.504 Z M137.656,0.504 L142.024,11.52 L146.416,0.504 L151.528,0.504 L143.896,18.6 L140.152,18.6 L132.544,0.504 L137.656,0.504 Z M163.72,4.488 L158.128,4.488 L158.128,7.512 L163.408,7.512 L163.408,11.496 L158.128,11.496 L158.128,14.616 L163.72,14.616 L163.72,18.6 L153.424,18.6 L153.424,0.504 L163.72,0.504 L163.72,4.488 Z M8.704,45.616 L9.784,45.616 C10.6000041,45.616 11.3279968,45.4880013 11.968,45.232 C12.6080032,44.9759987 13.1479978,44.6240022 13.588,44.176 C14.0280022,43.7279978 14.3639988,43.1960031 14.596,42.58 C14.8280012,41.9639969 14.944,41.2880037 14.944,40.552 C14.944,39.8319964 14.8240012,39.1600031 14.584,38.536 C14.3439988,37.9119969 14.0040022,37.3760022 13.564,36.928 C13.1239978,36.4799978 12.5840032,36.1280013 11.944,35.872 C11.3039968,35.6159987 10.584004,35.488 9.784,35.488 L8.704,35.488 L8.704,45.616 Z M4,31.504 L10.96,31.504 C12.1920062,31.504 13.3479946,31.7519975 14.428,32.248 C15.5080054,32.7440025 16.451996,33.4039959 17.26,34.228 C18.068004,35.0520041 18.7039977,36.0119945 19.168,37.108 C19.6320023,38.2040055 19.864,39.351994 19.864,40.552 C19.864,41.7360059 19.6360023,42.8759945 19.18,43.972 C18.7239977,45.0680055 18.092004,46.0319958 17.284,46.864 C16.475996,47.6960042 15.5320054,48.3599975 14.452,48.856 C13.3719946,49.3520025 12.2080062,49.6 10.96,49.6 L4,49.6 L4,31.504 Z M33.16,35.488 L27.568,35.488 L27.568,38.512 L32.848,38.512 L32.848,42.496 L27.568,42.496 L27.568,45.616 L33.16,45.616 L33.16,49.6 L22.864,49.6 L22.864,31.504 L33.16,31.504 L33.16,35.488 Z M46.48,36.136 C45.9679974,35.7199979 45.4560026,35.412001 44.944,35.212 C44.4319974,35.011999 43.9360024,34.912 43.456,34.912 C42.847997,34.912 42.3520019,35.0559986 41.968,35.344 C41.5839981,35.6320014 41.392,36.0079977 41.392,36.472 C41.392,36.7920016 41.487999,37.055999 41.68,37.264 C41.872001,37.472001 42.1239984,37.6519992 42.436,37.804 C42.7480016,37.9560008 43.099998,38.0879994 43.492,38.2 C43.884002,38.3120006 44.2719981,38.4319994 44.656,38.56 C46.1920077,39.0720026 47.3159964,39.7559957 48.028,40.612 C48.7400036,41.4680043 49.096,42.5839931 49.096,43.96 C49.096,44.8880046 48.9400016,45.7279962 48.628,46.48 C48.3159984,47.2320038 47.860003,47.8759973 47.26,48.412 C46.659997,48.9480027 45.9240044,49.3639985 45.052,49.66 C44.1799956,49.9560015 43.1920055,50.104 42.088,50.104 C39.7999886,50.104 37.6800098,49.4240068 35.728,48.064 L37.744,44.272 C38.4480035,44.8960031 39.1439966,45.3599985 39.832,45.664 C40.5200034,45.9680015 41.1999966,46.12 41.872,46.12 C42.6400038,46.12 43.2119981,45.9440018 43.588,45.592 C43.9640019,45.2399982 44.152,44.8400022 44.152,44.392 C44.152,44.1199986 44.1040005,43.884001 44.008,43.684 C43.9119995,43.483999 43.7520011,43.3000008 43.528,43.132 C43.3039989,42.9639992 43.0120018,42.8080007 42.652,42.664 C42.2919982,42.5199993 41.8560026,42.3600009 41.344,42.184 C40.735997,41.991999 40.1400029,41.7800012 39.556,41.548 C38.9719971,41.3159988 38.4520023,41.0080019 37.996,40.624 C37.5399977,40.2399981 37.1720014,39.7560029 36.892,39.172 C36.6119986,38.5879971 36.472,37.8480045 36.472,36.952 C36.472,36.0559955 36.6199985,35.2440036 36.916,34.516 C37.2120015,33.7879964 37.6279973,33.1640026 38.164,32.644 C38.7000027,32.1239974 39.3559961,31.7200014 40.132,31.432 C40.9080039,31.1439986 41.7759952,31 42.736,31 C43.6320045,31 44.5679951,31.1239988 45.544,31.372 C46.5200049,31.6200012 47.4559955,31.9839976 48.352,32.464 L46.48,36.136 Z M56.752,31.504 L56.752,49.6 L52.048,49.6 L52.048,31.504 L56.752,31.504 Z M69.352,39.472 L78.688,39.472 C78.688,40.4320048 78.6480004,41.3039961 78.568,42.088 C78.4879996,42.8720039 78.3280012,43.5999966 78.088,44.272 C77.7519983,45.2160047 77.2960029,46.0519964 76.72,46.78 C76.1439971,47.5080036 75.4680039,48.1159976 74.692,48.604 C73.9159961,49.0920024 73.0640046,49.4639987 72.136,49.72 C71.2079954,49.9760013 70.2320051,50.104 69.208,50.104 C67.799993,50.104 66.5160058,49.8720023 65.356,49.408 C64.1959942,48.9439977 63.2000042,48.2920042 62.368,47.452 C61.5359958,46.6119958 60.8880023,45.6040059 60.424,44.428 C59.9599977,43.2519941 59.728,41.9520071 59.728,40.528 C59.728,39.119993 59.9559977,37.8280059 60.412,36.652 C60.8680023,35.4759941 61.5159958,34.4720042 62.356,33.64 C63.1960042,32.8079958 64.2079941,32.1600023 65.392,31.696 C66.5760059,31.2319977 67.8959927,31 69.352,31 C71.2400094,31 72.8959929,31.4079959 74.32,32.224 C75.7440071,33.0400041 76.8719958,34.3039914 77.704,36.016 L73.24,37.864 C72.8239979,36.871995 72.2840033,36.1600022 71.62,35.728 C70.9559967,35.2959978 70.2000042,35.08 69.352,35.08 C68.6479965,35.08 68.0080029,35.2119987 67.432,35.476 C66.8559971,35.7400013 66.364002,36.1159976 65.956,36.604 C65.547998,37.0920024 65.2280012,37.6799966 64.996,38.368 C64.7639988,39.0560034 64.648,39.8239958 64.648,40.672 C64.648,41.4400038 64.747999,42.1519967 64.948,42.808 C65.148001,43.4640033 65.447998,44.0319976 65.848,44.512 C66.248002,44.9920024 66.743997,45.3639987 67.336,45.628 C67.928003,45.8920013 68.6159961,46.024 69.4,46.024 C69.8640023,46.024 70.3119978,45.9720005 70.744,45.868 C71.1760022,45.7639995 71.5639983,45.5960012 71.908,45.364 C72.2520017,45.1319988 72.5359989,44.8320018 72.76,44.464 C72.9840011,44.0959982 73.1359996,43.6480026 73.216,43.12 L69.352,43.12 L69.352,39.472 Z M81.664,49.6 L81.664,31.504 L86.368,31.504 L95.056,42.568 L95.056,31.504 L99.736,31.504 L99.736,49.6 L95.056,49.6 L86.368,38.536 L86.368,49.6 L81.664,49.6 Z" id="INTERACTIVE-DESIGN-Copy-2" fill="#696969"></path>
                <path d="M4.704,0.504 L4.704,18.6 L0,18.6 L0,0.504 L4.704,0.504 Z M8.496,18.6 L8.496,0.504 L13.2,0.504 L21.888,11.568 L21.888,0.504 L26.568,0.504 L26.568,18.6 L21.888,18.6 L13.2,7.536 L13.2,18.6 L8.496,18.6 Z M37.224,4.488 L37.224,18.6 L32.52,18.6 L32.52,4.488 L28.656,4.488 L28.656,0.504 L41.088,0.504 L41.088,4.488 L37.224,4.488 Z M53.472,4.488 L47.88,4.488 L47.88,7.512 L53.16,7.512 L53.16,11.496 L47.88,11.496 L47.88,14.616 L53.472,14.616 L53.472,18.6 L43.176,18.6 L43.176,0.504 L53.472,0.504 L53.472,4.488 Z M61.56,8.592 L62.448,8.592 C63.3760046,8.592 64.0879975,8.40000192 64.584,8.016 C65.0800025,7.63199808 65.328,7.0800036 65.328,6.36 C65.328,5.6399964 65.0800025,5.08800192 64.584,4.704 C64.0879975,4.31999808 63.3760046,4.128 62.448,4.128 L61.56,4.128 L61.56,8.592 Z M71.904,18.6 L66.048,18.6 L61.56,11.64 L61.56,18.6 L56.856,18.6 L56.856,0.504 L64.176,0.504 C65.184005,0.504 66.0639962,0.65199852 66.816,0.948 C67.5680038,1.24400148 68.1879976,1.64799744 68.676,2.16 C69.1640024,2.67200256 69.5319988,3.26399664 69.78,3.936 C70.0280012,4.60800336 70.152,5.32799616 70.152,6.096 C70.152,7.47200688 69.8200033,8.58799572 69.156,9.444 C68.4919967,10.3000043 67.5120065,10.8799985 66.216,11.184 L71.904,18.6 Z M83.712,11.88 L81.6,5.856 L79.488,11.88 L83.712,11.88 Z M84.96,15.456 L78.24,15.456 L77.16,18.6 L72.144,18.6 L79.032,0.504 L84.168,0.504 L91.056,18.6 L86.04,18.6 L84.96,15.456 Z M106.152,6.552 C105.063995,5.22399336 103.720008,4.56 102.12,4.56 C101.415996,4.56 100.764003,4.68799872 100.164,4.944 C99.563997,5.20000128 99.0480022,5.5479978 98.616,5.988 C98.1839978,6.4280022 97.8440012,6.95199696 97.596,7.56 C97.3479988,8.16800304 97.224,8.82399648 97.224,9.528 C97.224,10.2480036 97.3479988,10.911997 97.596,11.52 C97.8440012,12.128003 98.1879978,12.6559978 98.628,13.104 C99.0680022,13.5520022 99.583997,13.9039987 100.176,14.16 C100.768003,14.4160013 101.407997,14.544 102.096,14.544 C103.600008,14.544 104.951994,13.9040064 106.152,12.624 L106.152,18.192 L105.672,18.36 C104.951996,18.6160013 104.280003,18.8039994 103.656,18.924 C103.031997,19.0440006 102.416003,19.104 101.808,19.104 C100.559994,19.104 99.3640057,18.8680024 98.22,18.396 C97.0759943,17.9239976 96.0680044,17.2600043 95.196,16.404 C94.3239956,15.5479957 93.6240026,14.5320059 93.096,13.356 C92.5679974,12.1799941 92.304,10.896007 92.304,9.504 C92.304,8.11199304 92.5639974,6.8360058 93.084,5.676 C93.6040026,4.5159942 94.2999956,3.5160042 95.172,2.676 C96.0440044,1.8359958 97.0559942,1.18000236 98.208,0.708 C99.3600058,0.23599764 100.567994,0 101.832,0 C102.552004,0 103.259997,0.07599924 103.956,0.228 C104.652003,0.38000076 105.383996,0.6159984 106.152,0.936 L106.152,6.552 Z M115.992,4.488 L115.992,18.6 L111.288,18.6 L111.288,4.488 L107.424,4.488 L107.424,0.504 L119.856,0.504 L119.856,4.488 L115.992,4.488 Z M126.648,0.504 L126.648,18.6 L121.944,18.6 L121.944,0.504 L126.648,0.504 Z M133.656,0.504 L138.024,11.52 L142.416,0.504 L147.528,0.504 L139.896,18.6 L136.152,18.6 L128.544,0.504 L133.656,0.504 Z M159.72,4.488 L154.128,4.488 L154.128,7.512 L159.408,7.512 L159.408,11.496 L154.128,11.496 L154.128,14.616 L159.72,14.616 L159.72,18.6 L149.424,18.6 L149.424,0.504 L159.72,0.504 L159.72,4.488 Z M4.704,45.616 L5.784,45.616 C6.60000408,45.616 7.3279968,45.4880013 7.968,45.232 C8.6080032,44.9759987 9.1479978,44.6240022 9.588,44.176 C10.0280022,43.7279978 10.3639988,43.1960031 10.596,42.58 C10.8280012,41.9639969 10.944,41.2880037 10.944,40.552 C10.944,39.8319964 10.8240012,39.1600031 10.584,38.536 C10.3439988,37.9119969 10.0040022,37.3760022 9.564,36.928 C9.1239978,36.4799978 8.5840032,36.1280013 7.944,35.872 C7.3039968,35.6159987 6.584004,35.488 5.784,35.488 L4.704,35.488 L4.704,45.616 Z M0,31.504 L6.96,31.504 C8.19200616,31.504 9.3479946,31.7519975 10.428,32.248 C11.5080054,32.7440025 12.451996,33.4039959 13.26,34.228 C14.068004,35.0520041 14.7039977,36.0119945 15.168,37.108 C15.6320023,38.2040055 15.864,39.351994 15.864,40.552 C15.864,41.7360059 15.6360023,42.8759945 15.18,43.972 C14.7239977,45.0680055 14.092004,46.0319958 13.284,46.864 C12.475996,47.6960042 11.5320054,48.3599975 10.452,48.856 C9.3719946,49.3520025 8.20800624,49.6 6.96,49.6 L0,49.6 L0,31.504 Z M29.16,35.488 L23.568,35.488 L23.568,38.512 L28.848,38.512 L28.848,42.496 L23.568,42.496 L23.568,45.616 L29.16,45.616 L29.16,49.6 L18.864,49.6 L18.864,31.504 L29.16,31.504 L29.16,35.488 Z M42.48,36.136 C41.9679974,35.7199979 41.4560026,35.412001 40.944,35.212 C40.4319974,35.011999 39.9360024,34.912 39.456,34.912 C38.847997,34.912 38.3520019,35.0559986 37.968,35.344 C37.5839981,35.6320014 37.392,36.0079977 37.392,36.472 C37.392,36.7920016 37.487999,37.055999 37.68,37.264 C37.872001,37.472001 38.1239984,37.6519992 38.436,37.804 C38.7480016,37.9560008 39.099998,38.0879994 39.492,38.2 C39.884002,38.3120006 40.2719981,38.4319994 40.656,38.56 C42.1920077,39.0720026 43.3159964,39.7559957 44.028,40.612 C44.7400036,41.4680043 45.096,42.5839931 45.096,43.96 C45.096,44.8880046 44.9400016,45.7279962 44.628,46.48 C44.3159984,47.2320038 43.860003,47.8759973 43.26,48.412 C42.659997,48.9480027 41.9240044,49.3639985 41.052,49.66 C40.1799956,49.9560015 39.1920055,50.104 38.088,50.104 C35.7999886,50.104 33.6800098,49.4240068 31.728,48.064 L33.744,44.272 C34.4480035,44.8960031 35.1439966,45.3599985 35.832,45.664 C36.5200034,45.9680015 37.1999966,46.12 37.872,46.12 C38.6400038,46.12 39.2119981,45.9440018 39.588,45.592 C39.9640019,45.2399982 40.152,44.8400022 40.152,44.392 C40.152,44.1199986 40.1040005,43.884001 40.008,43.684 C39.9119995,43.483999 39.7520011,43.3000008 39.528,43.132 C39.3039989,42.9639992 39.0120018,42.8080007 38.652,42.664 C38.2919982,42.5199993 37.8560026,42.3600009 37.344,42.184 C36.735997,41.991999 36.1400029,41.7800012 35.556,41.548 C34.9719971,41.3159988 34.4520023,41.0080019 33.996,40.624 C33.5399977,40.2399981 33.1720014,39.7560029 32.892,39.172 C32.6119986,38.5879971 32.472,37.8480045 32.472,36.952 C32.472,36.0559955 32.6199985,35.2440036 32.916,34.516 C33.2120015,33.7879964 33.6279973,33.1640026 34.164,32.644 C34.7000027,32.1239974 35.3559961,31.7200014 36.132,31.432 C36.9080039,31.1439986 37.7759952,31 38.736,31 C39.6320045,31 40.5679951,31.1239988 41.544,31.372 C42.5200049,31.6200012 43.4559955,31.9839976 44.352,32.464 L42.48,36.136 Z M52.752,31.504 L52.752,49.6 L48.048,49.6 L48.048,31.504 L52.752,31.504 Z M65.352,39.472 L74.688,39.472 C74.688,40.4320048 74.6480004,41.3039961 74.568,42.088 C74.4879996,42.8720039 74.3280012,43.5999966 74.088,44.272 C73.7519983,45.2160047 73.2960029,46.0519964 72.72,46.78 C72.1439971,47.5080036 71.4680039,48.1159976 70.692,48.604 C69.9159961,49.0920024 69.0640046,49.4639987 68.136,49.72 C67.2079954,49.9760013 66.2320051,50.104 65.208,50.104 C63.799993,50.104 62.5160058,49.8720023 61.356,49.408 C60.1959942,48.9439977 59.2000042,48.2920042 58.368,47.452 C57.5359958,46.6119958 56.8880023,45.6040059 56.424,44.428 C55.9599977,43.2519941 55.728,41.9520071 55.728,40.528 C55.728,39.119993 55.9559977,37.8280059 56.412,36.652 C56.8680023,35.4759941 57.5159958,34.4720042 58.356,33.64 C59.1960042,32.8079958 60.2079941,32.1600023 61.392,31.696 C62.5760059,31.2319977 63.8959927,31 65.352,31 C67.2400094,31 68.8959929,31.4079959 70.32,32.224 C71.7440071,33.0400041 72.8719958,34.3039914 73.704,36.016 L69.24,37.864 C68.8239979,36.871995 68.2840033,36.1600022 67.62,35.728 C66.9559967,35.2959978 66.2000042,35.08 65.352,35.08 C64.6479965,35.08 64.0080029,35.2119987 63.432,35.476 C62.8559971,35.7400013 62.364002,36.1159976 61.956,36.604 C61.547998,37.0920024 61.2280012,37.6799966 60.996,38.368 C60.7639988,39.0560034 60.648,39.8239958 60.648,40.672 C60.648,41.4400038 60.747999,42.1519967 60.948,42.808 C61.148001,43.4640033 61.447998,44.0319976 61.848,44.512 C62.248002,44.9920024 62.743997,45.3639987 63.336,45.628 C63.928003,45.8920013 64.6159961,46.024 65.4,46.024 C65.8640023,46.024 66.3119978,45.9720005 66.744,45.868 C67.1760022,45.7639995 67.5639983,45.5960012 67.908,45.364 C68.2520017,45.1319988 68.5359989,44.8320018 68.76,44.464 C68.9840011,44.0959982 69.1359996,43.6480026 69.216,43.12 L65.352,43.12 L65.352,39.472 Z M77.664,49.6 L77.664,31.504 L82.368,31.504 L91.056,42.568 L91.056,31.504 L95.736,31.504 L95.736,49.6 L91.056,49.6 L82.368,38.536 L82.368,49.6 L77.664,49.6 Z" id="INTERACTIVE-DESIGN" stroke="#4A4A4A" fill="#FFFFFF"></path>
            </g>
        </g>
    </g>
</svg>
