<?xml version="1.0" encoding="UTF-8"?>
<svg preserveAspectRatio="xMinYMin meet"  width="110px" height="53px" viewBox="0 0 110 53" version="1.1" xmlns="http://www.w3.org/2000/svg" xmlns:xlink="http://www.w3.org/1999/xlink">
    <!-- Generator: sketchtool 51.1 (57501) - http://www.bohemiancoding.com/sketch -->
    <title>9AD2077A-B11A-497F-960D-DE810EE3DCC1</title>
    <desc>Created with sketchtool.</desc>
    <defs></defs>
    <g id="Page-2" stroke="none" stroke-width="1" fill="none" fill-rule="evenodd">
        <g id="ICONS" transform="translate(-620.000000, -333.000000)">
            <g id="btn_works_digitalmedia_n" transform="translate(621.000000, 334.000000)">
                <path d="M9.75,15.225 L10.875,15.225 C11.7250043,15.225 12.48333,15.091668 13.15,14.825 C13.81667,14.558332 14.3791644,14.191669 14.8375,13.725 C15.2958356,13.258331 15.6458321,12.7041699 15.8875,12.0625 C16.1291679,11.4208301 16.25,10.7166705 16.25,9.95 C16.25,9.19999625 16.1250013,8.50000325 15.875,7.85 C15.6249987,7.19999675 15.2708356,6.641669 14.8125,6.175 C14.3541644,5.708331 13.79167,5.341668 13.125,5.075 C12.45833,4.808332 11.7083375,4.675 10.875,4.675 L9.75,4.675 L9.75,15.225 Z M4.85,0.525 L12.1,0.525 C13.3833397,0.525 14.5874944,0.78333075 15.7125,1.3 C16.8375056,1.81666925 17.8208291,2.50416237 18.6625,3.3625 C19.5041709,4.22083763 20.1666643,5.22082762 20.65,6.3625 C21.1333358,7.50417237 21.375,8.69999375 21.375,9.95 C21.375,11.1833395 21.1375024,12.3708276 20.6625,13.5125 C20.1874976,14.6541724 19.5291709,15.658329 18.6875,16.525 C17.8458291,17.391671 16.8625056,18.0833308 15.7375,18.6 C14.6124944,19.1166692 13.4000065,19.375 12.1,19.375 L4.85,19.375 L4.85,0.525 Z M29.4,0.525 L29.4,19.375 L24.5,19.375 L24.5,0.525 L29.4,0.525 Z M42.525,8.825 L52.25,8.825 C52.25,9.825005 52.2083338,10.7333293 52.125,11.55 C52.0416662,12.3666708 51.8750012,13.1249965 51.625,13.825 C51.2749982,14.8083382 50.800003,15.6791629 50.2,16.4375 C49.599997,17.1958371 48.8958374,17.8291641 48.0875,18.3375 C47.2791626,18.8458359 46.3916715,19.233332 45.425,19.5 C44.4583285,19.766668 43.441672,19.9 42.375,19.9 C40.908326,19.9 39.5708394,19.6583357 38.3625,19.175 C37.1541606,18.6916643 36.116671,18.0125044 35.25,17.1375 C34.383329,16.2624956 33.7083358,15.2125061 33.225,13.9875 C32.7416642,12.7624939 32.5,11.4083407 32.5,9.925 C32.5,8.458326 32.7374976,7.11250613 33.2125,5.8875 C33.6875024,4.66249387 34.3624956,3.616671 35.2375,2.75 C36.1125044,1.883329 37.1666605,1.20833575 38.4,0.725 C39.6333395,0.24166425 41.0083257,0 42.525,0 C44.4916765,0 46.2166592,0.42499575 47.7,1.275 C49.1833407,2.12500425 50.358329,3.44165775 51.225,5.225 L46.575,7.15 C46.1416645,6.1166615 45.5791701,5.37500225 44.8875,4.925 C44.1958299,4.47499775 43.4083378,4.25 42.525,4.25 C41.791663,4.25 41.125003,4.38749863 40.525,4.6625 C39.924997,4.93750138 39.4125021,5.32916413 38.9875,5.8375 C38.5624979,6.34583588 38.2291679,6.95832975 37.9875,7.675 C37.7458321,8.39167025 37.625,9.19166225 37.625,10.075 C37.625,10.875004 37.7291656,11.6166632 37.9375,12.3 C38.1458344,12.9833368 38.4583313,13.5749975 38.875,14.075 C39.2916687,14.5750025 39.8083302,14.9624986 40.425,15.2375 C41.0416697,15.5125014 41.7583293,15.65 42.575,15.65 C43.0583357,15.65 43.5249977,15.5958339 43.975,15.4875 C44.4250022,15.3791661 44.8291649,15.2041679 45.1875,14.9625 C45.5458351,14.7208321 45.8416655,14.4083352 46.075,14.025 C46.3083345,13.6416648 46.4666662,13.1750028 46.55,12.625 L42.525,12.625 L42.525,8.825 Z M60.25,0.525 L60.25,19.375 L55.35,19.375 L55.35,0.525 L60.25,0.525 Z M71.35,4.675 L71.35,19.375 L66.45,19.375 L66.45,4.675 L62.425,4.675 L62.425,0.525 L75.375,0.525 L75.375,4.675 L71.35,4.675 Z M87.8,12.375 L85.6,6.1 L83.4,12.375 L87.8,12.375 Z M89.1,16.1 L82.1,16.1 L80.975,19.375 L75.75,19.375 L82.925,0.525 L88.275,0.525 L95.45,19.375 L90.225,19.375 L89.1,16.1 Z M102.5,0.525 L102.5,15.225 L108.375,15.225 L108.375,19.375 L97.6,19.375 L97.6,0.525 L102.5,0.525 Z M4,51.375 L7.2,32.525 L12.05,32.525 L15.825,42.575 L19.575,32.525 L24.425,32.525 L27.625,51.375 L22.75,51.375 L21.125,40.525 L16.675,51.375 L14.725,51.375 L10.5,40.525 L8.875,51.375 L4,51.375 Z M41.45,36.675 L35.625,36.675 L35.625,39.825 L41.125,39.825 L41.125,43.975 L35.625,43.975 L35.625,47.225 L41.45,47.225 L41.45,51.375 L30.725,51.375 L30.725,32.525 L41.45,32.525 L41.45,36.675 Z M49.875,47.225 L51,47.225 C51.8500042,47.225 52.60833,47.091668 53.275,46.825 C53.94167,46.558332 54.5041644,46.191669 54.9625,45.725 C55.4208356,45.258331 55.7708321,44.7041699 56.0125,44.0625 C56.2541679,43.4208301 56.375,42.7166705 56.375,41.95 C56.375,41.1999962 56.2500013,40.5000032 56,39.85 C55.7499988,39.1999967 55.3958356,38.641669 54.9375,38.175 C54.4791644,37.708331 53.91667,37.341668 53.25,37.075 C52.58333,36.808332 51.8333375,36.675 51,36.675 L49.875,36.675 L49.875,47.225 Z M44.975,32.525 L52.225,32.525 C53.5083397,32.525 54.7124944,32.7833308 55.8375,33.3 C56.9625056,33.8166692 57.9458291,34.5041624 58.7875,35.3625 C59.6291709,36.2208376 60.2916642,37.2208276 60.775,38.3625 C61.2583357,39.5041724 61.5,40.6999938 61.5,41.95 C61.5,43.1833395 61.2625024,44.3708276 60.7875,45.5125 C60.3124976,46.6541724 59.6541709,47.658329 58.8125,48.525 C57.9708291,49.391671 56.9875056,50.0833308 55.8625,50.6 C54.7374944,51.1166693 53.5250065,51.375 52.225,51.375 L44.975,51.375 L44.975,32.525 Z M69.525,32.525 L69.525,51.375 L64.625,51.375 L64.625,32.525 L69.525,32.525 Z M83.725,44.375 L81.525,38.1 L79.325,44.375 L83.725,44.375 Z M85.025,48.1 L78.025,48.1 L76.9,51.375 L71.675,51.375 L78.85,32.525 L84.2,32.525 L91.375,51.375 L86.15,51.375 L85.025,48.1 Z" id="DIGITAL-MEDIA-Copy" fill="#696969"></path>
                <path d="M5.75,15.225 L6.875,15.225 C7.72500425,15.225 8.48333,15.091668 9.15,14.825 C9.81667,14.558332 10.3791644,14.191669 10.8375,13.725 C11.2958356,13.258331 11.6458321,12.7041699 11.8875,12.0625 C12.1291679,11.4208301 12.25,10.7166705 12.25,9.95 C12.25,9.19999625 12.1250013,8.50000325 11.875,7.85 C11.6249987,7.19999675 11.2708356,6.641669 10.8125,6.175 C10.3541644,5.708331 9.79167,5.341668 9.125,5.075 C8.45833,4.808332 7.7083375,4.675 6.875,4.675 L5.75,4.675 L5.75,15.225 Z M0.85,0.525 L8.1,0.525 C9.38333975,0.525 10.5874944,0.78333075 11.7125,1.3 C12.8375056,1.81666925 13.8208291,2.50416237 14.6625,3.3625 C15.5041709,4.22083763 16.1666643,5.22082762 16.65,6.3625 C17.1333358,7.50417237 17.375,8.69999375 17.375,9.95 C17.375,11.1833395 17.1375024,12.3708276 16.6625,13.5125 C16.1874976,14.6541724 15.5291709,15.658329 14.6875,16.525 C13.8458291,17.391671 12.8625056,18.0833308 11.7375,18.6 C10.6124944,19.1166692 9.4000065,19.375 8.1,19.375 L0.85,19.375 L0.85,0.525 Z M25.4,0.525 L25.4,19.375 L20.5,19.375 L20.5,0.525 L25.4,0.525 Z M38.525,8.825 L48.25,8.825 C48.25,9.825005 48.2083338,10.7333293 48.125,11.55 C48.0416662,12.3666708 47.8750012,13.1249965 47.625,13.825 C47.2749982,14.8083382 46.800003,15.6791629 46.2,16.4375 C45.599997,17.1958371 44.8958374,17.8291641 44.0875,18.3375 C43.2791626,18.8458359 42.3916715,19.233332 41.425,19.5 C40.4583285,19.766668 39.441672,19.9 38.375,19.9 C36.908326,19.9 35.5708394,19.6583357 34.3625,19.175 C33.1541606,18.6916643 32.116671,18.0125044 31.25,17.1375 C30.383329,16.2624956 29.7083357,15.2125061 29.225,13.9875 C28.7416642,12.7624939 28.5,11.4083407 28.5,9.925 C28.5,8.458326 28.7374976,7.11250613 29.2125,5.8875 C29.6875024,4.66249387 30.3624956,3.616671 31.2375,2.75 C32.1125044,1.883329 33.1666605,1.20833575 34.4,0.725 C35.6333395,0.24166425 37.0083257,0 38.525,0 C40.4916765,0 42.2166592,0.42499575 43.7,1.275 C45.1833407,2.12500425 46.358329,3.44165775 47.225,5.225 L42.575,7.15 C42.1416645,6.1166615 41.5791701,5.37500225 40.8875,4.925 C40.1958299,4.47499775 39.4083378,4.25 38.525,4.25 C37.791663,4.25 37.125003,4.38749863 36.525,4.6625 C35.924997,4.93750138 35.4125021,5.32916413 34.9875,5.8375 C34.5624979,6.34583588 34.2291679,6.95832975 33.9875,7.675 C33.7458321,8.39167025 33.625,9.19166225 33.625,10.075 C33.625,10.875004 33.7291656,11.6166632 33.9375,12.3 C34.1458344,12.9833368 34.4583313,13.5749975 34.875,14.075 C35.2916687,14.5750025 35.8083302,14.9624986 36.425,15.2375 C37.0416697,15.5125014 37.7583293,15.65 38.575,15.65 C39.0583357,15.65 39.5249977,15.5958339 39.975,15.4875 C40.4250022,15.3791661 40.8291649,15.2041679 41.1875,14.9625 C41.5458351,14.7208321 41.8416655,14.4083352 42.075,14.025 C42.3083345,13.6416648 42.4666662,13.1750028 42.55,12.625 L38.525,12.625 L38.525,8.825 Z M56.25,0.525 L56.25,19.375 L51.35,19.375 L51.35,0.525 L56.25,0.525 Z M67.35,4.675 L67.35,19.375 L62.45,19.375 L62.45,4.675 L58.425,4.675 L58.425,0.525 L71.375,0.525 L71.375,4.675 L67.35,4.675 Z M83.8,12.375 L81.6,6.1 L79.4,12.375 L83.8,12.375 Z M85.1,16.1 L78.1,16.1 L76.975,19.375 L71.75,19.375 L78.925,0.525 L84.275,0.525 L91.45,19.375 L86.225,19.375 L85.1,16.1 Z M98.5,0.525 L98.5,15.225 L104.375,15.225 L104.375,19.375 L93.6,19.375 L93.6,0.525 L98.5,0.525 Z M0,51.375 L3.2,32.525 L8.05,32.525 L11.825,42.575 L15.575,32.525 L20.425,32.525 L23.625,51.375 L18.75,51.375 L17.125,40.525 L12.675,51.375 L10.725,51.375 L6.5,40.525 L4.875,51.375 L0,51.375 Z M37.45,36.675 L31.625,36.675 L31.625,39.825 L37.125,39.825 L37.125,43.975 L31.625,43.975 L31.625,47.225 L37.45,47.225 L37.45,51.375 L26.725,51.375 L26.725,32.525 L37.45,32.525 L37.45,36.675 Z M45.875,47.225 L47,47.225 C47.8500042,47.225 48.60833,47.091668 49.275,46.825 C49.94167,46.558332 50.5041644,46.191669 50.9625,45.725 C51.4208356,45.258331 51.7708321,44.7041699 52.0125,44.0625 C52.2541679,43.4208301 52.375,42.7166705 52.375,41.95 C52.375,41.1999962 52.2500013,40.5000032 52,39.85 C51.7499988,39.1999967 51.3958356,38.641669 50.9375,38.175 C50.4791644,37.708331 49.91667,37.341668 49.25,37.075 C48.58333,36.808332 47.8333375,36.675 47,36.675 L45.875,36.675 L45.875,47.225 Z M40.975,32.525 L48.225,32.525 C49.5083397,32.525 50.7124944,32.7833308 51.8375,33.3 C52.9625056,33.8166692 53.9458291,34.5041624 54.7875,35.3625 C55.6291709,36.2208376 56.2916642,37.2208276 56.775,38.3625 C57.2583357,39.5041724 57.5,40.6999938 57.5,41.95 C57.5,43.1833395 57.2625024,44.3708276 56.7875,45.5125 C56.3124976,46.6541724 55.6541709,47.658329 54.8125,48.525 C53.9708291,49.391671 52.9875056,50.0833308 51.8625,50.6 C50.7374944,51.1166693 49.5250065,51.375 48.225,51.375 L40.975,51.375 L40.975,32.525 Z M65.525,32.525 L65.525,51.375 L60.625,51.375 L60.625,32.525 L65.525,32.525 Z M79.725,44.375 L77.525,38.1 L75.325,44.375 L79.725,44.375 Z M81.025,48.1 L74.025,48.1 L72.9,51.375 L67.675,51.375 L74.85,32.525 L80.2,32.525 L87.375,51.375 L82.15,51.375 L81.025,48.1 Z" id="DIGITAL-MEDIA" stroke="#4A4A4A" fill="#FFFFFF"></path>
            </g>
        </g>
    </g>
</svg>
