<?xml version="1.0" encoding="UTF-8"?>
<svg width="146px" height="53px" viewBox="0 0 146 53" version="1.1" xmlns="http://www.w3.org/2000/svg" xmlns:xlink="http://www.w3.org/1999/xlink">
    <!-- Generator: sketchtool 51.1 (57501) - http://www.bohemiancoding.com/sketch -->
    <title>8F46C639-13F8-44A1-8C6C-E26111BB1C1A</title>
    <desc>Created with sketchtool.</desc>
    <defs>
        <linearGradient x1="100%" y1="0%" x2="-28.9637855%" y2="128.649196%" id="linearGradient-1">
            <stop stop-color="#97E055" offset="0%"></stop>
            <stop stop-color="#80C9F6" offset="50.6773844%"></stop>
            <stop stop-color="#A37CD8" offset="100%"></stop>
        </linearGradient>
    </defs>
    <g id="Page-2" stroke="none" stroke-width="1" fill="none" fill-rule="evenodd">
        <g id="ICONS" transform="translate(-902.000000, -333.000000)" stroke="#4A4A4A">
            <g id="btn_works_digitalmedia_s" transform="translate(903.000000, 334.000000)">
                <path d="M45.75,15.225 L46.875,15.225 C47.7250042,15.225 48.48333,15.091668 49.15,14.825 C49.81667,14.558332 50.3791644,14.191669 50.8375,13.725 C51.2958356,13.258331 51.6458321,12.7041699 51.8875,12.0625 C52.1291679,11.4208301 52.25,10.7166705 52.25,9.95 C52.25,9.19999625 52.1250012,8.50000325 51.875,7.85 C51.6249988,7.19999675 51.2708356,6.641669 50.8125,6.175 C50.3541644,5.708331 49.79167,5.341668 49.125,5.075 C48.45833,4.808332 47.7083375,4.675 46.875,4.675 L45.75,4.675 L45.75,15.225 Z M40.85,0.525 L48.1,0.525 C49.3833397,0.525 50.5874944,0.78333075 51.7125,1.3 C52.8375056,1.81666925 53.8208291,2.50416237 54.6625,3.3625 C55.5041709,4.22083763 56.1666643,5.22082762 56.65,6.3625 C57.1333358,7.50417237 57.375,8.69999375 57.375,9.95 C57.375,11.1833395 57.1375024,12.3708276 56.6625,13.5125 C56.1874976,14.6541724 55.5291709,15.658329 54.6875,16.525 C53.8458291,17.391671 52.8625056,18.0833308 51.7375,18.6 C50.6124944,19.1166692 49.4000065,19.375 48.1,19.375 L40.85,19.375 L40.85,0.525 Z M65.4,0.525 L65.4,19.375 L60.5,19.375 L60.5,0.525 L65.4,0.525 Z M78.525,8.825 L88.25,8.825 C88.25,9.825005 88.2083338,10.7333293 88.125,11.55 C88.0416662,12.3666708 87.8750012,13.1249965 87.625,13.825 C87.2749982,14.8083382 86.800003,15.6791629 86.2,16.4375 C85.599997,17.1958371 84.8958374,17.8291641 84.0875,18.3375 C83.2791626,18.8458359 82.3916715,19.233332 81.425,19.5 C80.4583285,19.766668 79.441672,19.9 78.375,19.9 C76.908326,19.9 75.5708394,19.6583357 74.3625,19.175 C73.1541606,18.6916643 72.116671,18.0125044 71.25,17.1375 C70.383329,16.2624956 69.7083358,15.2125061 69.225,13.9875 C68.7416642,12.7624939 68.5,11.4083407 68.5,9.925 C68.5,8.458326 68.7374976,7.11250613 69.2125,5.8875 C69.6875024,4.66249387 70.3624956,3.616671 71.2375,2.75 C72.1125044,1.883329 73.1666605,1.20833575 74.4,0.725 C75.6333395,0.24166425 77.0083257,0 78.525,0 C80.4916765,0 82.2166592,0.42499575 83.7,1.275 C85.1833407,2.12500425 86.358329,3.44165775 87.225,5.225 L82.575,7.15 C82.1416645,6.1166615 81.5791701,5.37500225 80.8875,4.925 C80.1958299,4.47499775 79.4083378,4.25 78.525,4.25 C77.791663,4.25 77.125003,4.38749863 76.525,4.6625 C75.924997,4.93750138 75.4125021,5.32916413 74.9875,5.8375 C74.5624979,6.34583588 74.2291679,6.95832975 73.9875,7.675 C73.7458321,8.39167025 73.625,9.19166225 73.625,10.075 C73.625,10.875004 73.7291656,11.6166632 73.9375,12.3 C74.1458344,12.9833368 74.4583313,13.5749975 74.875,14.075 C75.2916687,14.5750025 75.8083302,14.9624986 76.425,15.2375 C77.0416697,15.5125014 77.7583293,15.65 78.575,15.65 C79.0583357,15.65 79.5249977,15.5958339 79.975,15.4875 C80.4250023,15.3791661 80.8291649,15.2041679 81.1875,14.9625 C81.5458351,14.7208321 81.8416655,14.4083352 82.075,14.025 C82.3083345,13.6416648 82.4666663,13.1750028 82.55,12.625 L78.525,12.625 L78.525,8.825 Z M96.25,0.525 L96.25,19.375 L91.35,19.375 L91.35,0.525 L96.25,0.525 Z M107.35,4.675 L107.35,19.375 L102.45,19.375 L102.45,4.675 L98.425,4.675 L98.425,0.525 L111.375,0.525 L111.375,4.675 L107.35,4.675 Z M123.8,12.375 L121.6,6.1 L119.4,12.375 L123.8,12.375 Z M125.1,16.1 L118.1,16.1 L116.975,19.375 L111.75,19.375 L118.925,0.525 L124.275,0.525 L131.45,19.375 L126.225,19.375 L125.1,16.1 Z M138.5,0.525 L138.5,15.225 L144.375,15.225 L144.375,19.375 L133.6,19.375 L133.6,0.525 L138.5,0.525 Z M40,51.375 L43.2,32.525 L48.05,32.525 L51.825,42.575 L55.575,32.525 L60.425,32.525 L63.625,51.375 L58.75,51.375 L57.125,40.525 L52.675,51.375 L50.725,51.375 L46.5,40.525 L44.875,51.375 L40,51.375 Z M77.45,36.675 L71.625,36.675 L71.625,39.825 L77.125,39.825 L77.125,43.975 L71.625,43.975 L71.625,47.225 L77.45,47.225 L77.45,51.375 L66.725,51.375 L66.725,32.525 L77.45,32.525 L77.45,36.675 Z M85.875,47.225 L87,47.225 C87.8500042,47.225 88.60833,47.091668 89.275,46.825 C89.94167,46.558332 90.5041644,46.191669 90.9625,45.725 C91.4208356,45.258331 91.7708321,44.7041699 92.0125,44.0625 C92.2541679,43.4208301 92.375,42.7166705 92.375,41.95 C92.375,41.1999962 92.2500012,40.5000032 92,39.85 C91.7499988,39.1999967 91.3958356,38.641669 90.9375,38.175 C90.4791644,37.708331 89.91667,37.341668 89.25,37.075 C88.58333,36.808332 87.8333375,36.675 87,36.675 L85.875,36.675 L85.875,47.225 Z M80.975,32.525 L88.225,32.525 C89.5083397,32.525 90.7124944,32.7833308 91.8375,33.3 C92.9625056,33.8166692 93.9458291,34.5041624 94.7875,35.3625 C95.6291709,36.2208376 96.2916642,37.2208276 96.775,38.3625 C97.2583357,39.5041724 97.5,40.6999938 97.5,41.95 C97.5,43.1833395 97.2625024,44.3708276 96.7875,45.5125 C96.3124976,46.6541724 95.6541709,47.658329 94.8125,48.525 C93.9708291,49.391671 92.9875056,50.0833308 91.8625,50.6 C90.7374944,51.1166693 89.5250065,51.375 88.225,51.375 L80.975,51.375 L80.975,32.525 Z M105.525,32.525 L105.525,51.375 L100.625,51.375 L100.625,32.525 L105.525,32.525 Z M119.725,44.375 L117.525,38.1 L115.325,44.375 L119.725,44.375 Z M121.025,48.1 L114.025,48.1 L112.9,51.375 L107.675,51.375 L114.85,32.525 L120.2,32.525 L127.375,51.375 L122.15,51.375 L121.025,48.1 Z" id="DIGITAL-MEDIA-Copy-3" fill="url(#linearGradient-1)"></path>
                <path d="M41.75,15.225 L42.875,15.225 C43.7250042,15.225 44.48333,15.091668 45.15,14.825 C45.81667,14.558332 46.3791644,14.191669 46.8375,13.725 C47.2958356,13.258331 47.6458321,12.7041699 47.8875,12.0625 C48.1291679,11.4208301 48.25,10.7166705 48.25,9.95 C48.25,9.19999625 48.1250012,8.50000325 47.875,7.85 C47.6249988,7.19999675 47.2708356,6.641669 46.8125,6.175 C46.3541644,5.708331 45.79167,5.341668 45.125,5.075 C44.45833,4.808332 43.7083375,4.675 42.875,4.675 L41.75,4.675 L41.75,15.225 Z M36.85,0.525 L44.1,0.525 C45.3833397,0.525 46.5874944,0.78333075 47.7125,1.3 C48.8375056,1.81666925 49.8208291,2.50416237 50.6625,3.3625 C51.5041709,4.22083763 52.1666643,5.22082762 52.65,6.3625 C53.1333358,7.50417237 53.375,8.69999375 53.375,9.95 C53.375,11.1833395 53.1375024,12.3708276 52.6625,13.5125 C52.1874976,14.6541724 51.5291709,15.658329 50.6875,16.525 C49.8458291,17.391671 48.8625056,18.0833308 47.7375,18.6 C46.6124944,19.1166692 45.4000065,19.375 44.1,19.375 L36.85,19.375 L36.85,0.525 Z M61.4,0.525 L61.4,19.375 L56.5,19.375 L56.5,0.525 L61.4,0.525 Z M74.525,8.825 L84.25,8.825 C84.25,9.825005 84.2083338,10.7333293 84.125,11.55 C84.0416662,12.3666708 83.8750012,13.1249965 83.625,13.825 C83.2749982,14.8083382 82.800003,15.6791629 82.2,16.4375 C81.599997,17.1958371 80.8958374,17.8291641 80.0875,18.3375 C79.2791626,18.8458359 78.3916715,19.233332 77.425,19.5 C76.4583285,19.766668 75.441672,19.9 74.375,19.9 C72.908326,19.9 71.5708394,19.6583357 70.3625,19.175 C69.1541606,18.6916643 68.116671,18.0125044 67.25,17.1375 C66.383329,16.2624956 65.7083358,15.2125061 65.225,13.9875 C64.7416642,12.7624939 64.5,11.4083407 64.5,9.925 C64.5,8.458326 64.7374976,7.11250613 65.2125,5.8875 C65.6875024,4.66249387 66.3624956,3.616671 67.2375,2.75 C68.1125044,1.883329 69.1666605,1.20833575 70.4,0.725 C71.6333395,0.24166425 73.0083257,0 74.525,0 C76.4916765,0 78.2166592,0.42499575 79.7,1.275 C81.1833407,2.12500425 82.358329,3.44165775 83.225,5.225 L78.575,7.15 C78.1416645,6.1166615 77.5791701,5.37500225 76.8875,4.925 C76.1958299,4.47499775 75.4083378,4.25 74.525,4.25 C73.791663,4.25 73.125003,4.38749863 72.525,4.6625 C71.924997,4.93750138 71.4125021,5.32916413 70.9875,5.8375 C70.5624979,6.34583588 70.2291679,6.95832975 69.9875,7.675 C69.7458321,8.39167025 69.625,9.19166225 69.625,10.075 C69.625,10.875004 69.7291656,11.6166632 69.9375,12.3 C70.1458344,12.9833368 70.4583313,13.5749975 70.875,14.075 C71.2916687,14.5750025 71.8083302,14.9624986 72.425,15.2375 C73.0416697,15.5125014 73.7583293,15.65 74.575,15.65 C75.0583357,15.65 75.5249977,15.5958339 75.975,15.4875 C76.4250023,15.3791661 76.8291649,15.2041679 77.1875,14.9625 C77.5458351,14.7208321 77.8416655,14.4083352 78.075,14.025 C78.3083345,13.6416648 78.4666663,13.1750028 78.55,12.625 L74.525,12.625 L74.525,8.825 Z M92.25,0.525 L92.25,19.375 L87.35,19.375 L87.35,0.525 L92.25,0.525 Z M103.35,4.675 L103.35,19.375 L98.45,19.375 L98.45,4.675 L94.425,4.675 L94.425,0.525 L107.375,0.525 L107.375,4.675 L103.35,4.675 Z M119.8,12.375 L117.6,6.1 L115.4,12.375 L119.8,12.375 Z M121.1,16.1 L114.1,16.1 L112.975,19.375 L107.75,19.375 L114.925,0.525 L120.275,0.525 L127.45,19.375 L122.225,19.375 L121.1,16.1 Z M134.5,0.525 L134.5,15.225 L140.375,15.225 L140.375,19.375 L129.6,19.375 L129.6,0.525 L134.5,0.525 Z M36,51.375 L39.2,32.525 L44.05,32.525 L47.825,42.575 L51.575,32.525 L56.425,32.525 L59.625,51.375 L54.75,51.375 L53.125,40.525 L48.675,51.375 L46.725,51.375 L42.5,40.525 L40.875,51.375 L36,51.375 Z M73.45,36.675 L67.625,36.675 L67.625,39.825 L73.125,39.825 L73.125,43.975 L67.625,43.975 L67.625,47.225 L73.45,47.225 L73.45,51.375 L62.725,51.375 L62.725,32.525 L73.45,32.525 L73.45,36.675 Z M81.875,47.225 L83,47.225 C83.8500042,47.225 84.60833,47.091668 85.275,46.825 C85.94167,46.558332 86.5041644,46.191669 86.9625,45.725 C87.4208356,45.258331 87.7708321,44.7041699 88.0125,44.0625 C88.2541679,43.4208301 88.375,42.7166705 88.375,41.95 C88.375,41.1999962 88.2500012,40.5000032 88,39.85 C87.7499988,39.1999967 87.3958356,38.641669 86.9375,38.175 C86.4791644,37.708331 85.91667,37.341668 85.25,37.075 C84.58333,36.808332 83.8333375,36.675 83,36.675 L81.875,36.675 L81.875,47.225 Z M76.975,32.525 L84.225,32.525 C85.5083397,32.525 86.7124944,32.7833308 87.8375,33.3 C88.9625056,33.8166692 89.9458291,34.5041624 90.7875,35.3625 C91.6291709,36.2208376 92.2916642,37.2208276 92.775,38.3625 C93.2583357,39.5041724 93.5,40.6999938 93.5,41.95 C93.5,43.1833395 93.2625024,44.3708276 92.7875,45.5125 C92.3124976,46.6541724 91.6541709,47.658329 90.8125,48.525 C89.9708291,49.391671 88.9875056,50.0833308 87.8625,50.6 C86.7374944,51.1166693 85.5250065,51.375 84.225,51.375 L76.975,51.375 L76.975,32.525 Z M101.525,32.525 L101.525,51.375 L96.625,51.375 L96.625,32.525 L101.525,32.525 Z M115.725,44.375 L113.525,38.1 L111.325,44.375 L115.725,44.375 Z M117.025,48.1 L110.025,48.1 L108.9,51.375 L103.675,51.375 L110.85,32.525 L116.2,32.525 L123.375,51.375 L118.15,51.375 L117.025,48.1 Z" id="DIGITAL-MEDIA-Copy-2" fill="#FFFFFF"></path>
                <g id="Group" transform="translate(0.000000, 21.000000)" fill-rule="nonzero">
                    <circle id="Oval-7-Copy-9" fill="#696969" cx="6" cy="5" r="4"></circle>
                    <circle id="Oval-7-Copy-8" fill="url(#linearGradient-1)" cx="4" cy="4" r="4"></circle>
                </g>
            </g>
        </g>
    </g>
</svg>