<?xml version="1.0" encoding="UTF-8"?>
<svg width="173px" height="52px" viewBox="0 0 173 52" version="1.1" xmlns="http://www.w3.org/2000/svg" xmlns:xlink="http://www.w3.org/1999/xlink">
    <!-- Generator: sketchtool 51.1 (57501) - http://www.bohemiancoding.com/sketch -->
    <title>E8C6B7A7-7956-4678-9D80-93F3BAFC5069</title>
    <desc>Created with sketchtool.</desc>
    <defs>
        <linearGradient x1="100%" y1="0%" x2="-28.9637855%" y2="128.649196%" id="linearGradient-1">
            <stop stop-color="#97E055" offset="0%"></stop>
            <stop stop-color="#80C9F6" offset="50.6773844%"></stop>
            <stop stop-color="#A37CD8" offset="100%"></stop>
        </linearGradient>
    </defs>
    <g id="Page-2" stroke="none" stroke-width="1" fill="none" fill-rule="evenodd">
        <g id="ICONS" transform="translate(-902.000000, -557.000000)" stroke="#4A4A4A">
            <g id="btn_works_motion_s" transform="translate(903.000000, 558.000000)">
                <path d="M39,18.6 L42.072,0.504 L46.728,0.504 L50.352,10.152 L53.952,0.504 L58.608,0.504 L61.68,18.6 L57,18.6 L55.44,8.184 L51.168,18.6 L49.296,18.6 L45.24,8.184 L43.68,18.6 L39,18.6 Z M68.76,9.552 C68.76,10.2720036 68.8959986,10.935997 69.168,11.544 C69.4400014,12.152003 69.8079977,12.6799978 70.272,13.128 C70.7360023,13.5760022 71.2759969,13.9239988 71.892,14.172 C72.5080031,14.4200012 73.1599966,14.544 73.848,14.544 C74.5360034,14.544 75.1879969,14.4200012 75.804,14.172 C76.4200031,13.9239988 76.9639976,13.5760022 77.436,13.128 C77.9080024,12.6799978 78.2799986,12.152003 78.552,11.544 C78.8240014,10.935997 78.96,10.2720036 78.96,9.552 C78.96,8.8319964 78.8240014,8.16800304 78.552,7.56 C78.2799986,6.95199696 77.9080024,6.42400224 77.436,5.976 C76.9639976,5.52799776 76.4200031,5.18000124 75.804,4.932 C75.1879969,4.68399876 74.5360034,4.56 73.848,4.56 C73.1599966,4.56 72.5080031,4.68399876 71.892,4.932 C71.2759969,5.18000124 70.7360023,5.52799776 70.272,5.976 C69.8079977,6.42400224 69.4400014,6.95199696 69.168,7.56 C68.8959986,8.16800304 68.76,8.8319964 68.76,9.552 Z M63.84,9.552 C63.84,8.20799328 64.0879975,6.9560058 64.584,5.796 C65.0800025,4.6359942 65.7679956,3.62400432 66.648,2.76 C67.5280044,1.89599568 68.5799939,1.22000244 69.804,0.732 C71.0280061,0.24399756 72.3759926,0 73.848,0 C75.3040073,0 76.6479938,0.24399756 77.88,0.732 C79.1120062,1.22000244 80.1719956,1.89599568 81.06,2.76 C81.9480044,3.62400432 82.6399975,4.6359942 83.136,5.796 C83.6320025,6.9560058 83.88,8.20799328 83.88,9.552 C83.88,10.8960067 83.6320025,12.1479942 83.136,13.308 C82.6399975,14.4680058 81.9480044,15.4799957 81.06,16.344 C80.1719956,17.2080043 79.1120062,17.8839976 77.88,18.372 C76.6479938,18.8600024 75.3040073,19.104 73.848,19.104 C72.3759926,19.104 71.0280061,18.8600024 69.804,18.372 C68.5799939,17.8839976 67.5280044,17.2080043 66.648,16.344 C65.7679956,15.4799957 65.0800025,14.4680058 64.584,13.308 C64.0879975,12.1479942 63.84,10.8960067 63.84,9.552 Z M93.72,4.488 L93.72,18.6 L89.016,18.6 L89.016,4.488 L85.152,4.488 L85.152,0.504 L97.584,0.504 L97.584,4.488 L93.72,4.488 Z M104.376,0.504 L104.376,18.6 L99.672,18.6 L99.672,0.504 L104.376,0.504 Z M112.272,9.552 C112.272,10.2720036 112.407999,10.935997 112.68,11.544 C112.952001,12.152003 113.319998,12.6799978 113.784,13.128 C114.248002,13.5760022 114.787997,13.9239988 115.404,14.172 C116.020003,14.4200012 116.671997,14.544 117.36,14.544 C118.048003,14.544 118.699997,14.4200012 119.316,14.172 C119.932003,13.9239988 120.475998,13.5760022 120.948,13.128 C121.420002,12.6799978 121.791999,12.152003 122.064,11.544 C122.336001,10.935997 122.472,10.2720036 122.472,9.552 C122.472,8.8319964 122.336001,8.16800304 122.064,7.56 C121.791999,6.95199696 121.420002,6.42400224 120.948,5.976 C120.475998,5.52799776 119.932003,5.18000124 119.316,4.932 C118.699997,4.68399876 118.048003,4.56 117.36,4.56 C116.671997,4.56 116.020003,4.68399876 115.404,4.932 C114.787997,5.18000124 114.248002,5.52799776 113.784,5.976 C113.319998,6.42400224 112.952001,6.95199696 112.68,7.56 C112.407999,8.16800304 112.272,8.8319964 112.272,9.552 Z M107.352,9.552 C107.352,8.20799328 107.599998,6.9560058 108.096,5.796 C108.592002,4.6359942 109.279996,3.62400432 110.16,2.76 C111.040004,1.89599568 112.091994,1.22000244 113.316,0.732 C114.540006,0.24399756 115.887993,0 117.36,0 C118.816007,0 120.159994,0.24399756 121.392,0.732 C122.624006,1.22000244 123.683996,1.89599568 124.572,2.76 C125.460004,3.62400432 126.151998,4.6359942 126.648,5.796 C127.144002,6.9560058 127.392,8.20799328 127.392,9.552 C127.392,10.8960067 127.144002,12.1479942 126.648,13.308 C126.151998,14.4680058 125.460004,15.4799957 124.572,16.344 C123.683996,17.2080043 122.624006,17.8839976 121.392,18.372 C120.159994,18.8600024 118.816007,19.104 117.36,19.104 C115.887993,19.104 114.540006,18.8600024 113.316,18.372 C112.091994,17.8839976 111.040004,17.2080043 110.16,16.344 C109.279996,15.4799957 108.592002,14.4680058 108.096,13.308 C107.599998,12.1479942 107.352,10.8960067 107.352,9.552 Z M130.368,18.6 L130.368,0.504 L135.072,0.504 L143.76,11.568 L143.76,0.504 L148.44,0.504 L148.44,18.6 L143.76,18.6 L135.072,7.536 L135.072,18.6 L130.368,18.6 Z M48.624,39.472 L57.96,39.472 C57.96,40.4320048 57.9200004,41.3039961 57.84,42.088 C57.7599996,42.8720039 57.6000012,43.5999966 57.36,44.272 C57.0239983,45.2160047 56.5680029,46.0519964 55.992,46.78 C55.4159971,47.5080036 54.7400039,48.1159976 53.964,48.604 C53.1879961,49.0920024 52.3360046,49.4639987 51.408,49.72 C50.4799954,49.9760013 49.5040051,50.104 48.48,50.104 C47.071993,50.104 45.7880058,49.8720023 44.628,49.408 C43.4679942,48.9439977 42.4720042,48.2920042 41.64,47.452 C40.8079958,46.6119958 40.1600023,45.6040059 39.696,44.428 C39.2319977,43.2519941 39,41.9520071 39,40.528 C39,39.119993 39.2279977,37.8280059 39.684,36.652 C40.1400023,35.4759941 40.7879958,34.4720042 41.628,33.64 C42.4680042,32.8079958 43.4799941,32.1600023 44.664,31.696 C45.8480059,31.2319977 47.1679927,31 48.624,31 C50.5120094,31 52.1679929,31.4079959 53.592,32.224 C55.0160071,33.0400041 56.1439958,34.3039914 56.976,36.016 L52.512,37.864 C52.0959979,36.871995 51.5560033,36.1600022 50.892,35.728 C50.2279967,35.2959978 49.4720042,35.08 48.624,35.08 C47.9199965,35.08 47.2800029,35.2119987 46.704,35.476 C46.1279971,35.7400013 45.636002,36.1159976 45.228,36.604 C44.819998,37.0920024 44.5000012,37.6799966 44.268,38.368 C44.0359988,39.0560034 43.92,39.8239958 43.92,40.672 C43.92,41.4400038 44.019999,42.1519967 44.22,42.808 C44.420001,43.4640033 44.719998,44.0319976 45.12,44.512 C45.520002,44.9920024 46.015997,45.3639987 46.608,45.628 C47.200003,45.8920013 47.8879961,46.024 48.672,46.024 C49.1360023,46.024 49.5839978,45.9720005 50.016,45.868 C50.4480022,45.7639995 50.8359983,45.5960012 51.18,45.364 C51.5240017,45.1319988 51.8079989,44.8320018 52.032,44.464 C52.2560011,44.0959982 52.4079996,43.6480026 52.488,43.12 L48.624,43.12 L48.624,39.472 Z M65.64,39.592 L66.528,39.592 C67.4560046,39.592 68.1679975,39.4000019 68.664,39.016 C69.1600025,38.6319981 69.408,38.0800036 69.408,37.36 C69.408,36.6399964 69.1600025,36.0880019 68.664,35.704 C68.1679975,35.3199981 67.4560046,35.128 66.528,35.128 L65.64,35.128 L65.64,39.592 Z M75.984,49.6 L70.128,49.6 L65.64,42.64 L65.64,49.6 L60.936,49.6 L60.936,31.504 L68.256,31.504 C69.264005,31.504 70.1439962,31.6519985 70.896,31.948 C71.6480038,32.2440015 72.2679976,32.6479974 72.756,33.16 C73.2440024,33.6720026 73.6119988,34.2639966 73.86,34.936 C74.1080012,35.6080034 74.232,36.3279962 74.232,37.096 C74.232,38.4720069 73.9000033,39.5879957 73.236,40.444 C72.5719967,41.3000043 71.5920065,41.8799985 70.296,42.184 L75.984,49.6 Z M87.792,42.88 L85.68,36.856 L83.568,42.88 L87.792,42.88 Z M89.04,46.456 L82.32,46.456 L81.24,49.6 L76.224,49.6 L83.112,31.504 L88.248,31.504 L95.136,49.6 L90.12,49.6 L89.04,46.456 Z M101.904,39.808 L103.464,39.808 C105.192009,39.808 106.056,39.0560075 106.056,37.552 C106.056,36.0479925 105.192009,35.296 103.464,35.296 L101.904,35.296 L101.904,39.808 Z M101.904,49.6 L97.2,49.6 L97.2,31.504 L104.688,31.504 C106.72001,31.504 108.275995,32.0319947 109.356,33.088 C110.436005,34.1440053 110.976,35.6319904 110.976,37.552 C110.976,39.4720096 110.436005,40.9599947 109.356,42.016 C108.275995,43.0720053 106.72001,43.6 104.688,43.6 L101.904,43.6 L101.904,49.6 Z M118.176,38.488 L124.968,38.488 L124.968,31.504 L129.672,31.504 L129.672,49.6 L124.968,49.6 L124.968,42.136 L118.176,42.136 L118.176,49.6 L113.472,49.6 L113.472,31.504 L118.176,31.504 L118.176,38.488 Z M138.168,31.504 L138.168,49.6 L133.464,49.6 L133.464,31.504 L138.168,31.504 Z M154.992,37.552 C153.903995,36.2239934 152.560008,35.56 150.96,35.56 C150.255996,35.56 149.604003,35.6879987 149.004,35.944 C148.403997,36.2000013 147.888002,36.5479978 147.456,36.988 C147.023998,37.4280022 146.684001,37.951997 146.436,38.56 C146.187999,39.168003 146.064,39.8239965 146.064,40.528 C146.064,41.2480036 146.187999,41.911997 146.436,42.52 C146.684001,43.128003 147.027998,43.6559978 147.468,44.104 C147.908002,44.5520022 148.423997,44.9039987 149.016,45.16 C149.608003,45.4160013 150.247997,45.544 150.936,45.544 C152.440008,45.544 153.791994,44.9040064 154.992,43.624 L154.992,49.192 L154.512,49.36 C153.791996,49.6160013 153.120003,49.8039994 152.496,49.924 C151.871997,50.0440006 151.256003,50.104 150.648,50.104 C149.399994,50.104 148.204006,49.8680024 147.06,49.396 C145.915994,48.9239976 144.908004,48.2600043 144.036,47.404 C143.163996,46.5479957 142.464003,45.5320059 141.936,44.356 C141.407997,43.1799941 141.144,41.896007 141.144,40.504 C141.144,39.111993 141.403997,37.8360058 141.924,36.676 C142.444003,35.5159942 143.139996,34.5160042 144.012,33.676 C144.884004,32.8359958 145.895994,32.1800024 147.048,31.708 C148.200006,31.2359976 149.407994,31 150.672,31 C151.392004,31 152.099997,31.0759992 152.796,31.228 C153.492003,31.3800008 154.223996,31.6159984 154.992,31.936 L154.992,37.552 Z M167.904,36.136 C167.391997,35.7199979 166.880003,35.412001 166.368,35.212 C165.855997,35.011999 165.360002,34.912 164.88,34.912 C164.271997,34.912 163.776002,35.0559986 163.392,35.344 C163.007998,35.6320014 162.816,36.0079977 162.816,36.472 C162.816,36.7920016 162.911999,37.055999 163.104,37.264 C163.296001,37.472001 163.547998,37.6519992 163.86,37.804 C164.172002,37.9560008 164.523998,38.0879994 164.916,38.2 C165.308002,38.3120006 165.695998,38.4319994 166.08,38.56 C167.616008,39.0720026 168.739996,39.7559957 169.452,40.612 C170.164004,41.4680043 170.52,42.5839931 170.52,43.96 C170.52,44.8880046 170.364002,45.7279962 170.052,46.48 C169.739998,47.2320038 169.284003,47.8759973 168.684,48.412 C168.083997,48.9480027 167.348004,49.3639985 166.476,49.66 C165.603996,49.9560015 164.616006,50.104 163.512,50.104 C161.223989,50.104 159.10401,49.4240068 157.152,48.064 L159.168,44.272 C159.872004,44.8960031 160.567997,45.3599985 161.256,45.664 C161.944003,45.9680015 162.623997,46.12 163.296,46.12 C164.064004,46.12 164.635998,45.9440018 165.012,45.592 C165.388002,45.2399982 165.576,44.8400022 165.576,44.392 C165.576,44.1199986 165.528,43.884001 165.432,43.684 C165.336,43.483999 165.176001,43.3000008 164.952,43.132 C164.727999,42.9639992 164.436002,42.8080007 164.076,42.664 C163.715998,42.5199993 163.280003,42.3600009 162.768,42.184 C162.159997,41.991999 161.564003,41.7800012 160.98,41.548 C160.395997,41.3159988 159.876002,41.0080019 159.42,40.624 C158.963998,40.2399981 158.596001,39.7560029 158.316,39.172 C158.035999,38.5879971 157.896,37.8480045 157.896,36.952 C157.896,36.0559955 158.043999,35.2440036 158.34,34.516 C158.636001,33.7879964 159.051997,33.1640026 159.588,32.644 C160.124003,32.1239974 160.779996,31.7200014 161.556,31.432 C162.332004,31.1439986 163.199995,31 164.16,31 C165.056004,31 165.991995,31.1239988 166.968,31.372 C167.944005,31.6200012 168.879996,31.9839976 169.776,32.464 L167.904,36.136 Z" id="MOTION-GRAPHICS-Copy" fill="url(#linearGradient-1)"></path>
                <path d="M35,18.6 L38.072,0.504 L42.728,0.504 L46.352,10.152 L49.952,0.504 L54.608,0.504 L57.68,18.6 L53,18.6 L51.44,8.184 L47.168,18.6 L45.296,18.6 L41.24,8.184 L39.68,18.6 L35,18.6 Z M64.76,9.552 C64.76,10.2720036 64.8959986,10.935997 65.168,11.544 C65.4400014,12.152003 65.8079977,12.6799978 66.272,13.128 C66.7360023,13.5760022 67.2759969,13.9239988 67.892,14.172 C68.5080031,14.4200012 69.1599966,14.544 69.848,14.544 C70.5360034,14.544 71.1879969,14.4200012 71.804,14.172 C72.4200031,13.9239988 72.9639976,13.5760022 73.436,13.128 C73.9080024,12.6799978 74.2799986,12.152003 74.552,11.544 C74.8240014,10.935997 74.96,10.2720036 74.96,9.552 C74.96,8.8319964 74.8240014,8.16800304 74.552,7.56 C74.2799986,6.95199696 73.9080024,6.42400224 73.436,5.976 C72.9639976,5.52799776 72.4200031,5.18000124 71.804,4.932 C71.1879969,4.68399876 70.5360034,4.56 69.848,4.56 C69.1599966,4.56 68.5080031,4.68399876 67.892,4.932 C67.2759969,5.18000124 66.7360023,5.52799776 66.272,5.976 C65.8079977,6.42400224 65.4400014,6.95199696 65.168,7.56 C64.8959986,8.16800304 64.76,8.8319964 64.76,9.552 Z M59.84,9.552 C59.84,8.20799328 60.0879975,6.9560058 60.584,5.796 C61.0800025,4.6359942 61.7679956,3.62400432 62.648,2.76 C63.5280044,1.89599568 64.5799939,1.22000244 65.804,0.732 C67.0280061,0.24399756 68.3759926,0 69.848,0 C71.3040073,0 72.6479938,0.24399756 73.88,0.732 C75.1120062,1.22000244 76.1719956,1.89599568 77.06,2.76 C77.9480044,3.62400432 78.6399975,4.6359942 79.136,5.796 C79.6320025,6.9560058 79.88,8.20799328 79.88,9.552 C79.88,10.8960067 79.6320025,12.1479942 79.136,13.308 C78.6399975,14.4680058 77.9480044,15.4799957 77.06,16.344 C76.1719956,17.2080043 75.1120062,17.8839976 73.88,18.372 C72.6479938,18.8600024 71.3040073,19.104 69.848,19.104 C68.3759926,19.104 67.0280061,18.8600024 65.804,18.372 C64.5799939,17.8839976 63.5280044,17.2080043 62.648,16.344 C61.7679956,15.4799957 61.0800025,14.4680058 60.584,13.308 C60.0879975,12.1479942 59.84,10.8960067 59.84,9.552 Z M89.72,4.488 L89.72,18.6 L85.016,18.6 L85.016,4.488 L81.152,4.488 L81.152,0.504 L93.584,0.504 L93.584,4.488 L89.72,4.488 Z M100.376,0.504 L100.376,18.6 L95.672,18.6 L95.672,0.504 L100.376,0.504 Z M108.272,9.552 C108.272,10.2720036 108.407999,10.935997 108.68,11.544 C108.952001,12.152003 109.319998,12.6799978 109.784,13.128 C110.248002,13.5760022 110.787997,13.9239988 111.404,14.172 C112.020003,14.4200012 112.671997,14.544 113.36,14.544 C114.048003,14.544 114.699997,14.4200012 115.316,14.172 C115.932003,13.9239988 116.475998,13.5760022 116.948,13.128 C117.420002,12.6799978 117.791999,12.152003 118.064,11.544 C118.336001,10.935997 118.472,10.2720036 118.472,9.552 C118.472,8.8319964 118.336001,8.16800304 118.064,7.56 C117.791999,6.95199696 117.420002,6.42400224 116.948,5.976 C116.475998,5.52799776 115.932003,5.18000124 115.316,4.932 C114.699997,4.68399876 114.048003,4.56 113.36,4.56 C112.671997,4.56 112.020003,4.68399876 111.404,4.932 C110.787997,5.18000124 110.248002,5.52799776 109.784,5.976 C109.319998,6.42400224 108.952001,6.95199696 108.68,7.56 C108.407999,8.16800304 108.272,8.8319964 108.272,9.552 Z M103.352,9.552 C103.352,8.20799328 103.599998,6.9560058 104.096,5.796 C104.592002,4.6359942 105.279996,3.62400432 106.16,2.76 C107.040004,1.89599568 108.091994,1.22000244 109.316,0.732 C110.540006,0.24399756 111.887993,0 113.36,0 C114.816007,0 116.159994,0.24399756 117.392,0.732 C118.624006,1.22000244 119.683996,1.89599568 120.572,2.76 C121.460004,3.62400432 122.151998,4.6359942 122.648,5.796 C123.144002,6.9560058 123.392,8.20799328 123.392,9.552 C123.392,10.8960067 123.144002,12.1479942 122.648,13.308 C122.151998,14.4680058 121.460004,15.4799957 120.572,16.344 C119.683996,17.2080043 118.624006,17.8839976 117.392,18.372 C116.159994,18.8600024 114.816007,19.104 113.36,19.104 C111.887993,19.104 110.540006,18.8600024 109.316,18.372 C108.091994,17.8839976 107.040004,17.2080043 106.16,16.344 C105.279996,15.4799957 104.592002,14.4680058 104.096,13.308 C103.599998,12.1479942 103.352,10.8960067 103.352,9.552 Z M126.368,18.6 L126.368,0.504 L131.072,0.504 L139.76,11.568 L139.76,0.504 L144.44,0.504 L144.44,18.6 L139.76,18.6 L131.072,7.536 L131.072,18.6 L126.368,18.6 Z M44.624,39.472 L53.96,39.472 C53.96,40.4320048 53.9200004,41.3039961 53.84,42.088 C53.7599996,42.8720039 53.6000012,43.5999966 53.36,44.272 C53.0239983,45.2160047 52.5680029,46.0519964 51.992,46.78 C51.4159971,47.5080036 50.7400039,48.1159976 49.964,48.604 C49.1879961,49.0920024 48.3360046,49.4639987 47.408,49.72 C46.4799954,49.9760013 45.5040051,50.104 44.48,50.104 C43.071993,50.104 41.7880058,49.8720023 40.628,49.408 C39.4679942,48.9439977 38.4720042,48.2920042 37.64,47.452 C36.8079958,46.6119958 36.1600023,45.6040059 35.696,44.428 C35.2319977,43.2519941 35,41.9520071 35,40.528 C35,39.119993 35.2279977,37.8280059 35.684,36.652 C36.1400023,35.4759941 36.7879958,34.4720042 37.628,33.64 C38.4680042,32.8079958 39.4799941,32.1600023 40.664,31.696 C41.8480059,31.2319977 43.1679927,31 44.624,31 C46.5120094,31 48.1679929,31.4079959 49.592,32.224 C51.0160071,33.0400041 52.1439958,34.3039914 52.976,36.016 L48.512,37.864 C48.0959979,36.871995 47.5560033,36.1600022 46.892,35.728 C46.2279967,35.2959978 45.4720042,35.08 44.624,35.08 C43.9199965,35.08 43.2800029,35.2119987 42.704,35.476 C42.1279971,35.7400013 41.636002,36.1159976 41.228,36.604 C40.819998,37.0920024 40.5000012,37.6799966 40.268,38.368 C40.0359988,39.0560034 39.92,39.8239958 39.92,40.672 C39.92,41.4400038 40.019999,42.1519967 40.22,42.808 C40.420001,43.4640033 40.719998,44.0319976 41.12,44.512 C41.520002,44.9920024 42.015997,45.3639987 42.608,45.628 C43.200003,45.8920013 43.8879961,46.024 44.672,46.024 C45.1360023,46.024 45.5839978,45.9720005 46.016,45.868 C46.4480022,45.7639995 46.8359983,45.5960012 47.18,45.364 C47.5240017,45.1319988 47.8079989,44.8320018 48.032,44.464 C48.2560011,44.0959982 48.4079996,43.6480026 48.488,43.12 L44.624,43.12 L44.624,39.472 Z M61.64,39.592 L62.528,39.592 C63.4560046,39.592 64.1679975,39.4000019 64.664,39.016 C65.1600025,38.6319981 65.408,38.0800036 65.408,37.36 C65.408,36.6399964 65.1600025,36.0880019 64.664,35.704 C64.1679975,35.3199981 63.4560046,35.128 62.528,35.128 L61.64,35.128 L61.64,39.592 Z M71.984,49.6 L66.128,49.6 L61.64,42.64 L61.64,49.6 L56.936,49.6 L56.936,31.504 L64.256,31.504 C65.264005,31.504 66.1439962,31.6519985 66.896,31.948 C67.6480038,32.2440015 68.2679976,32.6479974 68.756,33.16 C69.2440024,33.6720026 69.6119988,34.2639966 69.86,34.936 C70.1080012,35.6080034 70.232,36.3279962 70.232,37.096 C70.232,38.4720069 69.9000033,39.5879957 69.236,40.444 C68.5719967,41.3000043 67.5920065,41.8799985 66.296,42.184 L71.984,49.6 Z M83.792,42.88 L81.68,36.856 L79.568,42.88 L83.792,42.88 Z M85.04,46.456 L78.32,46.456 L77.24,49.6 L72.224,49.6 L79.112,31.504 L84.248,31.504 L91.136,49.6 L86.12,49.6 L85.04,46.456 Z M97.904,39.808 L99.464,39.808 C101.192009,39.808 102.056,39.0560075 102.056,37.552 C102.056,36.0479925 101.192009,35.296 99.464,35.296 L97.904,35.296 L97.904,39.808 Z M97.904,49.6 L93.2,49.6 L93.2,31.504 L100.688,31.504 C102.72001,31.504 104.275995,32.0319947 105.356,33.088 C106.436005,34.1440053 106.976,35.6319904 106.976,37.552 C106.976,39.4720096 106.436005,40.9599947 105.356,42.016 C104.275995,43.0720053 102.72001,43.6 100.688,43.6 L97.904,43.6 L97.904,49.6 Z M114.176,38.488 L120.968,38.488 L120.968,31.504 L125.672,31.504 L125.672,49.6 L120.968,49.6 L120.968,42.136 L114.176,42.136 L114.176,49.6 L109.472,49.6 L109.472,31.504 L114.176,31.504 L114.176,38.488 Z M134.168,31.504 L134.168,49.6 L129.464,49.6 L129.464,31.504 L134.168,31.504 Z M150.992,37.552 C149.903995,36.2239934 148.560008,35.56 146.96,35.56 C146.255996,35.56 145.604003,35.6879987 145.004,35.944 C144.403997,36.2000013 143.888002,36.5479978 143.456,36.988 C143.023998,37.4280022 142.684001,37.951997 142.436,38.56 C142.187999,39.168003 142.064,39.8239965 142.064,40.528 C142.064,41.2480036 142.187999,41.911997 142.436,42.52 C142.684001,43.128003 143.027998,43.6559978 143.468,44.104 C143.908002,44.5520022 144.423997,44.9039987 145.016,45.16 C145.608003,45.4160013 146.247997,45.544 146.936,45.544 C148.440008,45.544 149.791994,44.9040064 150.992,43.624 L150.992,49.192 L150.512,49.36 C149.791996,49.6160013 149.120003,49.8039994 148.496,49.924 C147.871997,50.0440006 147.256003,50.104 146.648,50.104 C145.399994,50.104 144.204006,49.8680024 143.06,49.396 C141.915994,48.9239976 140.908004,48.2600043 140.036,47.404 C139.163996,46.5479957 138.464003,45.5320059 137.936,44.356 C137.407997,43.1799941 137.144,41.896007 137.144,40.504 C137.144,39.111993 137.403997,37.8360058 137.924,36.676 C138.444003,35.5159942 139.139996,34.5160042 140.012,33.676 C140.884004,32.8359958 141.895994,32.1800024 143.048,31.708 C144.200006,31.2359976 145.407994,31 146.672,31 C147.392004,31 148.099997,31.0759992 148.796,31.228 C149.492003,31.3800008 150.223996,31.6159984 150.992,31.936 L150.992,37.552 Z M163.904,36.136 C163.391997,35.7199979 162.880003,35.412001 162.368,35.212 C161.855997,35.011999 161.360002,34.912 160.88,34.912 C160.271997,34.912 159.776002,35.0559986 159.392,35.344 C159.007998,35.6320014 158.816,36.0079977 158.816,36.472 C158.816,36.7920016 158.911999,37.055999 159.104,37.264 C159.296001,37.472001 159.547998,37.6519992 159.86,37.804 C160.172002,37.9560008 160.523998,38.0879994 160.916,38.2 C161.308002,38.3120006 161.695998,38.4319994 162.08,38.56 C163.616008,39.0720026 164.739996,39.7559957 165.452,40.612 C166.164004,41.4680043 166.52,42.5839931 166.52,43.96 C166.52,44.8880046 166.364002,45.7279962 166.052,46.48 C165.739998,47.2320038 165.284003,47.8759973 164.684,48.412 C164.083997,48.9480027 163.348004,49.3639985 162.476,49.66 C161.603996,49.9560015 160.616006,50.104 159.512,50.104 C157.223989,50.104 155.10401,49.4240068 153.152,48.064 L155.168,44.272 C155.872004,44.8960031 156.567997,45.3599985 157.256,45.664 C157.944003,45.9680015 158.623997,46.12 159.296,46.12 C160.064004,46.12 160.635998,45.9440018 161.012,45.592 C161.388002,45.2399982 161.576,44.8400022 161.576,44.392 C161.576,44.1199986 161.528,43.884001 161.432,43.684 C161.336,43.483999 161.176001,43.3000008 160.952,43.132 C160.727999,42.9639992 160.436002,42.8080007 160.076,42.664 C159.715998,42.5199993 159.280003,42.3600009 158.768,42.184 C158.159997,41.991999 157.564003,41.7800012 156.98,41.548 C156.395997,41.3159988 155.876002,41.0080019 155.42,40.624 C154.963998,40.2399981 154.596001,39.7560029 154.316,39.172 C154.035999,38.5879971 153.896,37.8480045 153.896,36.952 C153.896,36.0559955 154.043999,35.2440036 154.34,34.516 C154.636001,33.7879964 155.051997,33.1640026 155.588,32.644 C156.124003,32.1239974 156.779996,31.7200014 157.556,31.432 C158.332004,31.1439986 159.199995,31 160.16,31 C161.056004,31 161.991995,31.1239988 162.968,31.372 C163.944005,31.6200012 164.879996,31.9839976 165.776,32.464 L163.904,36.136 Z" id="MOTION-GRAPHICS" fill="#FFFFFF"></path>
                <g id="Group-2" transform="translate(0.000000, 21.000000)" fill-rule="nonzero">
                    <circle id="Oval-7-Copy-5" fill="#696969" cx="6" cy="5" r="4"></circle>
                    <circle id="Oval-7-Copy-4" fill="url(#linearGradient-1)" cx="4" cy="4" r="4"></circle>
                </g>
            </g>
        </g>
    </g>
</svg>