<?xml version="1.0" encoding="UTF-8"?>
<svg width="137px" height="52px" viewBox="0 0 137 52" version="1.1" xmlns="http://www.w3.org/2000/svg" xmlns:xlink="http://www.w3.org/1999/xlink">
    <!-- Generator: sketchtool 51.1 (57501) - http://www.bohemiancoding.com/sketch -->
    <title>AB523198-E513-428B-A0E8-1B0A95B550DB</title>
    <desc>Created with sketchtool.</desc>
    <defs></defs>
    <g id="Page-2" stroke="none" stroke-width="1" fill="none" fill-rule="evenodd">
        <g id="ICONS" transform="translate(-619.000000, -557.000000)">
            <g id="btn_works_motion_n" transform="translate(620.000000, 558.000000)">
                <path d="M4,18.6 L7.072,0.504 L11.728,0.504 L15.352,10.152 L18.952,0.504 L23.608,0.504 L26.68,18.6 L22,18.6 L20.44,8.184 L16.168,18.6 L14.296,18.6 L10.24,8.184 L8.68,18.6 L4,18.6 Z M33.76,9.552 C33.76,10.2720036 33.8959986,10.935997 34.168,11.544 C34.4400014,12.152003 34.8079977,12.6799978 35.272,13.128 C35.7360023,13.5760022 36.2759969,13.9239988 36.892,14.172 C37.5080031,14.4200012 38.1599966,14.544 38.848,14.544 C39.5360034,14.544 40.1879969,14.4200012 40.804,14.172 C41.4200031,13.9239988 41.9639976,13.5760022 42.436,13.128 C42.9080024,12.6799978 43.2799986,12.152003 43.552,11.544 C43.8240014,10.935997 43.96,10.2720036 43.96,9.552 C43.96,8.8319964 43.8240014,8.16800304 43.552,7.56 C43.2799986,6.95199696 42.9080024,6.42400224 42.436,5.976 C41.9639976,5.52799776 41.4200031,5.18000124 40.804,4.932 C40.1879969,4.68399876 39.5360034,4.56 38.848,4.56 C38.1599966,4.56 37.5080031,4.68399876 36.892,4.932 C36.2759969,5.18000124 35.7360023,5.52799776 35.272,5.976 C34.8079977,6.42400224 34.4400014,6.95199696 34.168,7.56 C33.8959986,8.16800304 33.76,8.8319964 33.76,9.552 Z M28.84,9.552 C28.84,8.20799328 29.0879975,6.9560058 29.584,5.796 C30.0800025,4.6359942 30.7679956,3.62400432 31.648,2.76 C32.5280044,1.89599568 33.5799939,1.22000244 34.804,0.732 C36.0280061,0.24399756 37.3759926,0 38.848,0 C40.3040073,0 41.6479938,0.24399756 42.88,0.732 C44.1120062,1.22000244 45.1719956,1.89599568 46.06,2.76 C46.9480044,3.62400432 47.6399975,4.6359942 48.136,5.796 C48.6320025,6.9560058 48.88,8.20799328 48.88,9.552 C48.88,10.8960067 48.6320025,12.1479942 48.136,13.308 C47.6399975,14.4680058 46.9480044,15.4799957 46.06,16.344 C45.1719956,17.2080043 44.1120062,17.8839976 42.88,18.372 C41.6479938,18.8600024 40.3040073,19.104 38.848,19.104 C37.3759926,19.104 36.0280061,18.8600024 34.804,18.372 C33.5799939,17.8839976 32.5280044,17.2080043 31.648,16.344 C30.7679956,15.4799957 30.0800025,14.4680058 29.584,13.308 C29.0879975,12.1479942 28.84,10.8960067 28.84,9.552 Z M58.72,4.488 L58.72,18.6 L54.016,18.6 L54.016,4.488 L50.152,4.488 L50.152,0.504 L62.584,0.504 L62.584,4.488 L58.72,4.488 Z M69.376,0.504 L69.376,18.6 L64.672,18.6 L64.672,0.504 L69.376,0.504 Z M77.272,9.552 C77.272,10.2720036 77.4079986,10.935997 77.68,11.544 C77.9520014,12.152003 78.3199977,12.6799978 78.784,13.128 C79.2480023,13.5760022 79.7879969,13.9239988 80.404,14.172 C81.0200031,14.4200012 81.6719966,14.544 82.36,14.544 C83.0480034,14.544 83.6999969,14.4200012 84.316,14.172 C84.9320031,13.9239988 85.4759976,13.5760022 85.948,13.128 C86.4200024,12.6799978 86.7919986,12.152003 87.064,11.544 C87.3360014,10.935997 87.472,10.2720036 87.472,9.552 C87.472,8.8319964 87.3360014,8.16800304 87.064,7.56 C86.7919986,6.95199696 86.4200024,6.42400224 85.948,5.976 C85.4759976,5.52799776 84.9320031,5.18000124 84.316,4.932 C83.6999969,4.68399876 83.0480034,4.56 82.36,4.56 C81.6719966,4.56 81.0200031,4.68399876 80.404,4.932 C79.7879969,5.18000124 79.2480023,5.52799776 78.784,5.976 C78.3199977,6.42400224 77.9520014,6.95199696 77.68,7.56 C77.4079986,8.16800304 77.272,8.8319964 77.272,9.552 Z M72.352,9.552 C72.352,8.20799328 72.5999975,6.9560058 73.096,5.796 C73.5920025,4.6359942 74.2799956,3.62400432 75.16,2.76 C76.0400044,1.89599568 77.0919939,1.22000244 78.316,0.732 C79.5400061,0.24399756 80.8879926,0 82.36,0 C83.8160073,0 85.1599938,0.24399756 86.392,0.732 C87.6240062,1.22000244 88.6839956,1.89599568 89.572,2.76 C90.4600044,3.62400432 91.1519975,4.6359942 91.648,5.796 C92.1440025,6.9560058 92.392,8.20799328 92.392,9.552 C92.392,10.8960067 92.1440025,12.1479942 91.648,13.308 C91.1519975,14.4680058 90.4600044,15.4799957 89.572,16.344 C88.6839956,17.2080043 87.6240062,17.8839976 86.392,18.372 C85.1599938,18.8600024 83.8160073,19.104 82.36,19.104 C80.8879926,19.104 79.5400061,18.8600024 78.316,18.372 C77.0919939,17.8839976 76.0400044,17.2080043 75.16,16.344 C74.2799956,15.4799957 73.5920025,14.4680058 73.096,13.308 C72.5999975,12.1479942 72.352,10.8960067 72.352,9.552 Z M95.368,18.6 L95.368,0.504 L100.072,0.504 L108.76,11.568 L108.76,0.504 L113.44,0.504 L113.44,18.6 L108.76,18.6 L100.072,7.536 L100.072,18.6 L95.368,18.6 Z M13.624,39.472 L22.96,39.472 C22.96,40.4320048 22.9200004,41.3039961 22.84,42.088 C22.7599996,42.8720039 22.6000012,43.5999966 22.36,44.272 C22.0239983,45.2160047 21.5680029,46.0519964 20.992,46.78 C20.4159971,47.5080036 19.7400039,48.1159976 18.964,48.604 C18.1879961,49.0920024 17.3360046,49.4639987 16.408,49.72 C15.4799954,49.9760013 14.5040051,50.104 13.48,50.104 C12.071993,50.104 10.7880058,49.8720023 9.628,49.408 C8.4679942,48.9439977 7.47200416,48.2920042 6.64,47.452 C5.80799584,46.6119958 5.16000232,45.6040059 4.696,44.428 C4.23199768,43.2519941 4,41.9520071 4,40.528 C4,39.119993 4.22799772,37.8280059 4.684,36.652 C5.14000228,35.4759941 5.7879958,34.4720042 6.628,33.64 C7.4680042,32.8079958 8.47999408,32.1600023 9.664,31.696 C10.8480059,31.2319977 12.1679927,31 13.624,31 C15.5120094,31 17.1679929,31.4079959 18.592,32.224 C20.0160071,33.0400041 21.1439958,34.3039914 21.976,36.016 L17.512,37.864 C17.0959979,36.871995 16.5560033,36.1600022 15.892,35.728 C15.2279967,35.2959978 14.4720042,35.08 13.624,35.08 C12.9199965,35.08 12.2800029,35.2119987 11.704,35.476 C11.1279971,35.7400013 10.636002,36.1159976 10.228,36.604 C9.81999796,37.0920024 9.50000116,37.6799966 9.268,38.368 C9.03599884,39.0560034 8.92,39.8239958 8.92,40.672 C8.92,41.4400038 9.019999,42.1519967 9.22,42.808 C9.420001,43.4640033 9.719998,44.0319976 10.12,44.512 C10.520002,44.9920024 11.015997,45.3639987 11.608,45.628 C12.200003,45.8920013 12.8879961,46.024 13.672,46.024 C14.1360023,46.024 14.5839978,45.9720005 15.016,45.868 C15.4480022,45.7639995 15.8359983,45.5960012 16.18,45.364 C16.5240017,45.1319988 16.8079989,44.8320018 17.032,44.464 C17.2560011,44.0959982 17.4079996,43.6480026 17.488,43.12 L13.624,43.12 L13.624,39.472 Z M30.64,39.592 L31.528,39.592 C32.4560046,39.592 33.1679975,39.4000019 33.664,39.016 C34.1600025,38.6319981 34.408,38.0800036 34.408,37.36 C34.408,36.6399964 34.1600025,36.0880019 33.664,35.704 C33.1679975,35.3199981 32.4560046,35.128 31.528,35.128 L30.64,35.128 L30.64,39.592 Z M40.984,49.6 L35.128,49.6 L30.64,42.64 L30.64,49.6 L25.936,49.6 L25.936,31.504 L33.256,31.504 C34.264005,31.504 35.1439962,31.6519985 35.896,31.948 C36.6480038,32.2440015 37.2679976,32.6479974 37.756,33.16 C38.2440024,33.6720026 38.6119988,34.2639966 38.86,34.936 C39.1080012,35.6080034 39.232,36.3279962 39.232,37.096 C39.232,38.4720069 38.9000033,39.5879957 38.236,40.444 C37.5719967,41.3000043 36.5920065,41.8799985 35.296,42.184 L40.984,49.6 Z M52.792,42.88 L50.68,36.856 L48.568,42.88 L52.792,42.88 Z M54.04,46.456 L47.32,46.456 L46.24,49.6 L41.224,49.6 L48.112,31.504 L53.248,31.504 L60.136,49.6 L55.12,49.6 L54.04,46.456 Z M66.904,39.808 L68.464,39.808 C70.1920086,39.808 71.056,39.0560075 71.056,37.552 C71.056,36.0479925 70.1920086,35.296 68.464,35.296 L66.904,35.296 L66.904,39.808 Z M66.904,49.6 L62.2,49.6 L62.2,31.504 L69.688,31.504 C71.7200102,31.504 73.2759946,32.0319947 74.356,33.088 C75.4360054,34.1440053 75.976,35.6319904 75.976,37.552 C75.976,39.4720096 75.4360054,40.9599947 74.356,42.016 C73.2759946,43.0720053 71.7200102,43.6 69.688,43.6 L66.904,43.6 L66.904,49.6 Z M83.176,38.488 L89.968,38.488 L89.968,31.504 L94.672,31.504 L94.672,49.6 L89.968,49.6 L89.968,42.136 L83.176,42.136 L83.176,49.6 L78.472,49.6 L78.472,31.504 L83.176,31.504 L83.176,38.488 Z M103.168,31.504 L103.168,49.6 L98.464,49.6 L98.464,31.504 L103.168,31.504 Z M119.992,37.552 C118.903995,36.2239934 117.560008,35.56 115.96,35.56 C115.255996,35.56 114.604003,35.6879987 114.004,35.944 C113.403997,36.2000013 112.888002,36.5479978 112.456,36.988 C112.023998,37.4280022 111.684001,37.951997 111.436,38.56 C111.187999,39.168003 111.064,39.8239965 111.064,40.528 C111.064,41.2480036 111.187999,41.911997 111.436,42.52 C111.684001,43.128003 112.027998,43.6559978 112.468,44.104 C112.908002,44.5520022 113.423997,44.9039987 114.016,45.16 C114.608003,45.4160013 115.247997,45.544 115.936,45.544 C117.440008,45.544 118.791994,44.9040064 119.992,43.624 L119.992,49.192 L119.512,49.36 C118.791996,49.6160013 118.120003,49.8039994 117.496,49.924 C116.871997,50.0440006 116.256003,50.104 115.648,50.104 C114.399994,50.104 113.204006,49.8680024 112.06,49.396 C110.915994,48.9239976 109.908004,48.2600043 109.036,47.404 C108.163996,46.5479957 107.464003,45.5320059 106.936,44.356 C106.407997,43.1799941 106.144,41.896007 106.144,40.504 C106.144,39.111993 106.403997,37.8360058 106.924,36.676 C107.444003,35.5159942 108.139996,34.5160042 109.012,33.676 C109.884004,32.8359958 110.895994,32.1800024 112.048,31.708 C113.200006,31.2359976 114.407994,31 115.672,31 C116.392004,31 117.099997,31.0759992 117.796,31.228 C118.492003,31.3800008 119.223996,31.6159984 119.992,31.936 L119.992,37.552 Z M132.904,36.136 C132.391997,35.7199979 131.880003,35.412001 131.368,35.212 C130.855997,35.011999 130.360002,34.912 129.88,34.912 C129.271997,34.912 128.776002,35.0559986 128.392,35.344 C128.007998,35.6320014 127.816,36.0079977 127.816,36.472 C127.816,36.7920016 127.911999,37.055999 128.104,37.264 C128.296001,37.472001 128.547998,37.6519992 128.86,37.804 C129.172002,37.9560008 129.523998,38.0879994 129.916,38.2 C130.308002,38.3120006 130.695998,38.4319994 131.08,38.56 C132.616008,39.0720026 133.739996,39.7559957 134.452,40.612 C135.164004,41.4680043 135.52,42.5839931 135.52,43.96 C135.52,44.8880046 135.364002,45.7279962 135.052,46.48 C134.739998,47.2320038 134.284003,47.8759973 133.684,48.412 C133.083997,48.9480027 132.348004,49.3639985 131.476,49.66 C130.603996,49.9560015 129.616006,50.104 128.512,50.104 C126.223989,50.104 124.10401,49.4240068 122.152,48.064 L124.168,44.272 C124.872004,44.8960031 125.567997,45.3599985 126.256,45.664 C126.944003,45.9680015 127.623997,46.12 128.296,46.12 C129.064004,46.12 129.635998,45.9440018 130.012,45.592 C130.388002,45.2399982 130.576,44.8400022 130.576,44.392 C130.576,44.1199986 130.528,43.884001 130.432,43.684 C130.336,43.483999 130.176001,43.3000008 129.952,43.132 C129.727999,42.9639992 129.436002,42.8080007 129.076,42.664 C128.715998,42.5199993 128.280003,42.3600009 127.768,42.184 C127.159997,41.991999 126.564003,41.7800012 125.98,41.548 C125.395997,41.3159988 124.876002,41.0080019 124.42,40.624 C123.963998,40.2399981 123.596001,39.7560029 123.316,39.172 C123.035999,38.5879971 122.896,37.8480045 122.896,36.952 C122.896,36.0559955 123.043999,35.2440036 123.34,34.516 C123.636001,33.7879964 124.051997,33.1640026 124.588,32.644 C125.124003,32.1239974 125.779996,31.7200014 126.556,31.432 C127.332004,31.1439986 128.199995,31 129.16,31 C130.056004,31 130.991995,31.1239988 131.968,31.372 C132.944005,31.6200012 133.879996,31.9839976 134.776,32.464 L132.904,36.136 Z" id="MOTION-GRAPHICS-Copy" fill="#696969"></path>
                <path d="M0,18.6 L3.072,0.504 L7.728,0.504 L11.352,10.152 L14.952,0.504 L19.608,0.504 L22.68,18.6 L18,18.6 L16.44,8.184 L12.168,18.6 L10.296,18.6 L6.24,8.184 L4.68,18.6 L0,18.6 Z M29.76,9.552 C29.76,10.2720036 29.8959986,10.935997 30.168,11.544 C30.4400014,12.152003 30.8079977,12.6799978 31.272,13.128 C31.7360023,13.5760022 32.2759969,13.9239988 32.892,14.172 C33.5080031,14.4200012 34.1599966,14.544 34.848,14.544 C35.5360034,14.544 36.1879969,14.4200012 36.804,14.172 C37.4200031,13.9239988 37.9639976,13.5760022 38.436,13.128 C38.9080024,12.6799978 39.2799986,12.152003 39.552,11.544 C39.8240014,10.935997 39.96,10.2720036 39.96,9.552 C39.96,8.8319964 39.8240014,8.16800304 39.552,7.56 C39.2799986,6.95199696 38.9080024,6.42400224 38.436,5.976 C37.9639976,5.52799776 37.4200031,5.18000124 36.804,4.932 C36.1879969,4.68399876 35.5360034,4.56 34.848,4.56 C34.1599966,4.56 33.5080031,4.68399876 32.892,4.932 C32.2759969,5.18000124 31.7360023,5.52799776 31.272,5.976 C30.8079977,6.42400224 30.4400014,6.95199696 30.168,7.56 C29.8959986,8.16800304 29.76,8.8319964 29.76,9.552 Z M24.84,9.552 C24.84,8.20799328 25.0879975,6.9560058 25.584,5.796 C26.0800025,4.6359942 26.7679956,3.62400432 27.648,2.76 C28.5280044,1.89599568 29.5799939,1.22000244 30.804,0.732 C32.0280061,0.24399756 33.3759926,0 34.848,0 C36.3040073,0 37.6479938,0.24399756 38.88,0.732 C40.1120062,1.22000244 41.1719956,1.89599568 42.06,2.76 C42.9480044,3.62400432 43.6399975,4.6359942 44.136,5.796 C44.6320025,6.9560058 44.88,8.20799328 44.88,9.552 C44.88,10.8960067 44.6320025,12.1479942 44.136,13.308 C43.6399975,14.4680058 42.9480044,15.4799957 42.06,16.344 C41.1719956,17.2080043 40.1120062,17.8839976 38.88,18.372 C37.6479938,18.8600024 36.3040073,19.104 34.848,19.104 C33.3759926,19.104 32.0280061,18.8600024 30.804,18.372 C29.5799939,17.8839976 28.5280044,17.2080043 27.648,16.344 C26.7679956,15.4799957 26.0800025,14.4680058 25.584,13.308 C25.0879975,12.1479942 24.84,10.8960067 24.84,9.552 Z M54.72,4.488 L54.72,18.6 L50.016,18.6 L50.016,4.488 L46.152,4.488 L46.152,0.504 L58.584,0.504 L58.584,4.488 L54.72,4.488 Z M65.376,0.504 L65.376,18.6 L60.672,18.6 L60.672,0.504 L65.376,0.504 Z M73.272,9.552 C73.272,10.2720036 73.4079986,10.935997 73.68,11.544 C73.9520014,12.152003 74.3199977,12.6799978 74.784,13.128 C75.2480023,13.5760022 75.7879969,13.9239988 76.404,14.172 C77.0200031,14.4200012 77.6719966,14.544 78.36,14.544 C79.0480034,14.544 79.6999969,14.4200012 80.316,14.172 C80.9320031,13.9239988 81.4759976,13.5760022 81.948,13.128 C82.4200024,12.6799978 82.7919986,12.152003 83.064,11.544 C83.3360014,10.935997 83.472,10.2720036 83.472,9.552 C83.472,8.8319964 83.3360014,8.16800304 83.064,7.56 C82.7919986,6.95199696 82.4200024,6.42400224 81.948,5.976 C81.4759976,5.52799776 80.9320031,5.18000124 80.316,4.932 C79.6999969,4.68399876 79.0480034,4.56 78.36,4.56 C77.6719966,4.56 77.0200031,4.68399876 76.404,4.932 C75.7879969,5.18000124 75.2480023,5.52799776 74.784,5.976 C74.3199977,6.42400224 73.9520014,6.95199696 73.68,7.56 C73.4079986,8.16800304 73.272,8.8319964 73.272,9.552 Z M68.352,9.552 C68.352,8.20799328 68.5999975,6.9560058 69.096,5.796 C69.5920025,4.6359942 70.2799956,3.62400432 71.16,2.76 C72.0400044,1.89599568 73.0919939,1.22000244 74.316,0.732 C75.5400061,0.24399756 76.8879926,0 78.36,0 C79.8160073,0 81.1599938,0.24399756 82.392,0.732 C83.6240062,1.22000244 84.6839956,1.89599568 85.572,2.76 C86.4600044,3.62400432 87.1519975,4.6359942 87.648,5.796 C88.1440025,6.9560058 88.392,8.20799328 88.392,9.552 C88.392,10.8960067 88.1440025,12.1479942 87.648,13.308 C87.1519975,14.4680058 86.4600044,15.4799957 85.572,16.344 C84.6839956,17.2080043 83.6240062,17.8839976 82.392,18.372 C81.1599938,18.8600024 79.8160073,19.104 78.36,19.104 C76.8879926,19.104 75.5400061,18.8600024 74.316,18.372 C73.0919939,17.8839976 72.0400044,17.2080043 71.16,16.344 C70.2799956,15.4799957 69.5920025,14.4680058 69.096,13.308 C68.5999975,12.1479942 68.352,10.8960067 68.352,9.552 Z M91.368,18.6 L91.368,0.504 L96.072,0.504 L104.76,11.568 L104.76,0.504 L109.44,0.504 L109.44,18.6 L104.76,18.6 L96.072,7.536 L96.072,18.6 L91.368,18.6 Z M9.624,39.472 L18.96,39.472 C18.96,40.4320048 18.9200004,41.3039961 18.84,42.088 C18.7599996,42.8720039 18.6000012,43.5999966 18.36,44.272 C18.0239983,45.2160047 17.5680029,46.0519964 16.992,46.78 C16.4159971,47.5080036 15.7400039,48.1159976 14.964,48.604 C14.1879961,49.0920024 13.3360046,49.4639987 12.408,49.72 C11.4799954,49.9760013 10.5040051,50.104 9.48,50.104 C8.07199296,50.104 6.7880058,49.8720023 5.628,49.408 C4.4679942,48.9439977 3.47200416,48.2920042 2.64,47.452 C1.80799584,46.6119958 1.16000232,45.6040059 0.696,44.428 C0.23199768,43.2519941 0,41.9520071 0,40.528 C0,39.119993 0.22799772,37.8280059 0.684,36.652 C1.14000228,35.4759941 1.7879958,34.4720042 2.628,33.64 C3.4680042,32.8079958 4.47999408,32.1600023 5.664,31.696 C6.84800592,31.2319977 8.16799272,31 9.624,31 C11.5120094,31 13.1679929,31.4079959 14.592,32.224 C16.0160071,33.0400041 17.1439958,34.3039914 17.976,36.016 L13.512,37.864 C13.0959979,36.871995 12.5560033,36.1600022 11.892,35.728 C11.2279967,35.2959978 10.4720042,35.08 9.624,35.08 C8.91999648,35.08 8.28000288,35.2119987 7.704,35.476 C7.12799712,35.7400013 6.63600204,36.1159976 6.228,36.604 C5.81999796,37.0920024 5.50000116,37.6799966 5.268,38.368 C5.03599884,39.0560034 4.92,39.8239958 4.92,40.672 C4.92,41.4400038 5.019999,42.1519967 5.22,42.808 C5.420001,43.4640033 5.719998,44.0319976 6.12,44.512 C6.520002,44.9920024 7.01599704,45.3639987 7.608,45.628 C8.20000296,45.8920013 8.88799608,46.024 9.672,46.024 C10.1360023,46.024 10.5839978,45.9720005 11.016,45.868 C11.4480022,45.7639995 11.8359983,45.5960012 12.18,45.364 C12.5240017,45.1319988 12.8079989,44.8320018 13.032,44.464 C13.2560011,44.0959982 13.4079996,43.6480026 13.488,43.12 L9.624,43.12 L9.624,39.472 Z M26.64,39.592 L27.528,39.592 C28.4560046,39.592 29.1679975,39.4000019 29.664,39.016 C30.1600025,38.6319981 30.408,38.0800036 30.408,37.36 C30.408,36.6399964 30.1600025,36.0880019 29.664,35.704 C29.1679975,35.3199981 28.4560046,35.128 27.528,35.128 L26.64,35.128 L26.64,39.592 Z M36.984,49.6 L31.128,49.6 L26.64,42.64 L26.64,49.6 L21.936,49.6 L21.936,31.504 L29.256,31.504 C30.264005,31.504 31.1439962,31.6519985 31.896,31.948 C32.6480038,32.2440015 33.2679976,32.6479974 33.756,33.16 C34.2440024,33.6720026 34.6119988,34.2639966 34.86,34.936 C35.1080012,35.6080034 35.232,36.3279962 35.232,37.096 C35.232,38.4720069 34.9000033,39.5879957 34.236,40.444 C33.5719967,41.3000043 32.5920065,41.8799985 31.296,42.184 L36.984,49.6 Z M48.792,42.88 L46.68,36.856 L44.568,42.88 L48.792,42.88 Z M50.04,46.456 L43.32,46.456 L42.24,49.6 L37.224,49.6 L44.112,31.504 L49.248,31.504 L56.136,49.6 L51.12,49.6 L50.04,46.456 Z M62.904,39.808 L64.464,39.808 C66.1920086,39.808 67.056,39.0560075 67.056,37.552 C67.056,36.0479925 66.1920086,35.296 64.464,35.296 L62.904,35.296 L62.904,39.808 Z M62.904,49.6 L58.2,49.6 L58.2,31.504 L65.688,31.504 C67.7200102,31.504 69.2759946,32.0319947 70.356,33.088 C71.4360054,34.1440053 71.976,35.6319904 71.976,37.552 C71.976,39.4720096 71.4360054,40.9599947 70.356,42.016 C69.2759946,43.0720053 67.7200102,43.6 65.688,43.6 L62.904,43.6 L62.904,49.6 Z M79.176,38.488 L85.968,38.488 L85.968,31.504 L90.672,31.504 L90.672,49.6 L85.968,49.6 L85.968,42.136 L79.176,42.136 L79.176,49.6 L74.472,49.6 L74.472,31.504 L79.176,31.504 L79.176,38.488 Z M99.168,31.504 L99.168,49.6 L94.464,49.6 L94.464,31.504 L99.168,31.504 Z M115.992,37.552 C114.903995,36.2239934 113.560008,35.56 111.96,35.56 C111.255996,35.56 110.604003,35.6879987 110.004,35.944 C109.403997,36.2000013 108.888002,36.5479978 108.456,36.988 C108.023998,37.4280022 107.684001,37.951997 107.436,38.56 C107.187999,39.168003 107.064,39.8239965 107.064,40.528 C107.064,41.2480036 107.187999,41.911997 107.436,42.52 C107.684001,43.128003 108.027998,43.6559978 108.468,44.104 C108.908002,44.5520022 109.423997,44.9039987 110.016,45.16 C110.608003,45.4160013 111.247997,45.544 111.936,45.544 C113.440008,45.544 114.791994,44.9040064 115.992,43.624 L115.992,49.192 L115.512,49.36 C114.791996,49.6160013 114.120003,49.8039994 113.496,49.924 C112.871997,50.0440006 112.256003,50.104 111.648,50.104 C110.399994,50.104 109.204006,49.8680024 108.06,49.396 C106.915994,48.9239976 105.908004,48.2600043 105.036,47.404 C104.163996,46.5479957 103.464003,45.5320059 102.936,44.356 C102.407997,43.1799941 102.144,41.896007 102.144,40.504 C102.144,39.111993 102.403997,37.8360058 102.924,36.676 C103.444003,35.5159942 104.139996,34.5160042 105.012,33.676 C105.884004,32.8359958 106.895994,32.1800024 108.048,31.708 C109.200006,31.2359976 110.407994,31 111.672,31 C112.392004,31 113.099997,31.0759992 113.796,31.228 C114.492003,31.3800008 115.223996,31.6159984 115.992,31.936 L115.992,37.552 Z M128.904,36.136 C128.391997,35.7199979 127.880003,35.412001 127.368,35.212 C126.855997,35.011999 126.360002,34.912 125.88,34.912 C125.271997,34.912 124.776002,35.0559986 124.392,35.344 C124.007998,35.6320014 123.816,36.0079977 123.816,36.472 C123.816,36.7920016 123.911999,37.055999 124.104,37.264 C124.296001,37.472001 124.547998,37.6519992 124.86,37.804 C125.172002,37.9560008 125.523998,38.0879994 125.916,38.2 C126.308002,38.3120006 126.695998,38.4319994 127.08,38.56 C128.616008,39.0720026 129.739996,39.7559957 130.452,40.612 C131.164004,41.4680043 131.52,42.5839931 131.52,43.96 C131.52,44.8880046 131.364002,45.7279962 131.052,46.48 C130.739998,47.2320038 130.284003,47.8759973 129.684,48.412 C129.083997,48.9480027 128.348004,49.3639985 127.476,49.66 C126.603996,49.9560015 125.616006,50.104 124.512,50.104 C122.223989,50.104 120.10401,49.4240068 118.152,48.064 L120.168,44.272 C120.872004,44.8960031 121.567997,45.3599985 122.256,45.664 C122.944003,45.9680015 123.623997,46.12 124.296,46.12 C125.064004,46.12 125.635998,45.9440018 126.012,45.592 C126.388002,45.2399982 126.576,44.8400022 126.576,44.392 C126.576,44.1199986 126.528,43.884001 126.432,43.684 C126.336,43.483999 126.176001,43.3000008 125.952,43.132 C125.727999,42.9639992 125.436002,42.8080007 125.076,42.664 C124.715998,42.5199993 124.280003,42.3600009 123.768,42.184 C123.159997,41.991999 122.564003,41.7800012 121.98,41.548 C121.395997,41.3159988 120.876002,41.0080019 120.42,40.624 C119.963998,40.2399981 119.596001,39.7560029 119.316,39.172 C119.035999,38.5879971 118.896,37.8480045 118.896,36.952 C118.896,36.0559955 119.043999,35.2440036 119.34,34.516 C119.636001,33.7879964 120.051997,33.1640026 120.588,32.644 C121.124003,32.1239974 121.779996,31.7200014 122.556,31.432 C123.332004,31.1439986 124.199995,31 125.16,31 C126.056004,31 126.991995,31.1239988 127.968,31.372 C128.944005,31.6200012 129.879996,31.9839976 130.776,32.464 L128.904,36.136 Z" id="MOTION-GRAPHICS" stroke="#4A4A4A" fill="#FFFFFF"></path>
            </g>
        </g>
    </g>
</svg>