<?xml version="1.0" encoding="UTF-8"?>
<svg preserveAspectRatio="xMinYMin meet"  width="202px" height="52px" viewBox="0 0 202 52" version="1.1" xmlns="http://www.w3.org/2000/svg" xmlns:xlink="http://www.w3.org/1999/xlink">
    <!-- Generator: sketchtool 51.1 (57501) - http://www.bohemiancoding.com/sketch -->
    <title>94BD9673-7258-4080-A0E8-0AFDB1C10ADD</title>
    <desc>Created with sketchtool.</desc>
    <defs>
        <linearGradient x1="100%" y1="0%" x2="-28.9637855%" y2="128.649196%" id="linearGradient-1">
            <stop stop-color="#97E055" offset="0%"></stop>
            <stop stop-color="#80C9F6" offset="50.6773844%"></stop>
            <stop stop-color="#A37CD8" offset="100%"></stop>
        </linearGradient>
    </defs>
    <g id="Page-2" stroke="none" stroke-width="1" fill="none" fill-rule="evenodd">
        <g id="ICONS" transform="translate(-902.000000, -445.000000)">
            <g id="btn_works_interactive_s" transform="translate(903.000000, 446.000000)">
                <path d="M44.704,0.504 L44.704,18.6 L40,18.6 L40,0.504 L44.704,0.504 Z M48.496,18.6 L48.496,0.504 L53.2,0.504 L61.888,11.568 L61.888,0.504 L66.568,0.504 L66.568,18.6 L61.888,18.6 L53.2,7.536 L53.2,18.6 L48.496,18.6 Z M77.224,4.488 L77.224,18.6 L72.52,18.6 L72.52,4.488 L68.656,4.488 L68.656,0.504 L81.088,0.504 L81.088,4.488 L77.224,4.488 Z M93.472,4.488 L87.88,4.488 L87.88,7.512 L93.16,7.512 L93.16,11.496 L87.88,11.496 L87.88,14.616 L93.472,14.616 L93.472,18.6 L83.176,18.6 L83.176,0.504 L93.472,0.504 L93.472,4.488 Z M101.56,8.592 L102.448,8.592 C103.376005,8.592 104.087998,8.40000192 104.584,8.016 C105.080002,7.63199808 105.328,7.0800036 105.328,6.36 C105.328,5.6399964 105.080002,5.08800192 104.584,4.704 C104.087998,4.31999808 103.376005,4.128 102.448,4.128 L101.56,4.128 L101.56,8.592 Z M111.904,18.6 L106.048,18.6 L101.56,11.64 L101.56,18.6 L96.856,18.6 L96.856,0.504 L104.176,0.504 C105.184005,0.504 106.063996,0.65199852 106.816,0.948 C107.568004,1.24400148 108.187998,1.64799744 108.676,2.16 C109.164002,2.67200256 109.531999,3.26399664 109.78,3.936 C110.028001,4.60800336 110.152,5.32799616 110.152,6.096 C110.152,7.47200688 109.820003,8.58799572 109.156,9.444 C108.491997,10.3000043 107.512006,10.8799985 106.216,11.184 L111.904,18.6 Z M123.712,11.88 L121.6,5.856 L119.488,11.88 L123.712,11.88 Z M124.96,15.456 L118.24,15.456 L117.16,18.6 L112.144,18.6 L119.032,0.504 L124.168,0.504 L131.056,18.6 L126.04,18.6 L124.96,15.456 Z M146.152,6.552 C145.063995,5.22399336 143.720008,4.56 142.12,4.56 C141.415996,4.56 140.764003,4.68799872 140.164,4.944 C139.563997,5.20000128 139.048002,5.5479978 138.616,5.988 C138.183998,6.4280022 137.844001,6.95199696 137.596,7.56 C137.347999,8.16800304 137.224,8.82399648 137.224,9.528 C137.224,10.2480036 137.347999,10.911997 137.596,11.52 C137.844001,12.128003 138.187998,12.6559978 138.628,13.104 C139.068002,13.5520022 139.583997,13.9039987 140.176,14.16 C140.768003,14.4160013 141.407997,14.544 142.096,14.544 C143.600008,14.544 144.951994,13.9040064 146.152,12.624 L146.152,18.192 L145.672,18.36 C144.951996,18.6160013 144.280003,18.8039994 143.656,18.924 C143.031997,19.0440006 142.416003,19.104 141.808,19.104 C140.559994,19.104 139.364006,18.8680024 138.22,18.396 C137.075994,17.9239976 136.068004,17.2600043 135.196,16.404 C134.323996,15.5479957 133.624003,14.5320059 133.096,13.356 C132.567997,12.1799941 132.304,10.896007 132.304,9.504 C132.304,8.11199304 132.563997,6.8360058 133.084,5.676 C133.604003,4.5159942 134.299996,3.5160042 135.172,2.676 C136.044004,1.8359958 137.055994,1.18000236 138.208,0.708 C139.360006,0.23599764 140.567994,0 141.832,0 C142.552004,0 143.259997,0.07599924 143.956,0.228 C144.652003,0.38000076 145.383996,0.6159984 146.152,0.936 L146.152,6.552 Z M155.992,4.488 L155.992,18.6 L151.288,18.6 L151.288,4.488 L147.424,4.488 L147.424,0.504 L159.856,0.504 L159.856,4.488 L155.992,4.488 Z M166.648,0.504 L166.648,18.6 L161.944,18.6 L161.944,0.504 L166.648,0.504 Z M173.656,0.504 L178.024,11.52 L182.416,0.504 L187.528,0.504 L179.896,18.6 L176.152,18.6 L168.544,0.504 L173.656,0.504 Z M199.72,4.488 L194.128,4.488 L194.128,7.512 L199.408,7.512 L199.408,11.496 L194.128,11.496 L194.128,14.616 L199.72,14.616 L199.72,18.6 L189.424,18.6 L189.424,0.504 L199.72,0.504 L199.72,4.488 Z M44.704,45.616 L45.784,45.616 C46.6000041,45.616 47.3279968,45.4880013 47.968,45.232 C48.6080032,44.9759987 49.1479978,44.6240022 49.588,44.176 C50.0280022,43.7279978 50.3639988,43.1960031 50.596,42.58 C50.8280012,41.9639969 50.944,41.2880037 50.944,40.552 C50.944,39.8319964 50.8240012,39.1600031 50.584,38.536 C50.3439988,37.9119969 50.0040022,37.3760022 49.564,36.928 C49.1239978,36.4799978 48.5840032,36.1280013 47.944,35.872 C47.3039968,35.6159987 46.584004,35.488 45.784,35.488 L44.704,35.488 L44.704,45.616 Z M40,31.504 L46.96,31.504 C48.1920062,31.504 49.3479946,31.7519975 50.428,32.248 C51.5080054,32.7440025 52.451996,33.4039959 53.26,34.228 C54.068004,35.0520041 54.7039977,36.0119945 55.168,37.108 C55.6320023,38.2040055 55.864,39.351994 55.864,40.552 C55.864,41.7360059 55.6360023,42.8759945 55.18,43.972 C54.7239977,45.0680055 54.092004,46.0319958 53.284,46.864 C52.475996,47.6960042 51.5320054,48.3599975 50.452,48.856 C49.3719946,49.3520025 48.2080062,49.6 46.96,49.6 L40,49.6 L40,31.504 Z M69.16,35.488 L63.568,35.488 L63.568,38.512 L68.848,38.512 L68.848,42.496 L63.568,42.496 L63.568,45.616 L69.16,45.616 L69.16,49.6 L58.864,49.6 L58.864,31.504 L69.16,31.504 L69.16,35.488 Z M82.48,36.136 C81.9679974,35.7199979 81.4560026,35.412001 80.944,35.212 C80.4319974,35.011999 79.9360024,34.912 79.456,34.912 C78.847997,34.912 78.3520019,35.0559986 77.968,35.344 C77.5839981,35.6320014 77.392,36.0079977 77.392,36.472 C77.392,36.7920016 77.487999,37.055999 77.68,37.264 C77.872001,37.472001 78.1239984,37.6519992 78.436,37.804 C78.7480016,37.9560008 79.099998,38.0879994 79.492,38.2 C79.884002,38.3120006 80.2719981,38.4319994 80.656,38.56 C82.1920077,39.0720026 83.3159964,39.7559957 84.028,40.612 C84.7400036,41.4680043 85.096,42.5839931 85.096,43.96 C85.096,44.8880046 84.9400016,45.7279962 84.628,46.48 C84.3159984,47.2320038 83.860003,47.8759973 83.26,48.412 C82.659997,48.9480027 81.9240044,49.3639985 81.052,49.66 C80.1799956,49.9560015 79.1920055,50.104 78.088,50.104 C75.7999886,50.104 73.6800098,49.4240068 71.728,48.064 L73.744,44.272 C74.4480035,44.8960031 75.1439966,45.3599985 75.832,45.664 C76.5200034,45.9680015 77.1999966,46.12 77.872,46.12 C78.6400038,46.12 79.2119981,45.9440018 79.588,45.592 C79.9640019,45.2399982 80.152,44.8400022 80.152,44.392 C80.152,44.1199986 80.1040005,43.884001 80.008,43.684 C79.9119995,43.483999 79.7520011,43.3000008 79.528,43.132 C79.3039989,42.9639992 79.0120018,42.8080007 78.652,42.664 C78.2919982,42.5199993 77.8560026,42.3600009 77.344,42.184 C76.735997,41.991999 76.1400029,41.7800012 75.556,41.548 C74.9719971,41.3159988 74.4520023,41.0080019 73.996,40.624 C73.5399977,40.2399981 73.1720014,39.7560029 72.892,39.172 C72.6119986,38.5879971 72.472,37.8480045 72.472,36.952 C72.472,36.0559955 72.6199985,35.2440036 72.916,34.516 C73.2120015,33.7879964 73.6279973,33.1640026 74.164,32.644 C74.7000027,32.1239974 75.3559961,31.7200014 76.132,31.432 C76.9080039,31.1439986 77.7759952,31 78.736,31 C79.6320045,31 80.5679951,31.1239988 81.544,31.372 C82.5200049,31.6200012 83.4559955,31.9839976 84.352,32.464 L82.48,36.136 Z M92.752,31.504 L92.752,49.6 L88.048,49.6 L88.048,31.504 L92.752,31.504 Z M105.352,39.472 L114.688,39.472 C114.688,40.4320048 114.648,41.3039961 114.568,42.088 C114.488,42.8720039 114.328001,43.5999966 114.088,44.272 C113.751998,45.2160047 113.296003,46.0519964 112.72,46.78 C112.143997,47.5080036 111.468004,48.1159976 110.692,48.604 C109.915996,49.0920024 109.064005,49.4639987 108.136,49.72 C107.207995,49.9760013 106.232005,50.104 105.208,50.104 C103.799993,50.104 102.516006,49.8720023 101.356,49.408 C100.195994,48.9439977 99.2000042,48.2920042 98.368,47.452 C97.5359958,46.6119958 96.8880023,45.6040059 96.424,44.428 C95.9599977,43.2519941 95.728,41.9520071 95.728,40.528 C95.728,39.119993 95.9559977,37.8280059 96.412,36.652 C96.8680023,35.4759941 97.5159958,34.4720042 98.356,33.64 C99.1960042,32.8079958 100.207994,32.1600023 101.392,31.696 C102.576006,31.2319977 103.895993,31 105.352,31 C107.240009,31 108.895993,31.4079959 110.32,32.224 C111.744007,33.0400041 112.871996,34.3039914 113.704,36.016 L109.24,37.864 C108.823998,36.871995 108.284003,36.1600022 107.62,35.728 C106.955997,35.2959978 106.200004,35.08 105.352,35.08 C104.647996,35.08 104.008003,35.2119987 103.432,35.476 C102.855997,35.7400013 102.364002,36.1159976 101.956,36.604 C101.547998,37.0920024 101.228001,37.6799966 100.996,38.368 C100.763999,39.0560034 100.648,39.8239958 100.648,40.672 C100.648,41.4400038 100.747999,42.1519967 100.948,42.808 C101.148001,43.4640033 101.447998,44.0319976 101.848,44.512 C102.248002,44.9920024 102.743997,45.3639987 103.336,45.628 C103.928003,45.8920013 104.615996,46.024 105.4,46.024 C105.864002,46.024 106.311998,45.9720005 106.744,45.868 C107.176002,45.7639995 107.563998,45.5960012 107.908,45.364 C108.252002,45.1319988 108.535999,44.8320018 108.76,44.464 C108.984001,44.0959982 109.136,43.6480026 109.216,43.12 L105.352,43.12 L105.352,39.472 Z M117.664,49.6 L117.664,31.504 L122.368,31.504 L131.056,42.568 L131.056,31.504 L135.736,31.504 L135.736,49.6 L131.056,49.6 L122.368,38.536 L122.368,49.6 L117.664,49.6 Z" id="INTERACTIVE-DESIGN-Copy" fill="#696969"></path>
                <path d="M44.704,0.504 L44.704,18.6 L40,18.6 L40,0.504 L44.704,0.504 Z M48.496,18.6 L48.496,0.504 L53.2,0.504 L61.888,11.568 L61.888,0.504 L66.568,0.504 L66.568,18.6 L61.888,18.6 L53.2,7.536 L53.2,18.6 L48.496,18.6 Z M77.224,4.488 L77.224,18.6 L72.52,18.6 L72.52,4.488 L68.656,4.488 L68.656,0.504 L81.088,0.504 L81.088,4.488 L77.224,4.488 Z M93.472,4.488 L87.88,4.488 L87.88,7.512 L93.16,7.512 L93.16,11.496 L87.88,11.496 L87.88,14.616 L93.472,14.616 L93.472,18.6 L83.176,18.6 L83.176,0.504 L93.472,0.504 L93.472,4.488 Z M101.56,8.592 L102.448,8.592 C103.376005,8.592 104.087998,8.40000192 104.584,8.016 C105.080002,7.63199808 105.328,7.0800036 105.328,6.36 C105.328,5.6399964 105.080002,5.08800192 104.584,4.704 C104.087998,4.31999808 103.376005,4.128 102.448,4.128 L101.56,4.128 L101.56,8.592 Z M111.904,18.6 L106.048,18.6 L101.56,11.64 L101.56,18.6 L96.856,18.6 L96.856,0.504 L104.176,0.504 C105.184005,0.504 106.063996,0.65199852 106.816,0.948 C107.568004,1.24400148 108.187998,1.64799744 108.676,2.16 C109.164002,2.67200256 109.531999,3.26399664 109.78,3.936 C110.028001,4.60800336 110.152,5.32799616 110.152,6.096 C110.152,7.47200688 109.820003,8.58799572 109.156,9.444 C108.491997,10.3000043 107.512006,10.8799985 106.216,11.184 L111.904,18.6 Z M123.712,11.88 L121.6,5.856 L119.488,11.88 L123.712,11.88 Z M124.96,15.456 L118.24,15.456 L117.16,18.6 L112.144,18.6 L119.032,0.504 L124.168,0.504 L131.056,18.6 L126.04,18.6 L124.96,15.456 Z M146.152,6.552 C145.063995,5.22399336 143.720008,4.56 142.12,4.56 C141.415996,4.56 140.764003,4.68799872 140.164,4.944 C139.563997,5.20000128 139.048002,5.5479978 138.616,5.988 C138.183998,6.4280022 137.844001,6.95199696 137.596,7.56 C137.347999,8.16800304 137.224,8.82399648 137.224,9.528 C137.224,10.2480036 137.347999,10.911997 137.596,11.52 C137.844001,12.128003 138.187998,12.6559978 138.628,13.104 C139.068002,13.5520022 139.583997,13.9039987 140.176,14.16 C140.768003,14.4160013 141.407997,14.544 142.096,14.544 C143.600008,14.544 144.951994,13.9040064 146.152,12.624 L146.152,18.192 L145.672,18.36 C144.951996,18.6160013 144.280003,18.8039994 143.656,18.924 C143.031997,19.0440006 142.416003,19.104 141.808,19.104 C140.559994,19.104 139.364006,18.8680024 138.22,18.396 C137.075994,17.9239976 136.068004,17.2600043 135.196,16.404 C134.323996,15.5479957 133.624003,14.5320059 133.096,13.356 C132.567997,12.1799941 132.304,10.896007 132.304,9.504 C132.304,8.11199304 132.563997,6.8360058 133.084,5.676 C133.604003,4.5159942 134.299996,3.5160042 135.172,2.676 C136.044004,1.8359958 137.055994,1.18000236 138.208,0.708 C139.360006,0.23599764 140.567994,0 141.832,0 C142.552004,0 143.259997,0.07599924 143.956,0.228 C144.652003,0.38000076 145.383996,0.6159984 146.152,0.936 L146.152,6.552 Z M155.992,4.488 L155.992,18.6 L151.288,18.6 L151.288,4.488 L147.424,4.488 L147.424,0.504 L159.856,0.504 L159.856,4.488 L155.992,4.488 Z M166.648,0.504 L166.648,18.6 L161.944,18.6 L161.944,0.504 L166.648,0.504 Z M173.656,0.504 L178.024,11.52 L182.416,0.504 L187.528,0.504 L179.896,18.6 L176.152,18.6 L168.544,0.504 L173.656,0.504 Z M199.72,4.488 L194.128,4.488 L194.128,7.512 L199.408,7.512 L199.408,11.496 L194.128,11.496 L194.128,14.616 L199.72,14.616 L199.72,18.6 L189.424,18.6 L189.424,0.504 L199.72,0.504 L199.72,4.488 Z M44.704,45.616 L45.784,45.616 C46.6000041,45.616 47.3279968,45.4880013 47.968,45.232 C48.6080032,44.9759987 49.1479978,44.6240022 49.588,44.176 C50.0280022,43.7279978 50.3639988,43.1960031 50.596,42.58 C50.8280012,41.9639969 50.944,41.2880037 50.944,40.552 C50.944,39.8319964 50.8240012,39.1600031 50.584,38.536 C50.3439988,37.9119969 50.0040022,37.3760022 49.564,36.928 C49.1239978,36.4799978 48.5840032,36.1280013 47.944,35.872 C47.3039968,35.6159987 46.584004,35.488 45.784,35.488 L44.704,35.488 L44.704,45.616 Z M40,31.504 L46.96,31.504 C48.1920062,31.504 49.3479946,31.7519975 50.428,32.248 C51.5080054,32.7440025 52.451996,33.4039959 53.26,34.228 C54.068004,35.0520041 54.7039977,36.0119945 55.168,37.108 C55.6320023,38.2040055 55.864,39.351994 55.864,40.552 C55.864,41.7360059 55.6360023,42.8759945 55.18,43.972 C54.7239977,45.0680055 54.092004,46.0319958 53.284,46.864 C52.475996,47.6960042 51.5320054,48.3599975 50.452,48.856 C49.3719946,49.3520025 48.2080062,49.6 46.96,49.6 L40,49.6 L40,31.504 Z M69.16,35.488 L63.568,35.488 L63.568,38.512 L68.848,38.512 L68.848,42.496 L63.568,42.496 L63.568,45.616 L69.16,45.616 L69.16,49.6 L58.864,49.6 L58.864,31.504 L69.16,31.504 L69.16,35.488 Z M82.48,36.136 C81.9679974,35.7199979 81.4560026,35.412001 80.944,35.212 C80.4319974,35.011999 79.9360024,34.912 79.456,34.912 C78.847997,34.912 78.3520019,35.0559986 77.968,35.344 C77.5839981,35.6320014 77.392,36.0079977 77.392,36.472 C77.392,36.7920016 77.487999,37.055999 77.68,37.264 C77.872001,37.472001 78.1239984,37.6519992 78.436,37.804 C78.7480016,37.9560008 79.099998,38.0879994 79.492,38.2 C79.884002,38.3120006 80.2719981,38.4319994 80.656,38.56 C82.1920077,39.0720026 83.3159964,39.7559957 84.028,40.612 C84.7400036,41.4680043 85.096,42.5839931 85.096,43.96 C85.096,44.8880046 84.9400016,45.7279962 84.628,46.48 C84.3159984,47.2320038 83.860003,47.8759973 83.26,48.412 C82.659997,48.9480027 81.9240044,49.3639985 81.052,49.66 C80.1799956,49.9560015 79.1920055,50.104 78.088,50.104 C75.7999886,50.104 73.6800098,49.4240068 71.728,48.064 L73.744,44.272 C74.4480035,44.8960031 75.1439966,45.3599985 75.832,45.664 C76.5200034,45.9680015 77.1999966,46.12 77.872,46.12 C78.6400038,46.12 79.2119981,45.9440018 79.588,45.592 C79.9640019,45.2399982 80.152,44.8400022 80.152,44.392 C80.152,44.1199986 80.1040005,43.884001 80.008,43.684 C79.9119995,43.483999 79.7520011,43.3000008 79.528,43.132 C79.3039989,42.9639992 79.0120018,42.8080007 78.652,42.664 C78.2919982,42.5199993 77.8560026,42.3600009 77.344,42.184 C76.735997,41.991999 76.1400029,41.7800012 75.556,41.548 C74.9719971,41.3159988 74.4520023,41.0080019 73.996,40.624 C73.5399977,40.2399981 73.1720014,39.7560029 72.892,39.172 C72.6119986,38.5879971 72.472,37.8480045 72.472,36.952 C72.472,36.0559955 72.6199985,35.2440036 72.916,34.516 C73.2120015,33.7879964 73.6279973,33.1640026 74.164,32.644 C74.7000027,32.1239974 75.3559961,31.7200014 76.132,31.432 C76.9080039,31.1439986 77.7759952,31 78.736,31 C79.6320045,31 80.5679951,31.1239988 81.544,31.372 C82.5200049,31.6200012 83.4559955,31.9839976 84.352,32.464 L82.48,36.136 Z M92.752,31.504 L92.752,49.6 L88.048,49.6 L88.048,31.504 L92.752,31.504 Z M105.352,39.472 L114.688,39.472 C114.688,40.4320048 114.648,41.3039961 114.568,42.088 C114.488,42.8720039 114.328001,43.5999966 114.088,44.272 C113.751998,45.2160047 113.296003,46.0519964 112.72,46.78 C112.143997,47.5080036 111.468004,48.1159976 110.692,48.604 C109.915996,49.0920024 109.064005,49.4639987 108.136,49.72 C107.207995,49.9760013 106.232005,50.104 105.208,50.104 C103.799993,50.104 102.516006,49.8720023 101.356,49.408 C100.195994,48.9439977 99.2000042,48.2920042 98.368,47.452 C97.5359958,46.6119958 96.8880023,45.6040059 96.424,44.428 C95.9599977,43.2519941 95.728,41.9520071 95.728,40.528 C95.728,39.119993 95.9559977,37.8280059 96.412,36.652 C96.8680023,35.4759941 97.5159958,34.4720042 98.356,33.64 C99.1960042,32.8079958 100.207994,32.1600023 101.392,31.696 C102.576006,31.2319977 103.895993,31 105.352,31 C107.240009,31 108.895993,31.4079959 110.32,32.224 C111.744007,33.0400041 112.871996,34.3039914 113.704,36.016 L109.24,37.864 C108.823998,36.871995 108.284003,36.1600022 107.62,35.728 C106.955997,35.2959978 106.200004,35.08 105.352,35.08 C104.647996,35.08 104.008003,35.2119987 103.432,35.476 C102.855997,35.7400013 102.364002,36.1159976 101.956,36.604 C101.547998,37.0920024 101.228001,37.6799966 100.996,38.368 C100.763999,39.0560034 100.648,39.8239958 100.648,40.672 C100.648,41.4400038 100.747999,42.1519967 100.948,42.808 C101.148001,43.4640033 101.447998,44.0319976 101.848,44.512 C102.248002,44.9920024 102.743997,45.3639987 103.336,45.628 C103.928003,45.8920013 104.615996,46.024 105.4,46.024 C105.864002,46.024 106.311998,45.9720005 106.744,45.868 C107.176002,45.7639995 107.563998,45.5960012 107.908,45.364 C108.252002,45.1319988 108.535999,44.8320018 108.76,44.464 C108.984001,44.0959982 109.136,43.6480026 109.216,43.12 L105.352,43.12 L105.352,39.472 Z M117.664,49.6 L117.664,31.504 L122.368,31.504 L131.056,42.568 L131.056,31.504 L135.736,31.504 L135.736,49.6 L131.056,49.6 L122.368,38.536 L122.368,49.6 L117.664,49.6 Z" id="INTERACTIVE-DESIGN-Copy-2" stroke="#4A4A4A" fill="url(#linearGradient-1)"></path>
                <path d="M40.704,0.504 L40.704,18.6 L36,18.6 L36,0.504 L40.704,0.504 Z M44.496,18.6 L44.496,0.504 L49.2,0.504 L57.888,11.568 L57.888,0.504 L62.568,0.504 L62.568,18.6 L57.888,18.6 L49.2,7.536 L49.2,18.6 L44.496,18.6 Z M73.224,4.488 L73.224,18.6 L68.52,18.6 L68.52,4.488 L64.656,4.488 L64.656,0.504 L77.088,0.504 L77.088,4.488 L73.224,4.488 Z M89.472,4.488 L83.88,4.488 L83.88,7.512 L89.16,7.512 L89.16,11.496 L83.88,11.496 L83.88,14.616 L89.472,14.616 L89.472,18.6 L79.176,18.6 L79.176,0.504 L89.472,0.504 L89.472,4.488 Z M97.56,8.592 L98.448,8.592 C99.3760046,8.592 100.087998,8.40000192 100.584,8.016 C101.080002,7.63199808 101.328,7.0800036 101.328,6.36 C101.328,5.6399964 101.080002,5.08800192 100.584,4.704 C100.087998,4.31999808 99.3760046,4.128 98.448,4.128 L97.56,4.128 L97.56,8.592 Z M107.904,18.6 L102.048,18.6 L97.56,11.64 L97.56,18.6 L92.856,18.6 L92.856,0.504 L100.176,0.504 C101.184005,0.504 102.063996,0.65199852 102.816,0.948 C103.568004,1.24400148 104.187998,1.64799744 104.676,2.16 C105.164002,2.67200256 105.531999,3.26399664 105.78,3.936 C106.028001,4.60800336 106.152,5.32799616 106.152,6.096 C106.152,7.47200688 105.820003,8.58799572 105.156,9.444 C104.491997,10.3000043 103.512006,10.8799985 102.216,11.184 L107.904,18.6 Z M119.712,11.88 L117.6,5.856 L115.488,11.88 L119.712,11.88 Z M120.96,15.456 L114.24,15.456 L113.16,18.6 L108.144,18.6 L115.032,0.504 L120.168,0.504 L127.056,18.6 L122.04,18.6 L120.96,15.456 Z M142.152,6.552 C141.063995,5.22399336 139.720008,4.56 138.12,4.56 C137.415996,4.56 136.764003,4.68799872 136.164,4.944 C135.563997,5.20000128 135.048002,5.5479978 134.616,5.988 C134.183998,6.4280022 133.844001,6.95199696 133.596,7.56 C133.347999,8.16800304 133.224,8.82399648 133.224,9.528 C133.224,10.2480036 133.347999,10.911997 133.596,11.52 C133.844001,12.128003 134.187998,12.6559978 134.628,13.104 C135.068002,13.5520022 135.583997,13.9039987 136.176,14.16 C136.768003,14.4160013 137.407997,14.544 138.096,14.544 C139.600008,14.544 140.951994,13.9040064 142.152,12.624 L142.152,18.192 L141.672,18.36 C140.951996,18.6160013 140.280003,18.8039994 139.656,18.924 C139.031997,19.0440006 138.416003,19.104 137.808,19.104 C136.559994,19.104 135.364006,18.8680024 134.22,18.396 C133.075994,17.9239976 132.068004,17.2600043 131.196,16.404 C130.323996,15.5479957 129.624003,14.5320059 129.096,13.356 C128.567997,12.1799941 128.304,10.896007 128.304,9.504 C128.304,8.11199304 128.563997,6.8360058 129.084,5.676 C129.604003,4.5159942 130.299996,3.5160042 131.172,2.676 C132.044004,1.8359958 133.055994,1.18000236 134.208,0.708 C135.360006,0.23599764 136.567994,0 137.832,0 C138.552004,0 139.259997,0.07599924 139.956,0.228 C140.652003,0.38000076 141.383996,0.6159984 142.152,0.936 L142.152,6.552 Z M151.992,4.488 L151.992,18.6 L147.288,18.6 L147.288,4.488 L143.424,4.488 L143.424,0.504 L155.856,0.504 L155.856,4.488 L151.992,4.488 Z M162.648,0.504 L162.648,18.6 L157.944,18.6 L157.944,0.504 L162.648,0.504 Z M169.656,0.504 L174.024,11.52 L178.416,0.504 L183.528,0.504 L175.896,18.6 L172.152,18.6 L164.544,0.504 L169.656,0.504 Z M195.72,4.488 L190.128,4.488 L190.128,7.512 L195.408,7.512 L195.408,11.496 L190.128,11.496 L190.128,14.616 L195.72,14.616 L195.72,18.6 L185.424,18.6 L185.424,0.504 L195.72,0.504 L195.72,4.488 Z M40.704,45.616 L41.784,45.616 C42.6000041,45.616 43.3279968,45.4880013 43.968,45.232 C44.6080032,44.9759987 45.1479978,44.6240022 45.588,44.176 C46.0280022,43.7279978 46.3639988,43.1960031 46.596,42.58 C46.8280012,41.9639969 46.944,41.2880037 46.944,40.552 C46.944,39.8319964 46.8240012,39.1600031 46.584,38.536 C46.3439988,37.9119969 46.0040022,37.3760022 45.564,36.928 C45.1239978,36.4799978 44.5840032,36.1280013 43.944,35.872 C43.3039968,35.6159987 42.584004,35.488 41.784,35.488 L40.704,35.488 L40.704,45.616 Z M36,31.504 L42.96,31.504 C44.1920062,31.504 45.3479946,31.7519975 46.428,32.248 C47.5080054,32.7440025 48.451996,33.4039959 49.26,34.228 C50.068004,35.0520041 50.7039977,36.0119945 51.168,37.108 C51.6320023,38.2040055 51.864,39.351994 51.864,40.552 C51.864,41.7360059 51.6360023,42.8759945 51.18,43.972 C50.7239977,45.0680055 50.092004,46.0319958 49.284,46.864 C48.475996,47.6960042 47.5320054,48.3599975 46.452,48.856 C45.3719946,49.3520025 44.2080062,49.6 42.96,49.6 L36,49.6 L36,31.504 Z M65.16,35.488 L59.568,35.488 L59.568,38.512 L64.848,38.512 L64.848,42.496 L59.568,42.496 L59.568,45.616 L65.16,45.616 L65.16,49.6 L54.864,49.6 L54.864,31.504 L65.16,31.504 L65.16,35.488 Z M78.48,36.136 C77.9679974,35.7199979 77.4560026,35.412001 76.944,35.212 C76.4319974,35.011999 75.9360024,34.912 75.456,34.912 C74.847997,34.912 74.3520019,35.0559986 73.968,35.344 C73.5839981,35.6320014 73.392,36.0079977 73.392,36.472 C73.392,36.7920016 73.487999,37.055999 73.68,37.264 C73.872001,37.472001 74.1239984,37.6519992 74.436,37.804 C74.7480016,37.9560008 75.099998,38.0879994 75.492,38.2 C75.884002,38.3120006 76.2719981,38.4319994 76.656,38.56 C78.1920077,39.0720026 79.3159964,39.7559957 80.028,40.612 C80.7400036,41.4680043 81.096,42.5839931 81.096,43.96 C81.096,44.8880046 80.9400016,45.7279962 80.628,46.48 C80.3159984,47.2320038 79.860003,47.8759973 79.26,48.412 C78.659997,48.9480027 77.9240044,49.3639985 77.052,49.66 C76.1799956,49.9560015 75.1920055,50.104 74.088,50.104 C71.7999886,50.104 69.6800098,49.4240068 67.728,48.064 L69.744,44.272 C70.4480035,44.8960031 71.1439966,45.3599985 71.832,45.664 C72.5200034,45.9680015 73.1999966,46.12 73.872,46.12 C74.6400038,46.12 75.2119981,45.9440018 75.588,45.592 C75.9640019,45.2399982 76.152,44.8400022 76.152,44.392 C76.152,44.1199986 76.1040005,43.884001 76.008,43.684 C75.9119995,43.483999 75.7520011,43.3000008 75.528,43.132 C75.3039989,42.9639992 75.0120018,42.8080007 74.652,42.664 C74.2919982,42.5199993 73.8560026,42.3600009 73.344,42.184 C72.735997,41.991999 72.1400029,41.7800012 71.556,41.548 C70.9719971,41.3159988 70.4520023,41.0080019 69.996,40.624 C69.5399977,40.2399981 69.1720014,39.7560029 68.892,39.172 C68.6119986,38.5879971 68.472,37.8480045 68.472,36.952 C68.472,36.0559955 68.6199985,35.2440036 68.916,34.516 C69.2120015,33.7879964 69.6279973,33.1640026 70.164,32.644 C70.7000027,32.1239974 71.3559961,31.7200014 72.132,31.432 C72.9080039,31.1439986 73.7759952,31 74.736,31 C75.6320045,31 76.5679951,31.1239988 77.544,31.372 C78.5200049,31.6200012 79.4559955,31.9839976 80.352,32.464 L78.48,36.136 Z M88.752,31.504 L88.752,49.6 L84.048,49.6 L84.048,31.504 L88.752,31.504 Z M101.352,39.472 L110.688,39.472 C110.688,40.4320048 110.648,41.3039961 110.568,42.088 C110.488,42.8720039 110.328001,43.5999966 110.088,44.272 C109.751998,45.2160047 109.296003,46.0519964 108.72,46.78 C108.143997,47.5080036 107.468004,48.1159976 106.692,48.604 C105.915996,49.0920024 105.064005,49.4639987 104.136,49.72 C103.207995,49.9760013 102.232005,50.104 101.208,50.104 C99.799993,50.104 98.5160058,49.8720023 97.356,49.408 C96.1959942,48.9439977 95.2000042,48.2920042 94.368,47.452 C93.5359958,46.6119958 92.8880023,45.6040059 92.424,44.428 C91.9599977,43.2519941 91.728,41.9520071 91.728,40.528 C91.728,39.119993 91.9559977,37.8280059 92.412,36.652 C92.8680023,35.4759941 93.5159958,34.4720042 94.356,33.64 C95.1960042,32.8079958 96.2079941,32.1600023 97.392,31.696 C98.5760059,31.2319977 99.8959927,31 101.352,31 C103.240009,31 104.895993,31.4079959 106.32,32.224 C107.744007,33.0400041 108.871996,34.3039914 109.704,36.016 L105.24,37.864 C104.823998,36.871995 104.284003,36.1600022 103.62,35.728 C102.955997,35.2959978 102.200004,35.08 101.352,35.08 C100.647996,35.08 100.008003,35.2119987 99.432,35.476 C98.8559971,35.7400013 98.364002,36.1159976 97.956,36.604 C97.547998,37.0920024 97.2280012,37.6799966 96.996,38.368 C96.7639988,39.0560034 96.648,39.8239958 96.648,40.672 C96.648,41.4400038 96.747999,42.1519967 96.948,42.808 C97.148001,43.4640033 97.447998,44.0319976 97.848,44.512 C98.248002,44.9920024 98.743997,45.3639987 99.336,45.628 C99.928003,45.8920013 100.615996,46.024 101.4,46.024 C101.864002,46.024 102.311998,45.9720005 102.744,45.868 C103.176002,45.7639995 103.563998,45.5960012 103.908,45.364 C104.252002,45.1319988 104.535999,44.8320018 104.76,44.464 C104.984001,44.0959982 105.136,43.6480026 105.216,43.12 L101.352,43.12 L101.352,39.472 Z M113.664,49.6 L113.664,31.504 L118.368,31.504 L127.056,42.568 L127.056,31.504 L131.736,31.504 L131.736,49.6 L127.056,49.6 L118.368,38.536 L118.368,49.6 L113.664,49.6 Z" id="INTERACTIVE-DESIGN" stroke="#4A4A4A" fill="#FFFFFF"></path>
                <g id="Group-3" transform="translate(0.000000, 17.000000)" fill-rule="nonzero" stroke="#4A4A4A">
                    <circle id="Oval-7-Copy-3" fill="#696969" cx="6" cy="5" r="4"></circle>
                    <circle id="Oval-7-Copy-2" fill="url(#linearGradient-1)" cx="4" cy="4" r="4"></circle>
                </g>
            </g>
        </g>
    </g>
</svg>
