<?xml version="1.0" encoding="UTF-8"?>
<svg width="739px" height="240px" viewBox="0 0 739 240" version="1.1" xmlns="http://www.w3.org/2000/svg" xmlns:xlink="http://www.w3.org/1999/xlink">
    <!-- Generator: sketchtool 51.1 (57501) - http://www.bohemiancoding.com/sketch -->
    <title>EF6DA68B-26AB-462E-B7E0-A55FB2470779</title>
    <desc>Created with sketchtool.</desc>
    <defs>
        <polygon id="path-1" points="0.229036364 0.215033333 33.7241879 0.215033333 33.7241879 12 0.229036364 12"></polygon>
        <polygon id="path-3" points="0.2686 0.215033333 33.7637515 0.215033333 33.7637515 12 0.2686 12"></polygon>
        <polygon id="path-5" points="0.230886842 0.211793651 12.8525184 0.211793651 12.8525184 22 0.230886842 22"></polygon>
    </defs>
    <g id="Page-2" stroke="none" stroke-width="1" fill="none" fill-rule="evenodd">
        <g id="ABOUT" transform="translate(-657.000000, -2442.000000)">
            <g id="num02_branding" transform="translate(657.000000, 2442.000000)">
                <rect id="bg02" stroke="#000000" stroke-width="2" x="32" y="17" width="706" height="222"></rect>
                <rect id="bg" stroke="#4A4A4A" stroke-width="3" fill="#FFFFFF" x="1.5" y="1.5" width="720" height="220"></rect>
                <g id="color" transform="translate(88.000000, 53.000000)">
                    <g id="로고">
                        <g id="lgo">
                            <g id="Group">
                                <path d="M85.1478446,93.036913 L85.1478446,120.736696 L20.0482467,120.736696 C12.2715901,120.736696 5.96719239,114.536094 5.96719239,106.88713 L5.96719239,42.8547391 L34.1293011,42.8547391 L34.1293011,67.9458261 L59.6385728,67.9458261 L59.6385728,93.036913 L85.1478446,93.036913 Z M8.6193663,45.4634348 L8.6193663,106.88713 C8.6193663,113.095309 13.7363026,118.128 20.0482467,118.128 L82.4956707,118.128 L82.4956707,95.6456087 L56.9863989,95.6456087 L56.9863989,70.5545217 L31.4771272,70.5545217 L31.4771272,45.4634348 L8.6193663,45.4634348 Z" id="Stroke-1" fill="#000000" fill-rule="nonzero"></path>
                                <path d="M69.0777924,32.9179565 L43.5685207,32.9179565 L43.5685207,5.21752174 L108.668118,5.21752174 C116.444565,5.21752174 122.74851,11.4185686 122.74851,19.0677391 L122.74851,83.0994783 L94.5877272,83.0994783 L94.5877272,58.0090435 L69.0777924,58.0090435 L69.0777924,32.9179565 Z M120.096336,19.0677391 C120.096336,12.8592695 114.979767,7.82621739 108.668118,7.82621739 L46.2206946,7.82621739 L46.2206946,30.3092609 L71.7299663,30.3092609 L71.7299663,55.4003478 L97.2399011,55.4003478 L97.2399011,80.4907826 L120.096336,80.4907826 L120.096336,19.0677391 Z" id="Stroke-3" fill="#000000" fill-rule="nonzero"></path>
                                <path d="M12.7547685,112.910609 L25.5097359,112.910609 L51.0190076,112.910609 L76.5282793,112.910609 L76.5282793,87.8195217 L51.0190076,87.8195217 L51.0190076,62.7284348 L25.5097359,62.7284348 L25.5097359,37.6373478 L-0.000198913043,37.6373478 L-0.000198913043,62.7284348 L-0.000198913043,87.8195217 L-0.000198913043,100.365391 C-0.000198913043,107.294087 5.71059457,112.910609 12.7547685,112.910609" id="Fill-5" fill="#8FD85D"></path>
                                <path d="M77.8543663,86.5151739 L77.8543663,114.214957 L12.7547685,114.214957 C4.9781118,114.214957 -1.32628587,108.014355 -1.32628587,100.365391 L-1.32628587,36.333 L26.8358228,36.333 L26.8358228,61.424087 L52.3450946,61.424087 L52.3450946,86.5151739 L77.8543663,86.5151739 Z M1.32588804,38.9416957 L1.32588804,100.365391 C1.32588804,106.57357 6.44282437,111.606261 12.7547685,111.606261 L75.2021924,111.606261 L75.2021924,89.1238696 L49.6929207,89.1238696 L49.6929207,64.0327826 L24.1836489,64.0327826 L24.1836489,38.9416957 L1.32588804,38.9416957 Z" id="Stroke-7" fill="#000000" fill-rule="nonzero"></path>
                                <path d="M102.037684,0.000130434783 L89.2833793,0.000130434783 L63.7734446,0.000130434783 L38.2641728,0.000130434783 L38.2641728,25.0918696 L63.7734446,25.0918696 L63.7734446,50.1829565 L89.2833793,50.1829565 L89.2833793,75.2733913 L114.791988,75.2733913 L114.791988,50.1829565 L114.791988,25.0918696 L114.791988,12.546 C114.791988,5.61730435 109.081858,0.000130434783 102.037684,0.000130434783" id="Fill-9" fill="#80C9F6"></path>
                                <path d="M62.4473576,26.3962174 L36.9380859,26.3962174 L36.9380859,-1.30421739 L102.037684,-1.30421739 C109.81413,-1.30421739 116.118075,4.8968295 116.118075,12.546 L116.118075,76.5777391 L87.9572924,76.5777391 L87.9572924,51.4873043 L62.4473576,51.4873043 L62.4473576,26.3962174 Z M113.465901,12.546 C113.465901,6.33753039 108.349332,1.30447826 102.037684,1.30447826 L39.5902598,1.30447826 L39.5902598,23.7875217 L65.0995315,23.7875217 L65.0995315,48.8786087 L90.6094663,48.8786087 L90.6094663,73.9690435 L113.465901,73.9690435 L113.465901,12.546 Z" id="Stroke-11" fill="#000000" fill-rule="nonzero"></path>
                            </g>
                        </g>
                    </g>
                    <text id="#-97E055" font-family="NanumSquareOTFEB, NanumSquareOTF" font-size="20" font-weight="600" fill="#97E055">
                        <tspan x="445" y="42"># 97E055</tspan>
                    </text>
                    <ellipse id="Oval-2" fill="#97E055" cx="418.040063" cy="36.8924731" rx="10.040063" ry="9.89247312"></ellipse>
                    <text id="#-80C9F6" font-family="NanumSquareOTFEB, NanumSquareOTF" font-size="20" font-weight="600" fill="#80C9F6">
                        <tspan x="445" y="98"># 80C9F6</tspan>
                    </text>
                    <ellipse id="Oval-2-Copy" fill="#80C9F6" cx="418.040063" cy="87.8924731" rx="10.040063" ry="9.89247312"></ellipse>
                </g>
                <g id="ccdr_logo" transform="translate(280.000000, 67.000000)">
                    <path d="M40,79 L71.9619158,79 C73.0876176,79 74,78.0744696 74,76.933315 L74,74 L42.0380842,74 C40.912722,74 40,74.9255304 40,76.066685 L40,79 Z" id="Fill-1" fill="#8FD85D"></path>
                    <path d="M62,71 L70.0966093,71 C71.1477935,71 72,70.0927253 72,68.9736153 L72,66 L62,66 L62,71 Z" id="Fill-3" fill="#8FD85D"></path>
                    <g id="Group-7" transform="translate(40.000000, 81.000000)">
                        <mask id="mask-2" fill="white">
                            <use xlink:href="#path-1"></use>
                        </mask>
                        <g id="Clip-6"></g>
                        <path d="M25.0078242,6.90203333 L8.75479394,6.90203333 C8.25990505,6.90203333 7.87972323,6.4587 7.87972323,6.01503333 C7.87972323,5.57203333 8.25990505,5.1287 8.75479394,5.1287 L25.0078242,5.1287 C25.5023697,5.1287 25.8832384,5.57203333 25.8832384,6.01503333 C25.8832384,6.4587 25.5023697,6.90203333 25.0078242,6.90203333 M27.2913192,0.215033333 L6.6234404,0.215033333 C3.08366263,0.215033333 0.229036364,2.87536667 0.229036364,6.12603333 C0.229036364,9.37736667 3.08366263,12.0000333 6.6234404,12.0000333 L27.2913192,12.0000333 C30.7933192,12.0000333 33.7241879,9.37736667 33.7241879,6.12603333 C33.7241879,2.87536667 30.7933192,0.215033333 27.2913192,0.215033333" id="Fill-5" fill="#8FD85D" mask="url(#mask-2)"></path>
                    </g>
                    <path d="M60.5658317,57.966967 L60.5658317,54 L55.6829373,54 C54.4408906,54 53.4341683,54.980981 53.4341683,56.1908575 L53.4341683,57.966967 L43.248769,57.966967 C42.0067223,57.966967 41,58.9476143 41,60.1574908 L41,62.8104771 L53.4341683,62.8104771 L53.4341683,66.1564898 L43.248769,66.1564898 C42.0067223,66.1564898 41,67.1371371 41,68.3470137 L41,71 L60.5658317,71 L60.5658317,66.1564898 L60.5658317,62.8104771 L70.7508885,62.8104771 C71.9929351,62.8104771 73,61.8294962 73,60.6196196 L73,57.966967 L60.5658317,57.966967 Z" id="Fill-8" fill="#8FD85D"></path>
                    <path d="M1,79 L32.9619362,79 C34.0872871,79 35,78.0744696 35,76.933315 L35,74 L3.03806384,74 C1.91271292,74 1,74.9255304 1,76.066685 L1,79 Z" id="Fill-10" fill="#8FD85D"></path>
                    <g id="Group-14" transform="translate(1.000000, 81.000000)">
                        <mask id="mask-4" fill="white">
                            <use xlink:href="#path-3"></use>
                        </mask>
                        <g id="Clip-13"></g>
                        <path d="M25.0477313,6.90203333 L8.79470101,6.90203333 C8.29981212,6.90203333 7.91928687,6.4587 7.91928687,6.01503333 C7.91928687,5.57203333 8.29981212,5.1287 8.79470101,5.1287 L25.0477313,5.1287 C25.5422768,5.1287 25.9231455,5.57203333 25.9231455,6.01503333 C25.9231455,6.4587 25.5422768,6.90203333 25.0477313,6.90203333 M27.3312263,0.215033333 L6.66334747,0.215033333 C3.1235697,0.215033333 0.2686,2.87536667 0.2686,6.12603333 C0.2686,9.37736667 3.1235697,12.0000333 6.66334747,12.0000333 L27.3312263,12.0000333 C30.8332263,12.0000333 33.7637515,9.37736667 33.7637515,6.12603333 C33.7637515,2.87536667 30.8332263,0.215033333 27.3312263,0.215033333" id="Fill-12" fill="#8FD85D" mask="url(#mask-4)"></path>
                    </g>
                    <path d="M23,71 L31.0963473,71 C32.1474975,71 33,70.0927253 33,68.9736153 L33,66 L23,66 L23,71 Z" id="Fill-15" fill="#8FD85D"></path>
                    <path d="M21.5656223,57.966967 L21.5656223,54 L16.6831226,54 C15.4410893,54 14.4343777,54.980981 14.4343777,56.1908575 L14.4343777,57.966967 L4.24874493,57.966967 C3.00671155,57.966967 2,58.9476143 2,60.1574908 L2,62.8104771 L14.4343777,62.8104771 L14.4343777,66.1564898 L4.24874493,66.1564898 C3.00671155,66.1564898 2,67.1371371 2,68.3470137 L2,71 L21.5656223,71 L21.5656223,66.1564898 L21.5656223,62.8104771 L31.7509125,62.8104771 C32.9929459,62.8104771 34,61.8294962 34,60.6196196 L34,57.966967 L21.5656223,57.966967 Z" id="Fill-17" fill="#8FD85D"></path>
                    <path d="M86.8056088,82.8197691 L86.8056088,66 L82.2207278,66 C80.9941689,66 80,67.0174602 80,68.2727546 L80,82.8197691 L80,86.1439108 L80,89 L98.778934,89 C100.005493,89 101,87.9821937 101,86.7268992 L101,82.8197691 L86.8056088,82.8197691 Z" id="Fill-19" fill="#80C9F6"></path>
                    <path d="M80,63 L97.8801957,63 C99.0510343,63 100,62.0744696 100,60.933315 L100,58 L82.1198043,58 C80.949319,58 80,58.925186 80,60.066685 L80,63 Z" id="Fill-21" fill="#80C9F6"></path>
                    <path d="M103,69 L109,69 L109,54 L104.868383,54 C103.836724,54 103,54.922179 103,56.059968 L103,69 Z" id="Fill-23" fill="#80C9F6"></path>
                    <g id="Group-27" transform="translate(103.000000, 71.000000)">
                        <mask id="mask-6" fill="white">
                            <use xlink:href="#path-5"></use>
                        </mask>
                        <g id="Clip-26"></g>
                        <path d="M6.82257105,0.211793651 L4.07580789,0.211793651 L0.230886842,0.211793651 L0.230886842,22.0001746 L4.57665,22.0001746 C5.81712368,22.0001746 6.82257105,20.9735079 6.82257105,19.7072857 L6.82257105,5.28087302 L10.6065974,5.28087302 C11.8470711,5.28087302 12.8525184,4.25420635 12.8525184,2.98798413 L12.8525184,0.211793651 L6.82257105,0.211793651 Z" id="Fill-25" fill="#80C9F6" mask="url(#mask-6)"></path>
                    </g>
                    <path d="M116,63 L128.965872,63 C130.089389,63 131,62.0744696 131,60.933315 L131,58 L118.034128,58 C116.91095,58 116,58.925186 116,60.066685 L116,63 Z" id="Fill-28" fill="#80C9F6"></path>
                    <path d="M120,71 L133.932505,71 C135.074451,71 136,70.0744696 136,68.933315 L136,66 L122.067495,66 C120.925549,66 120,66.9255304 120,68.066685 L120,71 Z" id="Fill-30" fill="#80C9F6"></path>
                    <path d="M122,80 L136.025585,80 C137.116449,80 138,79.0744696 138,77.933315 L138,75 L123.974415,75 C122.884209,75 122,75.9255304 122,77.066685 L122,80 Z" id="Fill-32" fill="#80C9F6"></path>
                    <path d="M124,88 L138.992561,88 C140.101002,88 141,87.074814 141,85.933315 L141,83 L126.007439,83 C124.898998,83 124,83.9255304 124,85.066685 L124,88 Z" id="Fill-34" fill="#80C9F6"></path>
                    <path d="M144,93 L147.194837,93 C148.191889,93 149,92.0754266 149,90.935452 L149,54 L145.805163,54 C144.808412,54 144,54.9245734 144,56.064548 L144,93 Z" id="Fill-36" fill="#80C9F6"></path>
                    <path d="M40,24 L40,21.094612 C40,19.9380181 40.9789815,19 42.1860842,19 L74,19 L74,21.905388 C74,23.0620891 73.021243,24 71.8139158,24 L40,24 Z M71.8139158,23.677752 C72.8354895,23.677752 73.6636793,22.8841247 73.6636793,21.905388 L73.6636793,19.322248 L42.1860842,19.322248 C41.1647263,19.322248 40.3363207,20.1159907 40.3363207,21.094612 L40.3363207,23.677752 L71.8139158,23.677752 Z" id="Stroke-38" fill="#000000" fill-rule="nonzero"></path>
                    <path d="M62,17 L62,12 L73,12 L73,14.943091 C73,16.0790611 72.0147789,17 70.7995174,17 L62,17 Z M70.7995174,16.677752 C71.8243837,16.677752 72.6552589,15.9010884 72.6552589,14.943091 L72.6552589,12.322248 L62.3447411,12.322248 L62.3447411,16.677752 L70.7995174,16.677752 Z" id="Stroke-40" fill="#000000" fill-rule="nonzero"></path>
                    <path d="M65.069522,33.6217027 C65.4486356,33.6217027 65.7765757,33.279456 65.7765757,32.9084032 C65.7765757,32.5379272 65.4485512,32.195764 65.069522,32.195764 L48.7389628,32.195764 C48.3597955,32.195764 48.0322541,32.5377036 48.0322541,32.9084032 C48.0322541,33.2796796 48.3597112,33.6217027 48.7389628,33.6217027 L65.069522,33.6217027 Z M65.069522,33.951781 L48.7389628,33.951781 C48.1620279,33.951781 47.6871816,33.4558125 47.6871816,32.9084032 C47.6871816,32.3615376 48.1621544,31.8656856 48.7389628,31.8656856 L65.069522,31.8656856 C65.6461233,31.8656856 66.1216482,32.3617069 66.1216482,32.9084032 C66.1216482,33.4556431 65.6462498,33.951781 65.069522,33.951781 Z M67.3639095,27 C70.9880724,27 74,29.7171607 74,33.0183194 C74,36.3134043 70.9957829,39 67.3639095,39 L46.5974424,39 C42.9476843,39 40,36.3312678 40,33.0183194 C40,29.6991321 42.9552914,27 46.5974424,27 L67.3639095,27 Z M67.3639095,27.3300784 L46.5974424,27.3300784 C43.1423917,27.3300784 40.3450726,29.884931 40.3450726,33.0183194 C40.3450726,36.1447881 43.1341484,38.6699216 46.5974424,38.6699216 L67.3639095,38.6699216 C70.8102027,38.6699216 73.6549274,36.1259559 73.6549274,33.0183194 C73.6549274,29.9039204 70.8018662,27.3300784 67.3639095,27.3300784 Z" id="Stroke-42" fill="#000000" fill-rule="nonzero"></path>
                    <path d="M60.6975217,4.11946332 L73,4.11946332 L73,7.04733489 C73,8.39940254 71.9277331,9.4956592 70.6052531,9.4956592 L60.6975217,9.4956592 L60.6975217,18 L41,18 L41,15.0717819 C41,13.7197143 42.071928,12.6238041 43.394408,12.6238041 L53.3024783,12.6238041 L53.3024783,9.4956592 L41,9.4956592 L41,6.56744114 C41,5.21514258 42.0718149,4.11946332 43.394408,4.11946332 L53.3024783,4.11946332 L53.3024783,2.44832432 C53.3024783,1.09619872 54.374463,0 55.6968863,0 L60.6975217,1.92342629e-17 L60.6975217,4.11946332 Z M60.3586105,4.465957 L60.3586105,0.346493676 L55.6968863,0.346493676 C54.5616544,0.346493676 53.6413895,1.28754558 53.6413895,2.44832432 L53.6413895,4.465957 L43.394408,4.465957 C42.2589825,4.465957 41.3389112,5.40651392 41.3389112,6.56744114 L41.3389112,9.14916553 L53.6413895,9.14916553 L53.6413895,12.9702978 L43.394408,12.9702978 C42.2591035,12.9702978 41.3389112,13.9110775 41.3389112,15.0717819 L41.3389112,17.6535063 L60.3586105,17.6535063 L60.3586105,9.14916553 L70.6052531,9.14916553 C71.7405576,9.14916553 72.6610888,8.20803937 72.6610888,7.04733489 L72.6610888,4.465957 L60.3586105,4.465957 Z" id="Stroke-44" fill="#000000" fill-rule="nonzero"></path>
                    <path d="M0,24 L0,21.094612 C0,19.9380181 0.978971851,19 2.18606261,19 L34,19 L34,21.905388 C34,23.0619819 33.0210281,24 31.8139374,24 L0,24 Z M0.336317325,23.677752 L31.8139374,23.677752 C32.8352852,23.677752 33.6636827,22.8840093 33.6636827,21.905388 L33.6636827,19.322248 L2.18606261,19.322248 C1.16471478,19.322248 0.336317325,20.1159907 0.336317325,21.094612 L0.336317325,23.677752 Z" id="Stroke-46" fill="#000000" fill-rule="nonzero"></path>
                    <path d="M26.069867,33.6217027 C26.4489806,33.6217027 26.7769207,33.279456 26.7769207,32.9084032 C26.7769207,32.5379272 26.4488962,32.195764 26.069867,32.195764 L9.73930783,32.195764 C9.36006006,32.195764 9.03225414,32.5377927 9.03225414,32.9084032 C9.03225414,33.2795905 9.3599757,33.6217027 9.73930783,33.6217027 L26.069867,33.6217027 Z M26.069867,33.951781 L9.73930783,33.951781 C9.16233847,33.951781 8.68718157,33.4557596 8.68718157,32.9084032 C8.68718157,32.3615905 9.16246496,31.8656856 9.73930783,31.8656856 L26.069867,31.8656856 C26.6464684,31.8656856 27.1219933,32.3617069 27.1219933,32.9084032 C27.1219933,33.4556431 26.6465949,33.951781 26.069867,33.951781 Z M28.3642545,27 C31.9883547,27 35,29.7171054 35,33.0183194 C35,36.3134592 31.9960646,39 28.3642545,39 L7.59778748,39 C3.94796605,39 1,36.331211 1,33.0183194 C1,29.6991895 3.9555738,27 7.59778748,27 L28.3642545,27 Z M28.3642545,27.3300784 L7.59778748,27.3300784 C4.14266866,27.3300784 1.34507257,29.8849942 1.34507257,33.0183194 C1.34507257,36.1447254 4.1344248,38.6699216 7.59778748,38.6699216 L28.3642545,38.6699216 C31.8104791,38.6699216 34.6549274,36.1260165 34.6549274,33.0183194 C34.6549274,29.9038593 31.8021432,27.3300784 28.3642545,27.3300784 Z" id="Stroke-48" fill="#000000" fill-rule="nonzero"></path>
                    <path d="M23,17 L23,12 L34,12 L34,14.943091 C34,16.0790081 33.0145218,17 31.7992416,17 L23,17 Z M23.3447303,16.677752 L31.7992416,16.677752 C32.8241506,16.677752 33.6552697,15.9010185 33.6552697,14.943091 L33.6552697,12.322248 L23.3447303,12.322248 L23.3447303,16.677752 Z" id="Stroke-50" fill="#000000" fill-rule="nonzero"></path>
                    <path d="M21.6973131,4.11946332 L34,4.11946332 L34,7.04733489 C34,8.39940254 32.9277444,9.4956592 31.6052785,9.4956592 L21.6973131,9.4956592 L21.6973131,18 L2,18 L2,15.0717819 C2,13.7197143 3.07191667,12.6238041 4.39438261,12.6238041 L14.3026869,12.6238041 L14.3026869,9.4956592 L2,9.4956592 L2,6.56744114 C2,5.21514258 3.0718036,4.11946332 4.39438261,4.11946332 L14.3026869,4.11946332 L14.3026869,2.44832432 C14.3026869,1.09619872 15.3746602,0 16.6970695,0 L21.6973131,1.92342629e-17 L21.6973131,4.11946332 Z M33.6610923,4.465957 L21.3584054,4.465957 L21.3584054,0.346493676 L16.6970695,0.346493676 C15.5618497,0.346493676 14.6415946,1.28754558 14.6415946,2.44832432 L14.6415946,4.465957 L4.39438261,4.465957 C3.25896915,4.465957 2.33890766,5.40651392 2.33890766,6.56744114 L2.33890766,9.14916553 L14.6415946,9.14916553 L14.6415946,12.9702978 L4.39438261,12.9702978 C3.2590902,12.9702978 2.33890766,13.9110775 2.33890766,15.0717819 L2.33890766,17.6535063 L21.3584054,17.6535063 L21.3584054,9.14916553 L31.6052785,9.14916553 C32.7405709,9.14916553 33.6610923,8.20803937 33.6610923,7.04733489 L33.6610923,4.465957 Z" id="Stroke-52" fill="#000000" fill-rule="nonzero"></path>
                    <path d="M102,28.5703546 L102,32.5900767 C102,33.9209377 100.89658,35 99.5356764,35 L80,35 L80,14.4095823 C80,13.0787213 81.1030717,12 82.4639749,12 L87.3654191,12 L87.3654191,28.5703546 L102,28.5703546 Z M87.0166611,28.9114136 L87.0166611,12.3410591 L82.4639749,12.3410591 C81.2956854,12.3410591 80.3487579,13.267083 80.3487579,14.4095823 L80.3487579,34.6589409 L99.5356764,34.6589409 C100.703966,34.6589409 101.651242,33.732576 101.651242,32.5900767 L101.651242,28.9114136 L87.0166611,28.9114136 Z" id="Stroke-54" fill="#000000" fill-rule="nonzero"></path>
                    <path d="M80,9 L80,6.09447703 C80,4.9379576 81.0105566,4 82.2565919,4 L100,4 L100,6.90552297 C100,8.06214954 98.9896752,9 97.7434081,9 L80,9 Z M97.7434081,8.67777277 C98.7979307,8.67777277 99.652832,7.88419665 99.652832,6.90552297 L99.652832,4.32222723 L82.2565919,4.32222723 C81.2022921,4.32222723 80.347168,5.11591879 80.347168,6.09447703 L80.347168,8.67777277 L97.7434081,8.67777277 Z" id="Stroke-56" fill="#000000" fill-rule="nonzero"></path>
                    <path d="M103,16 L103,2.32714254 C103,1.04191187 104.005214,0 105.244918,0 L110,0 L110,16 L103,16 Z M109.654628,15.6419781 L109.654628,0.358021929 L105.244918,0.358021929 C104.195949,0.358021929 103.345372,1.23965115 103.345372,2.32714254 L103.345372,15.6419781 L109.654628,15.6419781 Z" id="Stroke-58" fill="#000000" fill-rule="nonzero"></path>
                    <path d="M109.953185,36.5478436 C109.953185,37.9020855 108.868071,39 107.529451,39 L103,39 L103,17 L116,17 L116,19.9324542 C116,21.2866961 114.914886,22.3846105 113.576265,22.3846105 L109.953185,22.3846105 L109.953185,36.5478436 Z M103.343062,17.347036 L103.343062,38.652964 L107.529451,38.652964 C108.678587,38.652964 109.610123,37.7104392 109.610123,36.5478436 L109.610123,22.0375745 L113.576265,22.0375745 C114.725401,22.0375745 115.656938,21.0950497 115.656938,19.9324542 L115.656938,17.347036 L103.343062,17.347036 Z" id="Stroke-60" fill="#000000" fill-rule="nonzero"></path>
                    <path d="M116,9 L116,6.09447703 C116,4.9379576 117.029367,4 118.298597,4 L132,4 L132,6.90552297 C132,8.06214954 130.970869,9 129.701403,9 L116,9 Z M129.701403,8.67777277 C130.775555,8.67777277 131.64637,7.88419665 131.64637,6.90552297 L131.64637,4.32222723 L118.298597,4.32222723 C117.224672,4.32222723 116.35363,5.11591879 116.35363,6.09447703 L116.35363,8.67777277 L129.701403,8.67777277 Z" id="Stroke-62" fill="#000000" fill-rule="nonzero"></path>
                    <path d="M119,17 L119,14.094612 C119,12.9379109 119.981659,12 121.192566,12 L135,12 L135,14.905388 C135,16.0620891 134.018341,17 132.807434,17 L119,17 Z M132.807434,16.677752 C133.832037,16.677752 134.662682,15.8841247 134.662682,14.905388 L134.662682,12.322248 L121.192566,12.322248 C120.167963,12.322248 119.337318,13.1158753 119.337318,14.094612 L119.337318,16.677752 L132.807434,16.677752 Z" id="Stroke-64" fill="#000000" fill-rule="nonzero"></path>
                    <path d="M122,26 L122,23.094612 C122,21.9378029 122.997117,21 124.226835,21 L139,21 L139,23.905388 C139,25.0621963 138.003227,26 136.773165,26 L122,26 Z M136.773165,25.677752 C137.814002,25.677752 138.65741,24.8842402 138.65741,23.905388 L138.65741,21.322248 L124.226835,21.322248 C123.186315,21.322248 122.34259,22.1157839 122.34259,23.094612 L122.34259,25.677752 L136.773165,25.677752 Z" id="Stroke-66" fill="#000000" fill-rule="nonzero"></path>
                    <path d="M124,34 L124,31.094612 C124,29.9380181 125.01128,29 126.258208,29 L142,29 L142,31.905388 C142,33.0619819 140.98872,34 139.741792,34 L124,34 Z M139.741792,33.677752 C140.796847,33.677752 141.652583,32.8840093 141.652583,31.905388 L141.652583,29.322248 L126.258208,29.322248 C125.203153,29.322248 124.347417,30.1159907 124.347417,31.094612 L124.347417,33.677752 L139.741792,33.677752 Z" id="Stroke-68" fill="#000000" fill-rule="nonzero"></path>
                    <path d="M144,39 L144,2.21703311 C144,0.99284119 144.991268,0 146.213519,0 L150,0 L150,36.7829669 C150,38.0072722 149.00896,39 147.786481,39 L144,39 Z M147.786481,38.658918 C148.820875,38.658918 149.659459,37.8189066 149.659459,36.7829669 L149.659459,0.341082017 L146.213519,0.341082017 C145.179344,0.341082017 144.340541,1.18121559 144.340541,2.21703311 L144.340541,38.658918 L147.786481,38.658918 Z" id="Stroke-70" fill="#000000" fill-rule="nonzero"></path>
                </g>
            </g>
        </g>
    </g>
</svg>