<?xml version="1.0" encoding="UTF-8"?>
<svg width="367px" height="85px" viewBox="0 0 367 85" version="1.1" xmlns="http://www.w3.org/2000/svg" xmlns:xlink="http://www.w3.org/1999/xlink">
    <!-- Generator: sketchtool 51.1 (57501) - http://www.bohemiancoding.com/sketch -->
    <title>D27F166C-5418-4B4E-A8DE-8858600528A9</title>
    <desc>Created with sketchtool.</desc>
    <defs></defs>
    <g id="Page-2" stroke="none" stroke-width="1" fill="none" fill-rule="evenodd">
        <g id="ABOUT" transform="translate(-854.000000, -2154.000000)">
            <g id="num02_title" transform="translate(854.000000, 2153.000000)">
                <path d="M114.540646,85.3376418 C108.10007,85.3376418 102.613653,83.1776261 102.613653,78.737594 L102.613653,77.5375853 C102.613653,73.0975531 108.10007,70.9375375 114.540646,70.9375375 C120.981222,70.9375375 126.467639,73.0975531 126.467639,77.5375853 L126.467639,78.737594 C126.467639,83.1776261 120.981222,85.3376418 114.540646,85.3376418 Z M101.858276,54.0974156 L101.858276,50.017386 L112.035977,50.017386 L112.035977,46.1773582 L117.045315,46.1773582 L117.045315,50.017386 L127.223015,50.017386 L127.223015,54.0974156 L117.045315,54.0974156 L117.045315,54.5374188 C117.045315,55.7374274 117.880204,56.777435 119.510226,57.337439 C122.651001,58.3774466 125.672506,59.2174526 128.614498,59.9774581 L127.342285,63.817486 C124.599077,63.0974807 121.259519,62.1374738 118.556067,61.2974677 C116.170668,60.5774625 114.898456,59.7774567 114.620159,59.2174526 L114.580403,59.2174526 C114.302106,59.7774567 112.95038,60.5774625 110.564982,61.337468 C107.782016,62.2174744 104.561728,63.137481 101.739007,63.8574862 L100.466794,59.9774581 C103.210002,59.2574529 106.350777,58.4574471 109.491552,57.337439 C111.161331,56.7374347 112.035977,55.7374274 112.035977,54.5374188 L112.035977,54.0974156 L101.858276,54.0974156 Z M97.6043156,65.0974952 L131.476976,65.0974952 L131.476976,69.1775248 L97.6043156,69.1775248 L97.6043156,65.0974952 Z M114.540646,74.9775668 C111.002305,74.9775668 107.583233,76.1375752 107.583233,77.8575876 L107.583233,78.4175917 C107.583233,80.1376041 111.002305,81.2976125 114.540646,81.2976125 C118.078987,81.2976125 121.498059,80.1376041 121.498059,78.4175917 L121.498059,77.8575876 C121.498059,76.1375752 118.078987,74.9775668 114.540646,74.9775668 Z M160.78817,85.3376418 C154.347594,85.3376418 148.861177,83.1776261 148.861177,78.737594 L148.861177,77.5375853 C148.861177,73.0975531 154.347594,70.9375375 160.78817,70.9375375 C167.228747,70.9375375 172.715164,73.0975531 172.715164,77.5375853 L172.715164,78.737594 C172.715164,83.1776261 167.228747,85.3376418 160.78817,85.3376418 Z M148.105801,54.0974156 L148.105801,50.017386 L158.283502,50.017386 L158.283502,46.1773582 L163.292839,46.1773582 L163.292839,50.017386 L173.47054,50.017386 L173.47054,54.0974156 L163.292839,54.0974156 L163.292839,54.5374188 C163.292839,55.7374274 164.127729,56.777435 165.757751,57.337439 C168.898526,58.3774466 171.920031,59.2174526 174.862022,59.9774581 L173.58981,63.817486 C170.846601,63.0974807 167.507043,62.1374738 164.803591,61.2974677 C162.418193,60.5774625 161.14598,59.7774567 160.867684,59.2174526 L160.827927,59.2174526 C160.549631,59.7774567 159.197905,60.5774625 156.812506,61.337468 C154.029541,62.2174744 150.809253,63.137481 147.986531,63.8574862 L146.714318,59.9774581 C149.457527,59.2574529 152.598302,58.4574471 155.739077,57.337439 C157.408856,56.7374347 158.283502,55.7374274 158.283502,54.5374188 L158.283502,54.0974156 L148.105801,54.0974156 Z M143.85184,65.0974952 L177.724501,65.0974952 L177.724501,69.1775248 L143.85184,69.1775248 L143.85184,65.0974952 Z M160.78817,74.9775668 C157.249829,74.9775668 153.830758,76.1375752 153.830758,77.8575876 L153.830758,78.4175917 C153.830758,80.1376041 157.249829,81.2976125 160.78817,81.2976125 C164.326512,81.2976125 167.745583,80.1376041 167.745583,78.4175917 L167.745583,77.8575876 C167.745583,76.1375752 164.326512,74.9775668 160.78817,74.9775668 Z M219.439768,46.977364 L219.439768,60.0174584 L224.528618,60.0174584 L224.528618,64.4174903 L219.439768,64.4174903 L219.439768,84.1776334 L214.390674,84.1776334 L214.390674,46.977364 L219.439768,46.977364 Z M191.967927,74.5375636 L191.967927,50.1773872 L209.063284,50.1773872 L209.063284,54.5374188 L197.01702,54.5374188 L197.01702,70.177532 L199.521689,70.177532 C203.29857,70.177532 207.989854,69.89753 211.726979,69.3775262 L212.283572,73.6975575 C208.546447,74.2975618 203.1793,74.5375636 198.32899,74.5375636 L191.967927,74.5375636 Z M267.476341,46.977364 L267.476341,84.1776334 L262.427247,84.1776334 L262.427247,46.977364 L267.476341,46.977364 Z M243.900651,64.3374897 L243.900651,71.0575384 L247.757046,71.0575384 C251.3749,71.0575384 255.469835,70.8175366 259.167203,70.3375332 L259.723796,74.5775639 C255.986671,75.1375679 251.414657,75.3375694 246.564346,75.3375694 L238.931071,75.3375694 L238.931071,60.2174599 L250.858064,60.2174599 L250.858064,54.1374159 L238.931071,54.1374159 L238.931071,49.8573849 L255.827644,49.8573849 L255.827644,64.3374897 L243.900651,64.3374897 Z" id="층층다리-copy" stroke="#4A4A4A" fill="#4A4A4A"></path>
                <path d="M111.540646,82.3376418 C105.10007,82.3376418 99.6136527,80.1776261 99.6136527,75.737594 L99.6136527,74.5375853 C99.6136527,70.0975531 105.10007,67.9375375 111.540646,67.9375375 C117.981222,67.9375375 123.467639,70.0975531 123.467639,74.5375853 L123.467639,75.737594 C123.467639,80.1776261 117.981222,82.3376418 111.540646,82.3376418 Z M98.8582765,51.0974156 L98.8582765,47.017386 L109.035977,47.017386 L109.035977,43.1773582 L114.045315,43.1773582 L114.045315,47.017386 L124.223015,47.017386 L124.223015,51.0974156 L114.045315,51.0974156 L114.045315,51.5374188 C114.045315,52.7374274 114.880204,53.777435 116.510226,54.337439 C119.651001,55.3774466 122.672506,56.2174526 125.614498,56.9774581 L124.342285,60.817486 C121.599077,60.0974807 118.259519,59.1374738 115.556067,58.2974677 C113.170668,57.5774625 111.898456,56.7774567 111.620159,56.2174526 L111.580403,56.2174526 C111.302106,56.7774567 109.95038,57.5774625 107.564982,58.337468 C104.782016,59.2174744 101.561728,60.137481 98.7390066,60.8574862 L97.466794,56.9774581 C100.210002,56.2574529 103.350777,55.4574471 106.491552,54.337439 C108.161331,53.7374347 109.035977,52.7374274 109.035977,51.5374188 L109.035977,51.0974156 L98.8582765,51.0974156 Z M94.6043156,62.0974952 L128.476976,62.0974952 L128.476976,66.1775248 L94.6043156,66.1775248 L94.6043156,62.0974952 Z M111.540646,71.9775668 C108.002305,71.9775668 104.583233,73.1375752 104.583233,74.8575876 L104.583233,75.4175917 C104.583233,77.1376041 108.002305,78.2976125 111.540646,78.2976125 C115.078987,78.2976125 118.498059,77.1376041 118.498059,75.4175917 L118.498059,74.8575876 C118.498059,73.1375752 115.078987,71.9775668 111.540646,71.9775668 Z M157.78817,82.3376418 C151.347594,82.3376418 145.861177,80.1776261 145.861177,75.737594 L145.861177,74.5375853 C145.861177,70.0975531 151.347594,67.9375375 157.78817,67.9375375 C164.228747,67.9375375 169.715164,70.0975531 169.715164,74.5375853 L169.715164,75.737594 C169.715164,80.1776261 164.228747,82.3376418 157.78817,82.3376418 Z M145.105801,51.0974156 L145.105801,47.017386 L155.283502,47.017386 L155.283502,43.1773582 L160.292839,43.1773582 L160.292839,47.017386 L170.47054,47.017386 L170.47054,51.0974156 L160.292839,51.0974156 L160.292839,51.5374188 C160.292839,52.7374274 161.127729,53.777435 162.757751,54.337439 C165.898526,55.3774466 168.920031,56.2174526 171.862022,56.9774581 L170.58981,60.817486 C167.846601,60.0974807 164.507043,59.1374738 161.803591,58.2974677 C159.418193,57.5774625 158.14598,56.7774567 157.867684,56.2174526 L157.827927,56.2174526 C157.549631,56.7774567 156.197905,57.5774625 153.812506,58.337468 C151.029541,59.2174744 147.809253,60.137481 144.986531,60.8574862 L143.714318,56.9774581 C146.457527,56.2574529 149.598302,55.4574471 152.739077,54.337439 C154.408856,53.7374347 155.283502,52.7374274 155.283502,51.5374188 L155.283502,51.0974156 L145.105801,51.0974156 Z M140.85184,62.0974952 L174.724501,62.0974952 L174.724501,66.1775248 L140.85184,66.1775248 L140.85184,62.0974952 Z M157.78817,71.9775668 C154.249829,71.9775668 150.830758,73.1375752 150.830758,74.8575876 L150.830758,75.4175917 C150.830758,77.1376041 154.249829,78.2976125 157.78817,78.2976125 C161.326512,78.2976125 164.745583,77.1376041 164.745583,75.4175917 L164.745583,74.8575876 C164.745583,73.1375752 161.326512,71.9775668 157.78817,71.9775668 Z M216.439768,43.977364 L216.439768,57.0174584 L221.528618,57.0174584 L221.528618,61.4174903 L216.439768,61.4174903 L216.439768,81.1776334 L211.390674,81.1776334 L211.390674,43.977364 L216.439768,43.977364 Z M188.967927,71.5375636 L188.967927,47.1773872 L206.063284,47.1773872 L206.063284,51.5374188 L194.01702,51.5374188 L194.01702,67.177532 L196.521689,67.177532 C200.29857,67.177532 204.989854,66.89753 208.726979,66.3775262 L209.283572,70.6975575 C205.546447,71.2975618 200.1793,71.5375636 195.32899,71.5375636 L188.967927,71.5375636 Z M264.476341,43.977364 L264.476341,81.1776334 L259.427247,81.1776334 L259.427247,43.977364 L264.476341,43.977364 Z M240.900651,61.3374897 L240.900651,68.0575384 L244.757046,68.0575384 C248.3749,68.0575384 252.469835,67.8175366 256.167203,67.3375332 L256.723796,71.5775639 C252.986671,72.1375679 248.414657,72.3375694 243.564346,72.3375694 L235.931071,72.3375694 L235.931071,57.2174599 L247.858064,57.2174599 L247.858064,51.1374159 L235.931071,51.1374159 L235.931071,46.8573849 L252.827644,46.8573849 L252.827644,61.3374897 L240.900651,61.3374897 Z" id="층층다리" stroke="#4A4A4A" fill="#FFFFFF"></path>
                <text id="2018-고리전" font-family="NanumSquareOTFR, NanumSquareOTF" font-size="22" font-weight="normal" letter-spacing="6.285714" fill="#FFFFFF">
                    <tspan x="101.81379" y="19">2018 고리</tspan>
                    <tspan x="244.153788" y="19" letter-spacing="6.012422">전</tspan>
                </text>
                <path d="M0.83,45.44 L0.83,36.27 C0.83,29.83 2.23,24.72 11.96,23.25 L11.96,28.5 C8.32,28.99 7.06,31.09 6.99,34.24 L11.96,34.24 L11.96,45.44 L0.83,45.44 Z M15.67,45.44 L15.67,36.27 C15.67,29.83 17.07,24.72 26.8,23.25 L26.8,28.5 C23.16,28.99 21.9,31.09 21.83,34.24 L26.8,34.24 L26.8,45.44 L15.67,45.44 Z" id="“" stroke="#4A4A4A" fill="#FFFFFF"></path>
                <path d="M351.26,25.35 L351.26,33.96 C351.26,40.4 349.72,45.51 340.13,46.98 L340.13,41.73 C343.77,41.24 345.03,39.14 345.1,35.99 L340.13,35.99 L340.13,25.35 L351.26,25.35 Z M366.03,25.35 L366.03,33.96 C366.03,40.4 364.56,45.51 354.9,46.98 L354.9,41.73 C358.54,41.24 359.8,39.14 359.87,35.99 L354.9,35.99 L354.9,25.35 L366.03,25.35 Z" id="”" stroke="#4A4A4A" fill="#FFFFFF"></path>
            </g>
        </g>
    </g>
</svg>